G04 #@! TF.GenerationSoftware,KiCad,Pcbnew,5.1.2-f72e74a~84~ubuntu16.04.1*
G04 #@! TF.CreationDate,2019-08-19T17:24:30+09:00*
G04 #@! TF.ProjectId,MD&SubCPU-ver2.0,4d442653-7562-4435-9055-2d766572322e,rev?*
G04 #@! TF.SameCoordinates,Original*
G04 #@! TF.FileFunction,Legend,Top*
G04 #@! TF.FilePolarity,Positive*
%FSLAX46Y46*%
G04 Gerber Fmt 4.6, Leading zero omitted, Abs format (unit mm)*
G04 Created by KiCad (PCBNEW 5.1.2-f72e74a~84~ubuntu16.04.1) date 2019-08-19 17:24:30*
%MOMM*%
%LPD*%
G04 APERTURE LIST*
%ADD10C,0.150000*%
%ADD11C,0.200000*%
%ADD12C,0.120000*%
G04 APERTURE END LIST*
D10*
X106331380Y-108497714D02*
X107093285Y-108783428D01*
X106331380Y-109069142D01*
X107569476Y-109164380D02*
X107569476Y-108164380D01*
X107902809Y-108878666D01*
X108236142Y-108164380D01*
X108236142Y-109164380D01*
X108855190Y-109164380D02*
X108759952Y-109116761D01*
X108712333Y-109069142D01*
X108664714Y-108973904D01*
X108664714Y-108688190D01*
X108712333Y-108592952D01*
X108759952Y-108545333D01*
X108855190Y-108497714D01*
X108998047Y-108497714D01*
X109093285Y-108545333D01*
X109140904Y-108592952D01*
X109188523Y-108688190D01*
X109188523Y-108973904D01*
X109140904Y-109069142D01*
X109093285Y-109116761D01*
X108998047Y-109164380D01*
X108855190Y-109164380D01*
X109474238Y-108497714D02*
X109855190Y-108497714D01*
X109617095Y-108164380D02*
X109617095Y-109021523D01*
X109664714Y-109116761D01*
X109759952Y-109164380D01*
X109855190Y-109164380D01*
X110331380Y-109164380D02*
X110236142Y-109116761D01*
X110188523Y-109069142D01*
X110140904Y-108973904D01*
X110140904Y-108688190D01*
X110188523Y-108592952D01*
X110236142Y-108545333D01*
X110331380Y-108497714D01*
X110474238Y-108497714D01*
X110569476Y-108545333D01*
X110617095Y-108592952D01*
X110664714Y-108688190D01*
X110664714Y-108973904D01*
X110617095Y-109069142D01*
X110569476Y-109116761D01*
X110474238Y-109164380D01*
X110331380Y-109164380D01*
X111093285Y-109164380D02*
X111093285Y-108497714D01*
X111093285Y-108688190D02*
X111140904Y-108592952D01*
X111188523Y-108545333D01*
X111283761Y-108497714D01*
X111379000Y-108497714D01*
X111712333Y-108783428D02*
X112474238Y-108783428D01*
X113426619Y-109164380D02*
X112950428Y-109164380D01*
X112950428Y-108164380D01*
X113759952Y-108640571D02*
X114093285Y-108640571D01*
X114236142Y-109164380D02*
X113759952Y-109164380D01*
X113759952Y-108164380D01*
X114236142Y-108164380D01*
X114664714Y-109164380D02*
X114664714Y-108164380D01*
X114902809Y-108164380D01*
X115045666Y-108212000D01*
X115140904Y-108307238D01*
X115188523Y-108402476D01*
X115236142Y-108592952D01*
X115236142Y-108735809D01*
X115188523Y-108926285D01*
X115140904Y-109021523D01*
X115045666Y-109116761D01*
X114902809Y-109164380D01*
X114664714Y-109164380D01*
X116426619Y-108497714D02*
X115664714Y-108783428D01*
X116426619Y-109069142D01*
X101247142Y-74913285D02*
X101375714Y-74956142D01*
X101590000Y-74956142D01*
X101675714Y-74913285D01*
X101718571Y-74870428D01*
X101761428Y-74784714D01*
X101761428Y-74699000D01*
X101718571Y-74613285D01*
X101675714Y-74570428D01*
X101590000Y-74527571D01*
X101418571Y-74484714D01*
X101332857Y-74441857D01*
X101290000Y-74399000D01*
X101247142Y-74313285D01*
X101247142Y-74227571D01*
X101290000Y-74141857D01*
X101332857Y-74099000D01*
X101418571Y-74056142D01*
X101632857Y-74056142D01*
X101761428Y-74099000D01*
X102018571Y-74056142D02*
X102532857Y-74056142D01*
X102275714Y-74956142D02*
X102275714Y-74056142D01*
X102832857Y-74956142D02*
X102832857Y-74056142D01*
X103132857Y-74699000D01*
X103432857Y-74056142D01*
X103432857Y-74956142D01*
X103861428Y-74613285D02*
X104547142Y-74613285D01*
X105404285Y-74956142D02*
X104975714Y-74956142D01*
X104975714Y-74056142D01*
X105704285Y-74484714D02*
X106004285Y-74484714D01*
X106132857Y-74956142D02*
X105704285Y-74956142D01*
X105704285Y-74056142D01*
X106132857Y-74056142D01*
X106518571Y-74956142D02*
X106518571Y-74056142D01*
X106732857Y-74056142D01*
X106861428Y-74099000D01*
X106947142Y-74184714D01*
X106990000Y-74270428D01*
X107032857Y-74441857D01*
X107032857Y-74570428D01*
X106990000Y-74741857D01*
X106947142Y-74827571D01*
X106861428Y-74913285D01*
X106732857Y-74956142D01*
X106518571Y-74956142D01*
X101721714Y-81052142D02*
X101421714Y-80623571D01*
X101207428Y-81052142D02*
X101207428Y-80152142D01*
X101550285Y-80152142D01*
X101636000Y-80195000D01*
X101678857Y-80237857D01*
X101721714Y-80323571D01*
X101721714Y-80452142D01*
X101678857Y-80537857D01*
X101636000Y-80580714D01*
X101550285Y-80623571D01*
X101207428Y-80623571D01*
X102107428Y-81052142D02*
X102107428Y-80152142D01*
X102450285Y-80152142D01*
X102536000Y-80195000D01*
X102578857Y-80237857D01*
X102621714Y-80323571D01*
X102621714Y-80452142D01*
X102578857Y-80537857D01*
X102536000Y-80580714D01*
X102450285Y-80623571D01*
X102107428Y-80623571D01*
X103007428Y-81052142D02*
X103007428Y-80452142D01*
X103007428Y-80152142D02*
X102964571Y-80195000D01*
X103007428Y-80237857D01*
X103050285Y-80195000D01*
X103007428Y-80152142D01*
X103007428Y-80237857D01*
X103436000Y-80709285D02*
X104121714Y-80709285D01*
X104978857Y-81052142D02*
X104550285Y-81052142D01*
X104550285Y-80152142D01*
X105278857Y-80580714D02*
X105578857Y-80580714D01*
X105707428Y-81052142D02*
X105278857Y-81052142D01*
X105278857Y-80152142D01*
X105707428Y-80152142D01*
X106093142Y-81052142D02*
X106093142Y-80152142D01*
X106307428Y-80152142D01*
X106436000Y-80195000D01*
X106521714Y-80280714D01*
X106564571Y-80366428D01*
X106607428Y-80537857D01*
X106607428Y-80666428D01*
X106564571Y-80837857D01*
X106521714Y-80923571D01*
X106436000Y-81009285D01*
X106307428Y-81052142D01*
X106093142Y-81052142D01*
D11*
X80114714Y-87207428D02*
X80171857Y-87036000D01*
X80171857Y-86750285D01*
X80114714Y-86636000D01*
X80057571Y-86578857D01*
X79943285Y-86521714D01*
X79829000Y-86521714D01*
X79714714Y-86578857D01*
X79657571Y-86636000D01*
X79600428Y-86750285D01*
X79543285Y-86978857D01*
X79486142Y-87093142D01*
X79429000Y-87150285D01*
X79314714Y-87207428D01*
X79200428Y-87207428D01*
X79086142Y-87150285D01*
X79029000Y-87093142D01*
X78971857Y-86978857D01*
X78971857Y-86693142D01*
X79029000Y-86521714D01*
X80114714Y-85550285D02*
X80171857Y-85664571D01*
X80171857Y-85893142D01*
X80114714Y-86007428D01*
X80000428Y-86064571D01*
X79543285Y-86064571D01*
X79429000Y-86007428D01*
X79371857Y-85893142D01*
X79371857Y-85664571D01*
X79429000Y-85550285D01*
X79543285Y-85493142D01*
X79657571Y-85493142D01*
X79771857Y-86064571D01*
X80171857Y-84978857D02*
X79371857Y-84978857D01*
X79600428Y-84978857D02*
X79486142Y-84921714D01*
X79429000Y-84864571D01*
X79371857Y-84750285D01*
X79371857Y-84636000D01*
X80171857Y-84236000D02*
X79371857Y-84236000D01*
X78971857Y-84236000D02*
X79029000Y-84293142D01*
X79086142Y-84236000D01*
X79029000Y-84178857D01*
X78971857Y-84236000D01*
X79086142Y-84236000D01*
X80171857Y-83150285D02*
X79543285Y-83150285D01*
X79429000Y-83207428D01*
X79371857Y-83321714D01*
X79371857Y-83550285D01*
X79429000Y-83664571D01*
X80114714Y-83150285D02*
X80171857Y-83264571D01*
X80171857Y-83550285D01*
X80114714Y-83664571D01*
X80000428Y-83721714D01*
X79886142Y-83721714D01*
X79771857Y-83664571D01*
X79714714Y-83550285D01*
X79714714Y-83264571D01*
X79657571Y-83150285D01*
X80171857Y-82407428D02*
X80114714Y-82521714D01*
X80000428Y-82578857D01*
X78971857Y-82578857D01*
D10*
X94361000Y-125857000D02*
X94361000Y-134112000D01*
D12*
X101266000Y-93933000D02*
X101266000Y-88693000D01*
X106506000Y-93933000D02*
X106506000Y-88693000D01*
X101266000Y-93933000D02*
X102996000Y-93933000D01*
X104776000Y-93933000D02*
X106506000Y-93933000D01*
X101266000Y-88693000D02*
X101847000Y-88693000D01*
X103626000Y-88693000D02*
X104146000Y-88693000D01*
X105926000Y-88693000D02*
X106506000Y-88693000D01*
X121458300Y-116238300D02*
X122058300Y-115938300D01*
X121458300Y-115638300D02*
X121458300Y-116238300D01*
X122058300Y-115938300D02*
X121458300Y-115638300D01*
X125148300Y-131258300D02*
X125148300Y-130938300D01*
X128568300Y-131258300D02*
X125148300Y-131258300D01*
X128648300Y-130938300D02*
X128568300Y-131258300D01*
X128568300Y-130618300D02*
X128648300Y-130938300D01*
X125148300Y-130618300D02*
X128568300Y-130618300D01*
X125148300Y-130938300D02*
X125148300Y-130618300D01*
X124148300Y-129608300D02*
X124148300Y-129768300D01*
X125148300Y-128758300D02*
X125148300Y-128438300D01*
X128568300Y-128758300D02*
X125148300Y-128758300D01*
X128648300Y-128438300D02*
X128568300Y-128758300D01*
X128568300Y-128118300D02*
X128648300Y-128438300D01*
X125148300Y-128118300D02*
X128568300Y-128118300D01*
X125148300Y-128438300D02*
X125148300Y-128118300D01*
X124148300Y-127108300D02*
X124148300Y-127268300D01*
X125148300Y-126258300D02*
X125148300Y-125938300D01*
X128568300Y-126258300D02*
X125148300Y-126258300D01*
X128648300Y-125938300D02*
X128568300Y-126258300D01*
X128568300Y-125618300D02*
X128648300Y-125938300D01*
X125148300Y-125618300D02*
X128568300Y-125618300D01*
X125148300Y-125938300D02*
X125148300Y-125618300D01*
X124148300Y-124608300D02*
X124148300Y-124768300D01*
X125148300Y-123758300D02*
X125148300Y-123438300D01*
X128568300Y-123758300D02*
X125148300Y-123758300D01*
X128648300Y-123438300D02*
X128568300Y-123758300D01*
X128568300Y-123118300D02*
X128648300Y-123438300D01*
X125148300Y-123118300D02*
X128568300Y-123118300D01*
X125148300Y-123438300D02*
X125148300Y-123118300D01*
X124148300Y-122108300D02*
X124148300Y-122268300D01*
X125148300Y-121258300D02*
X125148300Y-120938300D01*
X128568300Y-121258300D02*
X125148300Y-121258300D01*
X128648300Y-120938300D02*
X128568300Y-121258300D01*
X128568300Y-120618300D02*
X128648300Y-120938300D01*
X125148300Y-120618300D02*
X128568300Y-120618300D01*
X125148300Y-120938300D02*
X125148300Y-120618300D01*
X124148300Y-119608300D02*
X124148300Y-119768300D01*
X125148300Y-118758300D02*
X125148300Y-118438300D01*
X128568300Y-118758300D02*
X125148300Y-118758300D01*
X128648300Y-118438300D02*
X128568300Y-118758300D01*
X128568300Y-118118300D02*
X128648300Y-118438300D01*
X125148300Y-118118300D02*
X128568300Y-118118300D01*
X125148300Y-118438300D02*
X125148300Y-118118300D01*
X124148300Y-117108300D02*
X124148300Y-117268300D01*
X125148300Y-116258300D02*
X125148300Y-115938300D01*
X128568300Y-116258300D02*
X125148300Y-116258300D01*
X128648300Y-115938300D02*
X128568300Y-116258300D01*
X128568300Y-115618300D02*
X128648300Y-115938300D01*
X125148300Y-115618300D02*
X128568300Y-115618300D01*
X125148300Y-115938300D02*
X125148300Y-115618300D01*
X125148300Y-114548300D02*
X125148300Y-132328300D01*
X124148300Y-132328300D02*
X124148300Y-133548300D01*
X129148300Y-132328300D02*
X124148300Y-132328300D01*
X129148300Y-133548300D02*
X129148300Y-132328300D01*
X124148300Y-114548300D02*
X124148300Y-113328300D01*
X129148300Y-114548300D02*
X124148300Y-114548300D01*
X129148300Y-113328300D02*
X129148300Y-114548300D01*
X121948300Y-132328300D02*
X124148300Y-132328300D01*
X121948300Y-133548300D02*
X121948300Y-132328300D01*
X130368300Y-133548300D02*
X121948300Y-133548300D01*
X130368300Y-113328300D02*
X130368300Y-133548300D01*
X121948300Y-113328300D02*
X130368300Y-113328300D01*
X121948300Y-114548300D02*
X121948300Y-113328300D01*
X124148300Y-114548300D02*
X121948300Y-114548300D01*
X121458300Y-105887800D02*
X122058300Y-105587800D01*
X121458300Y-105287800D02*
X121458300Y-105887800D01*
X122058300Y-105587800D02*
X121458300Y-105287800D01*
X125148300Y-110907800D02*
X125148300Y-110587800D01*
X128568300Y-110907800D02*
X125148300Y-110907800D01*
X128648300Y-110587800D02*
X128568300Y-110907800D01*
X128568300Y-110267800D02*
X128648300Y-110587800D01*
X125148300Y-110267800D02*
X128568300Y-110267800D01*
X125148300Y-110587800D02*
X125148300Y-110267800D01*
X124148300Y-109257800D02*
X124148300Y-109417800D01*
X125148300Y-108407800D02*
X125148300Y-108087800D01*
X128568300Y-108407800D02*
X125148300Y-108407800D01*
X128648300Y-108087800D02*
X128568300Y-108407800D01*
X128568300Y-107767800D02*
X128648300Y-108087800D01*
X125148300Y-107767800D02*
X128568300Y-107767800D01*
X125148300Y-108087800D02*
X125148300Y-107767800D01*
X124148300Y-106757800D02*
X124148300Y-106917800D01*
X125148300Y-105907800D02*
X125148300Y-105587800D01*
X128568300Y-105907800D02*
X125148300Y-105907800D01*
X128648300Y-105587800D02*
X128568300Y-105907800D01*
X128568300Y-105267800D02*
X128648300Y-105587800D01*
X125148300Y-105267800D02*
X128568300Y-105267800D01*
X125148300Y-105587800D02*
X125148300Y-105267800D01*
X125148300Y-104197800D02*
X125148300Y-111977800D01*
X124148300Y-111977800D02*
X124148300Y-113197800D01*
X129148300Y-111977800D02*
X124148300Y-111977800D01*
X129148300Y-113197800D02*
X129148300Y-111977800D01*
X124148300Y-104197800D02*
X124148300Y-102977800D01*
X129148300Y-104197800D02*
X124148300Y-104197800D01*
X129148300Y-102977800D02*
X129148300Y-104197800D01*
X121948300Y-111977800D02*
X124148300Y-111977800D01*
X121948300Y-113197800D02*
X121948300Y-111977800D01*
X130368300Y-113197800D02*
X121948300Y-113197800D01*
X130368300Y-102977800D02*
X130368300Y-113197800D01*
X121948300Y-102977800D02*
X130368300Y-102977800D01*
X121948300Y-104197800D02*
X121948300Y-102977800D01*
X124148300Y-104197800D02*
X121948300Y-104197800D01*
X121458300Y-98140800D02*
X122058300Y-97840800D01*
X121458300Y-97540800D02*
X121458300Y-98140800D01*
X122058300Y-97840800D02*
X121458300Y-97540800D01*
X125148300Y-100660800D02*
X125148300Y-100340800D01*
X128568300Y-100660800D02*
X125148300Y-100660800D01*
X128648300Y-100340800D02*
X128568300Y-100660800D01*
X128568300Y-100020800D02*
X128648300Y-100340800D01*
X125148300Y-100020800D02*
X128568300Y-100020800D01*
X125148300Y-100340800D02*
X125148300Y-100020800D01*
X124148300Y-99010800D02*
X124148300Y-99170800D01*
X125148300Y-98160800D02*
X125148300Y-97840800D01*
X128568300Y-98160800D02*
X125148300Y-98160800D01*
X128648300Y-97840800D02*
X128568300Y-98160800D01*
X128568300Y-97520800D02*
X128648300Y-97840800D01*
X125148300Y-97520800D02*
X128568300Y-97520800D01*
X125148300Y-97840800D02*
X125148300Y-97520800D01*
X125148300Y-96450800D02*
X125148300Y-101730800D01*
X124148300Y-101730800D02*
X124148300Y-102950800D01*
X129148300Y-101730800D02*
X124148300Y-101730800D01*
X129148300Y-102950800D02*
X129148300Y-101730800D01*
X124148300Y-96450800D02*
X124148300Y-95230800D01*
X129148300Y-96450800D02*
X124148300Y-96450800D01*
X129148300Y-95230800D02*
X129148300Y-96450800D01*
X121948300Y-101730800D02*
X124148300Y-101730800D01*
X121948300Y-102950800D02*
X121948300Y-101730800D01*
X130368300Y-102950800D02*
X121948300Y-102950800D01*
X130368300Y-95230800D02*
X130368300Y-102950800D01*
X121948300Y-95230800D02*
X130368300Y-95230800D01*
X121948300Y-96450800D02*
X121948300Y-95230800D01*
X124148300Y-96450800D02*
X121948300Y-96450800D01*
X121471000Y-77833500D02*
X122071000Y-77533500D01*
X121471000Y-77233500D02*
X121471000Y-77833500D01*
X122071000Y-77533500D02*
X121471000Y-77233500D01*
X125161000Y-92853500D02*
X125161000Y-92533500D01*
X128581000Y-92853500D02*
X125161000Y-92853500D01*
X128661000Y-92533500D02*
X128581000Y-92853500D01*
X128581000Y-92213500D02*
X128661000Y-92533500D01*
X125161000Y-92213500D02*
X128581000Y-92213500D01*
X125161000Y-92533500D02*
X125161000Y-92213500D01*
X124161000Y-91203500D02*
X124161000Y-91363500D01*
X125161000Y-90353500D02*
X125161000Y-90033500D01*
X128581000Y-90353500D02*
X125161000Y-90353500D01*
X128661000Y-90033500D02*
X128581000Y-90353500D01*
X128581000Y-89713500D02*
X128661000Y-90033500D01*
X125161000Y-89713500D02*
X128581000Y-89713500D01*
X125161000Y-90033500D02*
X125161000Y-89713500D01*
X124161000Y-88703500D02*
X124161000Y-88863500D01*
X125161000Y-87853500D02*
X125161000Y-87533500D01*
X128581000Y-87853500D02*
X125161000Y-87853500D01*
X128661000Y-87533500D02*
X128581000Y-87853500D01*
X128581000Y-87213500D02*
X128661000Y-87533500D01*
X125161000Y-87213500D02*
X128581000Y-87213500D01*
X125161000Y-87533500D02*
X125161000Y-87213500D01*
X124161000Y-86203500D02*
X124161000Y-86363500D01*
X125161000Y-85353500D02*
X125161000Y-85033500D01*
X128581000Y-85353500D02*
X125161000Y-85353500D01*
X128661000Y-85033500D02*
X128581000Y-85353500D01*
X128581000Y-84713500D02*
X128661000Y-85033500D01*
X125161000Y-84713500D02*
X128581000Y-84713500D01*
X125161000Y-85033500D02*
X125161000Y-84713500D01*
X124161000Y-83703500D02*
X124161000Y-83863500D01*
X125161000Y-82853500D02*
X125161000Y-82533500D01*
X128581000Y-82853500D02*
X125161000Y-82853500D01*
X128661000Y-82533500D02*
X128581000Y-82853500D01*
X128581000Y-82213500D02*
X128661000Y-82533500D01*
X125161000Y-82213500D02*
X128581000Y-82213500D01*
X125161000Y-82533500D02*
X125161000Y-82213500D01*
X124161000Y-81203500D02*
X124161000Y-81363500D01*
X125161000Y-80353500D02*
X125161000Y-80033500D01*
X128581000Y-80353500D02*
X125161000Y-80353500D01*
X128661000Y-80033500D02*
X128581000Y-80353500D01*
X128581000Y-79713500D02*
X128661000Y-80033500D01*
X125161000Y-79713500D02*
X128581000Y-79713500D01*
X125161000Y-80033500D02*
X125161000Y-79713500D01*
X124161000Y-78703500D02*
X124161000Y-78863500D01*
X125161000Y-77853500D02*
X125161000Y-77533500D01*
X128581000Y-77853500D02*
X125161000Y-77853500D01*
X128661000Y-77533500D02*
X128581000Y-77853500D01*
X128581000Y-77213500D02*
X128661000Y-77533500D01*
X125161000Y-77213500D02*
X128581000Y-77213500D01*
X125161000Y-77533500D02*
X125161000Y-77213500D01*
X125161000Y-76143500D02*
X125161000Y-93923500D01*
X124161000Y-93923500D02*
X124161000Y-95143500D01*
X129161000Y-93923500D02*
X124161000Y-93923500D01*
X129161000Y-95143500D02*
X129161000Y-93923500D01*
X124161000Y-76143500D02*
X124161000Y-74923500D01*
X129161000Y-76143500D02*
X124161000Y-76143500D01*
X129161000Y-74923500D02*
X129161000Y-76143500D01*
X121961000Y-93923500D02*
X124161000Y-93923500D01*
X121961000Y-95143500D02*
X121961000Y-93923500D01*
X130381000Y-95143500D02*
X121961000Y-95143500D01*
X130381000Y-74923500D02*
X130381000Y-95143500D01*
X121961000Y-74923500D02*
X130381000Y-74923500D01*
X121961000Y-76143500D02*
X121961000Y-74923500D01*
X124161000Y-76143500D02*
X121961000Y-76143500D01*
X121458300Y-70023000D02*
X122058300Y-69723000D01*
X121458300Y-69423000D02*
X121458300Y-70023000D01*
X122058300Y-69723000D02*
X121458300Y-69423000D01*
X125148300Y-72543000D02*
X125148300Y-72223000D01*
X128568300Y-72543000D02*
X125148300Y-72543000D01*
X128648300Y-72223000D02*
X128568300Y-72543000D01*
X128568300Y-71903000D02*
X128648300Y-72223000D01*
X125148300Y-71903000D02*
X128568300Y-71903000D01*
X125148300Y-72223000D02*
X125148300Y-71903000D01*
X124148300Y-70893000D02*
X124148300Y-71053000D01*
X125148300Y-70043000D02*
X125148300Y-69723000D01*
X128568300Y-70043000D02*
X125148300Y-70043000D01*
X128648300Y-69723000D02*
X128568300Y-70043000D01*
X128568300Y-69403000D02*
X128648300Y-69723000D01*
X125148300Y-69403000D02*
X128568300Y-69403000D01*
X125148300Y-69723000D02*
X125148300Y-69403000D01*
X125148300Y-68333000D02*
X125148300Y-73613000D01*
X124148300Y-73613000D02*
X124148300Y-74833000D01*
X129148300Y-73613000D02*
X124148300Y-73613000D01*
X129148300Y-74833000D02*
X129148300Y-73613000D01*
X124148300Y-68333000D02*
X124148300Y-67113000D01*
X129148300Y-68333000D02*
X124148300Y-68333000D01*
X129148300Y-67113000D02*
X129148300Y-68333000D01*
X121948300Y-73613000D02*
X124148300Y-73613000D01*
X121948300Y-74833000D02*
X121948300Y-73613000D01*
X130368300Y-74833000D02*
X121948300Y-74833000D01*
X130368300Y-67113000D02*
X130368300Y-74833000D01*
X121948300Y-67113000D02*
X130368300Y-67113000D01*
X121948300Y-68333000D02*
X121948300Y-67113000D01*
X124148300Y-68333000D02*
X121948300Y-68333000D01*
D10*
X56388000Y-89408000D02*
X76888000Y-89408000D01*
X56388000Y-89408000D02*
X56388000Y-103708000D01*
X56388000Y-103708000D02*
X76888000Y-103708000D01*
X76888000Y-89408000D02*
X76888000Y-103708000D01*
X91117000Y-94684000D02*
X91342000Y-94684000D01*
X91117000Y-87434000D02*
X91417000Y-87434000D01*
X98367000Y-87434000D02*
X98067000Y-87434000D01*
X98367000Y-94684000D02*
X98067000Y-94684000D01*
X91117000Y-94684000D02*
X91117000Y-94384000D01*
X98367000Y-94684000D02*
X98367000Y-94384000D01*
X98367000Y-87434000D02*
X98367000Y-87734000D01*
X91117000Y-87434000D02*
X91117000Y-87734000D01*
X91342000Y-94684000D02*
X91342000Y-95909000D01*
D12*
X68670500Y-133191000D02*
X71410500Y-133191000D01*
X71410500Y-133191000D02*
X71410500Y-126651000D01*
X71410500Y-126651000D02*
X68670500Y-126651000D01*
X68670500Y-126651000D02*
X68670500Y-133191000D01*
X70040500Y-133961000D02*
X70040500Y-133191000D01*
X70040500Y-125881000D02*
X70040500Y-126651000D01*
X89660252Y-96699000D02*
X89137748Y-96699000D01*
X89660252Y-98119000D02*
X89137748Y-98119000D01*
X98350000Y-83963252D02*
X98350000Y-83440748D01*
X99770000Y-83963252D02*
X99770000Y-83440748D01*
X56446000Y-106611000D02*
X56446000Y-109361000D01*
X56446000Y-115131000D02*
X56446000Y-112381000D01*
X63901563Y-115131000D02*
X56446000Y-115131000D01*
X63901563Y-106611000D02*
X56446000Y-106611000D01*
X64966000Y-107675437D02*
X64966000Y-109361000D01*
X64966000Y-114066563D02*
X64966000Y-112381000D01*
X64966000Y-114066563D02*
X63901563Y-115131000D01*
X64966000Y-107675437D02*
X63901563Y-106611000D01*
X66206000Y-113381000D02*
X65206000Y-113381000D01*
X65706000Y-113881000D02*
X65706000Y-112881000D01*
X73989000Y-76706252D02*
X73989000Y-76183748D01*
X72569000Y-76706252D02*
X72569000Y-76183748D01*
X69394000Y-114307252D02*
X69394000Y-113784748D01*
X70814000Y-114307252D02*
X70814000Y-113784748D01*
X103684000Y-99043748D02*
X103684000Y-99566252D01*
X105104000Y-99043748D02*
X105104000Y-99566252D01*
X59361000Y-76573748D02*
X59361000Y-77096252D01*
X60781000Y-76573748D02*
X60781000Y-77096252D01*
X59003000Y-76564748D02*
X59003000Y-77087252D01*
X57583000Y-76564748D02*
X57583000Y-77087252D01*
X94309000Y-76074748D02*
X94309000Y-76597252D01*
X92889000Y-76074748D02*
X92889000Y-76597252D01*
X66510000Y-124488000D02*
X65510000Y-124488000D01*
X66010000Y-123988000D02*
X66010000Y-124988000D01*
X60304437Y-125228000D02*
X59240000Y-126292437D01*
X66695563Y-125228000D02*
X67760000Y-126292437D01*
X66695563Y-125228000D02*
X65010000Y-125228000D01*
X60304437Y-125228000D02*
X61990000Y-125228000D01*
X59240000Y-126292437D02*
X59240000Y-133748000D01*
X67760000Y-126292437D02*
X67760000Y-133748000D01*
X67760000Y-133748000D02*
X65010000Y-133748000D01*
X59240000Y-133748000D02*
X61990000Y-133748000D01*
X103640000Y-108726500D02*
X103640000Y-112786500D01*
X103640000Y-112786500D02*
X105910000Y-112786500D01*
X105910000Y-112786500D02*
X105910000Y-108726500D01*
X119118000Y-111926500D02*
X119118000Y-107866500D01*
X119118000Y-107866500D02*
X116848000Y-107866500D01*
X116848000Y-107866500D02*
X116848000Y-111926500D01*
X102886500Y-77569000D02*
X106946500Y-77569000D01*
X106946500Y-77569000D02*
X106946500Y-75299000D01*
X106946500Y-75299000D02*
X102886500Y-75299000D01*
X106944500Y-77605000D02*
X102884500Y-77605000D01*
X106944500Y-79875000D02*
X106944500Y-77605000D01*
X102884500Y-79875000D02*
X106944500Y-79875000D01*
X75938000Y-86815000D02*
X75938000Y-82755000D01*
X73668000Y-86815000D02*
X75938000Y-86815000D01*
X73668000Y-82755000D02*
X73668000Y-86815000D01*
X69844000Y-82757000D02*
X69844000Y-86817000D01*
X69844000Y-86817000D02*
X72114000Y-86817000D01*
X72114000Y-86817000D02*
X72114000Y-82757000D01*
X66041000Y-82726500D02*
X66041000Y-86786500D01*
X66041000Y-86786500D02*
X68311000Y-86786500D01*
X68311000Y-86786500D02*
X68311000Y-82726500D01*
X64508000Y-86788000D02*
X64508000Y-82728000D01*
X62238000Y-86788000D02*
X64508000Y-86788000D01*
X62238000Y-82728000D02*
X62238000Y-86788000D01*
X82942000Y-82411500D02*
X82942000Y-86471500D01*
X85212000Y-82411500D02*
X82942000Y-82411500D01*
X85212000Y-86471500D02*
X85212000Y-82411500D01*
X80780000Y-82412500D02*
X80780000Y-86472500D01*
X83050000Y-82412500D02*
X80780000Y-82412500D01*
X83050000Y-86472500D02*
X83050000Y-82412500D01*
X72644000Y-125881000D02*
X72644000Y-126651000D01*
X72644000Y-133961000D02*
X72644000Y-133191000D01*
X71274000Y-126651000D02*
X71274000Y-133191000D01*
X74014000Y-126651000D02*
X71274000Y-126651000D01*
X74014000Y-133191000D02*
X74014000Y-126651000D01*
X71274000Y-133191000D02*
X74014000Y-133191000D01*
X51416500Y-114864500D02*
X53616500Y-114864500D01*
X53616500Y-114864500D02*
X53616500Y-116084500D01*
X53616500Y-116084500D02*
X45196500Y-116084500D01*
X45196500Y-116084500D02*
X45196500Y-103364500D01*
X45196500Y-103364500D02*
X53616500Y-103364500D01*
X53616500Y-103364500D02*
X53616500Y-104584500D01*
X53616500Y-104584500D02*
X51416500Y-104584500D01*
X46416500Y-116084500D02*
X46416500Y-114864500D01*
X46416500Y-114864500D02*
X51416500Y-114864500D01*
X51416500Y-114864500D02*
X51416500Y-116084500D01*
X46416500Y-103364500D02*
X46416500Y-104584500D01*
X46416500Y-104584500D02*
X51416500Y-104584500D01*
X51416500Y-104584500D02*
X51416500Y-103364500D01*
X50416500Y-114864500D02*
X50416500Y-104584500D01*
X50416500Y-113474500D02*
X50416500Y-113794500D01*
X50416500Y-113794500D02*
X46996500Y-113794500D01*
X46996500Y-113794500D02*
X46916500Y-113474500D01*
X46916500Y-113474500D02*
X46996500Y-113154500D01*
X46996500Y-113154500D02*
X50416500Y-113154500D01*
X50416500Y-113154500D02*
X50416500Y-113474500D01*
X51416500Y-112304500D02*
X51416500Y-112144500D01*
X50416500Y-110974500D02*
X50416500Y-111294500D01*
X50416500Y-111294500D02*
X46996500Y-111294500D01*
X46996500Y-111294500D02*
X46916500Y-110974500D01*
X46916500Y-110974500D02*
X46996500Y-110654500D01*
X46996500Y-110654500D02*
X50416500Y-110654500D01*
X50416500Y-110654500D02*
X50416500Y-110974500D01*
X51416500Y-109804500D02*
X51416500Y-109644500D01*
X50416500Y-108474500D02*
X50416500Y-108794500D01*
X50416500Y-108794500D02*
X46996500Y-108794500D01*
X46996500Y-108794500D02*
X46916500Y-108474500D01*
X46916500Y-108474500D02*
X46996500Y-108154500D01*
X46996500Y-108154500D02*
X50416500Y-108154500D01*
X50416500Y-108154500D02*
X50416500Y-108474500D01*
X51416500Y-107304500D02*
X51416500Y-107144500D01*
X50416500Y-105974500D02*
X50416500Y-106294500D01*
X50416500Y-106294500D02*
X46996500Y-106294500D01*
X46996500Y-106294500D02*
X46916500Y-105974500D01*
X46916500Y-105974500D02*
X46996500Y-105654500D01*
X46996500Y-105654500D02*
X50416500Y-105654500D01*
X50416500Y-105654500D02*
X50416500Y-105974500D01*
X53506500Y-113474500D02*
X54106500Y-113774500D01*
X54106500Y-113774500D02*
X54106500Y-113174500D01*
X54106500Y-113174500D02*
X53506500Y-113474500D01*
X54106500Y-120985000D02*
X53506500Y-121285000D01*
X54106500Y-121585000D02*
X54106500Y-120985000D01*
X53506500Y-121285000D02*
X54106500Y-121585000D01*
X50416500Y-118465000D02*
X50416500Y-118785000D01*
X46996500Y-118465000D02*
X50416500Y-118465000D01*
X46916500Y-118785000D02*
X46996500Y-118465000D01*
X46996500Y-119105000D02*
X46916500Y-118785000D01*
X50416500Y-119105000D02*
X46996500Y-119105000D01*
X50416500Y-118785000D02*
X50416500Y-119105000D01*
X51416500Y-120115000D02*
X51416500Y-119955000D01*
X50416500Y-120965000D02*
X50416500Y-121285000D01*
X46996500Y-120965000D02*
X50416500Y-120965000D01*
X46916500Y-121285000D02*
X46996500Y-120965000D01*
X46996500Y-121605000D02*
X46916500Y-121285000D01*
X50416500Y-121605000D02*
X46996500Y-121605000D01*
X50416500Y-121285000D02*
X50416500Y-121605000D01*
X50416500Y-122675000D02*
X50416500Y-117395000D01*
X51416500Y-117395000D02*
X51416500Y-116175000D01*
X46416500Y-117395000D02*
X51416500Y-117395000D01*
X46416500Y-116175000D02*
X46416500Y-117395000D01*
X51416500Y-122675000D02*
X51416500Y-123895000D01*
X46416500Y-122675000D02*
X51416500Y-122675000D01*
X46416500Y-123895000D02*
X46416500Y-122675000D01*
X53616500Y-117395000D02*
X51416500Y-117395000D01*
X53616500Y-116175000D02*
X53616500Y-117395000D01*
X45196500Y-116175000D02*
X53616500Y-116175000D01*
X45196500Y-123895000D02*
X45196500Y-116175000D01*
X53616500Y-123895000D02*
X45196500Y-123895000D01*
X53616500Y-122675000D02*
X53616500Y-123895000D01*
X51416500Y-122675000D02*
X53616500Y-122675000D01*
X51416500Y-81336500D02*
X53616500Y-81336500D01*
X53616500Y-81336500D02*
X53616500Y-82556500D01*
X53616500Y-82556500D02*
X45196500Y-82556500D01*
X45196500Y-82556500D02*
X45196500Y-74836500D01*
X45196500Y-74836500D02*
X53616500Y-74836500D01*
X53616500Y-74836500D02*
X53616500Y-76056500D01*
X53616500Y-76056500D02*
X51416500Y-76056500D01*
X46416500Y-82556500D02*
X46416500Y-81336500D01*
X46416500Y-81336500D02*
X51416500Y-81336500D01*
X51416500Y-81336500D02*
X51416500Y-82556500D01*
X46416500Y-74836500D02*
X46416500Y-76056500D01*
X46416500Y-76056500D02*
X51416500Y-76056500D01*
X51416500Y-76056500D02*
X51416500Y-74836500D01*
X50416500Y-81336500D02*
X50416500Y-76056500D01*
X50416500Y-79946500D02*
X50416500Y-80266500D01*
X50416500Y-80266500D02*
X46996500Y-80266500D01*
X46996500Y-80266500D02*
X46916500Y-79946500D01*
X46916500Y-79946500D02*
X46996500Y-79626500D01*
X46996500Y-79626500D02*
X50416500Y-79626500D01*
X50416500Y-79626500D02*
X50416500Y-79946500D01*
X51416500Y-78776500D02*
X51416500Y-78616500D01*
X50416500Y-77446500D02*
X50416500Y-77766500D01*
X50416500Y-77766500D02*
X46996500Y-77766500D01*
X46996500Y-77766500D02*
X46916500Y-77446500D01*
X46916500Y-77446500D02*
X46996500Y-77126500D01*
X46996500Y-77126500D02*
X50416500Y-77126500D01*
X50416500Y-77126500D02*
X50416500Y-77446500D01*
X53506500Y-79946500D02*
X54106500Y-80246500D01*
X54106500Y-80246500D02*
X54106500Y-79646500D01*
X54106500Y-79646500D02*
X53506500Y-79946500D01*
X54106500Y-87520500D02*
X53506500Y-87820500D01*
X54106500Y-88120500D02*
X54106500Y-87520500D01*
X53506500Y-87820500D02*
X54106500Y-88120500D01*
X50416500Y-85000500D02*
X50416500Y-85320500D01*
X46996500Y-85000500D02*
X50416500Y-85000500D01*
X46916500Y-85320500D02*
X46996500Y-85000500D01*
X46996500Y-85640500D02*
X46916500Y-85320500D01*
X50416500Y-85640500D02*
X46996500Y-85640500D01*
X50416500Y-85320500D02*
X50416500Y-85640500D01*
X51416500Y-86650500D02*
X51416500Y-86490500D01*
X50416500Y-87500500D02*
X50416500Y-87820500D01*
X46996500Y-87500500D02*
X50416500Y-87500500D01*
X46916500Y-87820500D02*
X46996500Y-87500500D01*
X46996500Y-88140500D02*
X46916500Y-87820500D01*
X50416500Y-88140500D02*
X46996500Y-88140500D01*
X50416500Y-87820500D02*
X50416500Y-88140500D01*
X50416500Y-89210500D02*
X50416500Y-83930500D01*
X51416500Y-83930500D02*
X51416500Y-82710500D01*
X46416500Y-83930500D02*
X51416500Y-83930500D01*
X46416500Y-82710500D02*
X46416500Y-83930500D01*
X51416500Y-89210500D02*
X51416500Y-90430500D01*
X46416500Y-89210500D02*
X51416500Y-89210500D01*
X46416500Y-90430500D02*
X46416500Y-89210500D01*
X53616500Y-83930500D02*
X51416500Y-83930500D01*
X53616500Y-82710500D02*
X53616500Y-83930500D01*
X45196500Y-82710500D02*
X53616500Y-82710500D01*
X45196500Y-90430500D02*
X45196500Y-82710500D01*
X53616500Y-90430500D02*
X45196500Y-90430500D01*
X53616500Y-89210500D02*
X53616500Y-90430500D01*
X51416500Y-89210500D02*
X53616500Y-89210500D01*
X54106500Y-71859500D02*
X53506500Y-72159500D01*
X54106500Y-72459500D02*
X54106500Y-71859500D01*
X53506500Y-72159500D02*
X54106500Y-72459500D01*
X50416500Y-69339500D02*
X50416500Y-69659500D01*
X46996500Y-69339500D02*
X50416500Y-69339500D01*
X46916500Y-69659500D02*
X46996500Y-69339500D01*
X46996500Y-69979500D02*
X46916500Y-69659500D01*
X50416500Y-69979500D02*
X46996500Y-69979500D01*
X50416500Y-69659500D02*
X50416500Y-69979500D01*
X51416500Y-70989500D02*
X51416500Y-70829500D01*
X50416500Y-71839500D02*
X50416500Y-72159500D01*
X46996500Y-71839500D02*
X50416500Y-71839500D01*
X46916500Y-72159500D02*
X46996500Y-71839500D01*
X46996500Y-72479500D02*
X46916500Y-72159500D01*
X50416500Y-72479500D02*
X46996500Y-72479500D01*
X50416500Y-72159500D02*
X50416500Y-72479500D01*
X50416500Y-73549500D02*
X50416500Y-68269500D01*
X51416500Y-68269500D02*
X51416500Y-67049500D01*
X46416500Y-68269500D02*
X51416500Y-68269500D01*
X46416500Y-67049500D02*
X46416500Y-68269500D01*
X51416500Y-73549500D02*
X51416500Y-74769500D01*
X46416500Y-73549500D02*
X51416500Y-73549500D01*
X46416500Y-74769500D02*
X46416500Y-73549500D01*
X53616500Y-68269500D02*
X51416500Y-68269500D01*
X53616500Y-67049500D02*
X53616500Y-68269500D01*
X45196500Y-67049500D02*
X53616500Y-67049500D01*
X45196500Y-74769500D02*
X45196500Y-67049500D01*
X53616500Y-74769500D02*
X45196500Y-74769500D01*
X53616500Y-73549500D02*
X53616500Y-74769500D01*
X51416500Y-73549500D02*
X53616500Y-73549500D01*
X119427000Y-82677000D02*
G75*
G03X119427000Y-82677000I-6230000J0D01*
G01*
X106797000Y-84176999D02*
G75*
G02X106797000Y-81177000I6400000J1499999D01*
G01*
X71353000Y-118640000D02*
X71353000Y-120140000D01*
X71353000Y-120140000D02*
X71623000Y-120140000D01*
X71623000Y-120140000D02*
X71623000Y-122970000D01*
X78253000Y-118640000D02*
X78253000Y-120140000D01*
X78253000Y-120140000D02*
X77983000Y-120140000D01*
X77983000Y-120140000D02*
X77983000Y-121240000D01*
X93972748Y-96826000D02*
X94495252Y-96826000D01*
X93972748Y-98246000D02*
X94495252Y-98246000D01*
X111141252Y-112470000D02*
X110618748Y-112470000D01*
X111141252Y-111050000D02*
X110618748Y-111050000D01*
X82856000Y-97153252D02*
X82856000Y-96630748D01*
X84276000Y-97153252D02*
X84276000Y-96630748D01*
X81078000Y-96639748D02*
X81078000Y-97162252D01*
X82498000Y-96639748D02*
X82498000Y-97162252D01*
X80720000Y-96648748D02*
X80720000Y-97171252D01*
X79300000Y-96648748D02*
X79300000Y-97171252D01*
X100128000Y-83422748D02*
X100128000Y-83945252D01*
X101548000Y-83422748D02*
X101548000Y-83945252D01*
X76379000Y-109354252D02*
X76379000Y-108831748D01*
X77799000Y-109354252D02*
X77799000Y-108831748D01*
X76021000Y-108831748D02*
X76021000Y-109354252D01*
X74601000Y-108831748D02*
X74601000Y-109354252D01*
X74240000Y-108834748D02*
X74240000Y-109357252D01*
X72820000Y-108834748D02*
X72820000Y-109357252D01*
X96445000Y-76588252D02*
X96445000Y-76065748D01*
X97865000Y-76588252D02*
X97865000Y-76065748D01*
X71045000Y-108840748D02*
X71045000Y-109363252D01*
X72465000Y-108840748D02*
X72465000Y-109363252D01*
X101902000Y-99046748D02*
X101902000Y-99569252D01*
X103322000Y-99046748D02*
X103322000Y-99569252D01*
X101552000Y-99569252D02*
X101552000Y-99046748D01*
X100132000Y-99569252D02*
X100132000Y-99046748D01*
X99643000Y-76065748D02*
X99643000Y-76588252D01*
X98223000Y-76065748D02*
X98223000Y-76588252D01*
X119940000Y-75421748D02*
X119940000Y-75944252D01*
X121360000Y-75421748D02*
X121360000Y-75944252D01*
X67893000Y-76582748D02*
X67893000Y-77105252D01*
X66473000Y-76582748D02*
X66473000Y-77105252D01*
X64695000Y-76564748D02*
X64695000Y-77087252D01*
X66115000Y-76564748D02*
X66115000Y-77087252D01*
X64337000Y-76582748D02*
X64337000Y-77105252D01*
X62917000Y-76582748D02*
X62917000Y-77105252D01*
X61139000Y-76573748D02*
X61139000Y-77096252D01*
X62559000Y-76573748D02*
X62559000Y-77096252D01*
X96087000Y-76597252D02*
X96087000Y-76074748D01*
X94667000Y-76597252D02*
X94667000Y-76074748D01*
X86943000Y-84565748D02*
X86943000Y-85088252D01*
X85523000Y-84565748D02*
X85523000Y-85088252D01*
X87301000Y-84574748D02*
X87301000Y-85097252D01*
X88721000Y-84574748D02*
X88721000Y-85097252D01*
X109741000Y-92645000D02*
X109741000Y-92115000D01*
X109741000Y-92115000D02*
X117081000Y-92115000D01*
X117081000Y-92115000D02*
X117081000Y-92645000D01*
X109741000Y-99125000D02*
X109741000Y-99655000D01*
X109741000Y-99655000D02*
X117081000Y-99655000D01*
X117081000Y-99655000D02*
X117081000Y-99125000D01*
X109741000Y-94045000D02*
X109741000Y-95185000D01*
X109741000Y-96585000D02*
X109741000Y-97725000D01*
X117081000Y-94045000D02*
X117081000Y-95185000D01*
X117081000Y-96585000D02*
X117081000Y-97725000D01*
X107541000Y-93235000D02*
X107541000Y-91865000D01*
X107541000Y-91865000D02*
X108911000Y-91865000D01*
X77167000Y-79389000D02*
X77617000Y-79839000D01*
X80567000Y-79389000D02*
X80117000Y-79839000D01*
X80567000Y-74789000D02*
X80117000Y-74339000D01*
X77167000Y-74789000D02*
X77617000Y-74339000D01*
X81617000Y-76089000D02*
X81617000Y-78089000D01*
X77617000Y-79839000D02*
X80117000Y-79839000D01*
X76117000Y-76089000D02*
X76117000Y-78089000D01*
X77617000Y-74339000D02*
X80117000Y-74339000D01*
X89261000Y-79813600D02*
X86761000Y-79813600D01*
X90761000Y-78063600D02*
X90761000Y-76063600D01*
X89261000Y-74313600D02*
X86761000Y-74313600D01*
X85261000Y-78063600D02*
X85261000Y-76063600D01*
X89711000Y-79363600D02*
X89261000Y-79813600D01*
X86311000Y-79363600D02*
X86761000Y-79813600D01*
X86311000Y-74763600D02*
X86761000Y-74313600D01*
X89711000Y-74763600D02*
X89261000Y-74313600D01*
X98930000Y-106007000D02*
X99030000Y-106007000D01*
X99030000Y-106007000D02*
X99030000Y-107207000D01*
X98930000Y-123407000D02*
X99030000Y-123407000D01*
X99030000Y-123407000D02*
X99030000Y-122207000D01*
X98930000Y-123407000D02*
X82830000Y-123407000D01*
X82830000Y-123407000D02*
X82830000Y-122207000D01*
X98930000Y-106007000D02*
X82930000Y-106007000D01*
X82930000Y-106007000D02*
X82830000Y-106007000D01*
X82830000Y-106007000D02*
X82830000Y-107207000D01*
X82830000Y-107207000D02*
X81130000Y-107207000D01*
X51416500Y-102044500D02*
X53616500Y-102044500D01*
X53616500Y-102044500D02*
X53616500Y-103264500D01*
X53616500Y-103264500D02*
X45196500Y-103264500D01*
X45196500Y-103264500D02*
X45196500Y-90544500D01*
X45196500Y-90544500D02*
X53616500Y-90544500D01*
X53616500Y-90544500D02*
X53616500Y-91764500D01*
X53616500Y-91764500D02*
X51416500Y-91764500D01*
X46416500Y-103264500D02*
X46416500Y-102044500D01*
X46416500Y-102044500D02*
X51416500Y-102044500D01*
X51416500Y-102044500D02*
X51416500Y-103264500D01*
X46416500Y-90544500D02*
X46416500Y-91764500D01*
X46416500Y-91764500D02*
X51416500Y-91764500D01*
X51416500Y-91764500D02*
X51416500Y-90544500D01*
X50416500Y-102044500D02*
X50416500Y-91764500D01*
X50416500Y-100654500D02*
X50416500Y-100974500D01*
X50416500Y-100974500D02*
X46996500Y-100974500D01*
X46996500Y-100974500D02*
X46916500Y-100654500D01*
X46916500Y-100654500D02*
X46996500Y-100334500D01*
X46996500Y-100334500D02*
X50416500Y-100334500D01*
X50416500Y-100334500D02*
X50416500Y-100654500D01*
X51416500Y-99484500D02*
X51416500Y-99324500D01*
X50416500Y-98154500D02*
X50416500Y-98474500D01*
X50416500Y-98474500D02*
X46996500Y-98474500D01*
X46996500Y-98474500D02*
X46916500Y-98154500D01*
X46916500Y-98154500D02*
X46996500Y-97834500D01*
X46996500Y-97834500D02*
X50416500Y-97834500D01*
X50416500Y-97834500D02*
X50416500Y-98154500D01*
X51416500Y-96984500D02*
X51416500Y-96824500D01*
X50416500Y-95654500D02*
X50416500Y-95974500D01*
X50416500Y-95974500D02*
X46996500Y-95974500D01*
X46996500Y-95974500D02*
X46916500Y-95654500D01*
X46916500Y-95654500D02*
X46996500Y-95334500D01*
X46996500Y-95334500D02*
X50416500Y-95334500D01*
X50416500Y-95334500D02*
X50416500Y-95654500D01*
X51416500Y-94484500D02*
X51416500Y-94324500D01*
X50416500Y-93154500D02*
X50416500Y-93474500D01*
X50416500Y-93474500D02*
X46996500Y-93474500D01*
X46996500Y-93474500D02*
X46916500Y-93154500D01*
X46916500Y-93154500D02*
X46996500Y-92834500D01*
X46996500Y-92834500D02*
X50416500Y-92834500D01*
X50416500Y-92834500D02*
X50416500Y-93154500D01*
X53506500Y-100654500D02*
X54106500Y-100954500D01*
X54106500Y-100954500D02*
X54106500Y-100354500D01*
X54106500Y-100354500D02*
X53506500Y-100654500D01*
X91261000Y-101979252D02*
X91261000Y-101456748D01*
X89841000Y-101979252D02*
X89841000Y-101456748D01*
X82856000Y-101997252D02*
X82856000Y-101474748D01*
X84276000Y-101997252D02*
X84276000Y-101474748D01*
X87882000Y-103307000D02*
X87882000Y-102377000D01*
X87882000Y-100147000D02*
X87882000Y-101077000D01*
X87882000Y-100147000D02*
X85722000Y-100147000D01*
X87882000Y-103307000D02*
X86422000Y-103307000D01*
D10*
X103290761Y-87066380D02*
X102957428Y-86590190D01*
X102719333Y-87066380D02*
X102719333Y-86066380D01*
X103100285Y-86066380D01*
X103195523Y-86114000D01*
X103243142Y-86161619D01*
X103290761Y-86256857D01*
X103290761Y-86399714D01*
X103243142Y-86494952D01*
X103195523Y-86542571D01*
X103100285Y-86590190D01*
X102719333Y-86590190D01*
X103576476Y-86066380D02*
X103909809Y-87066380D01*
X104243142Y-86066380D01*
X105100285Y-87066380D02*
X104528857Y-87066380D01*
X104814571Y-87066380D02*
X104814571Y-86066380D01*
X104719333Y-86209238D01*
X104624095Y-86304476D01*
X104528857Y-86352095D01*
X116002060Y-129805963D02*
X115002060Y-129805963D01*
X115716346Y-129472630D01*
X115002060Y-129139297D01*
X116002060Y-129139297D01*
X116002060Y-128139297D02*
X116002060Y-128710725D01*
X116002060Y-128425011D02*
X115002060Y-128425011D01*
X115144918Y-128520249D01*
X115240156Y-128615487D01*
X115287775Y-128710725D01*
X102449714Y-125801380D02*
X102449714Y-124801380D01*
X102783047Y-125515666D01*
X103116380Y-124801380D01*
X103116380Y-125801380D01*
X103735428Y-125801380D02*
X103640190Y-125753761D01*
X103592571Y-125706142D01*
X103544952Y-125610904D01*
X103544952Y-125325190D01*
X103592571Y-125229952D01*
X103640190Y-125182333D01*
X103735428Y-125134714D01*
X103878285Y-125134714D01*
X103973523Y-125182333D01*
X104021142Y-125229952D01*
X104068761Y-125325190D01*
X104068761Y-125610904D01*
X104021142Y-125706142D01*
X103973523Y-125753761D01*
X103878285Y-125801380D01*
X103735428Y-125801380D01*
X104354476Y-125134714D02*
X104735428Y-125134714D01*
X104497333Y-124801380D02*
X104497333Y-125658523D01*
X104544952Y-125753761D01*
X104640190Y-125801380D01*
X104735428Y-125801380D01*
X105211619Y-125801380D02*
X105116380Y-125753761D01*
X105068761Y-125706142D01*
X105021142Y-125610904D01*
X105021142Y-125325190D01*
X105068761Y-125229952D01*
X105116380Y-125182333D01*
X105211619Y-125134714D01*
X105354476Y-125134714D01*
X105449714Y-125182333D01*
X105497333Y-125229952D01*
X105544952Y-125325190D01*
X105544952Y-125610904D01*
X105497333Y-125706142D01*
X105449714Y-125753761D01*
X105354476Y-125801380D01*
X105211619Y-125801380D01*
X105973523Y-125801380D02*
X105973523Y-125134714D01*
X105973523Y-125325190D02*
X106021142Y-125229952D01*
X106068761Y-125182333D01*
X106164000Y-125134714D01*
X106259238Y-125134714D01*
X106354476Y-125896619D02*
X107116380Y-125896619D01*
X107354476Y-125801380D02*
X107354476Y-124801380D01*
X107592571Y-124801380D01*
X107735428Y-124849000D01*
X107830666Y-124944238D01*
X107878285Y-125039476D01*
X107925904Y-125229952D01*
X107925904Y-125372809D01*
X107878285Y-125563285D01*
X107830666Y-125658523D01*
X107735428Y-125753761D01*
X107592571Y-125801380D01*
X107354476Y-125801380D01*
X108925904Y-125706142D02*
X108878285Y-125753761D01*
X108735428Y-125801380D01*
X108640190Y-125801380D01*
X108497333Y-125753761D01*
X108402095Y-125658523D01*
X108354476Y-125563285D01*
X108306857Y-125372809D01*
X108306857Y-125229952D01*
X108354476Y-125039476D01*
X108402095Y-124944238D01*
X108497333Y-124849000D01*
X108640190Y-124801380D01*
X108735428Y-124801380D01*
X108878285Y-124849000D01*
X108925904Y-124896619D01*
X54021740Y-127856573D02*
X54736026Y-127856573D01*
X54878883Y-127904192D01*
X54974121Y-127999430D01*
X55021740Y-128142287D01*
X55021740Y-128237525D01*
X55021740Y-126856573D02*
X55021740Y-127428001D01*
X55021740Y-127142287D02*
X54021740Y-127142287D01*
X54164598Y-127237525D01*
X54259836Y-127332763D01*
X54307455Y-127428001D01*
X44464931Y-132134668D02*
X44512550Y-131991811D01*
X44560169Y-131944192D01*
X44655407Y-131896573D01*
X44798264Y-131896573D01*
X44893502Y-131944192D01*
X44941121Y-131991811D01*
X44988740Y-132087049D01*
X44988740Y-132468001D01*
X43988740Y-132468001D01*
X43988740Y-132134668D01*
X44036360Y-132039430D01*
X44083979Y-131991811D01*
X44179217Y-131944192D01*
X44274455Y-131944192D01*
X44369693Y-131991811D01*
X44417312Y-132039430D01*
X44464931Y-132134668D01*
X44464931Y-132468001D01*
X44988740Y-131039430D02*
X44464931Y-131039430D01*
X44369693Y-131087049D01*
X44322074Y-131182287D01*
X44322074Y-131372763D01*
X44369693Y-131468001D01*
X44941121Y-131039430D02*
X44988740Y-131134668D01*
X44988740Y-131372763D01*
X44941121Y-131468001D01*
X44845883Y-131515620D01*
X44750645Y-131515620D01*
X44655407Y-131468001D01*
X44607788Y-131372763D01*
X44607788Y-131134668D01*
X44560169Y-131039430D01*
X44322074Y-130706097D02*
X44322074Y-130325144D01*
X43988740Y-130563240D02*
X44845883Y-130563240D01*
X44941121Y-130515620D01*
X44988740Y-130420382D01*
X44988740Y-130325144D01*
X44322074Y-130134668D02*
X44322074Y-129753716D01*
X43988740Y-129991811D02*
X44845883Y-129991811D01*
X44941121Y-129944192D01*
X44988740Y-129848954D01*
X44988740Y-129753716D01*
X44941121Y-129039430D02*
X44988740Y-129134668D01*
X44988740Y-129325144D01*
X44941121Y-129420382D01*
X44845883Y-129468001D01*
X44464931Y-129468001D01*
X44369693Y-129420382D01*
X44322074Y-129325144D01*
X44322074Y-129134668D01*
X44369693Y-129039430D01*
X44464931Y-128991811D01*
X44560169Y-128991811D01*
X44655407Y-129468001D01*
X44988740Y-128563240D02*
X44322074Y-128563240D01*
X44512550Y-128563240D02*
X44417312Y-128515620D01*
X44369693Y-128468001D01*
X44322074Y-128372763D01*
X44322074Y-128277525D01*
X44322074Y-128039430D02*
X44988740Y-127801335D01*
X44322074Y-127563240D02*
X44988740Y-127801335D01*
X45226836Y-127896573D01*
X45274455Y-127944192D01*
X45322074Y-128039430D01*
X131863061Y-126081157D02*
X131910680Y-125938300D01*
X131910680Y-125700204D01*
X131863061Y-125604966D01*
X131815442Y-125557347D01*
X131720204Y-125509728D01*
X131624966Y-125509728D01*
X131529728Y-125557347D01*
X131482109Y-125604966D01*
X131434490Y-125700204D01*
X131386871Y-125890680D01*
X131339252Y-125985919D01*
X131291633Y-126033538D01*
X131196395Y-126081157D01*
X131101157Y-126081157D01*
X131005919Y-126033538D01*
X130958300Y-125985919D01*
X130910680Y-125890680D01*
X130910680Y-125652585D01*
X130958300Y-125509728D01*
X130910680Y-125224014D02*
X130910680Y-124652585D01*
X131910680Y-124938300D02*
X130910680Y-124938300D01*
X131529728Y-124319252D02*
X131529728Y-123557347D01*
X131910680Y-122938300D02*
X131863061Y-123033538D01*
X131767823Y-123081157D01*
X130910680Y-123081157D01*
X131910680Y-122557347D02*
X131244014Y-122557347D01*
X130910680Y-122557347D02*
X130958300Y-122604966D01*
X131005919Y-122557347D01*
X130958300Y-122509728D01*
X130910680Y-122557347D01*
X131005919Y-122557347D01*
X131244014Y-122081157D02*
X131910680Y-122081157D01*
X131339252Y-122081157D02*
X131291633Y-122033538D01*
X131244014Y-121938300D01*
X131244014Y-121795442D01*
X131291633Y-121700204D01*
X131386871Y-121652585D01*
X131910680Y-121652585D01*
X131910680Y-121176395D02*
X130910680Y-121176395D01*
X131529728Y-121081157D02*
X131910680Y-120795442D01*
X131244014Y-120795442D02*
X131624966Y-121176395D01*
X131863061Y-109944942D02*
X131910680Y-109802085D01*
X131910680Y-109563990D01*
X131863061Y-109468752D01*
X131815442Y-109421133D01*
X131720204Y-109373514D01*
X131624966Y-109373514D01*
X131529728Y-109421133D01*
X131482109Y-109468752D01*
X131434490Y-109563990D01*
X131386871Y-109754466D01*
X131339252Y-109849704D01*
X131291633Y-109897323D01*
X131196395Y-109944942D01*
X131101157Y-109944942D01*
X131005919Y-109897323D01*
X130958300Y-109849704D01*
X130910680Y-109754466D01*
X130910680Y-109516371D01*
X130958300Y-109373514D01*
X131863061Y-108563990D02*
X131910680Y-108659228D01*
X131910680Y-108849704D01*
X131863061Y-108944942D01*
X131767823Y-108992561D01*
X131386871Y-108992561D01*
X131291633Y-108944942D01*
X131244014Y-108849704D01*
X131244014Y-108659228D01*
X131291633Y-108563990D01*
X131386871Y-108516371D01*
X131482109Y-108516371D01*
X131577347Y-108992561D01*
X131910680Y-108087800D02*
X131244014Y-108087800D01*
X131434490Y-108087800D02*
X131339252Y-108040180D01*
X131291633Y-107992561D01*
X131244014Y-107897323D01*
X131244014Y-107802085D01*
X131244014Y-107563990D02*
X131910680Y-107325895D01*
X131244014Y-107087800D01*
X131910680Y-106563990D02*
X131863061Y-106659228D01*
X131815442Y-106706847D01*
X131720204Y-106754466D01*
X131434490Y-106754466D01*
X131339252Y-106706847D01*
X131291633Y-106659228D01*
X131244014Y-106563990D01*
X131244014Y-106421133D01*
X131291633Y-106325895D01*
X131339252Y-106278276D01*
X131434490Y-106230657D01*
X131720204Y-106230657D01*
X131815442Y-106278276D01*
X131863061Y-106325895D01*
X131910680Y-106421133D01*
X131910680Y-106563990D01*
X131863061Y-102614609D02*
X131910680Y-102471752D01*
X131910680Y-102233657D01*
X131863061Y-102138419D01*
X131815442Y-102090800D01*
X131720204Y-102043180D01*
X131624966Y-102043180D01*
X131529728Y-102090800D01*
X131482109Y-102138419D01*
X131434490Y-102233657D01*
X131386871Y-102424133D01*
X131339252Y-102519371D01*
X131291633Y-102566990D01*
X131196395Y-102614609D01*
X131101157Y-102614609D01*
X131005919Y-102566990D01*
X130958300Y-102519371D01*
X130910680Y-102424133D01*
X130910680Y-102186038D01*
X130958300Y-102043180D01*
X131863061Y-101233657D02*
X131910680Y-101328895D01*
X131910680Y-101519371D01*
X131863061Y-101614609D01*
X131767823Y-101662228D01*
X131386871Y-101662228D01*
X131291633Y-101614609D01*
X131244014Y-101519371D01*
X131244014Y-101328895D01*
X131291633Y-101233657D01*
X131386871Y-101186038D01*
X131482109Y-101186038D01*
X131577347Y-101662228D01*
X131910680Y-100757466D02*
X131244014Y-100757466D01*
X131434490Y-100757466D02*
X131339252Y-100709847D01*
X131291633Y-100662228D01*
X131244014Y-100566990D01*
X131244014Y-100471752D01*
X131244014Y-100233657D02*
X131910680Y-99995561D01*
X131244014Y-99757466D01*
X131910680Y-99233657D02*
X131863061Y-99328895D01*
X131815442Y-99376514D01*
X131720204Y-99424133D01*
X131434490Y-99424133D01*
X131339252Y-99376514D01*
X131291633Y-99328895D01*
X131244014Y-99233657D01*
X131244014Y-99090800D01*
X131291633Y-98995561D01*
X131339252Y-98947942D01*
X131434490Y-98900323D01*
X131720204Y-98900323D01*
X131815442Y-98947942D01*
X131863061Y-98995561D01*
X131910680Y-99090800D01*
X131910680Y-99233657D01*
X131529728Y-98471752D02*
X131529728Y-97709847D01*
X131863061Y-97281276D02*
X131910680Y-97138419D01*
X131910680Y-96900323D01*
X131863061Y-96805085D01*
X131815442Y-96757466D01*
X131720204Y-96709847D01*
X131624966Y-96709847D01*
X131529728Y-96757466D01*
X131482109Y-96805085D01*
X131434490Y-96900323D01*
X131386871Y-97090800D01*
X131339252Y-97186038D01*
X131291633Y-97233657D01*
X131196395Y-97281276D01*
X131101157Y-97281276D01*
X131005919Y-97233657D01*
X130958300Y-97186038D01*
X130910680Y-97090800D01*
X130910680Y-96852704D01*
X130958300Y-96709847D01*
X130910680Y-96376514D02*
X131910680Y-96138419D01*
X131196395Y-95947942D01*
X131910680Y-95757466D01*
X130910680Y-95519371D01*
X131399571Y-87771595D02*
X131399571Y-87438261D01*
X131923380Y-87295404D02*
X131923380Y-87771595D01*
X130923380Y-87771595D01*
X130923380Y-87295404D01*
X131256714Y-86866833D02*
X131923380Y-86866833D01*
X131351952Y-86866833D02*
X131304333Y-86819214D01*
X131256714Y-86723976D01*
X131256714Y-86581119D01*
X131304333Y-86485880D01*
X131399571Y-86438261D01*
X131923380Y-86438261D01*
X131875761Y-85533500D02*
X131923380Y-85628738D01*
X131923380Y-85819214D01*
X131875761Y-85914452D01*
X131828142Y-85962071D01*
X131732904Y-86009690D01*
X131447190Y-86009690D01*
X131351952Y-85962071D01*
X131304333Y-85914452D01*
X131256714Y-85819214D01*
X131256714Y-85628738D01*
X131304333Y-85533500D01*
X131923380Y-84962071D02*
X131875761Y-85057309D01*
X131828142Y-85104928D01*
X131732904Y-85152547D01*
X131447190Y-85152547D01*
X131351952Y-85104928D01*
X131304333Y-85057309D01*
X131256714Y-84962071D01*
X131256714Y-84819214D01*
X131304333Y-84723976D01*
X131351952Y-84676357D01*
X131447190Y-84628738D01*
X131732904Y-84628738D01*
X131828142Y-84676357D01*
X131875761Y-84723976D01*
X131923380Y-84819214D01*
X131923380Y-84962071D01*
X131923380Y-83771595D02*
X130923380Y-83771595D01*
X131875761Y-83771595D02*
X131923380Y-83866833D01*
X131923380Y-84057309D01*
X131875761Y-84152547D01*
X131828142Y-84200166D01*
X131732904Y-84247785D01*
X131447190Y-84247785D01*
X131351952Y-84200166D01*
X131304333Y-84152547D01*
X131256714Y-84057309D01*
X131256714Y-83866833D01*
X131304333Y-83771595D01*
X131875761Y-82914452D02*
X131923380Y-83009690D01*
X131923380Y-83200166D01*
X131875761Y-83295404D01*
X131780523Y-83343023D01*
X131399571Y-83343023D01*
X131304333Y-83295404D01*
X131256714Y-83200166D01*
X131256714Y-83009690D01*
X131304333Y-82914452D01*
X131399571Y-82866833D01*
X131494809Y-82866833D01*
X131590047Y-83343023D01*
X131923380Y-82438261D02*
X131256714Y-82438261D01*
X131447190Y-82438261D02*
X131351952Y-82390642D01*
X131304333Y-82343023D01*
X131256714Y-82247785D01*
X131256714Y-82152547D01*
X131910680Y-74473000D02*
X130910680Y-74473000D01*
X131624966Y-74139666D01*
X130910680Y-73806333D01*
X131910680Y-73806333D01*
X131910680Y-73187285D02*
X131863061Y-73282523D01*
X131815442Y-73330142D01*
X131720204Y-73377761D01*
X131434490Y-73377761D01*
X131339252Y-73330142D01*
X131291633Y-73282523D01*
X131244014Y-73187285D01*
X131244014Y-73044428D01*
X131291633Y-72949190D01*
X131339252Y-72901571D01*
X131434490Y-72853952D01*
X131720204Y-72853952D01*
X131815442Y-72901571D01*
X131863061Y-72949190D01*
X131910680Y-73044428D01*
X131910680Y-73187285D01*
X131244014Y-72568238D02*
X131244014Y-72187285D01*
X130910680Y-72425380D02*
X131767823Y-72425380D01*
X131863061Y-72377761D01*
X131910680Y-72282523D01*
X131910680Y-72187285D01*
X131910680Y-71711095D02*
X131863061Y-71806333D01*
X131815442Y-71853952D01*
X131720204Y-71901571D01*
X131434490Y-71901571D01*
X131339252Y-71853952D01*
X131291633Y-71806333D01*
X131244014Y-71711095D01*
X131244014Y-71568238D01*
X131291633Y-71473000D01*
X131339252Y-71425380D01*
X131434490Y-71377761D01*
X131720204Y-71377761D01*
X131815442Y-71425380D01*
X131863061Y-71473000D01*
X131910680Y-71568238D01*
X131910680Y-71711095D01*
X131910680Y-70949190D02*
X131244014Y-70949190D01*
X131434490Y-70949190D02*
X131339252Y-70901571D01*
X131291633Y-70853952D01*
X131244014Y-70758714D01*
X131244014Y-70663476D01*
X131529728Y-70330142D02*
X131529728Y-69568238D01*
X131863061Y-69139666D02*
X131910680Y-68996809D01*
X131910680Y-68758714D01*
X131863061Y-68663476D01*
X131815442Y-68615857D01*
X131720204Y-68568238D01*
X131624966Y-68568238D01*
X131529728Y-68615857D01*
X131482109Y-68663476D01*
X131434490Y-68758714D01*
X131386871Y-68949190D01*
X131339252Y-69044428D01*
X131291633Y-69092047D01*
X131196395Y-69139666D01*
X131101157Y-69139666D01*
X131005919Y-69092047D01*
X130958300Y-69044428D01*
X130910680Y-68949190D01*
X130910680Y-68711095D01*
X130958300Y-68568238D01*
X130910680Y-68234904D02*
X131910680Y-67996809D01*
X131196395Y-67806333D01*
X131910680Y-67615857D01*
X130910680Y-67377761D01*
X63159095Y-88971380D02*
X63159095Y-87971380D01*
X63492428Y-88685666D01*
X63825761Y-87971380D01*
X63825761Y-88971380D01*
X64301952Y-88971380D02*
X64301952Y-87971380D01*
X64682904Y-87971380D01*
X64778142Y-88019000D01*
X64825761Y-88066619D01*
X64873380Y-88161857D01*
X64873380Y-88304714D01*
X64825761Y-88399952D01*
X64778142Y-88447571D01*
X64682904Y-88495190D01*
X64301952Y-88495190D01*
X65301952Y-87971380D02*
X65301952Y-88780904D01*
X65349571Y-88876142D01*
X65397190Y-88923761D01*
X65492428Y-88971380D01*
X65682904Y-88971380D01*
X65778142Y-88923761D01*
X65825761Y-88876142D01*
X65873380Y-88780904D01*
X65873380Y-87971380D01*
X66778142Y-87971380D02*
X66587666Y-87971380D01*
X66492428Y-88019000D01*
X66444809Y-88066619D01*
X66349571Y-88209476D01*
X66301952Y-88399952D01*
X66301952Y-88780904D01*
X66349571Y-88876142D01*
X66397190Y-88923761D01*
X66492428Y-88971380D01*
X66682904Y-88971380D01*
X66778142Y-88923761D01*
X66825761Y-88876142D01*
X66873380Y-88780904D01*
X66873380Y-88542809D01*
X66825761Y-88447571D01*
X66778142Y-88399952D01*
X66682904Y-88352333D01*
X66492428Y-88352333D01*
X66397190Y-88399952D01*
X66349571Y-88447571D01*
X66301952Y-88542809D01*
X67492428Y-87971380D02*
X67587666Y-87971380D01*
X67682904Y-88019000D01*
X67730523Y-88066619D01*
X67778142Y-88161857D01*
X67825761Y-88352333D01*
X67825761Y-88590428D01*
X67778142Y-88780904D01*
X67730523Y-88876142D01*
X67682904Y-88923761D01*
X67587666Y-88971380D01*
X67492428Y-88971380D01*
X67397190Y-88923761D01*
X67349571Y-88876142D01*
X67301952Y-88780904D01*
X67254333Y-88590428D01*
X67254333Y-88352333D01*
X67301952Y-88161857D01*
X67349571Y-88066619D01*
X67397190Y-88019000D01*
X67492428Y-87971380D01*
X68730523Y-87971380D02*
X68254333Y-87971380D01*
X68206714Y-88447571D01*
X68254333Y-88399952D01*
X68349571Y-88352333D01*
X68587666Y-88352333D01*
X68682904Y-88399952D01*
X68730523Y-88447571D01*
X68778142Y-88542809D01*
X68778142Y-88780904D01*
X68730523Y-88876142D01*
X68682904Y-88923761D01*
X68587666Y-88971380D01*
X68349571Y-88971380D01*
X68254333Y-88923761D01*
X68206714Y-88876142D01*
X69397190Y-87971380D02*
X69492428Y-87971380D01*
X69587666Y-88019000D01*
X69635285Y-88066619D01*
X69682904Y-88161857D01*
X69730523Y-88352333D01*
X69730523Y-88590428D01*
X69682904Y-88780904D01*
X69635285Y-88876142D01*
X69587666Y-88923761D01*
X69492428Y-88971380D01*
X69397190Y-88971380D01*
X69301952Y-88923761D01*
X69254333Y-88876142D01*
X69206714Y-88780904D01*
X69159095Y-88590428D01*
X69159095Y-88352333D01*
X69206714Y-88161857D01*
X69254333Y-88066619D01*
X69301952Y-88019000D01*
X69397190Y-87971380D01*
X88344380Y-91820904D02*
X89153904Y-91820904D01*
X89249142Y-91773285D01*
X89296761Y-91725666D01*
X89344380Y-91630428D01*
X89344380Y-91439952D01*
X89296761Y-91344714D01*
X89249142Y-91297095D01*
X89153904Y-91249476D01*
X88344380Y-91249476D01*
X88439619Y-90820904D02*
X88392000Y-90773285D01*
X88344380Y-90678047D01*
X88344380Y-90439952D01*
X88392000Y-90344714D01*
X88439619Y-90297095D01*
X88534857Y-90249476D01*
X88630095Y-90249476D01*
X88772952Y-90297095D01*
X89344380Y-90868523D01*
X89344380Y-90249476D01*
X67746571Y-135334333D02*
X67746571Y-135667666D01*
X68270380Y-135667666D02*
X67270380Y-135667666D01*
X67270380Y-135191476D01*
X67365619Y-134858142D02*
X67318000Y-134810523D01*
X67270380Y-134715285D01*
X67270380Y-134477190D01*
X67318000Y-134381952D01*
X67365619Y-134334333D01*
X67460857Y-134286714D01*
X67556095Y-134286714D01*
X67698952Y-134334333D01*
X68270380Y-134905761D01*
X68270380Y-134286714D01*
X89232333Y-99416142D02*
X89184714Y-99463761D01*
X89041857Y-99511380D01*
X88946619Y-99511380D01*
X88803761Y-99463761D01*
X88708523Y-99368523D01*
X88660904Y-99273285D01*
X88613285Y-99082809D01*
X88613285Y-98939952D01*
X88660904Y-98749476D01*
X88708523Y-98654238D01*
X88803761Y-98559000D01*
X88946619Y-98511380D01*
X89041857Y-98511380D01*
X89184714Y-98559000D01*
X89232333Y-98606619D01*
X90184714Y-99511380D02*
X89613285Y-99511380D01*
X89899000Y-99511380D02*
X89899000Y-98511380D01*
X89803761Y-98654238D01*
X89708523Y-98749476D01*
X89613285Y-98797095D01*
X97767142Y-83868666D02*
X97814761Y-83916285D01*
X97862380Y-84059142D01*
X97862380Y-84154380D01*
X97814761Y-84297238D01*
X97719523Y-84392476D01*
X97624285Y-84440095D01*
X97433809Y-84487714D01*
X97290952Y-84487714D01*
X97100476Y-84440095D01*
X97005238Y-84392476D01*
X96910000Y-84297238D01*
X96862380Y-84154380D01*
X96862380Y-84059142D01*
X96910000Y-83916285D01*
X96957619Y-83868666D01*
X96957619Y-83487714D02*
X96910000Y-83440095D01*
X96862380Y-83344857D01*
X96862380Y-83106761D01*
X96910000Y-83011523D01*
X96957619Y-82963904D01*
X97052857Y-82916285D01*
X97148095Y-82916285D01*
X97290952Y-82963904D01*
X97862380Y-83535333D01*
X97862380Y-82916285D01*
X60539333Y-116428142D02*
X60491714Y-116475761D01*
X60348857Y-116523380D01*
X60253619Y-116523380D01*
X60110761Y-116475761D01*
X60015523Y-116380523D01*
X59967904Y-116285285D01*
X59920285Y-116094809D01*
X59920285Y-115951952D01*
X59967904Y-115761476D01*
X60015523Y-115666238D01*
X60110761Y-115571000D01*
X60253619Y-115523380D01*
X60348857Y-115523380D01*
X60491714Y-115571000D01*
X60539333Y-115618619D01*
X60872666Y-115523380D02*
X61491714Y-115523380D01*
X61158380Y-115904333D01*
X61301238Y-115904333D01*
X61396476Y-115951952D01*
X61444095Y-115999571D01*
X61491714Y-116094809D01*
X61491714Y-116332904D01*
X61444095Y-116428142D01*
X61396476Y-116475761D01*
X61301238Y-116523380D01*
X61015523Y-116523380D01*
X60920285Y-116475761D01*
X60872666Y-116428142D01*
X71986142Y-76611666D02*
X72033761Y-76659285D01*
X72081380Y-76802142D01*
X72081380Y-76897380D01*
X72033761Y-77040238D01*
X71938523Y-77135476D01*
X71843285Y-77183095D01*
X71652809Y-77230714D01*
X71509952Y-77230714D01*
X71319476Y-77183095D01*
X71224238Y-77135476D01*
X71129000Y-77040238D01*
X71081380Y-76897380D01*
X71081380Y-76802142D01*
X71129000Y-76659285D01*
X71176619Y-76611666D01*
X71414714Y-75754523D02*
X72081380Y-75754523D01*
X71033761Y-75992619D02*
X71748047Y-76230714D01*
X71748047Y-75611666D01*
X68811142Y-114212666D02*
X68858761Y-114260285D01*
X68906380Y-114403142D01*
X68906380Y-114498380D01*
X68858761Y-114641238D01*
X68763523Y-114736476D01*
X68668285Y-114784095D01*
X68477809Y-114831714D01*
X68334952Y-114831714D01*
X68144476Y-114784095D01*
X68049238Y-114736476D01*
X67954000Y-114641238D01*
X67906380Y-114498380D01*
X67906380Y-114403142D01*
X67954000Y-114260285D01*
X68001619Y-114212666D01*
X67906380Y-113307904D02*
X67906380Y-113784095D01*
X68382571Y-113831714D01*
X68334952Y-113784095D01*
X68287333Y-113688857D01*
X68287333Y-113450761D01*
X68334952Y-113355523D01*
X68382571Y-113307904D01*
X68477809Y-113260285D01*
X68715904Y-113260285D01*
X68811142Y-113307904D01*
X68858761Y-113355523D01*
X68906380Y-113450761D01*
X68906380Y-113688857D01*
X68858761Y-113784095D01*
X68811142Y-113831714D01*
X104751142Y-102274666D02*
X104798761Y-102322285D01*
X104846380Y-102465142D01*
X104846380Y-102560380D01*
X104798761Y-102703238D01*
X104703523Y-102798476D01*
X104608285Y-102846095D01*
X104417809Y-102893714D01*
X104274952Y-102893714D01*
X104084476Y-102846095D01*
X103989238Y-102798476D01*
X103894000Y-102703238D01*
X103846380Y-102560380D01*
X103846380Y-102465142D01*
X103894000Y-102322285D01*
X103941619Y-102274666D01*
X103846380Y-101417523D02*
X103846380Y-101608000D01*
X103894000Y-101703238D01*
X103941619Y-101750857D01*
X104084476Y-101846095D01*
X104274952Y-101893714D01*
X104655904Y-101893714D01*
X104751142Y-101846095D01*
X104798761Y-101798476D01*
X104846380Y-101703238D01*
X104846380Y-101512761D01*
X104798761Y-101417523D01*
X104751142Y-101369904D01*
X104655904Y-101322285D01*
X104417809Y-101322285D01*
X104322571Y-101369904D01*
X104274952Y-101417523D01*
X104227333Y-101512761D01*
X104227333Y-101703238D01*
X104274952Y-101798476D01*
X104322571Y-101846095D01*
X104417809Y-101893714D01*
X60428142Y-79804666D02*
X60475761Y-79852285D01*
X60523380Y-79995142D01*
X60523380Y-80090380D01*
X60475761Y-80233238D01*
X60380523Y-80328476D01*
X60285285Y-80376095D01*
X60094809Y-80423714D01*
X59951952Y-80423714D01*
X59761476Y-80376095D01*
X59666238Y-80328476D01*
X59571000Y-80233238D01*
X59523380Y-80090380D01*
X59523380Y-79995142D01*
X59571000Y-79852285D01*
X59618619Y-79804666D01*
X60523380Y-79328476D02*
X60523380Y-79138000D01*
X60475761Y-79042761D01*
X60428142Y-78995142D01*
X60285285Y-78899904D01*
X60094809Y-78852285D01*
X59713857Y-78852285D01*
X59618619Y-78899904D01*
X59571000Y-78947523D01*
X59523380Y-79042761D01*
X59523380Y-79233238D01*
X59571000Y-79328476D01*
X59618619Y-79376095D01*
X59713857Y-79423714D01*
X59951952Y-79423714D01*
X60047190Y-79376095D01*
X60094809Y-79328476D01*
X60142428Y-79233238D01*
X60142428Y-79042761D01*
X60094809Y-78947523D01*
X60047190Y-78899904D01*
X59951952Y-78852285D01*
X58650142Y-80779857D02*
X58697761Y-80827476D01*
X58745380Y-80970333D01*
X58745380Y-81065571D01*
X58697761Y-81208428D01*
X58602523Y-81303666D01*
X58507285Y-81351285D01*
X58316809Y-81398904D01*
X58173952Y-81398904D01*
X57983476Y-81351285D01*
X57888238Y-81303666D01*
X57793000Y-81208428D01*
X57745380Y-81065571D01*
X57745380Y-80970333D01*
X57793000Y-80827476D01*
X57840619Y-80779857D01*
X58745380Y-79827476D02*
X58745380Y-80398904D01*
X58745380Y-80113190D02*
X57745380Y-80113190D01*
X57888238Y-80208428D01*
X57983476Y-80303666D01*
X58031095Y-80398904D01*
X57745380Y-79208428D02*
X57745380Y-79113190D01*
X57793000Y-79017952D01*
X57840619Y-78970333D01*
X57935857Y-78922714D01*
X58126333Y-78875095D01*
X58364428Y-78875095D01*
X58554904Y-78922714D01*
X58650142Y-78970333D01*
X58697761Y-79017952D01*
X58745380Y-79113190D01*
X58745380Y-79208428D01*
X58697761Y-79303666D01*
X58650142Y-79351285D01*
X58554904Y-79398904D01*
X58364428Y-79446523D01*
X58126333Y-79446523D01*
X57935857Y-79398904D01*
X57840619Y-79351285D01*
X57793000Y-79303666D01*
X57745380Y-79208428D01*
X93956142Y-80280857D02*
X94003761Y-80328476D01*
X94051380Y-80471333D01*
X94051380Y-80566571D01*
X94003761Y-80709428D01*
X93908523Y-80804666D01*
X93813285Y-80852285D01*
X93622809Y-80899904D01*
X93479952Y-80899904D01*
X93289476Y-80852285D01*
X93194238Y-80804666D01*
X93099000Y-80709428D01*
X93051380Y-80566571D01*
X93051380Y-80471333D01*
X93099000Y-80328476D01*
X93146619Y-80280857D01*
X94051380Y-79328476D02*
X94051380Y-79899904D01*
X94051380Y-79614190D02*
X93051380Y-79614190D01*
X93194238Y-79709428D01*
X93289476Y-79804666D01*
X93337095Y-79899904D01*
X94051380Y-78376095D02*
X94051380Y-78947523D01*
X94051380Y-78661809D02*
X93051380Y-78661809D01*
X93194238Y-78757047D01*
X93289476Y-78852285D01*
X93337095Y-78947523D01*
X59910303Y-135266139D02*
X59862684Y-135313758D01*
X59719827Y-135361377D01*
X59624589Y-135361377D01*
X59481732Y-135313758D01*
X59386494Y-135218520D01*
X59338875Y-135123282D01*
X59291256Y-134932806D01*
X59291256Y-134789949D01*
X59338875Y-134599473D01*
X59386494Y-134504235D01*
X59481732Y-134408997D01*
X59624589Y-134361377D01*
X59719827Y-134361377D01*
X59862684Y-134408997D01*
X59910303Y-134456616D01*
X60862684Y-135361377D02*
X60291256Y-135361377D01*
X60576970Y-135361377D02*
X60576970Y-134361377D01*
X60481732Y-134504235D01*
X60386494Y-134599473D01*
X60291256Y-134647092D01*
X61243637Y-134456616D02*
X61291256Y-134408997D01*
X61386494Y-134361377D01*
X61624589Y-134361377D01*
X61719827Y-134408997D01*
X61767446Y-134456616D01*
X61815065Y-134551854D01*
X61815065Y-134647092D01*
X61767446Y-134789949D01*
X61196018Y-135361377D01*
X61815065Y-135361377D01*
X105227380Y-114584095D02*
X104227380Y-114584095D01*
X104227380Y-114346000D01*
X104275000Y-114203142D01*
X104370238Y-114107904D01*
X104465476Y-114060285D01*
X104655952Y-114012666D01*
X104798809Y-114012666D01*
X104989285Y-114060285D01*
X105084523Y-114107904D01*
X105179761Y-114203142D01*
X105227380Y-114346000D01*
X105227380Y-114584095D01*
X105227380Y-113060285D02*
X105227380Y-113631714D01*
X105227380Y-113346000D02*
X104227380Y-113346000D01*
X104370238Y-113441238D01*
X104465476Y-113536476D01*
X104513095Y-113631714D01*
X118435380Y-114493595D02*
X117435380Y-114493595D01*
X117435380Y-114255500D01*
X117483000Y-114112642D01*
X117578238Y-114017404D01*
X117673476Y-113969785D01*
X117863952Y-113922166D01*
X118006809Y-113922166D01*
X118197285Y-113969785D01*
X118292523Y-114017404D01*
X118387761Y-114112642D01*
X118435380Y-114255500D01*
X118435380Y-114493595D01*
X117530619Y-113541214D02*
X117483000Y-113493595D01*
X117435380Y-113398357D01*
X117435380Y-113160261D01*
X117483000Y-113065023D01*
X117530619Y-113017404D01*
X117625857Y-112969785D01*
X117721095Y-112969785D01*
X117863952Y-113017404D01*
X118435380Y-113588833D01*
X118435380Y-112969785D01*
X100252304Y-76886380D02*
X100252304Y-75886380D01*
X100490400Y-75886380D01*
X100633257Y-75934000D01*
X100728495Y-76029238D01*
X100776114Y-76124476D01*
X100823733Y-76314952D01*
X100823733Y-76457809D01*
X100776114Y-76648285D01*
X100728495Y-76743523D01*
X100633257Y-76838761D01*
X100490400Y-76886380D01*
X100252304Y-76886380D01*
X101157066Y-75886380D02*
X101776114Y-75886380D01*
X101442780Y-76267333D01*
X101585638Y-76267333D01*
X101680876Y-76314952D01*
X101728495Y-76362571D01*
X101776114Y-76457809D01*
X101776114Y-76695904D01*
X101728495Y-76791142D01*
X101680876Y-76838761D01*
X101585638Y-76886380D01*
X101299923Y-76886380D01*
X101204685Y-76838761D01*
X101157066Y-76791142D01*
X100252304Y-79192380D02*
X100252304Y-78192380D01*
X100490400Y-78192380D01*
X100633257Y-78240000D01*
X100728495Y-78335238D01*
X100776114Y-78430476D01*
X100823733Y-78620952D01*
X100823733Y-78763809D01*
X100776114Y-78954285D01*
X100728495Y-79049523D01*
X100633257Y-79144761D01*
X100490400Y-79192380D01*
X100252304Y-79192380D01*
X101680876Y-78525714D02*
X101680876Y-79192380D01*
X101442780Y-78144761D02*
X101204685Y-78859047D01*
X101823733Y-78859047D01*
X72350380Y-85597833D02*
X73350380Y-85264500D01*
X72350380Y-84931166D01*
X73255142Y-84026404D02*
X73302761Y-84074023D01*
X73350380Y-84216880D01*
X73350380Y-84312119D01*
X73302761Y-84454976D01*
X73207523Y-84550214D01*
X73112285Y-84597833D01*
X72921809Y-84645452D01*
X72778952Y-84645452D01*
X72588476Y-84597833D01*
X72493238Y-84550214D01*
X72398000Y-84454976D01*
X72350380Y-84312119D01*
X72350380Y-84216880D01*
X72398000Y-84074023D01*
X72445619Y-84026404D01*
X73255142Y-83026404D02*
X73302761Y-83074023D01*
X73350380Y-83216880D01*
X73350380Y-83312119D01*
X73302761Y-83454976D01*
X73207523Y-83550214D01*
X73112285Y-83597833D01*
X72921809Y-83645452D01*
X72778952Y-83645452D01*
X72588476Y-83597833D01*
X72493238Y-83550214D01*
X72398000Y-83454976D01*
X72350380Y-83312119D01*
X72350380Y-83216880D01*
X72398000Y-83074023D01*
X72445619Y-83026404D01*
X69159428Y-85677214D02*
X69159428Y-84915309D01*
X69540380Y-85296261D02*
X68778476Y-85296261D01*
X68968952Y-84296261D02*
X68921333Y-84391500D01*
X68873714Y-84439119D01*
X68778476Y-84486738D01*
X68730857Y-84486738D01*
X68635619Y-84439119D01*
X68588000Y-84391500D01*
X68540380Y-84296261D01*
X68540380Y-84105785D01*
X68588000Y-84010547D01*
X68635619Y-83962928D01*
X68730857Y-83915309D01*
X68778476Y-83915309D01*
X68873714Y-83962928D01*
X68921333Y-84010547D01*
X68968952Y-84105785D01*
X68968952Y-84296261D01*
X69016571Y-84391500D01*
X69064190Y-84439119D01*
X69159428Y-84486738D01*
X69349904Y-84486738D01*
X69445142Y-84439119D01*
X69492761Y-84391500D01*
X69540380Y-84296261D01*
X69540380Y-84105785D01*
X69492761Y-84010547D01*
X69445142Y-83962928D01*
X69349904Y-83915309D01*
X69159428Y-83915309D01*
X69064190Y-83962928D01*
X69016571Y-84010547D01*
X68968952Y-84105785D01*
X68540380Y-83629595D02*
X69540380Y-83296261D01*
X68540380Y-82962928D01*
X65349428Y-85612214D02*
X65349428Y-84850309D01*
X65730380Y-85231261D02*
X64968476Y-85231261D01*
X64730380Y-83897928D02*
X64730380Y-84374119D01*
X65206571Y-84421738D01*
X65158952Y-84374119D01*
X65111333Y-84278880D01*
X65111333Y-84040785D01*
X65158952Y-83945547D01*
X65206571Y-83897928D01*
X65301809Y-83850309D01*
X65539904Y-83850309D01*
X65635142Y-83897928D01*
X65682761Y-83945547D01*
X65730380Y-84040785D01*
X65730380Y-84278880D01*
X65682761Y-84374119D01*
X65635142Y-84421738D01*
X64730380Y-83564595D02*
X65730380Y-83231261D01*
X64730380Y-82897928D01*
X61539428Y-86126404D02*
X61539428Y-85364500D01*
X61920380Y-85745452D02*
X61158476Y-85745452D01*
X60920380Y-84983547D02*
X60920380Y-84364500D01*
X61301333Y-84697833D01*
X61301333Y-84554976D01*
X61348952Y-84459738D01*
X61396571Y-84412119D01*
X61491809Y-84364500D01*
X61729904Y-84364500D01*
X61825142Y-84412119D01*
X61872761Y-84459738D01*
X61920380Y-84554976D01*
X61920380Y-84840690D01*
X61872761Y-84935928D01*
X61825142Y-84983547D01*
X60920380Y-84078785D02*
X61920380Y-83745452D01*
X60920380Y-83412119D01*
X60920380Y-83174023D02*
X60920380Y-82554976D01*
X61301333Y-82888309D01*
X61301333Y-82745452D01*
X61348952Y-82650214D01*
X61396571Y-82602595D01*
X61491809Y-82554976D01*
X61729904Y-82554976D01*
X61825142Y-82602595D01*
X61872761Y-82650214D01*
X61920380Y-82745452D01*
X61920380Y-83031166D01*
X61872761Y-83126404D01*
X61825142Y-83174023D01*
X84526380Y-89003095D02*
X83526380Y-89003095D01*
X83526380Y-88765000D01*
X83574000Y-88622142D01*
X83669238Y-88526904D01*
X83764476Y-88479285D01*
X83954952Y-88431666D01*
X84097809Y-88431666D01*
X84288285Y-88479285D01*
X84383523Y-88526904D01*
X84478761Y-88622142D01*
X84526380Y-88765000D01*
X84526380Y-89003095D01*
X84526380Y-87955476D02*
X84526380Y-87765000D01*
X84478761Y-87669761D01*
X84431142Y-87622142D01*
X84288285Y-87526904D01*
X84097809Y-87479285D01*
X83716857Y-87479285D01*
X83621619Y-87526904D01*
X83574000Y-87574523D01*
X83526380Y-87669761D01*
X83526380Y-87860238D01*
X83574000Y-87955476D01*
X83621619Y-88003095D01*
X83716857Y-88050714D01*
X83954952Y-88050714D01*
X84050190Y-88003095D01*
X84097809Y-87955476D01*
X84145428Y-87860238D01*
X84145428Y-87669761D01*
X84097809Y-87574523D01*
X84050190Y-87526904D01*
X83954952Y-87479285D01*
X82367380Y-89987285D02*
X81367380Y-89987285D01*
X81367380Y-89749190D01*
X81415000Y-89606333D01*
X81510238Y-89511095D01*
X81605476Y-89463476D01*
X81795952Y-89415857D01*
X81938809Y-89415857D01*
X82129285Y-89463476D01*
X82224523Y-89511095D01*
X82319761Y-89606333D01*
X82367380Y-89749190D01*
X82367380Y-89987285D01*
X82367380Y-88463476D02*
X82367380Y-89034904D01*
X82367380Y-88749190D02*
X81367380Y-88749190D01*
X81510238Y-88844428D01*
X81605476Y-88939666D01*
X81653095Y-89034904D01*
X81367380Y-87844428D02*
X81367380Y-87749190D01*
X81415000Y-87653952D01*
X81462619Y-87606333D01*
X81557857Y-87558714D01*
X81748333Y-87511095D01*
X81986428Y-87511095D01*
X82176904Y-87558714D01*
X82272142Y-87606333D01*
X82319761Y-87653952D01*
X82367380Y-87749190D01*
X82367380Y-87844428D01*
X82319761Y-87939666D01*
X82272142Y-87987285D01*
X82176904Y-88034904D01*
X81986428Y-88082523D01*
X81748333Y-88082523D01*
X81557857Y-88034904D01*
X81462619Y-87987285D01*
X81415000Y-87939666D01*
X81367380Y-87844428D01*
X74858571Y-135334333D02*
X74858571Y-135667666D01*
X75382380Y-135667666D02*
X74382380Y-135667666D01*
X74382380Y-135191476D01*
X75382380Y-134286714D02*
X75382380Y-134858142D01*
X75382380Y-134572428D02*
X74382380Y-134572428D01*
X74525238Y-134667666D01*
X74620476Y-134762904D01*
X74668095Y-134858142D01*
X44511261Y-112795928D02*
X44558880Y-112653071D01*
X44558880Y-112414976D01*
X44511261Y-112319738D01*
X44463642Y-112272119D01*
X44368404Y-112224500D01*
X44273166Y-112224500D01*
X44177928Y-112272119D01*
X44130309Y-112319738D01*
X44082690Y-112414976D01*
X44035071Y-112605452D01*
X43987452Y-112700690D01*
X43939833Y-112748309D01*
X43844595Y-112795928D01*
X43749357Y-112795928D01*
X43654119Y-112748309D01*
X43606500Y-112700690D01*
X43558880Y-112605452D01*
X43558880Y-112367357D01*
X43606500Y-112224500D01*
X43558880Y-111938785D02*
X43558880Y-111367357D01*
X44558880Y-111653071D02*
X43558880Y-111653071D01*
X44558880Y-111034023D02*
X43558880Y-111034023D01*
X44273166Y-110700690D01*
X43558880Y-110367357D01*
X44558880Y-110367357D01*
X44177928Y-109891166D02*
X44177928Y-109129261D01*
X44558880Y-108653071D02*
X43558880Y-108653071D01*
X43654119Y-108224500D02*
X43606500Y-108176880D01*
X43558880Y-108081642D01*
X43558880Y-107843547D01*
X43606500Y-107748309D01*
X43654119Y-107700690D01*
X43749357Y-107653071D01*
X43844595Y-107653071D01*
X43987452Y-107700690D01*
X44558880Y-108272119D01*
X44558880Y-107653071D01*
X44463642Y-106653071D02*
X44511261Y-106700690D01*
X44558880Y-106843547D01*
X44558880Y-106938785D01*
X44511261Y-107081642D01*
X44416023Y-107176880D01*
X44320785Y-107224500D01*
X44130309Y-107272119D01*
X43987452Y-107272119D01*
X43796976Y-107224500D01*
X43701738Y-107176880D01*
X43606500Y-107081642D01*
X43558880Y-106938785D01*
X43558880Y-106843547D01*
X43606500Y-106700690D01*
X43654119Y-106653071D01*
X43558880Y-122701666D02*
X44558880Y-122368333D01*
X43558880Y-122035000D01*
X44558880Y-121558809D02*
X44511261Y-121654047D01*
X44463642Y-121701666D01*
X44368404Y-121749285D01*
X44082690Y-121749285D01*
X43987452Y-121701666D01*
X43939833Y-121654047D01*
X43892214Y-121558809D01*
X43892214Y-121415952D01*
X43939833Y-121320714D01*
X43987452Y-121273095D01*
X44082690Y-121225476D01*
X44368404Y-121225476D01*
X44463642Y-121273095D01*
X44511261Y-121320714D01*
X44558880Y-121415952D01*
X44558880Y-121558809D01*
X44558880Y-120654047D02*
X44511261Y-120749285D01*
X44416023Y-120796904D01*
X43558880Y-120796904D01*
X43892214Y-120415952D02*
X43892214Y-120035000D01*
X43558880Y-120273095D02*
X44416023Y-120273095D01*
X44511261Y-120225476D01*
X44558880Y-120130238D01*
X44558880Y-120035000D01*
X44558880Y-119273095D02*
X44035071Y-119273095D01*
X43939833Y-119320714D01*
X43892214Y-119415952D01*
X43892214Y-119606428D01*
X43939833Y-119701666D01*
X44511261Y-119273095D02*
X44558880Y-119368333D01*
X44558880Y-119606428D01*
X44511261Y-119701666D01*
X44416023Y-119749285D01*
X44320785Y-119749285D01*
X44225547Y-119701666D01*
X44177928Y-119606428D01*
X44177928Y-119368333D01*
X44130309Y-119273095D01*
X43892214Y-118368333D02*
X44701738Y-118368333D01*
X44796976Y-118415952D01*
X44844595Y-118463571D01*
X44892214Y-118558809D01*
X44892214Y-118701666D01*
X44844595Y-118796904D01*
X44511261Y-118368333D02*
X44558880Y-118463571D01*
X44558880Y-118654047D01*
X44511261Y-118749285D01*
X44463642Y-118796904D01*
X44368404Y-118844523D01*
X44082690Y-118844523D01*
X43987452Y-118796904D01*
X43939833Y-118749285D01*
X43892214Y-118654047D01*
X43892214Y-118463571D01*
X43939833Y-118368333D01*
X44511261Y-117511190D02*
X44558880Y-117606428D01*
X44558880Y-117796904D01*
X44511261Y-117892142D01*
X44416023Y-117939761D01*
X44035071Y-117939761D01*
X43939833Y-117892142D01*
X43892214Y-117796904D01*
X43892214Y-117606428D01*
X43939833Y-117511190D01*
X44035071Y-117463571D01*
X44130309Y-117463571D01*
X44225547Y-117939761D01*
X44035071Y-79934595D02*
X44035071Y-80267928D01*
X44558880Y-80267928D02*
X43558880Y-80267928D01*
X43558880Y-79791738D01*
X43892214Y-78982214D02*
X44558880Y-78982214D01*
X43892214Y-79410785D02*
X44416023Y-79410785D01*
X44511261Y-79363166D01*
X44558880Y-79267928D01*
X44558880Y-79125071D01*
X44511261Y-79029833D01*
X44463642Y-78982214D01*
X43892214Y-78506023D02*
X44558880Y-78506023D01*
X43987452Y-78506023D02*
X43939833Y-78458404D01*
X43892214Y-78363166D01*
X43892214Y-78220309D01*
X43939833Y-78125071D01*
X44035071Y-78077452D01*
X44558880Y-78077452D01*
X43558880Y-77410785D02*
X43558880Y-77315547D01*
X43606500Y-77220309D01*
X43654119Y-77172690D01*
X43749357Y-77125071D01*
X43939833Y-77077452D01*
X44177928Y-77077452D01*
X44368404Y-77125071D01*
X44463642Y-77172690D01*
X44511261Y-77220309D01*
X44558880Y-77315547D01*
X44558880Y-77410785D01*
X44511261Y-77506023D01*
X44463642Y-77553642D01*
X44368404Y-77601261D01*
X44177928Y-77648880D01*
X43939833Y-77648880D01*
X43749357Y-77601261D01*
X43654119Y-77553642D01*
X43606500Y-77506023D01*
X43558880Y-77410785D01*
X44035071Y-87808595D02*
X44035071Y-88141928D01*
X44558880Y-88141928D02*
X43558880Y-88141928D01*
X43558880Y-87665738D01*
X43892214Y-86856214D02*
X44558880Y-86856214D01*
X43892214Y-87284785D02*
X44416023Y-87284785D01*
X44511261Y-87237166D01*
X44558880Y-87141928D01*
X44558880Y-86999071D01*
X44511261Y-86903833D01*
X44463642Y-86856214D01*
X43892214Y-86380023D02*
X44558880Y-86380023D01*
X43987452Y-86380023D02*
X43939833Y-86332404D01*
X43892214Y-86237166D01*
X43892214Y-86094309D01*
X43939833Y-85999071D01*
X44035071Y-85951452D01*
X44558880Y-85951452D01*
X44558880Y-84951452D02*
X44558880Y-85522880D01*
X44558880Y-85237166D02*
X43558880Y-85237166D01*
X43701738Y-85332404D01*
X43796976Y-85427642D01*
X43844595Y-85522880D01*
X43558880Y-72385690D02*
X43558880Y-71766642D01*
X43939833Y-72099976D01*
X43939833Y-71957119D01*
X43987452Y-71861880D01*
X44035071Y-71814261D01*
X44130309Y-71766642D01*
X44368404Y-71766642D01*
X44463642Y-71814261D01*
X44511261Y-71861880D01*
X44558880Y-71957119D01*
X44558880Y-72242833D01*
X44511261Y-72338071D01*
X44463642Y-72385690D01*
X44463642Y-71338071D02*
X44511261Y-71290452D01*
X44558880Y-71338071D01*
X44511261Y-71385690D01*
X44463642Y-71338071D01*
X44558880Y-71338071D01*
X43558880Y-70957119D02*
X43558880Y-70338071D01*
X43939833Y-70671404D01*
X43939833Y-70528547D01*
X43987452Y-70433309D01*
X44035071Y-70385690D01*
X44130309Y-70338071D01*
X44368404Y-70338071D01*
X44463642Y-70385690D01*
X44511261Y-70433309D01*
X44558880Y-70528547D01*
X44558880Y-70814261D01*
X44511261Y-70909500D01*
X44463642Y-70957119D01*
X43558880Y-70052357D02*
X44558880Y-69719023D01*
X43558880Y-69385690D01*
X111268428Y-75435571D02*
X111411285Y-75483190D01*
X111458904Y-75530809D01*
X111506523Y-75626047D01*
X111506523Y-75768904D01*
X111458904Y-75864142D01*
X111411285Y-75911761D01*
X111316047Y-75959380D01*
X110935095Y-75959380D01*
X110935095Y-74959380D01*
X111268428Y-74959380D01*
X111363666Y-75007000D01*
X111411285Y-75054619D01*
X111458904Y-75149857D01*
X111458904Y-75245095D01*
X111411285Y-75340333D01*
X111363666Y-75387952D01*
X111268428Y-75435571D01*
X110935095Y-75435571D01*
X112363666Y-75292714D02*
X112363666Y-75959380D01*
X111935095Y-75292714D02*
X111935095Y-75816523D01*
X111982714Y-75911761D01*
X112077952Y-75959380D01*
X112220809Y-75959380D01*
X112316047Y-75911761D01*
X112363666Y-75864142D01*
X112744619Y-75292714D02*
X113268428Y-75292714D01*
X112744619Y-75959380D01*
X113268428Y-75959380D01*
X113554142Y-75292714D02*
X114077952Y-75292714D01*
X113554142Y-75959380D01*
X114077952Y-75959380D01*
X114839857Y-75911761D02*
X114744619Y-75959380D01*
X114554142Y-75959380D01*
X114458904Y-75911761D01*
X114411285Y-75816523D01*
X114411285Y-75435571D01*
X114458904Y-75340333D01*
X114554142Y-75292714D01*
X114744619Y-75292714D01*
X114839857Y-75340333D01*
X114887476Y-75435571D01*
X114887476Y-75530809D01*
X114411285Y-75626047D01*
X115316047Y-75959380D02*
X115316047Y-75292714D01*
X115316047Y-75483190D02*
X115363666Y-75387952D01*
X115411285Y-75340333D01*
X115506523Y-75292714D01*
X115601761Y-75292714D01*
X71286619Y-122718238D02*
X71239000Y-122813476D01*
X71143761Y-122908714D01*
X71000904Y-123051571D01*
X70953285Y-123146809D01*
X70953285Y-123242047D01*
X71191380Y-123194428D02*
X71143761Y-123289666D01*
X71048523Y-123384904D01*
X70858047Y-123432523D01*
X70524714Y-123432523D01*
X70334238Y-123384904D01*
X70239000Y-123289666D01*
X70191380Y-123194428D01*
X70191380Y-123003952D01*
X70239000Y-122908714D01*
X70334238Y-122813476D01*
X70524714Y-122765857D01*
X70858047Y-122765857D01*
X71048523Y-122813476D01*
X71143761Y-122908714D01*
X71191380Y-123003952D01*
X71191380Y-123194428D01*
X71191380Y-121813476D02*
X71191380Y-122384904D01*
X71191380Y-122099190D02*
X70191380Y-122099190D01*
X70334238Y-122194428D01*
X70429476Y-122289666D01*
X70477095Y-122384904D01*
X94118133Y-99613980D02*
X93784800Y-99137790D01*
X93546704Y-99613980D02*
X93546704Y-98613980D01*
X93927657Y-98613980D01*
X94022895Y-98661600D01*
X94070514Y-98709219D01*
X94118133Y-98804457D01*
X94118133Y-98947314D01*
X94070514Y-99042552D01*
X94022895Y-99090171D01*
X93927657Y-99137790D01*
X93546704Y-99137790D01*
X95070514Y-99613980D02*
X94499085Y-99613980D01*
X94784800Y-99613980D02*
X94784800Y-98613980D01*
X94689561Y-98756838D01*
X94594323Y-98852076D01*
X94499085Y-98899695D01*
X114133333Y-112212380D02*
X113800000Y-111736190D01*
X113561904Y-112212380D02*
X113561904Y-111212380D01*
X113942857Y-111212380D01*
X114038095Y-111260000D01*
X114085714Y-111307619D01*
X114133333Y-111402857D01*
X114133333Y-111545714D01*
X114085714Y-111640952D01*
X114038095Y-111688571D01*
X113942857Y-111736190D01*
X113561904Y-111736190D01*
X114514285Y-111307619D02*
X114561904Y-111260000D01*
X114657142Y-111212380D01*
X114895238Y-111212380D01*
X114990476Y-111260000D01*
X115038095Y-111307619D01*
X115085714Y-111402857D01*
X115085714Y-111498095D01*
X115038095Y-111640952D01*
X114466666Y-112212380D01*
X115085714Y-112212380D01*
X84018380Y-94273666D02*
X83542190Y-94607000D01*
X84018380Y-94845095D02*
X83018380Y-94845095D01*
X83018380Y-94464142D01*
X83066000Y-94368904D01*
X83113619Y-94321285D01*
X83208857Y-94273666D01*
X83351714Y-94273666D01*
X83446952Y-94321285D01*
X83494571Y-94368904D01*
X83542190Y-94464142D01*
X83542190Y-94845095D01*
X83018380Y-93940333D02*
X83018380Y-93321285D01*
X83399333Y-93654619D01*
X83399333Y-93511761D01*
X83446952Y-93416523D01*
X83494571Y-93368904D01*
X83589809Y-93321285D01*
X83827904Y-93321285D01*
X83923142Y-93368904D01*
X83970761Y-93416523D01*
X84018380Y-93511761D01*
X84018380Y-93797476D01*
X83970761Y-93892714D01*
X83923142Y-93940333D01*
X82240380Y-94282666D02*
X81764190Y-94616000D01*
X82240380Y-94854095D02*
X81240380Y-94854095D01*
X81240380Y-94473142D01*
X81288000Y-94377904D01*
X81335619Y-94330285D01*
X81430857Y-94282666D01*
X81573714Y-94282666D01*
X81668952Y-94330285D01*
X81716571Y-94377904D01*
X81764190Y-94473142D01*
X81764190Y-94854095D01*
X81573714Y-93425523D02*
X82240380Y-93425523D01*
X81192761Y-93663619D02*
X81907047Y-93901714D01*
X81907047Y-93282666D01*
X80462380Y-94273666D02*
X79986190Y-94607000D01*
X80462380Y-94845095D02*
X79462380Y-94845095D01*
X79462380Y-94464142D01*
X79510000Y-94368904D01*
X79557619Y-94321285D01*
X79652857Y-94273666D01*
X79795714Y-94273666D01*
X79890952Y-94321285D01*
X79938571Y-94368904D01*
X79986190Y-94464142D01*
X79986190Y-94845095D01*
X79462380Y-93368904D02*
X79462380Y-93845095D01*
X79938571Y-93892714D01*
X79890952Y-93845095D01*
X79843333Y-93749857D01*
X79843333Y-93511761D01*
X79890952Y-93416523D01*
X79938571Y-93368904D01*
X80033809Y-93321285D01*
X80271904Y-93321285D01*
X80367142Y-93368904D01*
X80414761Y-93416523D01*
X80462380Y-93511761D01*
X80462380Y-93749857D01*
X80414761Y-93845095D01*
X80367142Y-93892714D01*
X102940380Y-83850666D02*
X102464190Y-84184000D01*
X102940380Y-84422095D02*
X101940380Y-84422095D01*
X101940380Y-84041142D01*
X101988000Y-83945904D01*
X102035619Y-83898285D01*
X102130857Y-83850666D01*
X102273714Y-83850666D01*
X102368952Y-83898285D01*
X102416571Y-83945904D01*
X102464190Y-84041142D01*
X102464190Y-84422095D01*
X101940380Y-82993523D02*
X101940380Y-83184000D01*
X101988000Y-83279238D01*
X102035619Y-83326857D01*
X102178476Y-83422095D01*
X102368952Y-83469714D01*
X102749904Y-83469714D01*
X102845142Y-83422095D01*
X102892761Y-83374476D01*
X102940380Y-83279238D01*
X102940380Y-83088761D01*
X102892761Y-82993523D01*
X102845142Y-82945904D01*
X102749904Y-82898285D01*
X102511809Y-82898285D01*
X102416571Y-82945904D01*
X102368952Y-82993523D01*
X102321333Y-83088761D01*
X102321333Y-83279238D01*
X102368952Y-83374476D01*
X102416571Y-83422095D01*
X102511809Y-83469714D01*
X77541380Y-106465666D02*
X77065190Y-106799000D01*
X77541380Y-107037095D02*
X76541380Y-107037095D01*
X76541380Y-106656142D01*
X76589000Y-106560904D01*
X76636619Y-106513285D01*
X76731857Y-106465666D01*
X76874714Y-106465666D01*
X76969952Y-106513285D01*
X77017571Y-106560904D01*
X77065190Y-106656142D01*
X77065190Y-107037095D01*
X76541380Y-106132333D02*
X76541380Y-105465666D01*
X77541380Y-105894238D01*
X75763380Y-106456666D02*
X75287190Y-106790000D01*
X75763380Y-107028095D02*
X74763380Y-107028095D01*
X74763380Y-106647142D01*
X74811000Y-106551904D01*
X74858619Y-106504285D01*
X74953857Y-106456666D01*
X75096714Y-106456666D01*
X75191952Y-106504285D01*
X75239571Y-106551904D01*
X75287190Y-106647142D01*
X75287190Y-107028095D01*
X75191952Y-105885238D02*
X75144333Y-105980476D01*
X75096714Y-106028095D01*
X75001476Y-106075714D01*
X74953857Y-106075714D01*
X74858619Y-106028095D01*
X74811000Y-105980476D01*
X74763380Y-105885238D01*
X74763380Y-105694761D01*
X74811000Y-105599523D01*
X74858619Y-105551904D01*
X74953857Y-105504285D01*
X75001476Y-105504285D01*
X75096714Y-105551904D01*
X75144333Y-105599523D01*
X75191952Y-105694761D01*
X75191952Y-105885238D01*
X75239571Y-105980476D01*
X75287190Y-106028095D01*
X75382428Y-106075714D01*
X75572904Y-106075714D01*
X75668142Y-106028095D01*
X75715761Y-105980476D01*
X75763380Y-105885238D01*
X75763380Y-105694761D01*
X75715761Y-105599523D01*
X75668142Y-105551904D01*
X75572904Y-105504285D01*
X75382428Y-105504285D01*
X75287190Y-105551904D01*
X75239571Y-105599523D01*
X75191952Y-105694761D01*
X73982380Y-106477666D02*
X73506190Y-106811000D01*
X73982380Y-107049095D02*
X72982380Y-107049095D01*
X72982380Y-106668142D01*
X73030000Y-106572904D01*
X73077619Y-106525285D01*
X73172857Y-106477666D01*
X73315714Y-106477666D01*
X73410952Y-106525285D01*
X73458571Y-106572904D01*
X73506190Y-106668142D01*
X73506190Y-107049095D01*
X73982380Y-106001476D02*
X73982380Y-105811000D01*
X73934761Y-105715761D01*
X73887142Y-105668142D01*
X73744285Y-105572904D01*
X73553809Y-105525285D01*
X73172857Y-105525285D01*
X73077619Y-105572904D01*
X73030000Y-105620523D01*
X72982380Y-105715761D01*
X72982380Y-105906238D01*
X73030000Y-106001476D01*
X73077619Y-106049095D01*
X73172857Y-106096714D01*
X73410952Y-106096714D01*
X73506190Y-106049095D01*
X73553809Y-106001476D01*
X73601428Y-105906238D01*
X73601428Y-105715761D01*
X73553809Y-105620523D01*
X73506190Y-105572904D01*
X73410952Y-105525285D01*
X97607380Y-80262857D02*
X97131190Y-80596190D01*
X97607380Y-80834285D02*
X96607380Y-80834285D01*
X96607380Y-80453333D01*
X96655000Y-80358095D01*
X96702619Y-80310476D01*
X96797857Y-80262857D01*
X96940714Y-80262857D01*
X97035952Y-80310476D01*
X97083571Y-80358095D01*
X97131190Y-80453333D01*
X97131190Y-80834285D01*
X97607380Y-79310476D02*
X97607380Y-79881904D01*
X97607380Y-79596190D02*
X96607380Y-79596190D01*
X96750238Y-79691428D01*
X96845476Y-79786666D01*
X96893095Y-79881904D01*
X96607380Y-78691428D02*
X96607380Y-78596190D01*
X96655000Y-78500952D01*
X96702619Y-78453333D01*
X96797857Y-78405714D01*
X96988333Y-78358095D01*
X97226428Y-78358095D01*
X97416904Y-78405714D01*
X97512142Y-78453333D01*
X97559761Y-78500952D01*
X97607380Y-78596190D01*
X97607380Y-78691428D01*
X97559761Y-78786666D01*
X97512142Y-78834285D01*
X97416904Y-78881904D01*
X97226428Y-78929523D01*
X96988333Y-78929523D01*
X96797857Y-78881904D01*
X96702619Y-78834285D01*
X96655000Y-78786666D01*
X96607380Y-78691428D01*
X72207380Y-106433857D02*
X71731190Y-106767190D01*
X72207380Y-107005285D02*
X71207380Y-107005285D01*
X71207380Y-106624333D01*
X71255000Y-106529095D01*
X71302619Y-106481476D01*
X71397857Y-106433857D01*
X71540714Y-106433857D01*
X71635952Y-106481476D01*
X71683571Y-106529095D01*
X71731190Y-106624333D01*
X71731190Y-107005285D01*
X72207380Y-105481476D02*
X72207380Y-106052904D01*
X72207380Y-105767190D02*
X71207380Y-105767190D01*
X71350238Y-105862428D01*
X71445476Y-105957666D01*
X71493095Y-106052904D01*
X72207380Y-104529095D02*
X72207380Y-105100523D01*
X72207380Y-104814809D02*
X71207380Y-104814809D01*
X71350238Y-104910047D01*
X71445476Y-105005285D01*
X71493095Y-105100523D01*
X103064380Y-103261857D02*
X102588190Y-103595190D01*
X103064380Y-103833285D02*
X102064380Y-103833285D01*
X102064380Y-103452333D01*
X102112000Y-103357095D01*
X102159619Y-103309476D01*
X102254857Y-103261857D01*
X102397714Y-103261857D01*
X102492952Y-103309476D01*
X102540571Y-103357095D01*
X102588190Y-103452333D01*
X102588190Y-103833285D01*
X103064380Y-102309476D02*
X103064380Y-102880904D01*
X103064380Y-102595190D02*
X102064380Y-102595190D01*
X102207238Y-102690428D01*
X102302476Y-102785666D01*
X102350095Y-102880904D01*
X102159619Y-101928523D02*
X102112000Y-101880904D01*
X102064380Y-101785666D01*
X102064380Y-101547571D01*
X102112000Y-101452333D01*
X102159619Y-101404714D01*
X102254857Y-101357095D01*
X102350095Y-101357095D01*
X102492952Y-101404714D01*
X103064380Y-101976142D01*
X103064380Y-101357095D01*
X101294380Y-103252857D02*
X100818190Y-103586190D01*
X101294380Y-103824285D02*
X100294380Y-103824285D01*
X100294380Y-103443333D01*
X100342000Y-103348095D01*
X100389619Y-103300476D01*
X100484857Y-103252857D01*
X100627714Y-103252857D01*
X100722952Y-103300476D01*
X100770571Y-103348095D01*
X100818190Y-103443333D01*
X100818190Y-103824285D01*
X101294380Y-102300476D02*
X101294380Y-102871904D01*
X101294380Y-102586190D02*
X100294380Y-102586190D01*
X100437238Y-102681428D01*
X100532476Y-102776666D01*
X100580095Y-102871904D01*
X100294380Y-101967142D02*
X100294380Y-101348095D01*
X100675333Y-101681428D01*
X100675333Y-101538571D01*
X100722952Y-101443333D01*
X100770571Y-101395714D01*
X100865809Y-101348095D01*
X101103904Y-101348095D01*
X101199142Y-101395714D01*
X101246761Y-101443333D01*
X101294380Y-101538571D01*
X101294380Y-101824285D01*
X101246761Y-101919523D01*
X101199142Y-101967142D01*
X99385380Y-80262857D02*
X98909190Y-80596190D01*
X99385380Y-80834285D02*
X98385380Y-80834285D01*
X98385380Y-80453333D01*
X98433000Y-80358095D01*
X98480619Y-80310476D01*
X98575857Y-80262857D01*
X98718714Y-80262857D01*
X98813952Y-80310476D01*
X98861571Y-80358095D01*
X98909190Y-80453333D01*
X98909190Y-80834285D01*
X99385380Y-79310476D02*
X99385380Y-79881904D01*
X99385380Y-79596190D02*
X98385380Y-79596190D01*
X98528238Y-79691428D01*
X98623476Y-79786666D01*
X98671095Y-79881904D01*
X98385380Y-78405714D02*
X98385380Y-78881904D01*
X98861571Y-78929523D01*
X98813952Y-78881904D01*
X98766333Y-78786666D01*
X98766333Y-78548571D01*
X98813952Y-78453333D01*
X98861571Y-78405714D01*
X98956809Y-78358095D01*
X99194904Y-78358095D01*
X99290142Y-78405714D01*
X99337761Y-78453333D01*
X99385380Y-78548571D01*
X99385380Y-78786666D01*
X99337761Y-78881904D01*
X99290142Y-78929523D01*
X119578380Y-76325857D02*
X119102190Y-76659190D01*
X119578380Y-76897285D02*
X118578380Y-76897285D01*
X118578380Y-76516333D01*
X118626000Y-76421095D01*
X118673619Y-76373476D01*
X118768857Y-76325857D01*
X118911714Y-76325857D01*
X119006952Y-76373476D01*
X119054571Y-76421095D01*
X119102190Y-76516333D01*
X119102190Y-76897285D01*
X119578380Y-75373476D02*
X119578380Y-75944904D01*
X119578380Y-75659190D02*
X118578380Y-75659190D01*
X118721238Y-75754428D01*
X118816476Y-75849666D01*
X118864095Y-75944904D01*
X118578380Y-75040142D02*
X118578380Y-74373476D01*
X119578380Y-74802047D01*
X67635380Y-80779857D02*
X67159190Y-81113190D01*
X67635380Y-81351285D02*
X66635380Y-81351285D01*
X66635380Y-80970333D01*
X66683000Y-80875095D01*
X66730619Y-80827476D01*
X66825857Y-80779857D01*
X66968714Y-80779857D01*
X67063952Y-80827476D01*
X67111571Y-80875095D01*
X67159190Y-80970333D01*
X67159190Y-81351285D01*
X67635380Y-79827476D02*
X67635380Y-80398904D01*
X67635380Y-80113190D02*
X66635380Y-80113190D01*
X66778238Y-80208428D01*
X66873476Y-80303666D01*
X66921095Y-80398904D01*
X67063952Y-79256047D02*
X67016333Y-79351285D01*
X66968714Y-79398904D01*
X66873476Y-79446523D01*
X66825857Y-79446523D01*
X66730619Y-79398904D01*
X66683000Y-79351285D01*
X66635380Y-79256047D01*
X66635380Y-79065571D01*
X66683000Y-78970333D01*
X66730619Y-78922714D01*
X66825857Y-78875095D01*
X66873476Y-78875095D01*
X66968714Y-78922714D01*
X67016333Y-78970333D01*
X67063952Y-79065571D01*
X67063952Y-79256047D01*
X67111571Y-79351285D01*
X67159190Y-79398904D01*
X67254428Y-79446523D01*
X67444904Y-79446523D01*
X67540142Y-79398904D01*
X67587761Y-79351285D01*
X67635380Y-79256047D01*
X67635380Y-79065571D01*
X67587761Y-78970333D01*
X67540142Y-78922714D01*
X67444904Y-78875095D01*
X67254428Y-78875095D01*
X67159190Y-78922714D01*
X67111571Y-78970333D01*
X67063952Y-79065571D01*
X65857380Y-80779857D02*
X65381190Y-81113190D01*
X65857380Y-81351285D02*
X64857380Y-81351285D01*
X64857380Y-80970333D01*
X64905000Y-80875095D01*
X64952619Y-80827476D01*
X65047857Y-80779857D01*
X65190714Y-80779857D01*
X65285952Y-80827476D01*
X65333571Y-80875095D01*
X65381190Y-80970333D01*
X65381190Y-81351285D01*
X65857380Y-79827476D02*
X65857380Y-80398904D01*
X65857380Y-80113190D02*
X64857380Y-80113190D01*
X65000238Y-80208428D01*
X65095476Y-80303666D01*
X65143095Y-80398904D01*
X65857380Y-79351285D02*
X65857380Y-79160809D01*
X65809761Y-79065571D01*
X65762142Y-79017952D01*
X65619285Y-78922714D01*
X65428809Y-78875095D01*
X65047857Y-78875095D01*
X64952619Y-78922714D01*
X64905000Y-78970333D01*
X64857380Y-79065571D01*
X64857380Y-79256047D01*
X64905000Y-79351285D01*
X64952619Y-79398904D01*
X65047857Y-79446523D01*
X65285952Y-79446523D01*
X65381190Y-79398904D01*
X65428809Y-79351285D01*
X65476428Y-79256047D01*
X65476428Y-79065571D01*
X65428809Y-78970333D01*
X65381190Y-78922714D01*
X65285952Y-78875095D01*
X64079380Y-80779857D02*
X63603190Y-81113190D01*
X64079380Y-81351285D02*
X63079380Y-81351285D01*
X63079380Y-80970333D01*
X63127000Y-80875095D01*
X63174619Y-80827476D01*
X63269857Y-80779857D01*
X63412714Y-80779857D01*
X63507952Y-80827476D01*
X63555571Y-80875095D01*
X63603190Y-80970333D01*
X63603190Y-81351285D01*
X63174619Y-80398904D02*
X63127000Y-80351285D01*
X63079380Y-80256047D01*
X63079380Y-80017952D01*
X63127000Y-79922714D01*
X63174619Y-79875095D01*
X63269857Y-79827476D01*
X63365095Y-79827476D01*
X63507952Y-79875095D01*
X64079380Y-80446523D01*
X64079380Y-79827476D01*
X63079380Y-79208428D02*
X63079380Y-79113190D01*
X63127000Y-79017952D01*
X63174619Y-78970333D01*
X63269857Y-78922714D01*
X63460333Y-78875095D01*
X63698428Y-78875095D01*
X63888904Y-78922714D01*
X63984142Y-78970333D01*
X64031761Y-79017952D01*
X64079380Y-79113190D01*
X64079380Y-79208428D01*
X64031761Y-79303666D01*
X63984142Y-79351285D01*
X63888904Y-79398904D01*
X63698428Y-79446523D01*
X63460333Y-79446523D01*
X63269857Y-79398904D01*
X63174619Y-79351285D01*
X63127000Y-79303666D01*
X63079380Y-79208428D01*
X62301380Y-80788857D02*
X61825190Y-81122190D01*
X62301380Y-81360285D02*
X61301380Y-81360285D01*
X61301380Y-80979333D01*
X61349000Y-80884095D01*
X61396619Y-80836476D01*
X61491857Y-80788857D01*
X61634714Y-80788857D01*
X61729952Y-80836476D01*
X61777571Y-80884095D01*
X61825190Y-80979333D01*
X61825190Y-81360285D01*
X61396619Y-80407904D02*
X61349000Y-80360285D01*
X61301380Y-80265047D01*
X61301380Y-80026952D01*
X61349000Y-79931714D01*
X61396619Y-79884095D01*
X61491857Y-79836476D01*
X61587095Y-79836476D01*
X61729952Y-79884095D01*
X62301380Y-80455523D01*
X62301380Y-79836476D01*
X62301380Y-78884095D02*
X62301380Y-79455523D01*
X62301380Y-79169809D02*
X61301380Y-79169809D01*
X61444238Y-79265047D01*
X61539476Y-79360285D01*
X61587095Y-79455523D01*
X95829380Y-80271857D02*
X95353190Y-80605190D01*
X95829380Y-80843285D02*
X94829380Y-80843285D01*
X94829380Y-80462333D01*
X94877000Y-80367095D01*
X94924619Y-80319476D01*
X95019857Y-80271857D01*
X95162714Y-80271857D01*
X95257952Y-80319476D01*
X95305571Y-80367095D01*
X95353190Y-80462333D01*
X95353190Y-80843285D01*
X94924619Y-79890904D02*
X94877000Y-79843285D01*
X94829380Y-79748047D01*
X94829380Y-79509952D01*
X94877000Y-79414714D01*
X94924619Y-79367095D01*
X95019857Y-79319476D01*
X95115095Y-79319476D01*
X95257952Y-79367095D01*
X95829380Y-79938523D01*
X95829380Y-79319476D01*
X94924619Y-78938523D02*
X94877000Y-78890904D01*
X94829380Y-78795666D01*
X94829380Y-78557571D01*
X94877000Y-78462333D01*
X94924619Y-78414714D01*
X95019857Y-78367095D01*
X95115095Y-78367095D01*
X95257952Y-78414714D01*
X95829380Y-78986142D01*
X95829380Y-78367095D01*
X86685380Y-88762857D02*
X86209190Y-89096190D01*
X86685380Y-89334285D02*
X85685380Y-89334285D01*
X85685380Y-88953333D01*
X85733000Y-88858095D01*
X85780619Y-88810476D01*
X85875857Y-88762857D01*
X86018714Y-88762857D01*
X86113952Y-88810476D01*
X86161571Y-88858095D01*
X86209190Y-88953333D01*
X86209190Y-89334285D01*
X85780619Y-88381904D02*
X85733000Y-88334285D01*
X85685380Y-88239047D01*
X85685380Y-88000952D01*
X85733000Y-87905714D01*
X85780619Y-87858095D01*
X85875857Y-87810476D01*
X85971095Y-87810476D01*
X86113952Y-87858095D01*
X86685380Y-88429523D01*
X86685380Y-87810476D01*
X85685380Y-87477142D02*
X85685380Y-86858095D01*
X86066333Y-87191428D01*
X86066333Y-87048571D01*
X86113952Y-86953333D01*
X86161571Y-86905714D01*
X86256809Y-86858095D01*
X86494904Y-86858095D01*
X86590142Y-86905714D01*
X86637761Y-86953333D01*
X86685380Y-87048571D01*
X86685380Y-87334285D01*
X86637761Y-87429523D01*
X86590142Y-87477142D01*
X88463380Y-88780857D02*
X87987190Y-89114190D01*
X88463380Y-89352285D02*
X87463380Y-89352285D01*
X87463380Y-88971333D01*
X87511000Y-88876095D01*
X87558619Y-88828476D01*
X87653857Y-88780857D01*
X87796714Y-88780857D01*
X87891952Y-88828476D01*
X87939571Y-88876095D01*
X87987190Y-88971333D01*
X87987190Y-89352285D01*
X87558619Y-88399904D02*
X87511000Y-88352285D01*
X87463380Y-88257047D01*
X87463380Y-88018952D01*
X87511000Y-87923714D01*
X87558619Y-87876095D01*
X87653857Y-87828476D01*
X87749095Y-87828476D01*
X87891952Y-87876095D01*
X88463380Y-88447523D01*
X88463380Y-87828476D01*
X87796714Y-86971333D02*
X88463380Y-86971333D01*
X87415761Y-87209428D02*
X88130047Y-87447523D01*
X88130047Y-86828476D01*
X112077666Y-91389761D02*
X112220523Y-91437380D01*
X112458619Y-91437380D01*
X112553857Y-91389761D01*
X112601476Y-91342142D01*
X112649095Y-91246904D01*
X112649095Y-91151666D01*
X112601476Y-91056428D01*
X112553857Y-91008809D01*
X112458619Y-90961190D01*
X112268142Y-90913571D01*
X112172904Y-90865952D01*
X112125285Y-90818333D01*
X112077666Y-90723095D01*
X112077666Y-90627857D01*
X112125285Y-90532619D01*
X112172904Y-90485000D01*
X112268142Y-90437380D01*
X112506238Y-90437380D01*
X112649095Y-90485000D01*
X112982428Y-90437380D02*
X113220523Y-91437380D01*
X113411000Y-90723095D01*
X113601476Y-91437380D01*
X113839571Y-90437380D01*
X114744333Y-91437380D02*
X114172904Y-91437380D01*
X114458619Y-91437380D02*
X114458619Y-90437380D01*
X114363380Y-90580238D01*
X114268142Y-90675476D01*
X114172904Y-90723095D01*
X75652714Y-81243761D02*
X75795571Y-81291380D01*
X76033666Y-81291380D01*
X76128904Y-81243761D01*
X76176523Y-81196142D01*
X76224142Y-81100904D01*
X76224142Y-81005666D01*
X76176523Y-80910428D01*
X76128904Y-80862809D01*
X76033666Y-80815190D01*
X75843190Y-80767571D01*
X75747952Y-80719952D01*
X75700333Y-80672333D01*
X75652714Y-80577095D01*
X75652714Y-80481857D01*
X75700333Y-80386619D01*
X75747952Y-80339000D01*
X75843190Y-80291380D01*
X76081285Y-80291380D01*
X76224142Y-80339000D01*
X76509857Y-80291380D02*
X77081285Y-80291380D01*
X76795571Y-81291380D02*
X76795571Y-80291380D01*
X77414619Y-81291380D02*
X77414619Y-80291380D01*
X77747952Y-81005666D01*
X78081285Y-80291380D01*
X78081285Y-81291380D01*
X78557476Y-80910428D02*
X79319380Y-80910428D01*
X80367000Y-81291380D02*
X80033666Y-80815190D01*
X79795571Y-81291380D02*
X79795571Y-80291380D01*
X80176523Y-80291380D01*
X80271761Y-80339000D01*
X80319380Y-80386619D01*
X80367000Y-80481857D01*
X80367000Y-80624714D01*
X80319380Y-80719952D01*
X80271761Y-80767571D01*
X80176523Y-80815190D01*
X79795571Y-80815190D01*
X80747952Y-81243761D02*
X80890809Y-81291380D01*
X81128904Y-81291380D01*
X81224142Y-81243761D01*
X81271761Y-81196142D01*
X81319380Y-81100904D01*
X81319380Y-81005666D01*
X81271761Y-80910428D01*
X81224142Y-80862809D01*
X81128904Y-80815190D01*
X80938428Y-80767571D01*
X80843190Y-80719952D01*
X80795571Y-80672333D01*
X80747952Y-80577095D01*
X80747952Y-80481857D01*
X80795571Y-80386619D01*
X80843190Y-80339000D01*
X80938428Y-80291380D01*
X81176523Y-80291380D01*
X81319380Y-80339000D01*
X81605095Y-80291380D02*
X82176523Y-80291380D01*
X81890809Y-81291380D02*
X81890809Y-80291380D01*
X85682438Y-81325980D02*
X85349104Y-80849790D01*
X85111009Y-81325980D02*
X85111009Y-80325980D01*
X85491961Y-80325980D01*
X85587200Y-80373600D01*
X85634819Y-80421219D01*
X85682438Y-80516457D01*
X85682438Y-80659314D01*
X85634819Y-80754552D01*
X85587200Y-80802171D01*
X85491961Y-80849790D01*
X85111009Y-80849790D01*
X86111009Y-81325980D02*
X86111009Y-80325980D01*
X86491961Y-80325980D01*
X86587200Y-80373600D01*
X86634819Y-80421219D01*
X86682438Y-80516457D01*
X86682438Y-80659314D01*
X86634819Y-80754552D01*
X86587200Y-80802171D01*
X86491961Y-80849790D01*
X86111009Y-80849790D01*
X87111009Y-81325980D02*
X87111009Y-80659314D01*
X87111009Y-80325980D02*
X87063390Y-80373600D01*
X87111009Y-80421219D01*
X87158628Y-80373600D01*
X87111009Y-80325980D01*
X87111009Y-80421219D01*
X87587200Y-80945028D02*
X88349104Y-80945028D01*
X89396723Y-81325980D02*
X89063390Y-80849790D01*
X88825295Y-81325980D02*
X88825295Y-80325980D01*
X89206247Y-80325980D01*
X89301485Y-80373600D01*
X89349104Y-80421219D01*
X89396723Y-80516457D01*
X89396723Y-80659314D01*
X89349104Y-80754552D01*
X89301485Y-80802171D01*
X89206247Y-80849790D01*
X88825295Y-80849790D01*
X89777676Y-81278361D02*
X89920533Y-81325980D01*
X90158628Y-81325980D01*
X90253866Y-81278361D01*
X90301485Y-81230742D01*
X90349104Y-81135504D01*
X90349104Y-81040266D01*
X90301485Y-80945028D01*
X90253866Y-80897409D01*
X90158628Y-80849790D01*
X89968152Y-80802171D01*
X89872914Y-80754552D01*
X89825295Y-80706933D01*
X89777676Y-80611695D01*
X89777676Y-80516457D01*
X89825295Y-80421219D01*
X89872914Y-80373600D01*
X89968152Y-80325980D01*
X90206247Y-80325980D01*
X90349104Y-80373600D01*
X90634819Y-80325980D02*
X91206247Y-80325980D01*
X90920533Y-81325980D02*
X90920533Y-80325980D01*
X95250095Y-104559380D02*
X95250095Y-105368904D01*
X95297714Y-105464142D01*
X95345333Y-105511761D01*
X95440571Y-105559380D01*
X95631047Y-105559380D01*
X95726285Y-105511761D01*
X95773904Y-105464142D01*
X95821523Y-105368904D01*
X95821523Y-104559380D01*
X96821523Y-105559380D02*
X96250095Y-105559380D01*
X96535809Y-105559380D02*
X96535809Y-104559380D01*
X96440571Y-104702238D01*
X96345333Y-104797476D01*
X96250095Y-104845095D01*
X44558880Y-99166404D02*
X44082690Y-99499738D01*
X44558880Y-99737833D02*
X43558880Y-99737833D01*
X43558880Y-99356880D01*
X43606500Y-99261642D01*
X43654119Y-99214023D01*
X43749357Y-99166404D01*
X43892214Y-99166404D01*
X43987452Y-99214023D01*
X44035071Y-99261642D01*
X44082690Y-99356880D01*
X44082690Y-99737833D01*
X44558880Y-98737833D02*
X43558880Y-98737833D01*
X43558880Y-98356880D01*
X43606500Y-98261642D01*
X43654119Y-98214023D01*
X43749357Y-98166404D01*
X43892214Y-98166404D01*
X43987452Y-98214023D01*
X44035071Y-98261642D01*
X44082690Y-98356880D01*
X44082690Y-98737833D01*
X44558880Y-97737833D02*
X43892214Y-97737833D01*
X43558880Y-97737833D02*
X43606500Y-97785452D01*
X43654119Y-97737833D01*
X43606500Y-97690214D01*
X43558880Y-97737833D01*
X43654119Y-97737833D01*
X44177928Y-97261642D02*
X44177928Y-96499738D01*
X44558880Y-96023547D02*
X43558880Y-96023547D01*
X43654119Y-95594976D02*
X43606500Y-95547357D01*
X43558880Y-95452119D01*
X43558880Y-95214023D01*
X43606500Y-95118785D01*
X43654119Y-95071166D01*
X43749357Y-95023547D01*
X43844595Y-95023547D01*
X43987452Y-95071166D01*
X44558880Y-95642595D01*
X44558880Y-95023547D01*
X44463642Y-94023547D02*
X44511261Y-94071166D01*
X44558880Y-94214023D01*
X44558880Y-94309261D01*
X44511261Y-94452119D01*
X44416023Y-94547357D01*
X44320785Y-94594976D01*
X44130309Y-94642595D01*
X43987452Y-94642595D01*
X43796976Y-94594976D01*
X43701738Y-94547357D01*
X43606500Y-94452119D01*
X43558880Y-94309261D01*
X43558880Y-94214023D01*
X43606500Y-94071166D01*
X43654119Y-94023547D01*
X90908142Y-104814666D02*
X90955761Y-104862285D01*
X91003380Y-105005142D01*
X91003380Y-105100380D01*
X90955761Y-105243238D01*
X90860523Y-105338476D01*
X90765285Y-105386095D01*
X90574809Y-105433714D01*
X90431952Y-105433714D01*
X90241476Y-105386095D01*
X90146238Y-105338476D01*
X90051000Y-105243238D01*
X90003380Y-105100380D01*
X90003380Y-105005142D01*
X90051000Y-104862285D01*
X90098619Y-104814666D01*
X90003380Y-104481333D02*
X90003380Y-103814666D01*
X91003380Y-104243238D01*
X83935141Y-104687666D02*
X83982760Y-104735285D01*
X84030379Y-104878142D01*
X84030379Y-104973380D01*
X83982760Y-105116238D01*
X83887522Y-105211476D01*
X83792284Y-105259095D01*
X83601808Y-105306714D01*
X83458951Y-105306714D01*
X83268475Y-105259095D01*
X83173237Y-105211476D01*
X83077999Y-105116238D01*
X83030379Y-104973380D01*
X83030379Y-104878142D01*
X83077999Y-104735285D01*
X83125618Y-104687666D01*
X83458951Y-104116238D02*
X83411332Y-104211476D01*
X83363713Y-104259095D01*
X83268475Y-104306714D01*
X83220856Y-104306714D01*
X83125618Y-104259095D01*
X83077999Y-104211476D01*
X83030379Y-104116238D01*
X83030379Y-103925761D01*
X83077999Y-103830523D01*
X83125618Y-103782904D01*
X83220856Y-103735285D01*
X83268475Y-103735285D01*
X83363713Y-103782904D01*
X83411332Y-103830523D01*
X83458951Y-103925761D01*
X83458951Y-104116238D01*
X83506570Y-104211476D01*
X83554189Y-104259095D01*
X83649427Y-104306714D01*
X83839903Y-104306714D01*
X83935141Y-104259095D01*
X83982760Y-104211476D01*
X84030379Y-104116238D01*
X84030379Y-103925761D01*
X83982760Y-103830523D01*
X83935141Y-103782904D01*
X83839903Y-103735285D01*
X83649427Y-103735285D01*
X83554189Y-103782904D01*
X83506570Y-103830523D01*
X83458951Y-103925761D01*
X86574380Y-105282904D02*
X87383904Y-105282904D01*
X87479142Y-105235285D01*
X87526761Y-105187666D01*
X87574380Y-105092428D01*
X87574380Y-104901952D01*
X87526761Y-104806714D01*
X87479142Y-104759095D01*
X87383904Y-104711476D01*
X86574380Y-104711476D01*
X86574380Y-104330523D02*
X86574380Y-103711476D01*
X86955333Y-104044809D01*
X86955333Y-103901952D01*
X87002952Y-103806714D01*
X87050571Y-103759095D01*
X87145809Y-103711476D01*
X87383904Y-103711476D01*
X87479142Y-103759095D01*
X87526761Y-103806714D01*
X87574380Y-103901952D01*
X87574380Y-104187666D01*
X87526761Y-104282904D01*
X87479142Y-104330523D01*
M02*
