M48
; DRILL file {KiCad 5.1.2-f72e74a~84~ubuntu16.04.1} date 2019年08月19日 17時25分49秒
; FORMAT={-:-/ absolute / metric / decimal}
; #@! TF.CreationDate,2019-08-19T17:25:49+09:00
; #@! TF.GenerationSoftware,Kicad,Pcbnew,5.1.2-f72e74a~84~ubuntu16.04.1
FMAT,2
METRIC
T1C0.300
T2C0.400
T3C0.500
T4C0.762
T5C0.800
T6C0.950
T7C1.000
T8C1.594
T9C2.700
T10C3.000
%
G90
G05
T1
X59.69Y-93.754
X60.96Y-92.456
X65.405Y-75.819
X67.183Y-75.819
X67.691Y-87.376
X68.453Y-79.791
X68.453Y-81.661
X69.053Y-79.347
X69.053Y-82.169
X69.053Y-86.233
X75.565Y-110.871
X77.089Y-110.118
X78.232Y-78.994
X80.01Y-97.935
X80.391Y-103.378
X80.391Y-104.648
X80.899Y-91.44
X80.899Y-96.901
X81.153Y-78.994
X81.788Y-97.926
X81.805Y-115.707
X81.805Y-116.707
X82.142Y-81.942
X83.566Y-102.761
X85.09Y-97.282
X85.725Y-92.859
X86.115Y-82.16
X86.122Y-102.677
X88.646Y-91.44
X89.154Y-102.743
X89.916Y-93.853
X90.424Y-97.409
X90.678Y-85.471
X90.678Y-95.109
X91.75Y-88.93
X91.948Y-97.917
X92.245Y-88.435
X92.583Y-83.636
X92.742Y-95.309
X92.918Y-88.242
X93.218Y-84.236
X93.542Y-95.309
X93.599Y-87.503
X93.599Y-92.837
X93.599Y-93.634
X94.342Y-86.809
X94.361Y-98.552
X94.423Y-85.436
X95.337Y-96.256
X95.846Y-98.972
X96.266Y-92.837
X96.266Y-93.634
X96.501Y-100.476
X97.406Y-91.376
X97.409Y-89.916
X97.409Y-90.676
X97.442Y-92.075
X97.536Y-86.106
X97.536Y-102.362
X97.542Y-95.309
X97.917Y-103.886
X98.418Y-96.235
X98.552Y-88.265
X98.992Y-93.059
X99.441Y-85.344
X99.441Y-85.344
X100.842Y-100.333
X102.108Y-86.741
X105.41Y-97.435
X105.791Y-108.839
X107.442Y-93.726
X108.331Y-90.678
X109.839Y-89.265
X112.333Y-91.059
X112.395Y-98.044
X113.538Y-91.659
X115.316Y-93.345
X116.459Y-88.138
X116.967Y-108.839
X117.983Y-111.814
X118.11Y-92.202
X118.618Y-96.835
X121.793Y-93.345
T2
X57.15Y-110.236
X57.15Y-111.506
X58.293Y-75.801
X58.293Y-78.359
X58.522Y-110.236
X58.522Y-111.506
X60.071Y-78.359
X61.849Y-75.819
X62.865Y-126.238
X62.865Y-127.508
X62.865Y-131.445
X62.865Y-132.715
X62.878Y-110.236
X62.878Y-111.506
X63.398Y-85.471
X63.627Y-75.819
X64.135Y-126.238
X64.135Y-127.508
X64.135Y-131.445
X64.135Y-132.715
X64.389Y-110.236
X64.389Y-111.506
X67.208Y-85.471
X70.104Y-113.284
X70.104Y-114.808
X70.993Y-85.471
X71.755Y-109.855
X72.581Y-116.205
X72.581Y-118.11
X73.279Y-75.565
X73.711Y-117.157
X74.803Y-85.471
X75.946Y-117.157
X76.2Y-75.184
X77.025Y-116.205
X77.025Y-118.11
X77.089Y-120.713
X77.089Y-121.793
X77.089Y-122.999
X80.01Y-95.885
X81.661Y-75.184
X81.788Y-95.876
X81.915Y-83.693
X82.423Y-107.696
X82.423Y-109.728
X82.55Y-118.745
X82.55Y-119.634
X82.55Y-121.73
X83.566Y-97.79
X83.566Y-100.965
X84.049Y-83.693
X85.344Y-75.184
X85.915Y-112.078
X85.915Y-117.284
X86.487Y-100.838
X86.931Y-111.125
X86.931Y-118.237
X87.947Y-112.078
X87.947Y-117.284
X88.773Y-97.409
X88.9Y-118.237
X88.963Y-111.125
X89.852Y-112.078
X89.852Y-117.284
X90.551Y-100.965
X90.678Y-75.184
X93.027Y-109.029
X93.027Y-112.078
X93.027Y-117.348
X93.027Y-120.396
X93.345Y-102.743
X93.599Y-75.565
X94.996Y-109.029
X94.996Y-112.141
X94.996Y-117.348
X94.996Y-120.396
X99.06Y-82.931
X99.251Y-107.696
X99.251Y-121.73
X99.314Y-112.712
X99.314Y-116.713
X99.314Y-117.729
X99.339Y-109.728
X99.339Y-110.693
X99.339Y-111.709
X99.339Y-114.681
X99.339Y-118.72
X99.339Y-119.685
X100.889Y-98.552
X103.886Y-94.615
X104.394Y-100.076
X105.054Y-88.9
X105.537Y-76.454
X105.537Y-78.74
X110.49Y-95.885
X116.332Y-95.885
X120.65Y-76.454
T3
X114.624Y-70.67
X115.217Y-69.238
X115.217Y-72.102
X116.649Y-68.645
X116.649Y-72.695
X118.081Y-69.238
X118.081Y-72.102
X118.674Y-70.67
X56.624Y-70.67
X57.217Y-69.238
X57.217Y-72.102
X58.649Y-68.645
X58.649Y-72.695
X60.081Y-69.238
X60.081Y-72.102
X60.674Y-70.67
X114.624Y-119.67
X115.217Y-118.238
X115.217Y-121.102
X116.649Y-117.645
X116.649Y-121.695
X118.081Y-118.238
X118.081Y-121.102
X118.674Y-119.67
X56.624Y-119.67
X57.217Y-118.238
X57.217Y-121.102
X58.649Y-117.645
X58.649Y-121.695
X60.081Y-118.238
X60.081Y-121.102
X60.674Y-119.67
T4
X57.658Y-90.678
X60.198Y-90.678
X62.738Y-90.678
X65.278Y-90.678
X67.818Y-90.678
X70.358Y-90.678
X72.898Y-90.678
X75.438Y-90.678
T5
X70.04Y-124.841
X70.04Y-135.001
X72.644Y-124.841
X72.644Y-135.001
T6
X52.006Y-93.154
X52.006Y-95.654
X52.006Y-98.154
X52.006Y-100.654
X123.558Y-105.588
X123.558Y-108.088
X123.558Y-110.588
X123.558Y-115.938
X123.558Y-118.438
X123.558Y-120.938
X123.558Y-123.438
X123.558Y-125.938
X123.558Y-128.438
X123.558Y-130.938
X123.571Y-77.533
X123.571Y-80.033
X123.571Y-82.533
X123.571Y-85.033
X123.571Y-87.533
X123.571Y-90.033
X123.571Y-92.533
X52.006Y-105.974
X52.006Y-108.474
X52.006Y-110.974
X52.006Y-113.474
T7
X110.697Y-82.677
X115.697Y-82.677
X87.884Y-114.681
X52.006Y-69.659
X52.006Y-72.159
X123.558Y-69.723
X123.558Y-72.223
X52.006Y-118.785
X52.006Y-121.285
X52.006Y-77.447
X52.006Y-79.947
X93.98Y-118.872
X52.006Y-85.32
X52.006Y-87.82
X63.5Y-69.342
X63.5Y-71.882
X66.04Y-69.342
X66.04Y-71.882
X68.58Y-69.342
X68.58Y-71.882
X71.12Y-69.342
X71.12Y-71.882
X73.66Y-69.342
X73.66Y-71.882
X76.2Y-69.342
X76.2Y-71.882
X78.74Y-69.342
X78.74Y-71.882
X81.28Y-69.342
X81.28Y-71.882
X83.82Y-69.342
X83.82Y-71.882
X86.36Y-69.342
X86.36Y-71.882
X88.9Y-69.342
X88.9Y-71.882
X91.44Y-69.342
X91.44Y-71.882
X93.98Y-69.342
X93.98Y-71.882
X96.52Y-69.342
X96.52Y-71.882
X99.06Y-69.342
X99.06Y-71.882
X101.6Y-69.342
X101.6Y-71.882
X104.14Y-69.342
X104.14Y-71.882
X106.68Y-69.342
X106.68Y-71.882
X109.22Y-69.342
X109.22Y-71.882
X111.76Y-69.342
X111.76Y-71.882
X123.558Y-97.841
X123.558Y-100.341
X93.98Y-110.617
T9
X116.649Y-70.67
X58.649Y-70.67
X116.649Y-119.67
X58.649Y-119.67
T10
X58.904Y-101.138
X74.184Y-101.078
T8
G00X47.498Y-128.537
M15
G01X47.498Y-131.558
M16
G05
G00X54.707Y-130.698
M15
G01X51.686Y-130.698
M16
G05
G00X104.23Y-128.422
M15
G01X107.251Y-128.422
M16
G05
G00X112.928Y-131.04
M15
G01X112.928Y-128.019
M16
G05
T0
M30
