G04 #@! TF.GenerationSoftware,KiCad,Pcbnew,5.1.2-f72e74a~84~ubuntu16.04.1*
G04 #@! TF.CreationDate,2019-08-19T17:24:30+09:00*
G04 #@! TF.ProjectId,MD&SubCPU-ver2.0,4d442653-7562-4435-9055-2d766572322e,rev?*
G04 #@! TF.SameCoordinates,Original*
G04 #@! TF.FileFunction,Copper,L4,Bot*
G04 #@! TF.FilePolarity,Positive*
%FSLAX46Y46*%
G04 Gerber Fmt 4.6, Leading zero omitted, Abs format (unit mm)*
G04 Created by KiCad (PCBNEW 5.1.2-f72e74a~84~ubuntu16.04.1) date 2019-08-19 17:24:30*
%MOMM*%
%LPD*%
G04 APERTURE LIST*
%ADD10C,0.100000*%
%ADD11C,3.193800*%
%ADD12O,1.950000X1.700000*%
%ADD13C,1.700000*%
%ADD14O,2.000000X1.700000*%
%ADD15C,1.200000*%
%ADD16C,1.524000*%
%ADD17C,3.500000*%
%ADD18R,1.700000X1.700000*%
%ADD19O,1.700000X1.700000*%
%ADD20C,1.600000*%
%ADD21O,1.600000X1.600000*%
%ADD22R,2.000000X2.000000*%
%ADD23C,2.000000*%
%ADD24C,0.800000*%
%ADD25C,5.400000*%
%ADD26C,0.500000*%
%ADD27C,0.300000*%
G04 APERTURE END LIST*
D10*
G36*
X108077412Y-126829345D02*
G01*
X108154920Y-126840842D01*
X108230928Y-126859881D01*
X108304704Y-126886278D01*
X108375537Y-126919780D01*
X108442745Y-126960063D01*
X108505681Y-127006740D01*
X108563739Y-127059361D01*
X108616360Y-127117419D01*
X108663037Y-127180355D01*
X108703320Y-127247563D01*
X108736822Y-127318396D01*
X108763219Y-127392172D01*
X108782258Y-127468180D01*
X108793755Y-127545688D01*
X108797600Y-127623950D01*
X108797600Y-129220850D01*
X108793755Y-129299112D01*
X108782258Y-129376620D01*
X108763219Y-129452628D01*
X108736822Y-129526404D01*
X108703320Y-129597237D01*
X108663037Y-129664445D01*
X108616360Y-129727381D01*
X108563739Y-129785439D01*
X108505681Y-129838060D01*
X108442745Y-129884737D01*
X108375537Y-129925020D01*
X108304704Y-129958522D01*
X108230928Y-129984919D01*
X108154920Y-130003958D01*
X108077412Y-130015455D01*
X107999150Y-130019300D01*
X103481250Y-130019300D01*
X103402988Y-130015455D01*
X103325480Y-130003958D01*
X103249472Y-129984919D01*
X103175696Y-129958522D01*
X103104863Y-129925020D01*
X103037655Y-129884737D01*
X102974719Y-129838060D01*
X102916661Y-129785439D01*
X102864040Y-129727381D01*
X102817363Y-129664445D01*
X102777080Y-129597237D01*
X102743578Y-129526404D01*
X102717181Y-129452628D01*
X102698142Y-129376620D01*
X102686645Y-129299112D01*
X102682800Y-129220850D01*
X102682800Y-127623950D01*
X102686645Y-127545688D01*
X102698142Y-127468180D01*
X102717181Y-127392172D01*
X102743578Y-127318396D01*
X102777080Y-127247563D01*
X102817363Y-127180355D01*
X102864040Y-127117419D01*
X102916661Y-127059361D01*
X102974719Y-127006740D01*
X103037655Y-126960063D01*
X103104863Y-126919780D01*
X103175696Y-126886278D01*
X103249472Y-126859881D01*
X103325480Y-126840842D01*
X103402988Y-126829345D01*
X103481250Y-126825500D01*
X107999150Y-126825500D01*
X108077412Y-126829345D01*
X108077412Y-126829345D01*
G37*
D11*
X105740200Y-128422400D03*
D10*
G36*
X113805112Y-126476285D02*
G01*
X113882620Y-126487782D01*
X113958628Y-126506821D01*
X114032404Y-126533218D01*
X114103237Y-126566720D01*
X114170445Y-126607003D01*
X114233381Y-126653680D01*
X114291439Y-126706301D01*
X114344060Y-126764359D01*
X114390737Y-126827295D01*
X114431020Y-126894503D01*
X114464522Y-126965336D01*
X114490919Y-127039112D01*
X114509958Y-127115120D01*
X114521455Y-127192628D01*
X114525300Y-127270890D01*
X114525300Y-131788790D01*
X114521455Y-131867052D01*
X114509958Y-131944560D01*
X114490919Y-132020568D01*
X114464522Y-132094344D01*
X114431020Y-132165177D01*
X114390737Y-132232385D01*
X114344060Y-132295321D01*
X114291439Y-132353379D01*
X114233381Y-132406000D01*
X114170445Y-132452677D01*
X114103237Y-132492960D01*
X114032404Y-132526462D01*
X113958628Y-132552859D01*
X113882620Y-132571898D01*
X113805112Y-132583395D01*
X113726850Y-132587240D01*
X112129950Y-132587240D01*
X112051688Y-132583395D01*
X111974180Y-132571898D01*
X111898172Y-132552859D01*
X111824396Y-132526462D01*
X111753563Y-132492960D01*
X111686355Y-132452677D01*
X111623419Y-132406000D01*
X111565361Y-132353379D01*
X111512740Y-132295321D01*
X111466063Y-132232385D01*
X111425780Y-132165177D01*
X111392278Y-132094344D01*
X111365881Y-132020568D01*
X111346842Y-131944560D01*
X111335345Y-131867052D01*
X111331500Y-131788790D01*
X111331500Y-127270890D01*
X111335345Y-127192628D01*
X111346842Y-127115120D01*
X111365881Y-127039112D01*
X111392278Y-126965336D01*
X111425780Y-126894503D01*
X111466063Y-126827295D01*
X111512740Y-126764359D01*
X111565361Y-126706301D01*
X111623419Y-126653680D01*
X111686355Y-126607003D01*
X111753563Y-126566720D01*
X111824396Y-126533218D01*
X111898172Y-126506821D01*
X111974180Y-126487782D01*
X112051688Y-126476285D01*
X112129950Y-126472440D01*
X113726850Y-126472440D01*
X113805112Y-126476285D01*
X113805112Y-126476285D01*
G37*
D11*
X112928400Y-129529840D03*
D10*
G36*
X55533572Y-129105185D02*
G01*
X55611080Y-129116682D01*
X55687088Y-129135721D01*
X55760864Y-129162118D01*
X55831697Y-129195620D01*
X55898905Y-129235903D01*
X55961841Y-129282580D01*
X56019899Y-129335201D01*
X56072520Y-129393259D01*
X56119197Y-129456195D01*
X56159480Y-129523403D01*
X56192982Y-129594236D01*
X56219379Y-129668012D01*
X56238418Y-129744020D01*
X56249915Y-129821528D01*
X56253760Y-129899790D01*
X56253760Y-131496690D01*
X56249915Y-131574952D01*
X56238418Y-131652460D01*
X56219379Y-131728468D01*
X56192982Y-131802244D01*
X56159480Y-131873077D01*
X56119197Y-131940285D01*
X56072520Y-132003221D01*
X56019899Y-132061279D01*
X55961841Y-132113900D01*
X55898905Y-132160577D01*
X55831697Y-132200860D01*
X55760864Y-132234362D01*
X55687088Y-132260759D01*
X55611080Y-132279798D01*
X55533572Y-132291295D01*
X55455310Y-132295140D01*
X50937410Y-132295140D01*
X50859148Y-132291295D01*
X50781640Y-132279798D01*
X50705632Y-132260759D01*
X50631856Y-132234362D01*
X50561023Y-132200860D01*
X50493815Y-132160577D01*
X50430879Y-132113900D01*
X50372821Y-132061279D01*
X50320200Y-132003221D01*
X50273523Y-131940285D01*
X50233240Y-131873077D01*
X50199738Y-131802244D01*
X50173341Y-131728468D01*
X50154302Y-131652460D01*
X50142805Y-131574952D01*
X50138960Y-131496690D01*
X50138960Y-129899790D01*
X50142805Y-129821528D01*
X50154302Y-129744020D01*
X50173341Y-129668012D01*
X50199738Y-129594236D01*
X50233240Y-129523403D01*
X50273523Y-129456195D01*
X50320200Y-129393259D01*
X50372821Y-129335201D01*
X50430879Y-129282580D01*
X50493815Y-129235903D01*
X50561023Y-129195620D01*
X50631856Y-129162118D01*
X50705632Y-129135721D01*
X50781640Y-129116682D01*
X50859148Y-129105185D01*
X50937410Y-129101340D01*
X55455310Y-129101340D01*
X55533572Y-129105185D01*
X55533572Y-129105185D01*
G37*
D11*
X53196360Y-130698240D03*
D10*
G36*
X48374712Y-126994445D02*
G01*
X48452220Y-127005942D01*
X48528228Y-127024981D01*
X48602004Y-127051378D01*
X48672837Y-127084880D01*
X48740045Y-127125163D01*
X48802981Y-127171840D01*
X48861039Y-127224461D01*
X48913660Y-127282519D01*
X48960337Y-127345455D01*
X49000620Y-127412663D01*
X49034122Y-127483496D01*
X49060519Y-127557272D01*
X49079558Y-127633280D01*
X49091055Y-127710788D01*
X49094900Y-127789050D01*
X49094900Y-132306950D01*
X49091055Y-132385212D01*
X49079558Y-132462720D01*
X49060519Y-132538728D01*
X49034122Y-132612504D01*
X49000620Y-132683337D01*
X48960337Y-132750545D01*
X48913660Y-132813481D01*
X48861039Y-132871539D01*
X48802981Y-132924160D01*
X48740045Y-132970837D01*
X48672837Y-133011120D01*
X48602004Y-133044622D01*
X48528228Y-133071019D01*
X48452220Y-133090058D01*
X48374712Y-133101555D01*
X48296450Y-133105400D01*
X46699550Y-133105400D01*
X46621288Y-133101555D01*
X46543780Y-133090058D01*
X46467772Y-133071019D01*
X46393996Y-133044622D01*
X46323163Y-133011120D01*
X46255955Y-132970837D01*
X46193019Y-132924160D01*
X46134961Y-132871539D01*
X46082340Y-132813481D01*
X46035663Y-132750545D01*
X45995380Y-132683337D01*
X45961878Y-132612504D01*
X45935481Y-132538728D01*
X45916442Y-132462720D01*
X45904945Y-132385212D01*
X45901100Y-132306950D01*
X45901100Y-127789050D01*
X45904945Y-127710788D01*
X45916442Y-127633280D01*
X45935481Y-127557272D01*
X45961878Y-127483496D01*
X45995380Y-127412663D01*
X46035663Y-127345455D01*
X46082340Y-127282519D01*
X46134961Y-127224461D01*
X46193019Y-127171840D01*
X46255955Y-127125163D01*
X46323163Y-127084880D01*
X46393996Y-127051378D01*
X46467772Y-127024981D01*
X46543780Y-127005942D01*
X46621288Y-126994445D01*
X46699550Y-126990600D01*
X48296450Y-126990600D01*
X48374712Y-126994445D01*
X48374712Y-126994445D01*
G37*
D11*
X47498000Y-130048000D03*
D12*
X123558300Y-130938300D03*
X123558300Y-128438300D03*
X123558300Y-125938300D03*
X123558300Y-123438300D03*
X123558300Y-120938300D03*
X123558300Y-118438300D03*
D10*
G36*
X124307804Y-115089504D02*
G01*
X124332073Y-115093104D01*
X124355871Y-115099065D01*
X124378971Y-115107330D01*
X124401149Y-115117820D01*
X124422193Y-115130433D01*
X124441898Y-115145047D01*
X124460077Y-115161523D01*
X124476553Y-115179702D01*
X124491167Y-115199407D01*
X124503780Y-115220451D01*
X124514270Y-115242629D01*
X124522535Y-115265729D01*
X124528496Y-115289527D01*
X124532096Y-115313796D01*
X124533300Y-115338300D01*
X124533300Y-116538300D01*
X124532096Y-116562804D01*
X124528496Y-116587073D01*
X124522535Y-116610871D01*
X124514270Y-116633971D01*
X124503780Y-116656149D01*
X124491167Y-116677193D01*
X124476553Y-116696898D01*
X124460077Y-116715077D01*
X124441898Y-116731553D01*
X124422193Y-116746167D01*
X124401149Y-116758780D01*
X124378971Y-116769270D01*
X124355871Y-116777535D01*
X124332073Y-116783496D01*
X124307804Y-116787096D01*
X124283300Y-116788300D01*
X122833300Y-116788300D01*
X122808796Y-116787096D01*
X122784527Y-116783496D01*
X122760729Y-116777535D01*
X122737629Y-116769270D01*
X122715451Y-116758780D01*
X122694407Y-116746167D01*
X122674702Y-116731553D01*
X122656523Y-116715077D01*
X122640047Y-116696898D01*
X122625433Y-116677193D01*
X122612820Y-116656149D01*
X122602330Y-116633971D01*
X122594065Y-116610871D01*
X122588104Y-116587073D01*
X122584504Y-116562804D01*
X122583300Y-116538300D01*
X122583300Y-115338300D01*
X122584504Y-115313796D01*
X122588104Y-115289527D01*
X122594065Y-115265729D01*
X122602330Y-115242629D01*
X122612820Y-115220451D01*
X122625433Y-115199407D01*
X122640047Y-115179702D01*
X122656523Y-115161523D01*
X122674702Y-115145047D01*
X122694407Y-115130433D01*
X122715451Y-115117820D01*
X122737629Y-115107330D01*
X122760729Y-115099065D01*
X122784527Y-115093104D01*
X122808796Y-115089504D01*
X122833300Y-115088300D01*
X124283300Y-115088300D01*
X124307804Y-115089504D01*
X124307804Y-115089504D01*
G37*
D13*
X123558300Y-115938300D03*
D12*
X123558300Y-110587800D03*
X123558300Y-108087800D03*
D10*
G36*
X124307804Y-104739004D02*
G01*
X124332073Y-104742604D01*
X124355871Y-104748565D01*
X124378971Y-104756830D01*
X124401149Y-104767320D01*
X124422193Y-104779933D01*
X124441898Y-104794547D01*
X124460077Y-104811023D01*
X124476553Y-104829202D01*
X124491167Y-104848907D01*
X124503780Y-104869951D01*
X124514270Y-104892129D01*
X124522535Y-104915229D01*
X124528496Y-104939027D01*
X124532096Y-104963296D01*
X124533300Y-104987800D01*
X124533300Y-106187800D01*
X124532096Y-106212304D01*
X124528496Y-106236573D01*
X124522535Y-106260371D01*
X124514270Y-106283471D01*
X124503780Y-106305649D01*
X124491167Y-106326693D01*
X124476553Y-106346398D01*
X124460077Y-106364577D01*
X124441898Y-106381053D01*
X124422193Y-106395667D01*
X124401149Y-106408280D01*
X124378971Y-106418770D01*
X124355871Y-106427035D01*
X124332073Y-106432996D01*
X124307804Y-106436596D01*
X124283300Y-106437800D01*
X122833300Y-106437800D01*
X122808796Y-106436596D01*
X122784527Y-106432996D01*
X122760729Y-106427035D01*
X122737629Y-106418770D01*
X122715451Y-106408280D01*
X122694407Y-106395667D01*
X122674702Y-106381053D01*
X122656523Y-106364577D01*
X122640047Y-106346398D01*
X122625433Y-106326693D01*
X122612820Y-106305649D01*
X122602330Y-106283471D01*
X122594065Y-106260371D01*
X122588104Y-106236573D01*
X122584504Y-106212304D01*
X122583300Y-106187800D01*
X122583300Y-104987800D01*
X122584504Y-104963296D01*
X122588104Y-104939027D01*
X122594065Y-104915229D01*
X122602330Y-104892129D01*
X122612820Y-104869951D01*
X122625433Y-104848907D01*
X122640047Y-104829202D01*
X122656523Y-104811023D01*
X122674702Y-104794547D01*
X122694407Y-104779933D01*
X122715451Y-104767320D01*
X122737629Y-104756830D01*
X122760729Y-104748565D01*
X122784527Y-104742604D01*
X122808796Y-104739004D01*
X122833300Y-104737800D01*
X124283300Y-104737800D01*
X124307804Y-104739004D01*
X124307804Y-104739004D01*
G37*
D13*
X123558300Y-105587800D03*
D14*
X123558300Y-100340800D03*
D10*
G36*
X124332804Y-96992004D02*
G01*
X124357073Y-96995604D01*
X124380871Y-97001565D01*
X124403971Y-97009830D01*
X124426149Y-97020320D01*
X124447193Y-97032933D01*
X124466898Y-97047547D01*
X124485077Y-97064023D01*
X124501553Y-97082202D01*
X124516167Y-97101907D01*
X124528780Y-97122951D01*
X124539270Y-97145129D01*
X124547535Y-97168229D01*
X124553496Y-97192027D01*
X124557096Y-97216296D01*
X124558300Y-97240800D01*
X124558300Y-98440800D01*
X124557096Y-98465304D01*
X124553496Y-98489573D01*
X124547535Y-98513371D01*
X124539270Y-98536471D01*
X124528780Y-98558649D01*
X124516167Y-98579693D01*
X124501553Y-98599398D01*
X124485077Y-98617577D01*
X124466898Y-98634053D01*
X124447193Y-98648667D01*
X124426149Y-98661280D01*
X124403971Y-98671770D01*
X124380871Y-98680035D01*
X124357073Y-98685996D01*
X124332804Y-98689596D01*
X124308300Y-98690800D01*
X122808300Y-98690800D01*
X122783796Y-98689596D01*
X122759527Y-98685996D01*
X122735729Y-98680035D01*
X122712629Y-98671770D01*
X122690451Y-98661280D01*
X122669407Y-98648667D01*
X122649702Y-98634053D01*
X122631523Y-98617577D01*
X122615047Y-98599398D01*
X122600433Y-98579693D01*
X122587820Y-98558649D01*
X122577330Y-98536471D01*
X122569065Y-98513371D01*
X122563104Y-98489573D01*
X122559504Y-98465304D01*
X122558300Y-98440800D01*
X122558300Y-97240800D01*
X122559504Y-97216296D01*
X122563104Y-97192027D01*
X122569065Y-97168229D01*
X122577330Y-97145129D01*
X122587820Y-97122951D01*
X122600433Y-97101907D01*
X122615047Y-97082202D01*
X122631523Y-97064023D01*
X122649702Y-97047547D01*
X122669407Y-97032933D01*
X122690451Y-97020320D01*
X122712629Y-97009830D01*
X122735729Y-97001565D01*
X122759527Y-96995604D01*
X122783796Y-96992004D01*
X122808300Y-96990800D01*
X124308300Y-96990800D01*
X124332804Y-96992004D01*
X124332804Y-96992004D01*
G37*
D13*
X123558300Y-97840800D03*
D12*
X123571000Y-92533500D03*
X123571000Y-90033500D03*
X123571000Y-87533500D03*
X123571000Y-85033500D03*
X123571000Y-82533500D03*
X123571000Y-80033500D03*
D10*
G36*
X124320504Y-76684704D02*
G01*
X124344773Y-76688304D01*
X124368571Y-76694265D01*
X124391671Y-76702530D01*
X124413849Y-76713020D01*
X124434893Y-76725633D01*
X124454598Y-76740247D01*
X124472777Y-76756723D01*
X124489253Y-76774902D01*
X124503867Y-76794607D01*
X124516480Y-76815651D01*
X124526970Y-76837829D01*
X124535235Y-76860929D01*
X124541196Y-76884727D01*
X124544796Y-76908996D01*
X124546000Y-76933500D01*
X124546000Y-78133500D01*
X124544796Y-78158004D01*
X124541196Y-78182273D01*
X124535235Y-78206071D01*
X124526970Y-78229171D01*
X124516480Y-78251349D01*
X124503867Y-78272393D01*
X124489253Y-78292098D01*
X124472777Y-78310277D01*
X124454598Y-78326753D01*
X124434893Y-78341367D01*
X124413849Y-78353980D01*
X124391671Y-78364470D01*
X124368571Y-78372735D01*
X124344773Y-78378696D01*
X124320504Y-78382296D01*
X124296000Y-78383500D01*
X122846000Y-78383500D01*
X122821496Y-78382296D01*
X122797227Y-78378696D01*
X122773429Y-78372735D01*
X122750329Y-78364470D01*
X122728151Y-78353980D01*
X122707107Y-78341367D01*
X122687402Y-78326753D01*
X122669223Y-78310277D01*
X122652747Y-78292098D01*
X122638133Y-78272393D01*
X122625520Y-78251349D01*
X122615030Y-78229171D01*
X122606765Y-78206071D01*
X122600804Y-78182273D01*
X122597204Y-78158004D01*
X122596000Y-78133500D01*
X122596000Y-76933500D01*
X122597204Y-76908996D01*
X122600804Y-76884727D01*
X122606765Y-76860929D01*
X122615030Y-76837829D01*
X122625520Y-76815651D01*
X122638133Y-76794607D01*
X122652747Y-76774902D01*
X122669223Y-76756723D01*
X122687402Y-76740247D01*
X122707107Y-76725633D01*
X122728151Y-76713020D01*
X122750329Y-76702530D01*
X122773429Y-76694265D01*
X122797227Y-76688304D01*
X122821496Y-76684704D01*
X122846000Y-76683500D01*
X124296000Y-76683500D01*
X124320504Y-76684704D01*
X124320504Y-76684704D01*
G37*
D13*
X123571000Y-77533500D03*
D14*
X123558300Y-72223000D03*
D10*
G36*
X124332804Y-68874204D02*
G01*
X124357073Y-68877804D01*
X124380871Y-68883765D01*
X124403971Y-68892030D01*
X124426149Y-68902520D01*
X124447193Y-68915133D01*
X124466898Y-68929747D01*
X124485077Y-68946223D01*
X124501553Y-68964402D01*
X124516167Y-68984107D01*
X124528780Y-69005151D01*
X124539270Y-69027329D01*
X124547535Y-69050429D01*
X124553496Y-69074227D01*
X124557096Y-69098496D01*
X124558300Y-69123000D01*
X124558300Y-70323000D01*
X124557096Y-70347504D01*
X124553496Y-70371773D01*
X124547535Y-70395571D01*
X124539270Y-70418671D01*
X124528780Y-70440849D01*
X124516167Y-70461893D01*
X124501553Y-70481598D01*
X124485077Y-70499777D01*
X124466898Y-70516253D01*
X124447193Y-70530867D01*
X124426149Y-70543480D01*
X124403971Y-70553970D01*
X124380871Y-70562235D01*
X124357073Y-70568196D01*
X124332804Y-70571796D01*
X124308300Y-70573000D01*
X122808300Y-70573000D01*
X122783796Y-70571796D01*
X122759527Y-70568196D01*
X122735729Y-70562235D01*
X122712629Y-70553970D01*
X122690451Y-70543480D01*
X122669407Y-70530867D01*
X122649702Y-70516253D01*
X122631523Y-70499777D01*
X122615047Y-70481598D01*
X122600433Y-70461893D01*
X122587820Y-70440849D01*
X122577330Y-70418671D01*
X122569065Y-70395571D01*
X122563104Y-70371773D01*
X122559504Y-70347504D01*
X122558300Y-70323000D01*
X122558300Y-69123000D01*
X122559504Y-69098496D01*
X122563104Y-69074227D01*
X122569065Y-69050429D01*
X122577330Y-69027329D01*
X122587820Y-69005151D01*
X122600433Y-68984107D01*
X122615047Y-68964402D01*
X122631523Y-68946223D01*
X122649702Y-68929747D01*
X122669407Y-68915133D01*
X122690451Y-68902520D01*
X122712629Y-68892030D01*
X122735729Y-68883765D01*
X122759527Y-68877804D01*
X122783796Y-68874204D01*
X122808300Y-68873000D01*
X124308300Y-68873000D01*
X124332804Y-68874204D01*
X124332804Y-68874204D01*
G37*
D13*
X123558300Y-69723000D03*
D15*
X87884000Y-114681000D03*
X93980000Y-110617000D03*
X93980000Y-118872000D03*
D16*
X57658000Y-90678000D03*
X60198000Y-90678000D03*
X62738000Y-90678000D03*
X65278000Y-90678000D03*
X67818000Y-90678000D03*
X70358000Y-90678000D03*
X72898000Y-90678000D03*
X75438000Y-90678000D03*
D17*
X58904000Y-101138000D03*
X74184000Y-101078000D03*
D18*
X63500000Y-71882000D03*
D19*
X63500000Y-69342000D03*
X66040000Y-71882000D03*
X66040000Y-69342000D03*
X68580000Y-71882000D03*
X68580000Y-69342000D03*
X71120000Y-71882000D03*
X71120000Y-69342000D03*
X73660000Y-71882000D03*
X73660000Y-69342000D03*
X76200000Y-71882000D03*
X76200000Y-69342000D03*
X78740000Y-71882000D03*
X78740000Y-69342000D03*
X81280000Y-71882000D03*
X81280000Y-69342000D03*
X83820000Y-71882000D03*
X83820000Y-69342000D03*
X86360000Y-71882000D03*
X86360000Y-69342000D03*
X88900000Y-71882000D03*
X88900000Y-69342000D03*
X91440000Y-71882000D03*
X91440000Y-69342000D03*
X93980000Y-71882000D03*
X93980000Y-69342000D03*
X96520000Y-71882000D03*
X96520000Y-69342000D03*
X99060000Y-71882000D03*
X99060000Y-69342000D03*
X101600000Y-71882000D03*
X101600000Y-69342000D03*
X104140000Y-71882000D03*
X104140000Y-69342000D03*
X106680000Y-71882000D03*
X106680000Y-69342000D03*
X109220000Y-71882000D03*
X109220000Y-69342000D03*
X111760000Y-71882000D03*
X111760000Y-69342000D03*
D20*
X70040500Y-135001000D03*
D21*
X70040500Y-124841000D03*
X72644000Y-124841000D03*
D20*
X72644000Y-135001000D03*
D10*
G36*
X52756004Y-112625704D02*
G01*
X52780273Y-112629304D01*
X52804071Y-112635265D01*
X52827171Y-112643530D01*
X52849349Y-112654020D01*
X52870393Y-112666633D01*
X52890098Y-112681247D01*
X52908277Y-112697723D01*
X52924753Y-112715902D01*
X52939367Y-112735607D01*
X52951980Y-112756651D01*
X52962470Y-112778829D01*
X52970735Y-112801929D01*
X52976696Y-112825727D01*
X52980296Y-112849996D01*
X52981500Y-112874500D01*
X52981500Y-114074500D01*
X52980296Y-114099004D01*
X52976696Y-114123273D01*
X52970735Y-114147071D01*
X52962470Y-114170171D01*
X52951980Y-114192349D01*
X52939367Y-114213393D01*
X52924753Y-114233098D01*
X52908277Y-114251277D01*
X52890098Y-114267753D01*
X52870393Y-114282367D01*
X52849349Y-114294980D01*
X52827171Y-114305470D01*
X52804071Y-114313735D01*
X52780273Y-114319696D01*
X52756004Y-114323296D01*
X52731500Y-114324500D01*
X51281500Y-114324500D01*
X51256996Y-114323296D01*
X51232727Y-114319696D01*
X51208929Y-114313735D01*
X51185829Y-114305470D01*
X51163651Y-114294980D01*
X51142607Y-114282367D01*
X51122902Y-114267753D01*
X51104723Y-114251277D01*
X51088247Y-114233098D01*
X51073633Y-114213393D01*
X51061020Y-114192349D01*
X51050530Y-114170171D01*
X51042265Y-114147071D01*
X51036304Y-114123273D01*
X51032704Y-114099004D01*
X51031500Y-114074500D01*
X51031500Y-112874500D01*
X51032704Y-112849996D01*
X51036304Y-112825727D01*
X51042265Y-112801929D01*
X51050530Y-112778829D01*
X51061020Y-112756651D01*
X51073633Y-112735607D01*
X51088247Y-112715902D01*
X51104723Y-112697723D01*
X51122902Y-112681247D01*
X51142607Y-112666633D01*
X51163651Y-112654020D01*
X51185829Y-112643530D01*
X51208929Y-112635265D01*
X51232727Y-112629304D01*
X51256996Y-112625704D01*
X51281500Y-112624500D01*
X52731500Y-112624500D01*
X52756004Y-112625704D01*
X52756004Y-112625704D01*
G37*
D13*
X52006500Y-113474500D03*
D12*
X52006500Y-110974500D03*
X52006500Y-108474500D03*
X52006500Y-105974500D03*
D14*
X52006500Y-118785000D03*
D10*
G36*
X52781004Y-120436204D02*
G01*
X52805273Y-120439804D01*
X52829071Y-120445765D01*
X52852171Y-120454030D01*
X52874349Y-120464520D01*
X52895393Y-120477133D01*
X52915098Y-120491747D01*
X52933277Y-120508223D01*
X52949753Y-120526402D01*
X52964367Y-120546107D01*
X52976980Y-120567151D01*
X52987470Y-120589329D01*
X52995735Y-120612429D01*
X53001696Y-120636227D01*
X53005296Y-120660496D01*
X53006500Y-120685000D01*
X53006500Y-121885000D01*
X53005296Y-121909504D01*
X53001696Y-121933773D01*
X52995735Y-121957571D01*
X52987470Y-121980671D01*
X52976980Y-122002849D01*
X52964367Y-122023893D01*
X52949753Y-122043598D01*
X52933277Y-122061777D01*
X52915098Y-122078253D01*
X52895393Y-122092867D01*
X52874349Y-122105480D01*
X52852171Y-122115970D01*
X52829071Y-122124235D01*
X52805273Y-122130196D01*
X52781004Y-122133796D01*
X52756500Y-122135000D01*
X51256500Y-122135000D01*
X51231996Y-122133796D01*
X51207727Y-122130196D01*
X51183929Y-122124235D01*
X51160829Y-122115970D01*
X51138651Y-122105480D01*
X51117607Y-122092867D01*
X51097902Y-122078253D01*
X51079723Y-122061777D01*
X51063247Y-122043598D01*
X51048633Y-122023893D01*
X51036020Y-122002849D01*
X51025530Y-121980671D01*
X51017265Y-121957571D01*
X51011304Y-121933773D01*
X51007704Y-121909504D01*
X51006500Y-121885000D01*
X51006500Y-120685000D01*
X51007704Y-120660496D01*
X51011304Y-120636227D01*
X51017265Y-120612429D01*
X51025530Y-120589329D01*
X51036020Y-120567151D01*
X51048633Y-120546107D01*
X51063247Y-120526402D01*
X51079723Y-120508223D01*
X51097902Y-120491747D01*
X51117607Y-120477133D01*
X51138651Y-120464520D01*
X51160829Y-120454030D01*
X51183929Y-120445765D01*
X51207727Y-120439804D01*
X51231996Y-120436204D01*
X51256500Y-120435000D01*
X52756500Y-120435000D01*
X52781004Y-120436204D01*
X52781004Y-120436204D01*
G37*
D13*
X52006500Y-121285000D03*
D10*
G36*
X52781004Y-79097704D02*
G01*
X52805273Y-79101304D01*
X52829071Y-79107265D01*
X52852171Y-79115530D01*
X52874349Y-79126020D01*
X52895393Y-79138633D01*
X52915098Y-79153247D01*
X52933277Y-79169723D01*
X52949753Y-79187902D01*
X52964367Y-79207607D01*
X52976980Y-79228651D01*
X52987470Y-79250829D01*
X52995735Y-79273929D01*
X53001696Y-79297727D01*
X53005296Y-79321996D01*
X53006500Y-79346500D01*
X53006500Y-80546500D01*
X53005296Y-80571004D01*
X53001696Y-80595273D01*
X52995735Y-80619071D01*
X52987470Y-80642171D01*
X52976980Y-80664349D01*
X52964367Y-80685393D01*
X52949753Y-80705098D01*
X52933277Y-80723277D01*
X52915098Y-80739753D01*
X52895393Y-80754367D01*
X52874349Y-80766980D01*
X52852171Y-80777470D01*
X52829071Y-80785735D01*
X52805273Y-80791696D01*
X52781004Y-80795296D01*
X52756500Y-80796500D01*
X51256500Y-80796500D01*
X51231996Y-80795296D01*
X51207727Y-80791696D01*
X51183929Y-80785735D01*
X51160829Y-80777470D01*
X51138651Y-80766980D01*
X51117607Y-80754367D01*
X51097902Y-80739753D01*
X51079723Y-80723277D01*
X51063247Y-80705098D01*
X51048633Y-80685393D01*
X51036020Y-80664349D01*
X51025530Y-80642171D01*
X51017265Y-80619071D01*
X51011304Y-80595273D01*
X51007704Y-80571004D01*
X51006500Y-80546500D01*
X51006500Y-79346500D01*
X51007704Y-79321996D01*
X51011304Y-79297727D01*
X51017265Y-79273929D01*
X51025530Y-79250829D01*
X51036020Y-79228651D01*
X51048633Y-79207607D01*
X51063247Y-79187902D01*
X51079723Y-79169723D01*
X51097902Y-79153247D01*
X51117607Y-79138633D01*
X51138651Y-79126020D01*
X51160829Y-79115530D01*
X51183929Y-79107265D01*
X51207727Y-79101304D01*
X51231996Y-79097704D01*
X51256500Y-79096500D01*
X52756500Y-79096500D01*
X52781004Y-79097704D01*
X52781004Y-79097704D01*
G37*
D13*
X52006500Y-79946500D03*
D14*
X52006500Y-77446500D03*
X52006500Y-85320500D03*
D10*
G36*
X52781004Y-86971704D02*
G01*
X52805273Y-86975304D01*
X52829071Y-86981265D01*
X52852171Y-86989530D01*
X52874349Y-87000020D01*
X52895393Y-87012633D01*
X52915098Y-87027247D01*
X52933277Y-87043723D01*
X52949753Y-87061902D01*
X52964367Y-87081607D01*
X52976980Y-87102651D01*
X52987470Y-87124829D01*
X52995735Y-87147929D01*
X53001696Y-87171727D01*
X53005296Y-87195996D01*
X53006500Y-87220500D01*
X53006500Y-88420500D01*
X53005296Y-88445004D01*
X53001696Y-88469273D01*
X52995735Y-88493071D01*
X52987470Y-88516171D01*
X52976980Y-88538349D01*
X52964367Y-88559393D01*
X52949753Y-88579098D01*
X52933277Y-88597277D01*
X52915098Y-88613753D01*
X52895393Y-88628367D01*
X52874349Y-88640980D01*
X52852171Y-88651470D01*
X52829071Y-88659735D01*
X52805273Y-88665696D01*
X52781004Y-88669296D01*
X52756500Y-88670500D01*
X51256500Y-88670500D01*
X51231996Y-88669296D01*
X51207727Y-88665696D01*
X51183929Y-88659735D01*
X51160829Y-88651470D01*
X51138651Y-88640980D01*
X51117607Y-88628367D01*
X51097902Y-88613753D01*
X51079723Y-88597277D01*
X51063247Y-88579098D01*
X51048633Y-88559393D01*
X51036020Y-88538349D01*
X51025530Y-88516171D01*
X51017265Y-88493071D01*
X51011304Y-88469273D01*
X51007704Y-88445004D01*
X51006500Y-88420500D01*
X51006500Y-87220500D01*
X51007704Y-87195996D01*
X51011304Y-87171727D01*
X51017265Y-87147929D01*
X51025530Y-87124829D01*
X51036020Y-87102651D01*
X51048633Y-87081607D01*
X51063247Y-87061902D01*
X51079723Y-87043723D01*
X51097902Y-87027247D01*
X51117607Y-87012633D01*
X51138651Y-87000020D01*
X51160829Y-86989530D01*
X51183929Y-86981265D01*
X51207727Y-86975304D01*
X51231996Y-86971704D01*
X51256500Y-86970500D01*
X52756500Y-86970500D01*
X52781004Y-86971704D01*
X52781004Y-86971704D01*
G37*
D13*
X52006500Y-87820500D03*
D14*
X52006500Y-69659500D03*
D10*
G36*
X52781004Y-71310704D02*
G01*
X52805273Y-71314304D01*
X52829071Y-71320265D01*
X52852171Y-71328530D01*
X52874349Y-71339020D01*
X52895393Y-71351633D01*
X52915098Y-71366247D01*
X52933277Y-71382723D01*
X52949753Y-71400902D01*
X52964367Y-71420607D01*
X52976980Y-71441651D01*
X52987470Y-71463829D01*
X52995735Y-71486929D01*
X53001696Y-71510727D01*
X53005296Y-71534996D01*
X53006500Y-71559500D01*
X53006500Y-72759500D01*
X53005296Y-72784004D01*
X53001696Y-72808273D01*
X52995735Y-72832071D01*
X52987470Y-72855171D01*
X52976980Y-72877349D01*
X52964367Y-72898393D01*
X52949753Y-72918098D01*
X52933277Y-72936277D01*
X52915098Y-72952753D01*
X52895393Y-72967367D01*
X52874349Y-72979980D01*
X52852171Y-72990470D01*
X52829071Y-72998735D01*
X52805273Y-73004696D01*
X52781004Y-73008296D01*
X52756500Y-73009500D01*
X51256500Y-73009500D01*
X51231996Y-73008296D01*
X51207727Y-73004696D01*
X51183929Y-72998735D01*
X51160829Y-72990470D01*
X51138651Y-72979980D01*
X51117607Y-72967367D01*
X51097902Y-72952753D01*
X51079723Y-72936277D01*
X51063247Y-72918098D01*
X51048633Y-72898393D01*
X51036020Y-72877349D01*
X51025530Y-72855171D01*
X51017265Y-72832071D01*
X51011304Y-72808273D01*
X51007704Y-72784004D01*
X51006500Y-72759500D01*
X51006500Y-71559500D01*
X51007704Y-71534996D01*
X51011304Y-71510727D01*
X51017265Y-71486929D01*
X51025530Y-71463829D01*
X51036020Y-71441651D01*
X51048633Y-71420607D01*
X51063247Y-71400902D01*
X51079723Y-71382723D01*
X51097902Y-71366247D01*
X51117607Y-71351633D01*
X51138651Y-71339020D01*
X51160829Y-71328530D01*
X51183929Y-71320265D01*
X51207727Y-71314304D01*
X51231996Y-71310704D01*
X51256500Y-71309500D01*
X52756500Y-71309500D01*
X52781004Y-71310704D01*
X52781004Y-71310704D01*
G37*
D13*
X52006500Y-72159500D03*
D22*
X110697000Y-82677000D03*
D23*
X115697000Y-82677000D03*
D24*
X60080891Y-69238109D03*
X58649000Y-68645000D03*
X57217109Y-69238109D03*
X56624000Y-70670000D03*
X57217109Y-72101891D03*
X58649000Y-72695000D03*
X60080891Y-72101891D03*
X60674000Y-70670000D03*
D25*
X58649000Y-70670000D03*
X58649000Y-119670000D03*
D24*
X60674000Y-119670000D03*
X60080891Y-121101891D03*
X58649000Y-121695000D03*
X57217109Y-121101891D03*
X56624000Y-119670000D03*
X57217109Y-118238109D03*
X58649000Y-117645000D03*
X60080891Y-118238109D03*
X118080891Y-69238109D03*
X116649000Y-68645000D03*
X115217109Y-69238109D03*
X114624000Y-70670000D03*
X115217109Y-72101891D03*
X116649000Y-72695000D03*
X118080891Y-72101891D03*
X118674000Y-70670000D03*
D25*
X116649000Y-70670000D03*
X116649000Y-119670000D03*
D24*
X118674000Y-119670000D03*
X118080891Y-121101891D03*
X116649000Y-121695000D03*
X115217109Y-121101891D03*
X114624000Y-119670000D03*
X115217109Y-118238109D03*
X116649000Y-117645000D03*
X118080891Y-118238109D03*
D10*
G36*
X52756004Y-99805704D02*
G01*
X52780273Y-99809304D01*
X52804071Y-99815265D01*
X52827171Y-99823530D01*
X52849349Y-99834020D01*
X52870393Y-99846633D01*
X52890098Y-99861247D01*
X52908277Y-99877723D01*
X52924753Y-99895902D01*
X52939367Y-99915607D01*
X52951980Y-99936651D01*
X52962470Y-99958829D01*
X52970735Y-99981929D01*
X52976696Y-100005727D01*
X52980296Y-100029996D01*
X52981500Y-100054500D01*
X52981500Y-101254500D01*
X52980296Y-101279004D01*
X52976696Y-101303273D01*
X52970735Y-101327071D01*
X52962470Y-101350171D01*
X52951980Y-101372349D01*
X52939367Y-101393393D01*
X52924753Y-101413098D01*
X52908277Y-101431277D01*
X52890098Y-101447753D01*
X52870393Y-101462367D01*
X52849349Y-101474980D01*
X52827171Y-101485470D01*
X52804071Y-101493735D01*
X52780273Y-101499696D01*
X52756004Y-101503296D01*
X52731500Y-101504500D01*
X51281500Y-101504500D01*
X51256996Y-101503296D01*
X51232727Y-101499696D01*
X51208929Y-101493735D01*
X51185829Y-101485470D01*
X51163651Y-101474980D01*
X51142607Y-101462367D01*
X51122902Y-101447753D01*
X51104723Y-101431277D01*
X51088247Y-101413098D01*
X51073633Y-101393393D01*
X51061020Y-101372349D01*
X51050530Y-101350171D01*
X51042265Y-101327071D01*
X51036304Y-101303273D01*
X51032704Y-101279004D01*
X51031500Y-101254500D01*
X51031500Y-100054500D01*
X51032704Y-100029996D01*
X51036304Y-100005727D01*
X51042265Y-99981929D01*
X51050530Y-99958829D01*
X51061020Y-99936651D01*
X51073633Y-99915607D01*
X51088247Y-99895902D01*
X51104723Y-99877723D01*
X51122902Y-99861247D01*
X51142607Y-99846633D01*
X51163651Y-99834020D01*
X51185829Y-99823530D01*
X51208929Y-99815265D01*
X51232727Y-99809304D01*
X51256996Y-99805704D01*
X51281500Y-99804500D01*
X52731500Y-99804500D01*
X52756004Y-99805704D01*
X52756004Y-99805704D01*
G37*
D13*
X52006500Y-100654500D03*
D12*
X52006500Y-98154500D03*
X52006500Y-95654500D03*
X52006500Y-93154500D03*
D26*
X89916000Y-93853000D03*
D24*
X70993000Y-85471000D03*
X74803000Y-85471000D03*
D26*
X98552000Y-88265000D03*
D24*
X83566000Y-100965000D03*
X86487000Y-100838000D03*
X90551000Y-100965000D03*
X116332000Y-95885000D03*
X110490000Y-95885000D03*
X58521600Y-110236000D03*
X58521600Y-111506000D03*
X57150000Y-111506000D03*
X57150000Y-110236000D03*
X70104000Y-113284000D03*
X71755000Y-109855000D03*
X63398400Y-85471000D03*
X67208400Y-85471000D03*
X84048600Y-83693000D03*
X81915000Y-83693000D03*
X83566000Y-97790000D03*
X88773000Y-97409000D03*
X99314000Y-117729000D03*
X99339400Y-118719600D03*
X99339400Y-119684800D03*
X99339400Y-109728000D03*
X99339400Y-110693200D03*
X99339400Y-111709200D03*
X100888800Y-98552000D03*
X104394000Y-100076000D03*
X99060000Y-82931000D03*
X120650000Y-76454000D03*
X105537000Y-78740000D03*
X105537000Y-76454000D03*
X105054400Y-88900000D03*
X93599000Y-75565000D03*
X90678000Y-75184000D03*
X85344000Y-75184000D03*
X81661000Y-75184000D03*
X76200000Y-75184000D03*
X73279000Y-75565000D03*
X58293000Y-78359000D03*
X60071000Y-78359000D03*
X64135000Y-131445000D03*
X62865000Y-131445000D03*
X62865000Y-132715000D03*
X64135000Y-132715000D03*
X103886000Y-94615000D03*
D26*
X90424000Y-97409000D03*
X97536000Y-86106000D03*
X99441000Y-85344000D03*
X99441000Y-85344000D03*
D24*
X58293000Y-75801000D03*
X80010000Y-95885000D03*
X81788000Y-95876000D03*
X61849000Y-75819000D03*
D26*
X86122000Y-102677000D03*
X95336692Y-96256248D03*
X83566000Y-102761000D03*
X78232000Y-78994000D03*
X81153000Y-78994000D03*
X80899000Y-91440000D03*
X80899000Y-96901000D03*
X85090000Y-97282000D03*
X94361000Y-98552000D03*
D24*
X64389000Y-110236000D03*
X64389000Y-111506000D03*
X62877700Y-111506000D03*
X62877700Y-110236000D03*
X70104000Y-114808000D03*
X77025500Y-116205000D03*
X72580500Y-116205000D03*
X75946000Y-117157500D03*
X73710800Y-117157500D03*
X77025500Y-118110000D03*
X89852500Y-117284500D03*
X87947500Y-117284500D03*
X85915500Y-117284500D03*
X86931500Y-118237000D03*
X88900000Y-118237000D03*
X89852500Y-112077500D03*
X87947500Y-112077500D03*
X85915500Y-112077500D03*
X88963500Y-111125000D03*
X86931500Y-111125000D03*
X82423000Y-109728000D03*
X82550000Y-118745000D03*
X82550000Y-119634000D03*
X99339400Y-114681000D03*
X72580500Y-118110000D03*
D26*
X67183000Y-75819000D03*
D24*
X93345000Y-102743000D03*
D26*
X89154000Y-102743000D03*
D24*
X63627000Y-75819000D03*
X94996000Y-109029500D03*
X93027500Y-109029500D03*
X94996000Y-112141000D03*
X93027500Y-112077500D03*
X82423000Y-107696000D03*
X99250500Y-107696000D03*
X99314000Y-112712500D03*
D26*
X116967000Y-108839000D03*
X105791000Y-108839000D03*
X117983000Y-111814000D03*
X85725000Y-92859000D03*
X88646000Y-91440000D03*
X97405672Y-91375941D03*
X97441999Y-92075000D03*
D24*
X62865000Y-126238000D03*
X64135000Y-126238000D03*
X64135000Y-127508000D03*
X62865000Y-127508000D03*
D26*
X95846235Y-98971765D03*
X92245265Y-88435265D03*
X96501470Y-100475530D03*
X92917973Y-88241701D03*
X97536000Y-102362000D03*
X97542000Y-95309000D03*
X91750289Y-88930240D03*
X91948000Y-97917000D03*
X67691000Y-87376000D03*
X69053000Y-86233000D03*
X69053000Y-82169000D03*
X69053000Y-79347500D03*
X60960000Y-92456000D03*
X59690000Y-93754500D03*
X68453000Y-81661000D03*
X68453000Y-79791000D03*
X94423236Y-85436000D03*
X93218000Y-84236000D03*
X82141734Y-81942266D03*
X86114765Y-82160235D03*
X102108000Y-86741000D03*
X98992000Y-93059000D03*
X80010000Y-97935000D03*
X77089000Y-110118000D03*
X98417608Y-96235002D03*
X116459000Y-88138000D03*
D24*
X77089000Y-120713500D03*
X77089000Y-122999500D03*
X77089000Y-121793000D03*
D26*
X65405000Y-75819000D03*
D24*
X94996000Y-120396000D03*
X93027500Y-120396000D03*
X94996000Y-117348000D03*
X93027500Y-117348000D03*
X82550000Y-121729500D03*
X99314000Y-116713000D03*
X99250500Y-121729500D03*
D26*
X81805000Y-115707000D03*
X94342000Y-86809000D03*
X81788000Y-97926000D03*
X80391000Y-103378000D03*
X80391000Y-104648000D03*
X75565000Y-110871000D03*
X81805000Y-116707000D03*
X90678000Y-95109001D03*
X93599000Y-87503000D03*
X92583000Y-83636000D03*
X90678000Y-85471000D03*
X97917000Y-103886000D03*
X100842000Y-100333000D03*
X92742000Y-95309000D03*
X93599000Y-92837000D03*
X96266000Y-92837000D03*
X107442000Y-93726000D03*
X93542000Y-95309000D03*
X93599000Y-93634000D03*
X96266000Y-93634000D03*
X105410000Y-97435002D03*
X97409000Y-89916000D03*
X109839175Y-89265175D03*
X112333003Y-91059000D03*
X112395000Y-98044000D03*
X97409009Y-90675947D03*
X108331000Y-90678000D03*
X113538000Y-91659000D03*
X115316000Y-93345000D03*
X118618000Y-96835002D03*
X121793000Y-93345000D03*
X118110000Y-92202000D03*
D27*
X78232000Y-78994000D02*
X81153000Y-78994000D01*
X80899000Y-91440000D02*
X80899000Y-96901000D01*
X94326001Y-98517001D02*
X94361000Y-98552000D01*
X85090000Y-97282000D02*
X86325001Y-98517001D01*
X86325001Y-98517001D02*
X94326001Y-98517001D01*
X116967000Y-108839000D02*
X105791000Y-108839000D01*
X111959000Y-111814000D02*
X111905000Y-111760000D01*
X117983000Y-111814000D02*
X111959000Y-111814000D01*
X87227000Y-92859000D02*
X88646000Y-91440000D01*
X85725000Y-92859000D02*
X87227000Y-92859000D01*
X123571000Y-85033500D02*
X122920380Y-85033500D01*
X123446000Y-85033500D02*
X123571000Y-85033500D01*
X97405672Y-91375941D02*
X108576939Y-91375941D01*
X108576939Y-91375941D02*
X112919390Y-87033490D01*
X112919390Y-87033490D02*
X121446010Y-87033490D01*
X121446010Y-87033490D02*
X123446000Y-85033500D01*
X97441999Y-92075000D02*
X108585000Y-92075000D01*
X113126500Y-87533500D02*
X123571000Y-87533500D01*
X108585000Y-92075000D02*
X113126500Y-87533500D01*
X94199000Y-97324530D02*
X94199000Y-90509256D01*
X95846235Y-98971765D02*
X94199000Y-97324530D01*
X94199000Y-90389000D02*
X92245265Y-88435265D01*
X94199000Y-90509256D02*
X94199000Y-90389000D01*
X94699010Y-90022738D02*
X92917973Y-88241701D01*
X96501470Y-98738998D02*
X94699010Y-96936538D01*
X94699010Y-96936538D02*
X94699010Y-90022738D01*
X96501470Y-100475530D02*
X96501470Y-98738998D01*
X97536000Y-95315000D02*
X97542000Y-95309000D01*
X97536000Y-102362000D02*
X97536000Y-95315000D01*
X91948000Y-89127951D02*
X91750289Y-88930240D01*
X91948000Y-97917000D02*
X91948000Y-89127951D01*
X67910000Y-87376000D02*
X69053000Y-86233000D01*
X67691000Y-87376000D02*
X67910000Y-87376000D01*
X69053000Y-82169000D02*
X69053000Y-79347500D01*
X60960000Y-92484500D02*
X59690000Y-93754500D01*
X60960000Y-92456000D02*
X60960000Y-92484500D01*
X68453000Y-81661000D02*
X68453000Y-79791000D01*
X94418000Y-85436000D02*
X93218000Y-84236000D01*
X94423236Y-85436000D02*
X94418000Y-85436000D01*
X85896796Y-81942266D02*
X86114765Y-82160235D01*
X82141734Y-81942266D02*
X85896796Y-81942266D01*
X106172000Y-82677000D02*
X110697000Y-82677000D01*
X102108000Y-86741000D02*
X106172000Y-82677000D01*
X122652747Y-70628553D02*
X123558300Y-69723000D01*
X98992000Y-93059000D02*
X102361002Y-93059000D01*
X80010000Y-98610000D02*
X77089000Y-101531000D01*
X80010000Y-97935000D02*
X80010000Y-98610000D01*
X98417608Y-96235002D02*
X98417608Y-102368394D01*
X96773002Y-104013000D02*
X77089000Y-104013000D01*
X98417608Y-102368394D02*
X96773002Y-104013000D01*
X77089000Y-101531000D02*
X77089000Y-104013000D01*
X77089000Y-104013000D02*
X77089000Y-110118000D01*
X108363000Y-93059000D02*
X113284000Y-88138000D01*
X102361002Y-93059000D02*
X108363000Y-93059000D01*
X113284000Y-88138000D02*
X116459000Y-88138000D01*
X90886998Y-86809000D02*
X82538001Y-95157997D01*
X82538001Y-95157997D02*
X82538001Y-97166999D01*
X94342000Y-86809000D02*
X90886998Y-86809000D01*
X81788000Y-97917000D02*
X81788000Y-97926000D01*
X82538001Y-97166999D02*
X81788000Y-97917000D01*
X81788000Y-101981000D02*
X80391000Y-103378000D01*
X81788000Y-97926000D02*
X81788000Y-101981000D01*
X81460000Y-115707000D02*
X81805000Y-115707000D01*
X80391000Y-114638000D02*
X81460000Y-115707000D01*
X80391000Y-104648000D02*
X80391000Y-114638000D01*
X75565000Y-110871000D02*
X81401000Y-116707000D01*
X81401000Y-116707000D02*
X81805000Y-116707000D01*
X90678000Y-95109001D02*
X90678000Y-89154000D01*
X90678000Y-89154000D02*
X92329000Y-87503000D01*
X92329000Y-87503000D02*
X93599000Y-87503000D01*
X92513000Y-83636000D02*
X90678000Y-85471000D01*
X92583000Y-83636000D02*
X92513000Y-83636000D01*
X97917000Y-103886000D02*
X100838000Y-100965000D01*
X100838000Y-100337000D02*
X100842000Y-100333000D01*
X100838000Y-100965000D02*
X100838000Y-100337000D01*
X93507998Y-92837000D02*
X93599000Y-92837000D01*
X92742000Y-93602998D02*
X93507998Y-92837000D01*
X92742000Y-95309000D02*
X92742000Y-93602998D01*
X107403199Y-93764801D02*
X107442000Y-93726000D01*
X98082801Y-93764801D02*
X107403199Y-93764801D01*
X97155000Y-92837000D02*
X98082801Y-93764801D01*
X96266000Y-92837000D02*
X97155000Y-92837000D01*
X93542000Y-93691000D02*
X93599000Y-93634000D01*
X93542000Y-95309000D02*
X93542000Y-93691000D01*
X96266000Y-93634000D02*
X96755002Y-93634000D01*
X100556004Y-97435002D02*
X105410000Y-97435002D01*
X96755002Y-93634000D02*
X100556004Y-97435002D01*
X109098749Y-90005601D02*
X109839175Y-89265175D01*
X97409000Y-89916000D02*
X97882000Y-89443000D01*
X104131798Y-89443000D02*
X104694399Y-90005601D01*
X97882000Y-89443000D02*
X104131798Y-89443000D01*
X104694399Y-90005601D02*
X109098749Y-90005601D01*
X112333003Y-97982003D02*
X112395000Y-98044000D01*
X112333003Y-91059000D02*
X112333003Y-97982003D01*
X108328947Y-90675947D02*
X108331000Y-90678000D01*
X97409009Y-90675947D02*
X108328947Y-90675947D01*
X113630000Y-91659000D02*
X115316000Y-93345000D01*
X113538000Y-91659000D02*
X113630000Y-91659000D01*
X121793000Y-93660002D02*
X121793000Y-93345000D01*
X118618000Y-96835002D02*
X121793000Y-93660002D01*
X123239500Y-92202000D02*
X123571000Y-92533500D01*
X118110000Y-92202000D02*
X123239500Y-92202000D01*
M02*
