G04 #@! TF.GenerationSoftware,KiCad,Pcbnew,5.1.2-f72e74a~84~ubuntu16.04.1*
G04 #@! TF.CreationDate,2019-08-19T17:24:30+09:00*
G04 #@! TF.ProjectId,MD&SubCPU-ver2.0,4d442653-7562-4435-9055-2d766572322e,rev?*
G04 #@! TF.SameCoordinates,Original*
G04 #@! TF.FileFunction,Soldermask,Bot*
G04 #@! TF.FilePolarity,Negative*
%FSLAX46Y46*%
G04 Gerber Fmt 4.6, Leading zero omitted, Abs format (unit mm)*
G04 Created by KiCad (PCBNEW 5.1.2-f72e74a~84~ubuntu16.04.1) date 2019-08-19 17:24:30*
%MOMM*%
%LPD*%
G04 APERTURE LIST*
%ADD10C,0.100000*%
G04 APERTURE END LIST*
D10*
G36*
X72892228Y-134182703D02*
G01*
X73047100Y-134246853D01*
X73186481Y-134339985D01*
X73305015Y-134458519D01*
X73398147Y-134597900D01*
X73462297Y-134752772D01*
X73495000Y-134917184D01*
X73495000Y-135084816D01*
X73462297Y-135249228D01*
X73398147Y-135404100D01*
X73305015Y-135543481D01*
X73186481Y-135662015D01*
X73047100Y-135755147D01*
X72892228Y-135819297D01*
X72727816Y-135852000D01*
X72560184Y-135852000D01*
X72395772Y-135819297D01*
X72240900Y-135755147D01*
X72101519Y-135662015D01*
X71982985Y-135543481D01*
X71889853Y-135404100D01*
X71825703Y-135249228D01*
X71793000Y-135084816D01*
X71793000Y-134917184D01*
X71825703Y-134752772D01*
X71889853Y-134597900D01*
X71982985Y-134458519D01*
X72101519Y-134339985D01*
X72240900Y-134246853D01*
X72395772Y-134182703D01*
X72560184Y-134150000D01*
X72727816Y-134150000D01*
X72892228Y-134182703D01*
X72892228Y-134182703D01*
G37*
G36*
X70288728Y-134182703D02*
G01*
X70443600Y-134246853D01*
X70582981Y-134339985D01*
X70701515Y-134458519D01*
X70794647Y-134597900D01*
X70858797Y-134752772D01*
X70891500Y-134917184D01*
X70891500Y-135084816D01*
X70858797Y-135249228D01*
X70794647Y-135404100D01*
X70701515Y-135543481D01*
X70582981Y-135662015D01*
X70443600Y-135755147D01*
X70288728Y-135819297D01*
X70124316Y-135852000D01*
X69956684Y-135852000D01*
X69792272Y-135819297D01*
X69637400Y-135755147D01*
X69498019Y-135662015D01*
X69379485Y-135543481D01*
X69286353Y-135404100D01*
X69222203Y-135249228D01*
X69189500Y-135084816D01*
X69189500Y-134917184D01*
X69222203Y-134752772D01*
X69286353Y-134597900D01*
X69379485Y-134458519D01*
X69498019Y-134339985D01*
X69637400Y-134246853D01*
X69792272Y-134182703D01*
X69956684Y-134150000D01*
X70124316Y-134150000D01*
X70288728Y-134182703D01*
X70288728Y-134182703D01*
G37*
G36*
X48532882Y-126954824D02*
G01*
X48675615Y-126998122D01*
X48807149Y-127068428D01*
X48922448Y-127163052D01*
X49017072Y-127278351D01*
X49087378Y-127409885D01*
X49130676Y-127552618D01*
X49145900Y-127707190D01*
X49145900Y-132388810D01*
X49130676Y-132543382D01*
X49087378Y-132686115D01*
X49017072Y-132817649D01*
X48922448Y-132932948D01*
X48807149Y-133027572D01*
X48675615Y-133097878D01*
X48532882Y-133141176D01*
X48378310Y-133156400D01*
X46617690Y-133156400D01*
X46463118Y-133141176D01*
X46320385Y-133097878D01*
X46188851Y-133027572D01*
X46073552Y-132932948D01*
X45978928Y-132817649D01*
X45908622Y-132686115D01*
X45865324Y-132543382D01*
X45850100Y-132388810D01*
X45850100Y-127707190D01*
X45865324Y-127552618D01*
X45908622Y-127409885D01*
X45978928Y-127278351D01*
X46073552Y-127163052D01*
X46188851Y-127068428D01*
X46320385Y-126998122D01*
X46463118Y-126954824D01*
X46617690Y-126939600D01*
X48378310Y-126939600D01*
X48532882Y-126954824D01*
X48532882Y-126954824D01*
G37*
G36*
X113963282Y-126436664D02*
G01*
X114106015Y-126479962D01*
X114237549Y-126550268D01*
X114352848Y-126644892D01*
X114447472Y-126760191D01*
X114517778Y-126891725D01*
X114561076Y-127034458D01*
X114576300Y-127189030D01*
X114576300Y-131870650D01*
X114561076Y-132025222D01*
X114517778Y-132167955D01*
X114447472Y-132299489D01*
X114352848Y-132414788D01*
X114237549Y-132509412D01*
X114106015Y-132579718D01*
X113963282Y-132623016D01*
X113808710Y-132638240D01*
X112048090Y-132638240D01*
X111893518Y-132623016D01*
X111750785Y-132579718D01*
X111619251Y-132509412D01*
X111503952Y-132414788D01*
X111409328Y-132299489D01*
X111339022Y-132167955D01*
X111295724Y-132025222D01*
X111280500Y-131870650D01*
X111280500Y-127189030D01*
X111295724Y-127034458D01*
X111339022Y-126891725D01*
X111409328Y-126760191D01*
X111503952Y-126644892D01*
X111619251Y-126550268D01*
X111750785Y-126479962D01*
X111893518Y-126436664D01*
X112048090Y-126421440D01*
X113808710Y-126421440D01*
X113963282Y-126436664D01*
X113963282Y-126436664D01*
G37*
G36*
X55691742Y-129065564D02*
G01*
X55834475Y-129108862D01*
X55966009Y-129179168D01*
X56081308Y-129273792D01*
X56175932Y-129389091D01*
X56246238Y-129520625D01*
X56289536Y-129663358D01*
X56304760Y-129817930D01*
X56304760Y-131578550D01*
X56289536Y-131733122D01*
X56246238Y-131875855D01*
X56175932Y-132007389D01*
X56081308Y-132122688D01*
X55966009Y-132217312D01*
X55834475Y-132287618D01*
X55691742Y-132330916D01*
X55537170Y-132346140D01*
X50855550Y-132346140D01*
X50700978Y-132330916D01*
X50558245Y-132287618D01*
X50426711Y-132217312D01*
X50311412Y-132122688D01*
X50216788Y-132007389D01*
X50146482Y-131875855D01*
X50103184Y-131733122D01*
X50087960Y-131578550D01*
X50087960Y-129817930D01*
X50103184Y-129663358D01*
X50146482Y-129520625D01*
X50216788Y-129389091D01*
X50311412Y-129273792D01*
X50426711Y-129179168D01*
X50558245Y-129108862D01*
X50700978Y-129065564D01*
X50855550Y-129050340D01*
X55537170Y-129050340D01*
X55691742Y-129065564D01*
X55691742Y-129065564D01*
G37*
G36*
X123793742Y-130043818D02*
G01*
X123859927Y-130050337D01*
X124029766Y-130101857D01*
X124186291Y-130185522D01*
X124222029Y-130214852D01*
X124323486Y-130298114D01*
X124406748Y-130399571D01*
X124436078Y-130435309D01*
X124519743Y-130591834D01*
X124571263Y-130761673D01*
X124588659Y-130938300D01*
X124571263Y-131114927D01*
X124519743Y-131284766D01*
X124436078Y-131441291D01*
X124406748Y-131477029D01*
X124323486Y-131578486D01*
X124222029Y-131661748D01*
X124186291Y-131691078D01*
X124029766Y-131774743D01*
X123859927Y-131826263D01*
X123793743Y-131832781D01*
X123727560Y-131839300D01*
X123389040Y-131839300D01*
X123322857Y-131832781D01*
X123256673Y-131826263D01*
X123086834Y-131774743D01*
X122930309Y-131691078D01*
X122894571Y-131661748D01*
X122793114Y-131578486D01*
X122709852Y-131477029D01*
X122680522Y-131441291D01*
X122596857Y-131284766D01*
X122545337Y-131114927D01*
X122527941Y-130938300D01*
X122545337Y-130761673D01*
X122596857Y-130591834D01*
X122680522Y-130435309D01*
X122709852Y-130399571D01*
X122793114Y-130298114D01*
X122894571Y-130214852D01*
X122930309Y-130185522D01*
X123086834Y-130101857D01*
X123256673Y-130050337D01*
X123322858Y-130043818D01*
X123389040Y-130037300D01*
X123727560Y-130037300D01*
X123793742Y-130043818D01*
X123793742Y-130043818D01*
G37*
G36*
X108235582Y-126789724D02*
G01*
X108378315Y-126833022D01*
X108509849Y-126903328D01*
X108625148Y-126997952D01*
X108719772Y-127113251D01*
X108790078Y-127244785D01*
X108833376Y-127387518D01*
X108848600Y-127542090D01*
X108848600Y-129302710D01*
X108833376Y-129457282D01*
X108790078Y-129600015D01*
X108719772Y-129731549D01*
X108625148Y-129846848D01*
X108509849Y-129941472D01*
X108378315Y-130011778D01*
X108235582Y-130055076D01*
X108081010Y-130070300D01*
X103399390Y-130070300D01*
X103244818Y-130055076D01*
X103102085Y-130011778D01*
X102970551Y-129941472D01*
X102855252Y-129846848D01*
X102760628Y-129731549D01*
X102690322Y-129600015D01*
X102647024Y-129457282D01*
X102631800Y-129302710D01*
X102631800Y-127542090D01*
X102647024Y-127387518D01*
X102690322Y-127244785D01*
X102760628Y-127113251D01*
X102855252Y-126997952D01*
X102970551Y-126903328D01*
X103102085Y-126833022D01*
X103244818Y-126789724D01*
X103399390Y-126774500D01*
X108081010Y-126774500D01*
X108235582Y-126789724D01*
X108235582Y-126789724D01*
G37*
G36*
X123793743Y-127543819D02*
G01*
X123859927Y-127550337D01*
X124029766Y-127601857D01*
X124186291Y-127685522D01*
X124212693Y-127707190D01*
X124323486Y-127798114D01*
X124406748Y-127899571D01*
X124436078Y-127935309D01*
X124519743Y-128091834D01*
X124571263Y-128261673D01*
X124588659Y-128438300D01*
X124571263Y-128614927D01*
X124519743Y-128784766D01*
X124436078Y-128941291D01*
X124406748Y-128977029D01*
X124323486Y-129078486D01*
X124222029Y-129161748D01*
X124186291Y-129191078D01*
X124029766Y-129274743D01*
X123859927Y-129326263D01*
X123793742Y-129332782D01*
X123727560Y-129339300D01*
X123389040Y-129339300D01*
X123322858Y-129332782D01*
X123256673Y-129326263D01*
X123086834Y-129274743D01*
X122930309Y-129191078D01*
X122894571Y-129161748D01*
X122793114Y-129078486D01*
X122709852Y-128977029D01*
X122680522Y-128941291D01*
X122596857Y-128784766D01*
X122545337Y-128614927D01*
X122527941Y-128438300D01*
X122545337Y-128261673D01*
X122596857Y-128091834D01*
X122680522Y-127935309D01*
X122709852Y-127899571D01*
X122793114Y-127798114D01*
X122903907Y-127707190D01*
X122930309Y-127685522D01*
X123086834Y-127601857D01*
X123256673Y-127550337D01*
X123322857Y-127543819D01*
X123389040Y-127537300D01*
X123727560Y-127537300D01*
X123793743Y-127543819D01*
X123793743Y-127543819D01*
G37*
G36*
X123793742Y-125043818D02*
G01*
X123859927Y-125050337D01*
X124029766Y-125101857D01*
X124186291Y-125185522D01*
X124222029Y-125214852D01*
X124323486Y-125298114D01*
X124406748Y-125399571D01*
X124436078Y-125435309D01*
X124519743Y-125591834D01*
X124571263Y-125761673D01*
X124588659Y-125938300D01*
X124571263Y-126114927D01*
X124519743Y-126284766D01*
X124436078Y-126441291D01*
X124406748Y-126477029D01*
X124323486Y-126578486D01*
X124222029Y-126661748D01*
X124186291Y-126691078D01*
X124029766Y-126774743D01*
X123859927Y-126826263D01*
X123793742Y-126832782D01*
X123727560Y-126839300D01*
X123389040Y-126839300D01*
X123322858Y-126832782D01*
X123256673Y-126826263D01*
X123086834Y-126774743D01*
X122930309Y-126691078D01*
X122894571Y-126661748D01*
X122793114Y-126578486D01*
X122709852Y-126477029D01*
X122680522Y-126441291D01*
X122596857Y-126284766D01*
X122545337Y-126114927D01*
X122527941Y-125938300D01*
X122545337Y-125761673D01*
X122596857Y-125591834D01*
X122680522Y-125435309D01*
X122709852Y-125399571D01*
X122793114Y-125298114D01*
X122894571Y-125214852D01*
X122930309Y-125185522D01*
X123086834Y-125101857D01*
X123256673Y-125050337D01*
X123322858Y-125043818D01*
X123389040Y-125037300D01*
X123727560Y-125037300D01*
X123793742Y-125043818D01*
X123793742Y-125043818D01*
G37*
G36*
X72810823Y-124002313D02*
G01*
X72971242Y-124050976D01*
X73103906Y-124121886D01*
X73119078Y-124129996D01*
X73248659Y-124236341D01*
X73355004Y-124365922D01*
X73355005Y-124365924D01*
X73434024Y-124513758D01*
X73482687Y-124674177D01*
X73499117Y-124841000D01*
X73482687Y-125007823D01*
X73434024Y-125168242D01*
X73364606Y-125298114D01*
X73355004Y-125316078D01*
X73248659Y-125445659D01*
X73119078Y-125552004D01*
X73119076Y-125552005D01*
X72971242Y-125631024D01*
X72810823Y-125679687D01*
X72685804Y-125692000D01*
X72602196Y-125692000D01*
X72477177Y-125679687D01*
X72316758Y-125631024D01*
X72168924Y-125552005D01*
X72168922Y-125552004D01*
X72039341Y-125445659D01*
X71932996Y-125316078D01*
X71923394Y-125298114D01*
X71853976Y-125168242D01*
X71805313Y-125007823D01*
X71788883Y-124841000D01*
X71805313Y-124674177D01*
X71853976Y-124513758D01*
X71932995Y-124365924D01*
X71932996Y-124365922D01*
X72039341Y-124236341D01*
X72168922Y-124129996D01*
X72184094Y-124121886D01*
X72316758Y-124050976D01*
X72477177Y-124002313D01*
X72602196Y-123990000D01*
X72685804Y-123990000D01*
X72810823Y-124002313D01*
X72810823Y-124002313D01*
G37*
G36*
X70207323Y-124002313D02*
G01*
X70367742Y-124050976D01*
X70500406Y-124121886D01*
X70515578Y-124129996D01*
X70645159Y-124236341D01*
X70751504Y-124365922D01*
X70751505Y-124365924D01*
X70830524Y-124513758D01*
X70879187Y-124674177D01*
X70895617Y-124841000D01*
X70879187Y-125007823D01*
X70830524Y-125168242D01*
X70761106Y-125298114D01*
X70751504Y-125316078D01*
X70645159Y-125445659D01*
X70515578Y-125552004D01*
X70515576Y-125552005D01*
X70367742Y-125631024D01*
X70207323Y-125679687D01*
X70082304Y-125692000D01*
X69998696Y-125692000D01*
X69873677Y-125679687D01*
X69713258Y-125631024D01*
X69565424Y-125552005D01*
X69565422Y-125552004D01*
X69435841Y-125445659D01*
X69329496Y-125316078D01*
X69319894Y-125298114D01*
X69250476Y-125168242D01*
X69201813Y-125007823D01*
X69185383Y-124841000D01*
X69201813Y-124674177D01*
X69250476Y-124513758D01*
X69329495Y-124365924D01*
X69329496Y-124365922D01*
X69435841Y-124236341D01*
X69565422Y-124129996D01*
X69580594Y-124121886D01*
X69713258Y-124050976D01*
X69873677Y-124002313D01*
X69998696Y-123990000D01*
X70082304Y-123990000D01*
X70207323Y-124002313D01*
X70207323Y-124002313D01*
G37*
G36*
X123793742Y-122543818D02*
G01*
X123859927Y-122550337D01*
X124029766Y-122601857D01*
X124186291Y-122685522D01*
X124222029Y-122714852D01*
X124323486Y-122798114D01*
X124406748Y-122899571D01*
X124436078Y-122935309D01*
X124519743Y-123091834D01*
X124571263Y-123261673D01*
X124588659Y-123438300D01*
X124571263Y-123614927D01*
X124519743Y-123784766D01*
X124436078Y-123941291D01*
X124406748Y-123977029D01*
X124323486Y-124078486D01*
X124222029Y-124161748D01*
X124186291Y-124191078D01*
X124029766Y-124274743D01*
X123859927Y-124326263D01*
X123793742Y-124332782D01*
X123727560Y-124339300D01*
X123389040Y-124339300D01*
X123322858Y-124332782D01*
X123256673Y-124326263D01*
X123086834Y-124274743D01*
X122930309Y-124191078D01*
X122894571Y-124161748D01*
X122793114Y-124078486D01*
X122709852Y-123977029D01*
X122680522Y-123941291D01*
X122596857Y-123784766D01*
X122545337Y-123614927D01*
X122527941Y-123438300D01*
X122545337Y-123261673D01*
X122596857Y-123091834D01*
X122680522Y-122935309D01*
X122709852Y-122899571D01*
X122793114Y-122798114D01*
X122894571Y-122714852D01*
X122930309Y-122685522D01*
X123086834Y-122601857D01*
X123256673Y-122550337D01*
X123322858Y-122543818D01*
X123389040Y-122537300D01*
X123727560Y-122537300D01*
X123793742Y-122543818D01*
X123793742Y-122543818D01*
G37*
G36*
X117185693Y-116971859D02*
G01*
X117451437Y-117024719D01*
X117952087Y-117232095D01*
X118132561Y-117352684D01*
X118402660Y-117533158D01*
X118785842Y-117916340D01*
X118966316Y-118186439D01*
X119086905Y-118366913D01*
X119294281Y-118867563D01*
X119308946Y-118941289D01*
X119400000Y-119399049D01*
X119400000Y-119940951D01*
X119364186Y-120121000D01*
X119294281Y-120472437D01*
X119086905Y-120973087D01*
X119030521Y-121057471D01*
X118785842Y-121423660D01*
X118402660Y-121806842D01*
X118154437Y-121972699D01*
X117952087Y-122107905D01*
X117451437Y-122315281D01*
X117185693Y-122368141D01*
X116919951Y-122421000D01*
X116378049Y-122421000D01*
X116112307Y-122368141D01*
X115846563Y-122315281D01*
X115345913Y-122107905D01*
X115143563Y-121972699D01*
X114895340Y-121806842D01*
X114512158Y-121423660D01*
X114267479Y-121057471D01*
X114211095Y-120973087D01*
X114003719Y-120472437D01*
X113933814Y-120121000D01*
X113898000Y-119940951D01*
X113898000Y-119399049D01*
X113989054Y-118941289D01*
X114003719Y-118867563D01*
X114211095Y-118366913D01*
X114331684Y-118186439D01*
X114512158Y-117916340D01*
X114895340Y-117533158D01*
X115165439Y-117352684D01*
X115345913Y-117232095D01*
X115846563Y-117024719D01*
X116112307Y-116971859D01*
X116378049Y-116919000D01*
X116919951Y-116919000D01*
X117185693Y-116971859D01*
X117185693Y-116971859D01*
G37*
G36*
X59185693Y-116971859D02*
G01*
X59451437Y-117024719D01*
X59952087Y-117232095D01*
X60132561Y-117352684D01*
X60402660Y-117533158D01*
X60785842Y-117916340D01*
X60966316Y-118186439D01*
X61086905Y-118366913D01*
X61294281Y-118867563D01*
X61308946Y-118941289D01*
X61400000Y-119399049D01*
X61400000Y-119940951D01*
X61364186Y-120121000D01*
X61294281Y-120472437D01*
X61086905Y-120973087D01*
X61030521Y-121057471D01*
X60785842Y-121423660D01*
X60402660Y-121806842D01*
X60154437Y-121972699D01*
X59952087Y-122107905D01*
X59451437Y-122315281D01*
X59185693Y-122368141D01*
X58919951Y-122421000D01*
X58378049Y-122421000D01*
X58112307Y-122368141D01*
X57846563Y-122315281D01*
X57345913Y-122107905D01*
X57143563Y-121972699D01*
X56895340Y-121806842D01*
X56512158Y-121423660D01*
X56267479Y-121057471D01*
X56211095Y-120973087D01*
X56003719Y-120472437D01*
X55933814Y-120121000D01*
X55898000Y-119940951D01*
X55898000Y-119399049D01*
X55989054Y-118941289D01*
X56003719Y-118867563D01*
X56211095Y-118366913D01*
X56331684Y-118186439D01*
X56512158Y-117916340D01*
X56895340Y-117533158D01*
X57165439Y-117352684D01*
X57345913Y-117232095D01*
X57846563Y-117024719D01*
X58112307Y-116971859D01*
X58378049Y-116919000D01*
X58919951Y-116919000D01*
X59185693Y-116971859D01*
X59185693Y-116971859D01*
G37*
G36*
X52915100Y-120387989D02*
G01*
X52948152Y-120398015D01*
X52978603Y-120414292D01*
X53005299Y-120436201D01*
X53027208Y-120462897D01*
X53043485Y-120493348D01*
X53053511Y-120526400D01*
X53057500Y-120566903D01*
X53057500Y-122003097D01*
X53053511Y-122043600D01*
X53043485Y-122076652D01*
X53027208Y-122107103D01*
X53005299Y-122133799D01*
X52978603Y-122155708D01*
X52948152Y-122171985D01*
X52915100Y-122182011D01*
X52874597Y-122186000D01*
X51138403Y-122186000D01*
X51097900Y-122182011D01*
X51064848Y-122171985D01*
X51034397Y-122155708D01*
X51007701Y-122133799D01*
X50985792Y-122107103D01*
X50969515Y-122076652D01*
X50959489Y-122043600D01*
X50955500Y-122003097D01*
X50955500Y-120566903D01*
X50959489Y-120526400D01*
X50969515Y-120493348D01*
X50985792Y-120462897D01*
X51007701Y-120436201D01*
X51034397Y-120414292D01*
X51064848Y-120398015D01*
X51097900Y-120387989D01*
X51138403Y-120384000D01*
X52874597Y-120384000D01*
X52915100Y-120387989D01*
X52915100Y-120387989D01*
G37*
G36*
X123793743Y-120043819D02*
G01*
X123859927Y-120050337D01*
X124029766Y-120101857D01*
X124186291Y-120185522D01*
X124222029Y-120214852D01*
X124323486Y-120298114D01*
X124405471Y-120398015D01*
X124436078Y-120435309D01*
X124519743Y-120591834D01*
X124571263Y-120761673D01*
X124588659Y-120938300D01*
X124571263Y-121114927D01*
X124519743Y-121284766D01*
X124436078Y-121441291D01*
X124427121Y-121452205D01*
X124323486Y-121578486D01*
X124235638Y-121650580D01*
X124186291Y-121691078D01*
X124029766Y-121774743D01*
X123859927Y-121826263D01*
X123793743Y-121832781D01*
X123727560Y-121839300D01*
X123389040Y-121839300D01*
X123322857Y-121832781D01*
X123256673Y-121826263D01*
X123086834Y-121774743D01*
X122930309Y-121691078D01*
X122880962Y-121650580D01*
X122793114Y-121578486D01*
X122689479Y-121452205D01*
X122680522Y-121441291D01*
X122596857Y-121284766D01*
X122545337Y-121114927D01*
X122527941Y-120938300D01*
X122545337Y-120761673D01*
X122596857Y-120591834D01*
X122680522Y-120435309D01*
X122711129Y-120398015D01*
X122793114Y-120298114D01*
X122894571Y-120214852D01*
X122930309Y-120185522D01*
X123086834Y-120101857D01*
X123256673Y-120050337D01*
X123322857Y-120043819D01*
X123389040Y-120037300D01*
X123727560Y-120037300D01*
X123793743Y-120043819D01*
X123793743Y-120043819D01*
G37*
G36*
X52266942Y-117890518D02*
G01*
X52333127Y-117897037D01*
X52502966Y-117948557D01*
X52502968Y-117948558D01*
X52581228Y-117990389D01*
X52659491Y-118032222D01*
X52674660Y-118044671D01*
X52796686Y-118144814D01*
X52859209Y-118221000D01*
X52909278Y-118282009D01*
X52992943Y-118438534D01*
X53044463Y-118608373D01*
X53061859Y-118785000D01*
X53044463Y-118961627D01*
X52992943Y-119131466D01*
X52909278Y-119287991D01*
X52883266Y-119319686D01*
X52796686Y-119425186D01*
X52707981Y-119497983D01*
X52659491Y-119537778D01*
X52502966Y-119621443D01*
X52333127Y-119672963D01*
X52266942Y-119679482D01*
X52200760Y-119686000D01*
X51812240Y-119686000D01*
X51746058Y-119679482D01*
X51679873Y-119672963D01*
X51510034Y-119621443D01*
X51353509Y-119537778D01*
X51305019Y-119497983D01*
X51216314Y-119425186D01*
X51129734Y-119319686D01*
X51103722Y-119287991D01*
X51020057Y-119131466D01*
X50968537Y-118961627D01*
X50951141Y-118785000D01*
X50968537Y-118608373D01*
X51020057Y-118438534D01*
X51103722Y-118282009D01*
X51153791Y-118221000D01*
X51216314Y-118144814D01*
X51338340Y-118044671D01*
X51353509Y-118032222D01*
X51431772Y-117990389D01*
X51510032Y-117948558D01*
X51510034Y-117948557D01*
X51679873Y-117897037D01*
X51746058Y-117890518D01*
X51812240Y-117884000D01*
X52200760Y-117884000D01*
X52266942Y-117890518D01*
X52266942Y-117890518D01*
G37*
G36*
X94169890Y-118246017D02*
G01*
X94256787Y-118282011D01*
X94288364Y-118295091D01*
X94394988Y-118366335D01*
X94485665Y-118457012D01*
X94556910Y-118563638D01*
X94605983Y-118682110D01*
X94631000Y-118807881D01*
X94631000Y-118936119D01*
X94605983Y-119061890D01*
X94577164Y-119131466D01*
X94556909Y-119180364D01*
X94485665Y-119286988D01*
X94394988Y-119377665D01*
X94288364Y-119448909D01*
X94288363Y-119448910D01*
X94288362Y-119448910D01*
X94169890Y-119497983D01*
X94044119Y-119523000D01*
X93915881Y-119523000D01*
X93790110Y-119497983D01*
X93671638Y-119448910D01*
X93671637Y-119448910D01*
X93671636Y-119448909D01*
X93565012Y-119377665D01*
X93474335Y-119286988D01*
X93403091Y-119180364D01*
X93382837Y-119131466D01*
X93354017Y-119061890D01*
X93329000Y-118936119D01*
X93329000Y-118807881D01*
X93354017Y-118682110D01*
X93403090Y-118563638D01*
X93474335Y-118457012D01*
X93565012Y-118366335D01*
X93671636Y-118295091D01*
X93703214Y-118282011D01*
X93790110Y-118246017D01*
X93915881Y-118221000D01*
X94044119Y-118221000D01*
X94169890Y-118246017D01*
X94169890Y-118246017D01*
G37*
G36*
X123793742Y-117543818D02*
G01*
X123859927Y-117550337D01*
X124029766Y-117601857D01*
X124186291Y-117685522D01*
X124222029Y-117714852D01*
X124323486Y-117798114D01*
X124397084Y-117887795D01*
X124436078Y-117935309D01*
X124519743Y-118091834D01*
X124571263Y-118261673D01*
X124588659Y-118438300D01*
X124571263Y-118614927D01*
X124519743Y-118784766D01*
X124436078Y-118941291D01*
X124406748Y-118977029D01*
X124323486Y-119078486D01*
X124222029Y-119161748D01*
X124186291Y-119191078D01*
X124029766Y-119274743D01*
X123859927Y-119326263D01*
X123793742Y-119332782D01*
X123727560Y-119339300D01*
X123389040Y-119339300D01*
X123322858Y-119332782D01*
X123256673Y-119326263D01*
X123086834Y-119274743D01*
X122930309Y-119191078D01*
X122894571Y-119161748D01*
X122793114Y-119078486D01*
X122709852Y-118977029D01*
X122680522Y-118941291D01*
X122596857Y-118784766D01*
X122545337Y-118614927D01*
X122527941Y-118438300D01*
X122545337Y-118261673D01*
X122596857Y-118091834D01*
X122680522Y-117935309D01*
X122719516Y-117887795D01*
X122793114Y-117798114D01*
X122894571Y-117714852D01*
X122930309Y-117685522D01*
X123086834Y-117601857D01*
X123256673Y-117550337D01*
X123322858Y-117543818D01*
X123389040Y-117537300D01*
X123727560Y-117537300D01*
X123793742Y-117543818D01*
X123793742Y-117543818D01*
G37*
G36*
X124441900Y-115041289D02*
G01*
X124474952Y-115051315D01*
X124505403Y-115067592D01*
X124532099Y-115089501D01*
X124554008Y-115116197D01*
X124570285Y-115146648D01*
X124580311Y-115179700D01*
X124584300Y-115220203D01*
X124584300Y-116656397D01*
X124580311Y-116696900D01*
X124570285Y-116729952D01*
X124554008Y-116760403D01*
X124532099Y-116787099D01*
X124505403Y-116809008D01*
X124474952Y-116825285D01*
X124441900Y-116835311D01*
X124401397Y-116839300D01*
X122715203Y-116839300D01*
X122674700Y-116835311D01*
X122641648Y-116825285D01*
X122611197Y-116809008D01*
X122584501Y-116787099D01*
X122562592Y-116760403D01*
X122546315Y-116729952D01*
X122536289Y-116696900D01*
X122532300Y-116656397D01*
X122532300Y-115220203D01*
X122536289Y-115179700D01*
X122546315Y-115146648D01*
X122562592Y-115116197D01*
X122584501Y-115089501D01*
X122611197Y-115067592D01*
X122641648Y-115051315D01*
X122674700Y-115041289D01*
X122715203Y-115037300D01*
X124401397Y-115037300D01*
X124441900Y-115041289D01*
X124441900Y-115041289D01*
G37*
G36*
X88073890Y-114055017D02*
G01*
X88192364Y-114104091D01*
X88298988Y-114175335D01*
X88389665Y-114266012D01*
X88460909Y-114372636D01*
X88509983Y-114491110D01*
X88535000Y-114616882D01*
X88535000Y-114745118D01*
X88509983Y-114870890D01*
X88460909Y-114989364D01*
X88389665Y-115095988D01*
X88298988Y-115186665D01*
X88192364Y-115257909D01*
X88192363Y-115257910D01*
X88192362Y-115257910D01*
X88073890Y-115306983D01*
X87948119Y-115332000D01*
X87819881Y-115332000D01*
X87694110Y-115306983D01*
X87575638Y-115257910D01*
X87575637Y-115257910D01*
X87575636Y-115257909D01*
X87469012Y-115186665D01*
X87378335Y-115095988D01*
X87307091Y-114989364D01*
X87258017Y-114870890D01*
X87233000Y-114745118D01*
X87233000Y-114616882D01*
X87258017Y-114491110D01*
X87307091Y-114372636D01*
X87378335Y-114266012D01*
X87469012Y-114175335D01*
X87575636Y-114104091D01*
X87694110Y-114055017D01*
X87819881Y-114030000D01*
X87948119Y-114030000D01*
X88073890Y-114055017D01*
X88073890Y-114055017D01*
G37*
G36*
X52890100Y-112577489D02*
G01*
X52923152Y-112587515D01*
X52953603Y-112603792D01*
X52980299Y-112625701D01*
X53002208Y-112652397D01*
X53018485Y-112682848D01*
X53028511Y-112715900D01*
X53032500Y-112756403D01*
X53032500Y-114192597D01*
X53028511Y-114233100D01*
X53018485Y-114266152D01*
X53002208Y-114296603D01*
X52980299Y-114323299D01*
X52953603Y-114345208D01*
X52923152Y-114361485D01*
X52890100Y-114371511D01*
X52849597Y-114375500D01*
X51163403Y-114375500D01*
X51122900Y-114371511D01*
X51089848Y-114361485D01*
X51059397Y-114345208D01*
X51032701Y-114323299D01*
X51010792Y-114296603D01*
X50994515Y-114266152D01*
X50984489Y-114233100D01*
X50980500Y-114192597D01*
X50980500Y-112756403D01*
X50984489Y-112715900D01*
X50994515Y-112682848D01*
X51010792Y-112652397D01*
X51032701Y-112625701D01*
X51059397Y-112603792D01*
X51089848Y-112587515D01*
X51122900Y-112577489D01*
X51163403Y-112573500D01*
X52849597Y-112573500D01*
X52890100Y-112577489D01*
X52890100Y-112577489D01*
G37*
G36*
X52241943Y-110080019D02*
G01*
X52308127Y-110086537D01*
X52477966Y-110138057D01*
X52634491Y-110221722D01*
X52658388Y-110241334D01*
X52771686Y-110334314D01*
X52854948Y-110435771D01*
X52884278Y-110471509D01*
X52967943Y-110628034D01*
X53019463Y-110797873D01*
X53036859Y-110974500D01*
X53019463Y-111151127D01*
X52967943Y-111320966D01*
X52884278Y-111477491D01*
X52854948Y-111513229D01*
X52771686Y-111614686D01*
X52670229Y-111697948D01*
X52634491Y-111727278D01*
X52477966Y-111810943D01*
X52308127Y-111862463D01*
X52241942Y-111868982D01*
X52175760Y-111875500D01*
X51837240Y-111875500D01*
X51771058Y-111868982D01*
X51704873Y-111862463D01*
X51535034Y-111810943D01*
X51378509Y-111727278D01*
X51342771Y-111697948D01*
X51241314Y-111614686D01*
X51158052Y-111513229D01*
X51128722Y-111477491D01*
X51045057Y-111320966D01*
X50993537Y-111151127D01*
X50976141Y-110974500D01*
X50993537Y-110797873D01*
X51045057Y-110628034D01*
X51128722Y-110471509D01*
X51158052Y-110435771D01*
X51241314Y-110334314D01*
X51354612Y-110241334D01*
X51378509Y-110221722D01*
X51535034Y-110138057D01*
X51704873Y-110086537D01*
X51771057Y-110080019D01*
X51837240Y-110073500D01*
X52175760Y-110073500D01*
X52241943Y-110080019D01*
X52241943Y-110080019D01*
G37*
G36*
X123793743Y-109693319D02*
G01*
X123859927Y-109699837D01*
X124029766Y-109751357D01*
X124186291Y-109835022D01*
X124222029Y-109864352D01*
X124323486Y-109947614D01*
X124399378Y-110040090D01*
X124436078Y-110084809D01*
X124519743Y-110241334D01*
X124571263Y-110411173D01*
X124588659Y-110587800D01*
X124571263Y-110764427D01*
X124519743Y-110934266D01*
X124436078Y-111090791D01*
X124409919Y-111122665D01*
X124323486Y-111227986D01*
X124222029Y-111311248D01*
X124186291Y-111340578D01*
X124029766Y-111424243D01*
X123859927Y-111475763D01*
X123793743Y-111482281D01*
X123727560Y-111488800D01*
X123389040Y-111488800D01*
X123322857Y-111482281D01*
X123256673Y-111475763D01*
X123086834Y-111424243D01*
X122930309Y-111340578D01*
X122894571Y-111311248D01*
X122793114Y-111227986D01*
X122706681Y-111122665D01*
X122680522Y-111090791D01*
X122596857Y-110934266D01*
X122545337Y-110764427D01*
X122527941Y-110587800D01*
X122545337Y-110411173D01*
X122596857Y-110241334D01*
X122680522Y-110084809D01*
X122717222Y-110040090D01*
X122793114Y-109947614D01*
X122894571Y-109864352D01*
X122930309Y-109835022D01*
X123086834Y-109751357D01*
X123256673Y-109699837D01*
X123322857Y-109693319D01*
X123389040Y-109686800D01*
X123727560Y-109686800D01*
X123793743Y-109693319D01*
X123793743Y-109693319D01*
G37*
G36*
X94169890Y-109991017D02*
G01*
X94288364Y-110040091D01*
X94394988Y-110111335D01*
X94485665Y-110202012D01*
X94556909Y-110308636D01*
X94605983Y-110427110D01*
X94631000Y-110552882D01*
X94631000Y-110681118D01*
X94605983Y-110806890D01*
X94556909Y-110925364D01*
X94485665Y-111031988D01*
X94394988Y-111122665D01*
X94288364Y-111193909D01*
X94288363Y-111193910D01*
X94288362Y-111193910D01*
X94169890Y-111242983D01*
X94044119Y-111268000D01*
X93915881Y-111268000D01*
X93790110Y-111242983D01*
X93671638Y-111193910D01*
X93671637Y-111193910D01*
X93671636Y-111193909D01*
X93565012Y-111122665D01*
X93474335Y-111031988D01*
X93403091Y-110925364D01*
X93354017Y-110806890D01*
X93329000Y-110681118D01*
X93329000Y-110552882D01*
X93354017Y-110427110D01*
X93403091Y-110308636D01*
X93474335Y-110202012D01*
X93565012Y-110111335D01*
X93671636Y-110040091D01*
X93790110Y-109991017D01*
X93915881Y-109966000D01*
X94044119Y-109966000D01*
X94169890Y-109991017D01*
X94169890Y-109991017D01*
G37*
G36*
X52241942Y-107580018D02*
G01*
X52308127Y-107586537D01*
X52477966Y-107638057D01*
X52634491Y-107721722D01*
X52658388Y-107741334D01*
X52771686Y-107834314D01*
X52834763Y-107911175D01*
X52884278Y-107971509D01*
X52967943Y-108128034D01*
X53019463Y-108297873D01*
X53036859Y-108474500D01*
X53019463Y-108651127D01*
X52967943Y-108820966D01*
X52884278Y-108977491D01*
X52854948Y-109013229D01*
X52771686Y-109114686D01*
X52670229Y-109197948D01*
X52634491Y-109227278D01*
X52477966Y-109310943D01*
X52308127Y-109362463D01*
X52241942Y-109368982D01*
X52175760Y-109375500D01*
X51837240Y-109375500D01*
X51771058Y-109368982D01*
X51704873Y-109362463D01*
X51535034Y-109310943D01*
X51378509Y-109227278D01*
X51342771Y-109197948D01*
X51241314Y-109114686D01*
X51158052Y-109013229D01*
X51128722Y-108977491D01*
X51045057Y-108820966D01*
X50993537Y-108651127D01*
X50976141Y-108474500D01*
X50993537Y-108297873D01*
X51045057Y-108128034D01*
X51128722Y-107971509D01*
X51178237Y-107911175D01*
X51241314Y-107834314D01*
X51354612Y-107741334D01*
X51378509Y-107721722D01*
X51535034Y-107638057D01*
X51704873Y-107586537D01*
X51771058Y-107580018D01*
X51837240Y-107573500D01*
X52175760Y-107573500D01*
X52241942Y-107580018D01*
X52241942Y-107580018D01*
G37*
G36*
X123793743Y-107193319D02*
G01*
X123859927Y-107199837D01*
X124029766Y-107251357D01*
X124186291Y-107335022D01*
X124222029Y-107364352D01*
X124323486Y-107447614D01*
X124406748Y-107549071D01*
X124436078Y-107584809D01*
X124519743Y-107741334D01*
X124571263Y-107911173D01*
X124588659Y-108087800D01*
X124571263Y-108264427D01*
X124519743Y-108434266D01*
X124436078Y-108590791D01*
X124406748Y-108626529D01*
X124323486Y-108727986D01*
X124222029Y-108811248D01*
X124186291Y-108840578D01*
X124029766Y-108924243D01*
X123859927Y-108975763D01*
X123793743Y-108982281D01*
X123727560Y-108988800D01*
X123389040Y-108988800D01*
X123322857Y-108982281D01*
X123256673Y-108975763D01*
X123086834Y-108924243D01*
X122930309Y-108840578D01*
X122894571Y-108811248D01*
X122793114Y-108727986D01*
X122709852Y-108626529D01*
X122680522Y-108590791D01*
X122596857Y-108434266D01*
X122545337Y-108264427D01*
X122527941Y-108087800D01*
X122545337Y-107911173D01*
X122596857Y-107741334D01*
X122680522Y-107584809D01*
X122709852Y-107549071D01*
X122793114Y-107447614D01*
X122894571Y-107364352D01*
X122930309Y-107335022D01*
X123086834Y-107251357D01*
X123256673Y-107199837D01*
X123322857Y-107193319D01*
X123389040Y-107186800D01*
X123727560Y-107186800D01*
X123793743Y-107193319D01*
X123793743Y-107193319D01*
G37*
G36*
X52241943Y-105080019D02*
G01*
X52308127Y-105086537D01*
X52477966Y-105138057D01*
X52634491Y-105221722D01*
X52670229Y-105251052D01*
X52771686Y-105334314D01*
X52854948Y-105435771D01*
X52884278Y-105471509D01*
X52967943Y-105628034D01*
X53019463Y-105797873D01*
X53036859Y-105974500D01*
X53019463Y-106151127D01*
X52967943Y-106320966D01*
X52884278Y-106477491D01*
X52854948Y-106513229D01*
X52771686Y-106614686D01*
X52670229Y-106697948D01*
X52634491Y-106727278D01*
X52477966Y-106810943D01*
X52308127Y-106862463D01*
X52241942Y-106868982D01*
X52175760Y-106875500D01*
X51837240Y-106875500D01*
X51771058Y-106868982D01*
X51704873Y-106862463D01*
X51535034Y-106810943D01*
X51378509Y-106727278D01*
X51342771Y-106697948D01*
X51241314Y-106614686D01*
X51158052Y-106513229D01*
X51128722Y-106477491D01*
X51045057Y-106320966D01*
X50993537Y-106151127D01*
X50976141Y-105974500D01*
X50993537Y-105797873D01*
X51045057Y-105628034D01*
X51128722Y-105471509D01*
X51158052Y-105435771D01*
X51241314Y-105334314D01*
X51342771Y-105251052D01*
X51378509Y-105221722D01*
X51535034Y-105138057D01*
X51704873Y-105086537D01*
X51771058Y-105080018D01*
X51837240Y-105073500D01*
X52175760Y-105073500D01*
X52241943Y-105080019D01*
X52241943Y-105080019D01*
G37*
G36*
X124441900Y-104690789D02*
G01*
X124474952Y-104700815D01*
X124505403Y-104717092D01*
X124532099Y-104739001D01*
X124554008Y-104765697D01*
X124570285Y-104796148D01*
X124580311Y-104829200D01*
X124584300Y-104869703D01*
X124584300Y-106305897D01*
X124580311Y-106346400D01*
X124570285Y-106379452D01*
X124554008Y-106409903D01*
X124532099Y-106436599D01*
X124505403Y-106458508D01*
X124474952Y-106474785D01*
X124441900Y-106484811D01*
X124401397Y-106488800D01*
X122715203Y-106488800D01*
X122674700Y-106484811D01*
X122641648Y-106474785D01*
X122611197Y-106458508D01*
X122584501Y-106436599D01*
X122562592Y-106409903D01*
X122546315Y-106379452D01*
X122536289Y-106346400D01*
X122532300Y-106305897D01*
X122532300Y-104869703D01*
X122536289Y-104829200D01*
X122546315Y-104796148D01*
X122562592Y-104765697D01*
X122584501Y-104739001D01*
X122611197Y-104717092D01*
X122641648Y-104700815D01*
X122674700Y-104690789D01*
X122715203Y-104686800D01*
X124401397Y-104686800D01*
X124441900Y-104690789D01*
X124441900Y-104690789D01*
G37*
G36*
X59429331Y-99406211D02*
G01*
X59757092Y-99541974D01*
X60052070Y-99739072D01*
X60302928Y-99989930D01*
X60500026Y-100284908D01*
X60635789Y-100612669D01*
X60705000Y-100960616D01*
X60705000Y-101315384D01*
X60635789Y-101663331D01*
X60500026Y-101991092D01*
X60302928Y-102286070D01*
X60052070Y-102536928D01*
X59757092Y-102734026D01*
X59429331Y-102869789D01*
X59081384Y-102939000D01*
X58726616Y-102939000D01*
X58378669Y-102869789D01*
X58050908Y-102734026D01*
X57755930Y-102536928D01*
X57505072Y-102286070D01*
X57307974Y-101991092D01*
X57172211Y-101663331D01*
X57103000Y-101315384D01*
X57103000Y-100960616D01*
X57172211Y-100612669D01*
X57307974Y-100284908D01*
X57505072Y-99989930D01*
X57755930Y-99739072D01*
X58050908Y-99541974D01*
X58378669Y-99406211D01*
X58726616Y-99337000D01*
X59081384Y-99337000D01*
X59429331Y-99406211D01*
X59429331Y-99406211D01*
G37*
G36*
X74709331Y-99346211D02*
G01*
X75037092Y-99481974D01*
X75332070Y-99679072D01*
X75582928Y-99929930D01*
X75780026Y-100224908D01*
X75915789Y-100552669D01*
X75985000Y-100900616D01*
X75985000Y-101255384D01*
X75915789Y-101603331D01*
X75780026Y-101931092D01*
X75582928Y-102226070D01*
X75332070Y-102476928D01*
X75037092Y-102674026D01*
X74709331Y-102809789D01*
X74361384Y-102879000D01*
X74006616Y-102879000D01*
X73658669Y-102809789D01*
X73330908Y-102674026D01*
X73035930Y-102476928D01*
X72785072Y-102226070D01*
X72587974Y-101931092D01*
X72452211Y-101603331D01*
X72383000Y-101255384D01*
X72383000Y-100900616D01*
X72452211Y-100552669D01*
X72587974Y-100224908D01*
X72785072Y-99929930D01*
X73035930Y-99679072D01*
X73330908Y-99481974D01*
X73658669Y-99346211D01*
X74006616Y-99277000D01*
X74361384Y-99277000D01*
X74709331Y-99346211D01*
X74709331Y-99346211D01*
G37*
G36*
X52890100Y-99757489D02*
G01*
X52923152Y-99767515D01*
X52953603Y-99783792D01*
X52980299Y-99805701D01*
X53002208Y-99832397D01*
X53018485Y-99862848D01*
X53028511Y-99895900D01*
X53032500Y-99936403D01*
X53032500Y-101372597D01*
X53028511Y-101413100D01*
X53018485Y-101446152D01*
X53002208Y-101476603D01*
X52980299Y-101503299D01*
X52953603Y-101525208D01*
X52923152Y-101541485D01*
X52890100Y-101551511D01*
X52849597Y-101555500D01*
X51163403Y-101555500D01*
X51122900Y-101551511D01*
X51089848Y-101541485D01*
X51059397Y-101525208D01*
X51032701Y-101503299D01*
X51010792Y-101476603D01*
X50994515Y-101446152D01*
X50984489Y-101413100D01*
X50980500Y-101372597D01*
X50980500Y-99936403D01*
X50984489Y-99895900D01*
X50994515Y-99862848D01*
X51010792Y-99832397D01*
X51032701Y-99805701D01*
X51059397Y-99783792D01*
X51089848Y-99767515D01*
X51122900Y-99757489D01*
X51163403Y-99753500D01*
X52849597Y-99753500D01*
X52890100Y-99757489D01*
X52890100Y-99757489D01*
G37*
G36*
X123818743Y-99446319D02*
G01*
X123884927Y-99452837D01*
X124054766Y-99504357D01*
X124211291Y-99588022D01*
X124247029Y-99617352D01*
X124348486Y-99700614D01*
X124431748Y-99802071D01*
X124461078Y-99837809D01*
X124544743Y-99994334D01*
X124596263Y-100164173D01*
X124613659Y-100340800D01*
X124596263Y-100517427D01*
X124544743Y-100687266D01*
X124461078Y-100843791D01*
X124431748Y-100879529D01*
X124348486Y-100980986D01*
X124247029Y-101064248D01*
X124211291Y-101093578D01*
X124054766Y-101177243D01*
X123884927Y-101228763D01*
X123818743Y-101235281D01*
X123752560Y-101241800D01*
X123364040Y-101241800D01*
X123297857Y-101235281D01*
X123231673Y-101228763D01*
X123061834Y-101177243D01*
X122905309Y-101093578D01*
X122869571Y-101064248D01*
X122768114Y-100980986D01*
X122684852Y-100879529D01*
X122655522Y-100843791D01*
X122571857Y-100687266D01*
X122520337Y-100517427D01*
X122502941Y-100340800D01*
X122520337Y-100164173D01*
X122571857Y-99994334D01*
X122655522Y-99837809D01*
X122684852Y-99802071D01*
X122768114Y-99700614D01*
X122869571Y-99617352D01*
X122905309Y-99588022D01*
X123061834Y-99504357D01*
X123231673Y-99452837D01*
X123297857Y-99446319D01*
X123364040Y-99439800D01*
X123752560Y-99439800D01*
X123818743Y-99446319D01*
X123818743Y-99446319D01*
G37*
G36*
X52241942Y-97260018D02*
G01*
X52308127Y-97266537D01*
X52477966Y-97318057D01*
X52634491Y-97401722D01*
X52670229Y-97431052D01*
X52771686Y-97514314D01*
X52854948Y-97615771D01*
X52884278Y-97651509D01*
X52967943Y-97808034D01*
X53019463Y-97977873D01*
X53036859Y-98154500D01*
X53019463Y-98331127D01*
X52967943Y-98500966D01*
X52884278Y-98657491D01*
X52857927Y-98689599D01*
X52771686Y-98794686D01*
X52670229Y-98877948D01*
X52634491Y-98907278D01*
X52477966Y-98990943D01*
X52308127Y-99042463D01*
X52241943Y-99048981D01*
X52175760Y-99055500D01*
X51837240Y-99055500D01*
X51771057Y-99048981D01*
X51704873Y-99042463D01*
X51535034Y-98990943D01*
X51378509Y-98907278D01*
X51342771Y-98877948D01*
X51241314Y-98794686D01*
X51155073Y-98689599D01*
X51128722Y-98657491D01*
X51045057Y-98500966D01*
X50993537Y-98331127D01*
X50976141Y-98154500D01*
X50993537Y-97977873D01*
X51045057Y-97808034D01*
X51128722Y-97651509D01*
X51158052Y-97615771D01*
X51241314Y-97514314D01*
X51342771Y-97431052D01*
X51378509Y-97401722D01*
X51535034Y-97318057D01*
X51704873Y-97266537D01*
X51771058Y-97260018D01*
X51837240Y-97253500D01*
X52175760Y-97253500D01*
X52241942Y-97260018D01*
X52241942Y-97260018D01*
G37*
G36*
X124466900Y-96943789D02*
G01*
X124499952Y-96953815D01*
X124530403Y-96970092D01*
X124557099Y-96992001D01*
X124579008Y-97018697D01*
X124595285Y-97049148D01*
X124605311Y-97082200D01*
X124609300Y-97122703D01*
X124609300Y-98558897D01*
X124605311Y-98599400D01*
X124595285Y-98632452D01*
X124579008Y-98662903D01*
X124557099Y-98689599D01*
X124530403Y-98711508D01*
X124499952Y-98727785D01*
X124466900Y-98737811D01*
X124426397Y-98741800D01*
X122690203Y-98741800D01*
X122649700Y-98737811D01*
X122616648Y-98727785D01*
X122586197Y-98711508D01*
X122559501Y-98689599D01*
X122537592Y-98662903D01*
X122521315Y-98632452D01*
X122511289Y-98599400D01*
X122507300Y-98558897D01*
X122507300Y-97122703D01*
X122511289Y-97082200D01*
X122521315Y-97049148D01*
X122537592Y-97018697D01*
X122559501Y-96992001D01*
X122586197Y-96970092D01*
X122616648Y-96953815D01*
X122649700Y-96943789D01*
X122690203Y-96939800D01*
X124426397Y-96939800D01*
X124466900Y-96943789D01*
X124466900Y-96943789D01*
G37*
G36*
X52241942Y-94760018D02*
G01*
X52308127Y-94766537D01*
X52477966Y-94818057D01*
X52634491Y-94901722D01*
X52670229Y-94931052D01*
X52771686Y-95014314D01*
X52854948Y-95115771D01*
X52884278Y-95151509D01*
X52967943Y-95308034D01*
X53019463Y-95477873D01*
X53036859Y-95654500D01*
X53019463Y-95831127D01*
X52967943Y-96000966D01*
X52884278Y-96157491D01*
X52854948Y-96193229D01*
X52771686Y-96294686D01*
X52670229Y-96377948D01*
X52634491Y-96407278D01*
X52477966Y-96490943D01*
X52308127Y-96542463D01*
X52241943Y-96548981D01*
X52175760Y-96555500D01*
X51837240Y-96555500D01*
X51771057Y-96548981D01*
X51704873Y-96542463D01*
X51535034Y-96490943D01*
X51378509Y-96407278D01*
X51342771Y-96377948D01*
X51241314Y-96294686D01*
X51158052Y-96193229D01*
X51128722Y-96157491D01*
X51045057Y-96000966D01*
X50993537Y-95831127D01*
X50976141Y-95654500D01*
X50993537Y-95477873D01*
X51045057Y-95308034D01*
X51128722Y-95151509D01*
X51158052Y-95115771D01*
X51241314Y-95014314D01*
X51342771Y-94931052D01*
X51378509Y-94901722D01*
X51535034Y-94818057D01*
X51704873Y-94766537D01*
X51771058Y-94760018D01*
X51837240Y-94753500D01*
X52175760Y-94753500D01*
X52241942Y-94760018D01*
X52241942Y-94760018D01*
G37*
G36*
X52241943Y-92260019D02*
G01*
X52308127Y-92266537D01*
X52477966Y-92318057D01*
X52634491Y-92401722D01*
X52670229Y-92431052D01*
X52771686Y-92514314D01*
X52854948Y-92615771D01*
X52884278Y-92651509D01*
X52967943Y-92808034D01*
X53019463Y-92977873D01*
X53036859Y-93154500D01*
X53019463Y-93331127D01*
X52967943Y-93500966D01*
X52884278Y-93657491D01*
X52854948Y-93693229D01*
X52771686Y-93794686D01*
X52670229Y-93877948D01*
X52634491Y-93907278D01*
X52477966Y-93990943D01*
X52308127Y-94042463D01*
X52241943Y-94048981D01*
X52175760Y-94055500D01*
X51837240Y-94055500D01*
X51771057Y-94048981D01*
X51704873Y-94042463D01*
X51535034Y-93990943D01*
X51378509Y-93907278D01*
X51342771Y-93877948D01*
X51241314Y-93794686D01*
X51158052Y-93693229D01*
X51128722Y-93657491D01*
X51045057Y-93500966D01*
X50993537Y-93331127D01*
X50976141Y-93154500D01*
X50993537Y-92977873D01*
X51045057Y-92808034D01*
X51128722Y-92651509D01*
X51158052Y-92615771D01*
X51241314Y-92514314D01*
X51342771Y-92431052D01*
X51378509Y-92401722D01*
X51535034Y-92318057D01*
X51704873Y-92266537D01*
X51771057Y-92260019D01*
X51837240Y-92253500D01*
X52175760Y-92253500D01*
X52241943Y-92260019D01*
X52241943Y-92260019D01*
G37*
G36*
X123806442Y-91639018D02*
G01*
X123872627Y-91645537D01*
X124042466Y-91697057D01*
X124198991Y-91780722D01*
X124234729Y-91810052D01*
X124336186Y-91893314D01*
X124419448Y-91994771D01*
X124448778Y-92030509D01*
X124532443Y-92187034D01*
X124583963Y-92356873D01*
X124601359Y-92533500D01*
X124583963Y-92710127D01*
X124532443Y-92879966D01*
X124448778Y-93036491D01*
X124419448Y-93072229D01*
X124336186Y-93173686D01*
X124234729Y-93256948D01*
X124198991Y-93286278D01*
X124042466Y-93369943D01*
X123872627Y-93421463D01*
X123806443Y-93427981D01*
X123740260Y-93434500D01*
X123401740Y-93434500D01*
X123335557Y-93427981D01*
X123269373Y-93421463D01*
X123099534Y-93369943D01*
X122943009Y-93286278D01*
X122907271Y-93256948D01*
X122805814Y-93173686D01*
X122722552Y-93072229D01*
X122693222Y-93036491D01*
X122609557Y-92879966D01*
X122558037Y-92710127D01*
X122540641Y-92533500D01*
X122558037Y-92356873D01*
X122609557Y-92187034D01*
X122693222Y-92030509D01*
X122722552Y-91994771D01*
X122805814Y-91893314D01*
X122907271Y-91810052D01*
X122943009Y-91780722D01*
X123099534Y-91697057D01*
X123269373Y-91645537D01*
X123335558Y-91639018D01*
X123401740Y-91632500D01*
X123740260Y-91632500D01*
X123806442Y-91639018D01*
X123806442Y-91639018D01*
G37*
G36*
X68055142Y-89896242D02*
G01*
X68203101Y-89957529D01*
X68336255Y-90046499D01*
X68449501Y-90159745D01*
X68538471Y-90292899D01*
X68599758Y-90440858D01*
X68631000Y-90597925D01*
X68631000Y-90758075D01*
X68599758Y-90915142D01*
X68538471Y-91063101D01*
X68449501Y-91196255D01*
X68336255Y-91309501D01*
X68203101Y-91398471D01*
X68055142Y-91459758D01*
X67898075Y-91491000D01*
X67737925Y-91491000D01*
X67580858Y-91459758D01*
X67432899Y-91398471D01*
X67299745Y-91309501D01*
X67186499Y-91196255D01*
X67097529Y-91063101D01*
X67036242Y-90915142D01*
X67005000Y-90758075D01*
X67005000Y-90597925D01*
X67036242Y-90440858D01*
X67097529Y-90292899D01*
X67186499Y-90159745D01*
X67299745Y-90046499D01*
X67432899Y-89957529D01*
X67580858Y-89896242D01*
X67737925Y-89865000D01*
X67898075Y-89865000D01*
X68055142Y-89896242D01*
X68055142Y-89896242D01*
G37*
G36*
X75675142Y-89896242D02*
G01*
X75823101Y-89957529D01*
X75956255Y-90046499D01*
X76069501Y-90159745D01*
X76158471Y-90292899D01*
X76219758Y-90440858D01*
X76251000Y-90597925D01*
X76251000Y-90758075D01*
X76219758Y-90915142D01*
X76158471Y-91063101D01*
X76069501Y-91196255D01*
X75956255Y-91309501D01*
X75823101Y-91398471D01*
X75675142Y-91459758D01*
X75518075Y-91491000D01*
X75357925Y-91491000D01*
X75200858Y-91459758D01*
X75052899Y-91398471D01*
X74919745Y-91309501D01*
X74806499Y-91196255D01*
X74717529Y-91063101D01*
X74656242Y-90915142D01*
X74625000Y-90758075D01*
X74625000Y-90597925D01*
X74656242Y-90440858D01*
X74717529Y-90292899D01*
X74806499Y-90159745D01*
X74919745Y-90046499D01*
X75052899Y-89957529D01*
X75200858Y-89896242D01*
X75357925Y-89865000D01*
X75518075Y-89865000D01*
X75675142Y-89896242D01*
X75675142Y-89896242D01*
G37*
G36*
X73135142Y-89896242D02*
G01*
X73283101Y-89957529D01*
X73416255Y-90046499D01*
X73529501Y-90159745D01*
X73618471Y-90292899D01*
X73679758Y-90440858D01*
X73711000Y-90597925D01*
X73711000Y-90758075D01*
X73679758Y-90915142D01*
X73618471Y-91063101D01*
X73529501Y-91196255D01*
X73416255Y-91309501D01*
X73283101Y-91398471D01*
X73135142Y-91459758D01*
X72978075Y-91491000D01*
X72817925Y-91491000D01*
X72660858Y-91459758D01*
X72512899Y-91398471D01*
X72379745Y-91309501D01*
X72266499Y-91196255D01*
X72177529Y-91063101D01*
X72116242Y-90915142D01*
X72085000Y-90758075D01*
X72085000Y-90597925D01*
X72116242Y-90440858D01*
X72177529Y-90292899D01*
X72266499Y-90159745D01*
X72379745Y-90046499D01*
X72512899Y-89957529D01*
X72660858Y-89896242D01*
X72817925Y-89865000D01*
X72978075Y-89865000D01*
X73135142Y-89896242D01*
X73135142Y-89896242D01*
G37*
G36*
X57895142Y-89896242D02*
G01*
X58043101Y-89957529D01*
X58176255Y-90046499D01*
X58289501Y-90159745D01*
X58378471Y-90292899D01*
X58439758Y-90440858D01*
X58471000Y-90597925D01*
X58471000Y-90758075D01*
X58439758Y-90915142D01*
X58378471Y-91063101D01*
X58289501Y-91196255D01*
X58176255Y-91309501D01*
X58043101Y-91398471D01*
X57895142Y-91459758D01*
X57738075Y-91491000D01*
X57577925Y-91491000D01*
X57420858Y-91459758D01*
X57272899Y-91398471D01*
X57139745Y-91309501D01*
X57026499Y-91196255D01*
X56937529Y-91063101D01*
X56876242Y-90915142D01*
X56845000Y-90758075D01*
X56845000Y-90597925D01*
X56876242Y-90440858D01*
X56937529Y-90292899D01*
X57026499Y-90159745D01*
X57139745Y-90046499D01*
X57272899Y-89957529D01*
X57420858Y-89896242D01*
X57577925Y-89865000D01*
X57738075Y-89865000D01*
X57895142Y-89896242D01*
X57895142Y-89896242D01*
G37*
G36*
X60435142Y-89896242D02*
G01*
X60583101Y-89957529D01*
X60716255Y-90046499D01*
X60829501Y-90159745D01*
X60918471Y-90292899D01*
X60979758Y-90440858D01*
X61011000Y-90597925D01*
X61011000Y-90758075D01*
X60979758Y-90915142D01*
X60918471Y-91063101D01*
X60829501Y-91196255D01*
X60716255Y-91309501D01*
X60583101Y-91398471D01*
X60435142Y-91459758D01*
X60278075Y-91491000D01*
X60117925Y-91491000D01*
X59960858Y-91459758D01*
X59812899Y-91398471D01*
X59679745Y-91309501D01*
X59566499Y-91196255D01*
X59477529Y-91063101D01*
X59416242Y-90915142D01*
X59385000Y-90758075D01*
X59385000Y-90597925D01*
X59416242Y-90440858D01*
X59477529Y-90292899D01*
X59566499Y-90159745D01*
X59679745Y-90046499D01*
X59812899Y-89957529D01*
X59960858Y-89896242D01*
X60117925Y-89865000D01*
X60278075Y-89865000D01*
X60435142Y-89896242D01*
X60435142Y-89896242D01*
G37*
G36*
X70595142Y-89896242D02*
G01*
X70743101Y-89957529D01*
X70876255Y-90046499D01*
X70989501Y-90159745D01*
X71078471Y-90292899D01*
X71139758Y-90440858D01*
X71171000Y-90597925D01*
X71171000Y-90758075D01*
X71139758Y-90915142D01*
X71078471Y-91063101D01*
X70989501Y-91196255D01*
X70876255Y-91309501D01*
X70743101Y-91398471D01*
X70595142Y-91459758D01*
X70438075Y-91491000D01*
X70277925Y-91491000D01*
X70120858Y-91459758D01*
X69972899Y-91398471D01*
X69839745Y-91309501D01*
X69726499Y-91196255D01*
X69637529Y-91063101D01*
X69576242Y-90915142D01*
X69545000Y-90758075D01*
X69545000Y-90597925D01*
X69576242Y-90440858D01*
X69637529Y-90292899D01*
X69726499Y-90159745D01*
X69839745Y-90046499D01*
X69972899Y-89957529D01*
X70120858Y-89896242D01*
X70277925Y-89865000D01*
X70438075Y-89865000D01*
X70595142Y-89896242D01*
X70595142Y-89896242D01*
G37*
G36*
X65515142Y-89896242D02*
G01*
X65663101Y-89957529D01*
X65796255Y-90046499D01*
X65909501Y-90159745D01*
X65998471Y-90292899D01*
X66059758Y-90440858D01*
X66091000Y-90597925D01*
X66091000Y-90758075D01*
X66059758Y-90915142D01*
X65998471Y-91063101D01*
X65909501Y-91196255D01*
X65796255Y-91309501D01*
X65663101Y-91398471D01*
X65515142Y-91459758D01*
X65358075Y-91491000D01*
X65197925Y-91491000D01*
X65040858Y-91459758D01*
X64892899Y-91398471D01*
X64759745Y-91309501D01*
X64646499Y-91196255D01*
X64557529Y-91063101D01*
X64496242Y-90915142D01*
X64465000Y-90758075D01*
X64465000Y-90597925D01*
X64496242Y-90440858D01*
X64557529Y-90292899D01*
X64646499Y-90159745D01*
X64759745Y-90046499D01*
X64892899Y-89957529D01*
X65040858Y-89896242D01*
X65197925Y-89865000D01*
X65358075Y-89865000D01*
X65515142Y-89896242D01*
X65515142Y-89896242D01*
G37*
G36*
X62975142Y-89896242D02*
G01*
X63123101Y-89957529D01*
X63256255Y-90046499D01*
X63369501Y-90159745D01*
X63458471Y-90292899D01*
X63519758Y-90440858D01*
X63551000Y-90597925D01*
X63551000Y-90758075D01*
X63519758Y-90915142D01*
X63458471Y-91063101D01*
X63369501Y-91196255D01*
X63256255Y-91309501D01*
X63123101Y-91398471D01*
X62975142Y-91459758D01*
X62818075Y-91491000D01*
X62657925Y-91491000D01*
X62500858Y-91459758D01*
X62352899Y-91398471D01*
X62219745Y-91309501D01*
X62106499Y-91196255D01*
X62017529Y-91063101D01*
X61956242Y-90915142D01*
X61925000Y-90758075D01*
X61925000Y-90597925D01*
X61956242Y-90440858D01*
X62017529Y-90292899D01*
X62106499Y-90159745D01*
X62219745Y-90046499D01*
X62352899Y-89957529D01*
X62500858Y-89896242D01*
X62657925Y-89865000D01*
X62818075Y-89865000D01*
X62975142Y-89896242D01*
X62975142Y-89896242D01*
G37*
G36*
X123806443Y-89139019D02*
G01*
X123872627Y-89145537D01*
X124042466Y-89197057D01*
X124198991Y-89280722D01*
X124234729Y-89310052D01*
X124336186Y-89393314D01*
X124419448Y-89494771D01*
X124448778Y-89530509D01*
X124532443Y-89687034D01*
X124583963Y-89856873D01*
X124601359Y-90033500D01*
X124583963Y-90210127D01*
X124532443Y-90379966D01*
X124448778Y-90536491D01*
X124419448Y-90572229D01*
X124336186Y-90673686D01*
X124234729Y-90756948D01*
X124198991Y-90786278D01*
X124042466Y-90869943D01*
X123872627Y-90921463D01*
X123806443Y-90927981D01*
X123740260Y-90934500D01*
X123401740Y-90934500D01*
X123335557Y-90927981D01*
X123269373Y-90921463D01*
X123099534Y-90869943D01*
X122943009Y-90786278D01*
X122907271Y-90756948D01*
X122805814Y-90673686D01*
X122722552Y-90572229D01*
X122693222Y-90536491D01*
X122609557Y-90379966D01*
X122558037Y-90210127D01*
X122540641Y-90033500D01*
X122558037Y-89856873D01*
X122609557Y-89687034D01*
X122693222Y-89530509D01*
X122722552Y-89494771D01*
X122805814Y-89393314D01*
X122907271Y-89310052D01*
X122943009Y-89280722D01*
X123099534Y-89197057D01*
X123269373Y-89145537D01*
X123335557Y-89139019D01*
X123401740Y-89132500D01*
X123740260Y-89132500D01*
X123806443Y-89139019D01*
X123806443Y-89139019D01*
G37*
G36*
X52915100Y-86923489D02*
G01*
X52948152Y-86933515D01*
X52978603Y-86949792D01*
X53005299Y-86971701D01*
X53027208Y-86998397D01*
X53043485Y-87028848D01*
X53053511Y-87061900D01*
X53057500Y-87102403D01*
X53057500Y-88538597D01*
X53053511Y-88579100D01*
X53043485Y-88612152D01*
X53027208Y-88642603D01*
X53005299Y-88669299D01*
X52978603Y-88691208D01*
X52948152Y-88707485D01*
X52915100Y-88717511D01*
X52874597Y-88721500D01*
X51138403Y-88721500D01*
X51097900Y-88717511D01*
X51064848Y-88707485D01*
X51034397Y-88691208D01*
X51007701Y-88669299D01*
X50985792Y-88642603D01*
X50969515Y-88612152D01*
X50959489Y-88579100D01*
X50955500Y-88538597D01*
X50955500Y-87102403D01*
X50959489Y-87061900D01*
X50969515Y-87028848D01*
X50985792Y-86998397D01*
X51007701Y-86971701D01*
X51034397Y-86949792D01*
X51064848Y-86933515D01*
X51097900Y-86923489D01*
X51138403Y-86919500D01*
X52874597Y-86919500D01*
X52915100Y-86923489D01*
X52915100Y-86923489D01*
G37*
G36*
X123806443Y-86639019D02*
G01*
X123872627Y-86645537D01*
X124042466Y-86697057D01*
X124198991Y-86780722D01*
X124234729Y-86810052D01*
X124336186Y-86893314D01*
X124419448Y-86994771D01*
X124448778Y-87030509D01*
X124532443Y-87187034D01*
X124583963Y-87356873D01*
X124601359Y-87533500D01*
X124583963Y-87710127D01*
X124532443Y-87879966D01*
X124448778Y-88036491D01*
X124419448Y-88072229D01*
X124336186Y-88173686D01*
X124234729Y-88256948D01*
X124198991Y-88286278D01*
X124042466Y-88369943D01*
X123872627Y-88421463D01*
X123806443Y-88427981D01*
X123740260Y-88434500D01*
X123401740Y-88434500D01*
X123335557Y-88427981D01*
X123269373Y-88421463D01*
X123099534Y-88369943D01*
X122943009Y-88286278D01*
X122907271Y-88256948D01*
X122805814Y-88173686D01*
X122722552Y-88072229D01*
X122693222Y-88036491D01*
X122609557Y-87879966D01*
X122558037Y-87710127D01*
X122540641Y-87533500D01*
X122558037Y-87356873D01*
X122609557Y-87187034D01*
X122693222Y-87030509D01*
X122722552Y-86994771D01*
X122805814Y-86893314D01*
X122907271Y-86810052D01*
X122943009Y-86780722D01*
X123099534Y-86697057D01*
X123269373Y-86645537D01*
X123335557Y-86639019D01*
X123401740Y-86632500D01*
X123740260Y-86632500D01*
X123806443Y-86639019D01*
X123806443Y-86639019D01*
G37*
G36*
X52266943Y-84426019D02*
G01*
X52333127Y-84432537D01*
X52502966Y-84484057D01*
X52659491Y-84567722D01*
X52695229Y-84597052D01*
X52796686Y-84680314D01*
X52879948Y-84781771D01*
X52909278Y-84817509D01*
X52992943Y-84974034D01*
X53044463Y-85143873D01*
X53061859Y-85320500D01*
X53044463Y-85497127D01*
X52992943Y-85666966D01*
X52909278Y-85823491D01*
X52879948Y-85859229D01*
X52796686Y-85960686D01*
X52695229Y-86043948D01*
X52659491Y-86073278D01*
X52502966Y-86156943D01*
X52333127Y-86208463D01*
X52266942Y-86214982D01*
X52200760Y-86221500D01*
X51812240Y-86221500D01*
X51746058Y-86214982D01*
X51679873Y-86208463D01*
X51510034Y-86156943D01*
X51353509Y-86073278D01*
X51317771Y-86043948D01*
X51216314Y-85960686D01*
X51133052Y-85859229D01*
X51103722Y-85823491D01*
X51020057Y-85666966D01*
X50968537Y-85497127D01*
X50951141Y-85320500D01*
X50968537Y-85143873D01*
X51020057Y-84974034D01*
X51103722Y-84817509D01*
X51133052Y-84781771D01*
X51216314Y-84680314D01*
X51317771Y-84597052D01*
X51353509Y-84567722D01*
X51510034Y-84484057D01*
X51679873Y-84432537D01*
X51746057Y-84426019D01*
X51812240Y-84419500D01*
X52200760Y-84419500D01*
X52266943Y-84426019D01*
X52266943Y-84426019D01*
G37*
G36*
X123806443Y-84139019D02*
G01*
X123872627Y-84145537D01*
X124042466Y-84197057D01*
X124198991Y-84280722D01*
X124234729Y-84310052D01*
X124336186Y-84393314D01*
X124419448Y-84494771D01*
X124448778Y-84530509D01*
X124532443Y-84687034D01*
X124583963Y-84856873D01*
X124601359Y-85033500D01*
X124583963Y-85210127D01*
X124532443Y-85379966D01*
X124448778Y-85536491D01*
X124419448Y-85572229D01*
X124336186Y-85673686D01*
X124234729Y-85756948D01*
X124198991Y-85786278D01*
X124042466Y-85869943D01*
X123872627Y-85921463D01*
X123806442Y-85927982D01*
X123740260Y-85934500D01*
X123401740Y-85934500D01*
X123335558Y-85927982D01*
X123269373Y-85921463D01*
X123099534Y-85869943D01*
X122943009Y-85786278D01*
X122907271Y-85756948D01*
X122805814Y-85673686D01*
X122722552Y-85572229D01*
X122693222Y-85536491D01*
X122609557Y-85379966D01*
X122558037Y-85210127D01*
X122540641Y-85033500D01*
X122558037Y-84856873D01*
X122609557Y-84687034D01*
X122693222Y-84530509D01*
X122722552Y-84494771D01*
X122805814Y-84393314D01*
X122907271Y-84310052D01*
X122943009Y-84280722D01*
X123099534Y-84197057D01*
X123269373Y-84145537D01*
X123335557Y-84139019D01*
X123401740Y-84132500D01*
X123740260Y-84132500D01*
X123806443Y-84139019D01*
X123806443Y-84139019D01*
G37*
G36*
X116003564Y-81666389D02*
G01*
X116194833Y-81745615D01*
X116194835Y-81745616D01*
X116366973Y-81860635D01*
X116513365Y-82007027D01*
X116529057Y-82030511D01*
X116628385Y-82179167D01*
X116707611Y-82370436D01*
X116748000Y-82573484D01*
X116748000Y-82780516D01*
X116707611Y-82983564D01*
X116628860Y-83173686D01*
X116628384Y-83174835D01*
X116513365Y-83346973D01*
X116366973Y-83493365D01*
X116194835Y-83608384D01*
X116194834Y-83608385D01*
X116194833Y-83608385D01*
X116003564Y-83687611D01*
X115800516Y-83728000D01*
X115593484Y-83728000D01*
X115390436Y-83687611D01*
X115199167Y-83608385D01*
X115199166Y-83608385D01*
X115199165Y-83608384D01*
X115027027Y-83493365D01*
X114880635Y-83346973D01*
X114765616Y-83174835D01*
X114765140Y-83173686D01*
X114686389Y-82983564D01*
X114646000Y-82780516D01*
X114646000Y-82573484D01*
X114686389Y-82370436D01*
X114765615Y-82179167D01*
X114864944Y-82030511D01*
X114880635Y-82007027D01*
X115027027Y-81860635D01*
X115199165Y-81745616D01*
X115199167Y-81745615D01*
X115390436Y-81666389D01*
X115593484Y-81626000D01*
X115800516Y-81626000D01*
X116003564Y-81666389D01*
X116003564Y-81666389D01*
G37*
G36*
X111748000Y-83728000D02*
G01*
X109646000Y-83728000D01*
X109646000Y-81626000D01*
X111748000Y-81626000D01*
X111748000Y-83728000D01*
X111748000Y-83728000D01*
G37*
G36*
X123806443Y-81639019D02*
G01*
X123872627Y-81645537D01*
X124042466Y-81697057D01*
X124198991Y-81780722D01*
X124234729Y-81810052D01*
X124336186Y-81893314D01*
X124419448Y-81994771D01*
X124448778Y-82030509D01*
X124532443Y-82187034D01*
X124583963Y-82356873D01*
X124601359Y-82533500D01*
X124583963Y-82710127D01*
X124532443Y-82879966D01*
X124448778Y-83036491D01*
X124419448Y-83072229D01*
X124336186Y-83173686D01*
X124234729Y-83256948D01*
X124198991Y-83286278D01*
X124042466Y-83369943D01*
X123872627Y-83421463D01*
X123806442Y-83427982D01*
X123740260Y-83434500D01*
X123401740Y-83434500D01*
X123335558Y-83427982D01*
X123269373Y-83421463D01*
X123099534Y-83369943D01*
X122943009Y-83286278D01*
X122907271Y-83256948D01*
X122805814Y-83173686D01*
X122722552Y-83072229D01*
X122693222Y-83036491D01*
X122609557Y-82879966D01*
X122558037Y-82710127D01*
X122540641Y-82533500D01*
X122558037Y-82356873D01*
X122609557Y-82187034D01*
X122693222Y-82030509D01*
X122722552Y-81994771D01*
X122805814Y-81893314D01*
X122907271Y-81810052D01*
X122943009Y-81780722D01*
X123099534Y-81697057D01*
X123269373Y-81645537D01*
X123335557Y-81639019D01*
X123401740Y-81632500D01*
X123740260Y-81632500D01*
X123806443Y-81639019D01*
X123806443Y-81639019D01*
G37*
G36*
X123806443Y-79139019D02*
G01*
X123872627Y-79145537D01*
X124042466Y-79197057D01*
X124198991Y-79280722D01*
X124234729Y-79310052D01*
X124336186Y-79393314D01*
X124419448Y-79494771D01*
X124448778Y-79530509D01*
X124532443Y-79687034D01*
X124583963Y-79856873D01*
X124601359Y-80033500D01*
X124583963Y-80210127D01*
X124532443Y-80379966D01*
X124448778Y-80536491D01*
X124419448Y-80572229D01*
X124336186Y-80673686D01*
X124234729Y-80756948D01*
X124198991Y-80786278D01*
X124042466Y-80869943D01*
X123872627Y-80921463D01*
X123806442Y-80927982D01*
X123740260Y-80934500D01*
X123401740Y-80934500D01*
X123335558Y-80927982D01*
X123269373Y-80921463D01*
X123099534Y-80869943D01*
X122943009Y-80786278D01*
X122907271Y-80756948D01*
X122805814Y-80673686D01*
X122722552Y-80572229D01*
X122693222Y-80536491D01*
X122609557Y-80379966D01*
X122558037Y-80210127D01*
X122540641Y-80033500D01*
X122558037Y-79856873D01*
X122609557Y-79687034D01*
X122693222Y-79530509D01*
X122722552Y-79494771D01*
X122805814Y-79393314D01*
X122907271Y-79310052D01*
X122943009Y-79280722D01*
X123099534Y-79197057D01*
X123269373Y-79145537D01*
X123335557Y-79139019D01*
X123401740Y-79132500D01*
X123740260Y-79132500D01*
X123806443Y-79139019D01*
X123806443Y-79139019D01*
G37*
G36*
X52915100Y-79049489D02*
G01*
X52948152Y-79059515D01*
X52978603Y-79075792D01*
X53005299Y-79097701D01*
X53027208Y-79124397D01*
X53043485Y-79154848D01*
X53053511Y-79187900D01*
X53057500Y-79228403D01*
X53057500Y-80664597D01*
X53053511Y-80705100D01*
X53043485Y-80738152D01*
X53027208Y-80768603D01*
X53005299Y-80795299D01*
X52978603Y-80817208D01*
X52948152Y-80833485D01*
X52915100Y-80843511D01*
X52874597Y-80847500D01*
X51138403Y-80847500D01*
X51097900Y-80843511D01*
X51064848Y-80833485D01*
X51034397Y-80817208D01*
X51007701Y-80795299D01*
X50985792Y-80768603D01*
X50969515Y-80738152D01*
X50959489Y-80705100D01*
X50955500Y-80664597D01*
X50955500Y-79228403D01*
X50959489Y-79187900D01*
X50969515Y-79154848D01*
X50985792Y-79124397D01*
X51007701Y-79097701D01*
X51034397Y-79075792D01*
X51064848Y-79059515D01*
X51097900Y-79049489D01*
X51138403Y-79045500D01*
X52874597Y-79045500D01*
X52915100Y-79049489D01*
X52915100Y-79049489D01*
G37*
G36*
X124454600Y-76636489D02*
G01*
X124487652Y-76646515D01*
X124518103Y-76662792D01*
X124544799Y-76684701D01*
X124566708Y-76711397D01*
X124582985Y-76741848D01*
X124593011Y-76774900D01*
X124597000Y-76815403D01*
X124597000Y-78251597D01*
X124593011Y-78292100D01*
X124582985Y-78325152D01*
X124566708Y-78355603D01*
X124544799Y-78382299D01*
X124518103Y-78404208D01*
X124487652Y-78420485D01*
X124454600Y-78430511D01*
X124414097Y-78434500D01*
X122727903Y-78434500D01*
X122687400Y-78430511D01*
X122654348Y-78420485D01*
X122623897Y-78404208D01*
X122597201Y-78382299D01*
X122575292Y-78355603D01*
X122559015Y-78325152D01*
X122548989Y-78292100D01*
X122545000Y-78251597D01*
X122545000Y-76815403D01*
X122548989Y-76774900D01*
X122559015Y-76741848D01*
X122575292Y-76711397D01*
X122597201Y-76684701D01*
X122623897Y-76662792D01*
X122654348Y-76646515D01*
X122687400Y-76636489D01*
X122727903Y-76632500D01*
X124414097Y-76632500D01*
X124454600Y-76636489D01*
X124454600Y-76636489D01*
G37*
G36*
X52266942Y-76552018D02*
G01*
X52333127Y-76558537D01*
X52502966Y-76610057D01*
X52659491Y-76693722D01*
X52679468Y-76710117D01*
X52796686Y-76806314D01*
X52871519Y-76897500D01*
X52909278Y-76943509D01*
X52992943Y-77100034D01*
X53044463Y-77269873D01*
X53061859Y-77446500D01*
X53044463Y-77623127D01*
X52992943Y-77792966D01*
X52909278Y-77949491D01*
X52879948Y-77985229D01*
X52796686Y-78086686D01*
X52695775Y-78169500D01*
X52659491Y-78199278D01*
X52502966Y-78282943D01*
X52333127Y-78334463D01*
X52266943Y-78340981D01*
X52200760Y-78347500D01*
X51812240Y-78347500D01*
X51746057Y-78340981D01*
X51679873Y-78334463D01*
X51510034Y-78282943D01*
X51353509Y-78199278D01*
X51317225Y-78169500D01*
X51216314Y-78086686D01*
X51133052Y-77985229D01*
X51103722Y-77949491D01*
X51020057Y-77792966D01*
X50968537Y-77623127D01*
X50951141Y-77446500D01*
X50968537Y-77269873D01*
X51020057Y-77100034D01*
X51103722Y-76943509D01*
X51141481Y-76897500D01*
X51216314Y-76806314D01*
X51333532Y-76710117D01*
X51353509Y-76693722D01*
X51510034Y-76610057D01*
X51679873Y-76558537D01*
X51746058Y-76552018D01*
X51812240Y-76545500D01*
X52200760Y-76545500D01*
X52266942Y-76552018D01*
X52266942Y-76552018D01*
G37*
G36*
X59185694Y-67971860D02*
G01*
X59451437Y-68024719D01*
X59952087Y-68232095D01*
X60132561Y-68352684D01*
X60402660Y-68533158D01*
X60785842Y-68916340D01*
X60946317Y-69156509D01*
X61086905Y-69366913D01*
X61284931Y-69844991D01*
X61294281Y-69867564D01*
X61400000Y-70399049D01*
X61400000Y-70940951D01*
X61347141Y-71206693D01*
X61294281Y-71472437D01*
X61086905Y-71973087D01*
X61037935Y-72046375D01*
X60785842Y-72423660D01*
X60402660Y-72806842D01*
X60186684Y-72951152D01*
X59952087Y-73107905D01*
X59451437Y-73315281D01*
X59185693Y-73368141D01*
X58919951Y-73421000D01*
X58378049Y-73421000D01*
X58112307Y-73368141D01*
X57846563Y-73315281D01*
X57345913Y-73107905D01*
X57111316Y-72951152D01*
X56895340Y-72806842D01*
X56512158Y-72423660D01*
X56260065Y-72046375D01*
X56211095Y-71973087D01*
X56003719Y-71472437D01*
X55950859Y-71206693D01*
X55898000Y-70940951D01*
X55898000Y-70399049D01*
X56003719Y-69867564D01*
X56013069Y-69844991D01*
X56211095Y-69366913D01*
X56351683Y-69156509D01*
X56512158Y-68916340D01*
X56895340Y-68533158D01*
X57165439Y-68352684D01*
X57345913Y-68232095D01*
X57846563Y-68024719D01*
X58112306Y-67971860D01*
X58378049Y-67919000D01*
X58919951Y-67919000D01*
X59185694Y-67971860D01*
X59185694Y-67971860D01*
G37*
G36*
X117185694Y-67971860D02*
G01*
X117451437Y-68024719D01*
X117952087Y-68232095D01*
X118132561Y-68352684D01*
X118402660Y-68533158D01*
X118785842Y-68916340D01*
X118946317Y-69156509D01*
X119086905Y-69366913D01*
X119284931Y-69844991D01*
X119294281Y-69867564D01*
X119400000Y-70399049D01*
X119400000Y-70940951D01*
X119347141Y-71206693D01*
X119294281Y-71472437D01*
X119086905Y-71973087D01*
X119037935Y-72046375D01*
X118785842Y-72423660D01*
X118402660Y-72806842D01*
X118186684Y-72951152D01*
X117952087Y-73107905D01*
X117451437Y-73315281D01*
X117185693Y-73368141D01*
X116919951Y-73421000D01*
X116378049Y-73421000D01*
X116112307Y-73368141D01*
X115846563Y-73315281D01*
X115345913Y-73107905D01*
X115111316Y-72951152D01*
X114895340Y-72806842D01*
X114512158Y-72423660D01*
X114260065Y-72046375D01*
X114211095Y-71973087D01*
X114003719Y-71472437D01*
X113950859Y-71206693D01*
X113898000Y-70940951D01*
X113898000Y-70399049D01*
X114003719Y-69867564D01*
X114013069Y-69844991D01*
X114211095Y-69366913D01*
X114351683Y-69156509D01*
X114512158Y-68916340D01*
X114895340Y-68533158D01*
X115165439Y-68352684D01*
X115345913Y-68232095D01*
X115846563Y-68024719D01*
X116112306Y-67971860D01*
X116378049Y-67919000D01*
X116919951Y-67919000D01*
X117185694Y-67971860D01*
X117185694Y-67971860D01*
G37*
G36*
X123818742Y-71328518D02*
G01*
X123884927Y-71335037D01*
X124054766Y-71386557D01*
X124211291Y-71470222D01*
X124247029Y-71499552D01*
X124348486Y-71582814D01*
X124418578Y-71668223D01*
X124461078Y-71720009D01*
X124544743Y-71876534D01*
X124596263Y-72046373D01*
X124613659Y-72223000D01*
X124596263Y-72399627D01*
X124544743Y-72569466D01*
X124461078Y-72725991D01*
X124450057Y-72739420D01*
X124348486Y-72863186D01*
X124251565Y-72942726D01*
X124211291Y-72975778D01*
X124054766Y-73059443D01*
X123884927Y-73110963D01*
X123818742Y-73117482D01*
X123752560Y-73124000D01*
X123364040Y-73124000D01*
X123297858Y-73117482D01*
X123231673Y-73110963D01*
X123061834Y-73059443D01*
X122905309Y-72975778D01*
X122865035Y-72942726D01*
X122768114Y-72863186D01*
X122666543Y-72739420D01*
X122655522Y-72725991D01*
X122571857Y-72569466D01*
X122520337Y-72399627D01*
X122502941Y-72223000D01*
X122520337Y-72046373D01*
X122571857Y-71876534D01*
X122655522Y-71720009D01*
X122698022Y-71668223D01*
X122768114Y-71582814D01*
X122869571Y-71499552D01*
X122905309Y-71470222D01*
X123061834Y-71386557D01*
X123231673Y-71335037D01*
X123297858Y-71328518D01*
X123364040Y-71322000D01*
X123752560Y-71322000D01*
X123818742Y-71328518D01*
X123818742Y-71328518D01*
G37*
G36*
X52915100Y-71262489D02*
G01*
X52948152Y-71272515D01*
X52978603Y-71288792D01*
X53005299Y-71310701D01*
X53027208Y-71337397D01*
X53043485Y-71367848D01*
X53053511Y-71400900D01*
X53057500Y-71441403D01*
X53057500Y-72877597D01*
X53053511Y-72918100D01*
X53043485Y-72951152D01*
X53027208Y-72981603D01*
X53005299Y-73008299D01*
X52978603Y-73030208D01*
X52948152Y-73046485D01*
X52915100Y-73056511D01*
X52874597Y-73060500D01*
X51138403Y-73060500D01*
X51097900Y-73056511D01*
X51064848Y-73046485D01*
X51034397Y-73030208D01*
X51007701Y-73008299D01*
X50985792Y-72981603D01*
X50969515Y-72951152D01*
X50959489Y-72918100D01*
X50955500Y-72877597D01*
X50955500Y-71441403D01*
X50959489Y-71400900D01*
X50969515Y-71367848D01*
X50985792Y-71337397D01*
X51007701Y-71310701D01*
X51034397Y-71288792D01*
X51064848Y-71272515D01*
X51097900Y-71262489D01*
X51138403Y-71258500D01*
X52874597Y-71258500D01*
X52915100Y-71262489D01*
X52915100Y-71262489D01*
G37*
G36*
X91550443Y-70987519D02*
G01*
X91616627Y-70994037D01*
X91786466Y-71045557D01*
X91942991Y-71129222D01*
X91978729Y-71158552D01*
X92080186Y-71241814D01*
X92130531Y-71303161D01*
X92192778Y-71379009D01*
X92276443Y-71535534D01*
X92327963Y-71705373D01*
X92345359Y-71882000D01*
X92327963Y-72058627D01*
X92276443Y-72228466D01*
X92192778Y-72384991D01*
X92189170Y-72389387D01*
X92080186Y-72522186D01*
X91978729Y-72605448D01*
X91942991Y-72634778D01*
X91786466Y-72718443D01*
X91616627Y-72769963D01*
X91550443Y-72776481D01*
X91484260Y-72783000D01*
X91395740Y-72783000D01*
X91329557Y-72776481D01*
X91263373Y-72769963D01*
X91093534Y-72718443D01*
X90937009Y-72634778D01*
X90901271Y-72605448D01*
X90799814Y-72522186D01*
X90690830Y-72389387D01*
X90687222Y-72384991D01*
X90603557Y-72228466D01*
X90552037Y-72058627D01*
X90534641Y-71882000D01*
X90552037Y-71705373D01*
X90603557Y-71535534D01*
X90687222Y-71379009D01*
X90749469Y-71303161D01*
X90799814Y-71241814D01*
X90901271Y-71158552D01*
X90937009Y-71129222D01*
X91093534Y-71045557D01*
X91263373Y-70994037D01*
X91329557Y-70987519D01*
X91395740Y-70981000D01*
X91484260Y-70981000D01*
X91550443Y-70987519D01*
X91550443Y-70987519D01*
G37*
G36*
X81390443Y-70987519D02*
G01*
X81456627Y-70994037D01*
X81626466Y-71045557D01*
X81782991Y-71129222D01*
X81818729Y-71158552D01*
X81920186Y-71241814D01*
X81970531Y-71303161D01*
X82032778Y-71379009D01*
X82116443Y-71535534D01*
X82167963Y-71705373D01*
X82185359Y-71882000D01*
X82167963Y-72058627D01*
X82116443Y-72228466D01*
X82032778Y-72384991D01*
X82029170Y-72389387D01*
X81920186Y-72522186D01*
X81818729Y-72605448D01*
X81782991Y-72634778D01*
X81626466Y-72718443D01*
X81456627Y-72769963D01*
X81390443Y-72776481D01*
X81324260Y-72783000D01*
X81235740Y-72783000D01*
X81169557Y-72776481D01*
X81103373Y-72769963D01*
X80933534Y-72718443D01*
X80777009Y-72634778D01*
X80741271Y-72605448D01*
X80639814Y-72522186D01*
X80530830Y-72389387D01*
X80527222Y-72384991D01*
X80443557Y-72228466D01*
X80392037Y-72058627D01*
X80374641Y-71882000D01*
X80392037Y-71705373D01*
X80443557Y-71535534D01*
X80527222Y-71379009D01*
X80589469Y-71303161D01*
X80639814Y-71241814D01*
X80741271Y-71158552D01*
X80777009Y-71129222D01*
X80933534Y-71045557D01*
X81103373Y-70994037D01*
X81169557Y-70987519D01*
X81235740Y-70981000D01*
X81324260Y-70981000D01*
X81390443Y-70987519D01*
X81390443Y-70987519D01*
G37*
G36*
X83930443Y-70987519D02*
G01*
X83996627Y-70994037D01*
X84166466Y-71045557D01*
X84322991Y-71129222D01*
X84358729Y-71158552D01*
X84460186Y-71241814D01*
X84510531Y-71303161D01*
X84572778Y-71379009D01*
X84656443Y-71535534D01*
X84707963Y-71705373D01*
X84725359Y-71882000D01*
X84707963Y-72058627D01*
X84656443Y-72228466D01*
X84572778Y-72384991D01*
X84569170Y-72389387D01*
X84460186Y-72522186D01*
X84358729Y-72605448D01*
X84322991Y-72634778D01*
X84166466Y-72718443D01*
X83996627Y-72769963D01*
X83930443Y-72776481D01*
X83864260Y-72783000D01*
X83775740Y-72783000D01*
X83709557Y-72776481D01*
X83643373Y-72769963D01*
X83473534Y-72718443D01*
X83317009Y-72634778D01*
X83281271Y-72605448D01*
X83179814Y-72522186D01*
X83070830Y-72389387D01*
X83067222Y-72384991D01*
X82983557Y-72228466D01*
X82932037Y-72058627D01*
X82914641Y-71882000D01*
X82932037Y-71705373D01*
X82983557Y-71535534D01*
X83067222Y-71379009D01*
X83129469Y-71303161D01*
X83179814Y-71241814D01*
X83281271Y-71158552D01*
X83317009Y-71129222D01*
X83473534Y-71045557D01*
X83643373Y-70994037D01*
X83709557Y-70987519D01*
X83775740Y-70981000D01*
X83864260Y-70981000D01*
X83930443Y-70987519D01*
X83930443Y-70987519D01*
G37*
G36*
X71230443Y-70987519D02*
G01*
X71296627Y-70994037D01*
X71466466Y-71045557D01*
X71622991Y-71129222D01*
X71658729Y-71158552D01*
X71760186Y-71241814D01*
X71810531Y-71303161D01*
X71872778Y-71379009D01*
X71956443Y-71535534D01*
X72007963Y-71705373D01*
X72025359Y-71882000D01*
X72007963Y-72058627D01*
X71956443Y-72228466D01*
X71872778Y-72384991D01*
X71869170Y-72389387D01*
X71760186Y-72522186D01*
X71658729Y-72605448D01*
X71622991Y-72634778D01*
X71466466Y-72718443D01*
X71296627Y-72769963D01*
X71230443Y-72776481D01*
X71164260Y-72783000D01*
X71075740Y-72783000D01*
X71009557Y-72776481D01*
X70943373Y-72769963D01*
X70773534Y-72718443D01*
X70617009Y-72634778D01*
X70581271Y-72605448D01*
X70479814Y-72522186D01*
X70370830Y-72389387D01*
X70367222Y-72384991D01*
X70283557Y-72228466D01*
X70232037Y-72058627D01*
X70214641Y-71882000D01*
X70232037Y-71705373D01*
X70283557Y-71535534D01*
X70367222Y-71379009D01*
X70429469Y-71303161D01*
X70479814Y-71241814D01*
X70581271Y-71158552D01*
X70617009Y-71129222D01*
X70773534Y-71045557D01*
X70943373Y-70994037D01*
X71009557Y-70987519D01*
X71075740Y-70981000D01*
X71164260Y-70981000D01*
X71230443Y-70987519D01*
X71230443Y-70987519D01*
G37*
G36*
X68690443Y-70987519D02*
G01*
X68756627Y-70994037D01*
X68926466Y-71045557D01*
X69082991Y-71129222D01*
X69118729Y-71158552D01*
X69220186Y-71241814D01*
X69270531Y-71303161D01*
X69332778Y-71379009D01*
X69416443Y-71535534D01*
X69467963Y-71705373D01*
X69485359Y-71882000D01*
X69467963Y-72058627D01*
X69416443Y-72228466D01*
X69332778Y-72384991D01*
X69329170Y-72389387D01*
X69220186Y-72522186D01*
X69118729Y-72605448D01*
X69082991Y-72634778D01*
X68926466Y-72718443D01*
X68756627Y-72769963D01*
X68690443Y-72776481D01*
X68624260Y-72783000D01*
X68535740Y-72783000D01*
X68469557Y-72776481D01*
X68403373Y-72769963D01*
X68233534Y-72718443D01*
X68077009Y-72634778D01*
X68041271Y-72605448D01*
X67939814Y-72522186D01*
X67830830Y-72389387D01*
X67827222Y-72384991D01*
X67743557Y-72228466D01*
X67692037Y-72058627D01*
X67674641Y-71882000D01*
X67692037Y-71705373D01*
X67743557Y-71535534D01*
X67827222Y-71379009D01*
X67889469Y-71303161D01*
X67939814Y-71241814D01*
X68041271Y-71158552D01*
X68077009Y-71129222D01*
X68233534Y-71045557D01*
X68403373Y-70994037D01*
X68469557Y-70987519D01*
X68535740Y-70981000D01*
X68624260Y-70981000D01*
X68690443Y-70987519D01*
X68690443Y-70987519D01*
G37*
G36*
X66150443Y-70987519D02*
G01*
X66216627Y-70994037D01*
X66386466Y-71045557D01*
X66542991Y-71129222D01*
X66578729Y-71158552D01*
X66680186Y-71241814D01*
X66730531Y-71303161D01*
X66792778Y-71379009D01*
X66876443Y-71535534D01*
X66927963Y-71705373D01*
X66945359Y-71882000D01*
X66927963Y-72058627D01*
X66876443Y-72228466D01*
X66792778Y-72384991D01*
X66789170Y-72389387D01*
X66680186Y-72522186D01*
X66578729Y-72605448D01*
X66542991Y-72634778D01*
X66386466Y-72718443D01*
X66216627Y-72769963D01*
X66150443Y-72776481D01*
X66084260Y-72783000D01*
X65995740Y-72783000D01*
X65929557Y-72776481D01*
X65863373Y-72769963D01*
X65693534Y-72718443D01*
X65537009Y-72634778D01*
X65501271Y-72605448D01*
X65399814Y-72522186D01*
X65290830Y-72389387D01*
X65287222Y-72384991D01*
X65203557Y-72228466D01*
X65152037Y-72058627D01*
X65134641Y-71882000D01*
X65152037Y-71705373D01*
X65203557Y-71535534D01*
X65287222Y-71379009D01*
X65349469Y-71303161D01*
X65399814Y-71241814D01*
X65501271Y-71158552D01*
X65537009Y-71129222D01*
X65693534Y-71045557D01*
X65863373Y-70994037D01*
X65929557Y-70987519D01*
X65995740Y-70981000D01*
X66084260Y-70981000D01*
X66150443Y-70987519D01*
X66150443Y-70987519D01*
G37*
G36*
X64401000Y-72783000D02*
G01*
X62599000Y-72783000D01*
X62599000Y-70981000D01*
X64401000Y-70981000D01*
X64401000Y-72783000D01*
X64401000Y-72783000D01*
G37*
G36*
X78850443Y-70987519D02*
G01*
X78916627Y-70994037D01*
X79086466Y-71045557D01*
X79242991Y-71129222D01*
X79278729Y-71158552D01*
X79380186Y-71241814D01*
X79430531Y-71303161D01*
X79492778Y-71379009D01*
X79576443Y-71535534D01*
X79627963Y-71705373D01*
X79645359Y-71882000D01*
X79627963Y-72058627D01*
X79576443Y-72228466D01*
X79492778Y-72384991D01*
X79489170Y-72389387D01*
X79380186Y-72522186D01*
X79278729Y-72605448D01*
X79242991Y-72634778D01*
X79086466Y-72718443D01*
X78916627Y-72769963D01*
X78850443Y-72776481D01*
X78784260Y-72783000D01*
X78695740Y-72783000D01*
X78629557Y-72776481D01*
X78563373Y-72769963D01*
X78393534Y-72718443D01*
X78237009Y-72634778D01*
X78201271Y-72605448D01*
X78099814Y-72522186D01*
X77990830Y-72389387D01*
X77987222Y-72384991D01*
X77903557Y-72228466D01*
X77852037Y-72058627D01*
X77834641Y-71882000D01*
X77852037Y-71705373D01*
X77903557Y-71535534D01*
X77987222Y-71379009D01*
X78049469Y-71303161D01*
X78099814Y-71241814D01*
X78201271Y-71158552D01*
X78237009Y-71129222D01*
X78393534Y-71045557D01*
X78563373Y-70994037D01*
X78629557Y-70987519D01*
X78695740Y-70981000D01*
X78784260Y-70981000D01*
X78850443Y-70987519D01*
X78850443Y-70987519D01*
G37*
G36*
X76310443Y-70987519D02*
G01*
X76376627Y-70994037D01*
X76546466Y-71045557D01*
X76702991Y-71129222D01*
X76738729Y-71158552D01*
X76840186Y-71241814D01*
X76890531Y-71303161D01*
X76952778Y-71379009D01*
X77036443Y-71535534D01*
X77087963Y-71705373D01*
X77105359Y-71882000D01*
X77087963Y-72058627D01*
X77036443Y-72228466D01*
X76952778Y-72384991D01*
X76949170Y-72389387D01*
X76840186Y-72522186D01*
X76738729Y-72605448D01*
X76702991Y-72634778D01*
X76546466Y-72718443D01*
X76376627Y-72769963D01*
X76310443Y-72776481D01*
X76244260Y-72783000D01*
X76155740Y-72783000D01*
X76089557Y-72776481D01*
X76023373Y-72769963D01*
X75853534Y-72718443D01*
X75697009Y-72634778D01*
X75661271Y-72605448D01*
X75559814Y-72522186D01*
X75450830Y-72389387D01*
X75447222Y-72384991D01*
X75363557Y-72228466D01*
X75312037Y-72058627D01*
X75294641Y-71882000D01*
X75312037Y-71705373D01*
X75363557Y-71535534D01*
X75447222Y-71379009D01*
X75509469Y-71303161D01*
X75559814Y-71241814D01*
X75661271Y-71158552D01*
X75697009Y-71129222D01*
X75853534Y-71045557D01*
X76023373Y-70994037D01*
X76089557Y-70987519D01*
X76155740Y-70981000D01*
X76244260Y-70981000D01*
X76310443Y-70987519D01*
X76310443Y-70987519D01*
G37*
G36*
X73770443Y-70987519D02*
G01*
X73836627Y-70994037D01*
X74006466Y-71045557D01*
X74162991Y-71129222D01*
X74198729Y-71158552D01*
X74300186Y-71241814D01*
X74350531Y-71303161D01*
X74412778Y-71379009D01*
X74496443Y-71535534D01*
X74547963Y-71705373D01*
X74565359Y-71882000D01*
X74547963Y-72058627D01*
X74496443Y-72228466D01*
X74412778Y-72384991D01*
X74409170Y-72389387D01*
X74300186Y-72522186D01*
X74198729Y-72605448D01*
X74162991Y-72634778D01*
X74006466Y-72718443D01*
X73836627Y-72769963D01*
X73770443Y-72776481D01*
X73704260Y-72783000D01*
X73615740Y-72783000D01*
X73549557Y-72776481D01*
X73483373Y-72769963D01*
X73313534Y-72718443D01*
X73157009Y-72634778D01*
X73121271Y-72605448D01*
X73019814Y-72522186D01*
X72910830Y-72389387D01*
X72907222Y-72384991D01*
X72823557Y-72228466D01*
X72772037Y-72058627D01*
X72754641Y-71882000D01*
X72772037Y-71705373D01*
X72823557Y-71535534D01*
X72907222Y-71379009D01*
X72969469Y-71303161D01*
X73019814Y-71241814D01*
X73121271Y-71158552D01*
X73157009Y-71129222D01*
X73313534Y-71045557D01*
X73483373Y-70994037D01*
X73549557Y-70987519D01*
X73615740Y-70981000D01*
X73704260Y-70981000D01*
X73770443Y-70987519D01*
X73770443Y-70987519D01*
G37*
G36*
X109330443Y-70987519D02*
G01*
X109396627Y-70994037D01*
X109566466Y-71045557D01*
X109722991Y-71129222D01*
X109758729Y-71158552D01*
X109860186Y-71241814D01*
X109910531Y-71303161D01*
X109972778Y-71379009D01*
X110056443Y-71535534D01*
X110107963Y-71705373D01*
X110125359Y-71882000D01*
X110107963Y-72058627D01*
X110056443Y-72228466D01*
X109972778Y-72384991D01*
X109969170Y-72389387D01*
X109860186Y-72522186D01*
X109758729Y-72605448D01*
X109722991Y-72634778D01*
X109566466Y-72718443D01*
X109396627Y-72769963D01*
X109330443Y-72776481D01*
X109264260Y-72783000D01*
X109175740Y-72783000D01*
X109109557Y-72776481D01*
X109043373Y-72769963D01*
X108873534Y-72718443D01*
X108717009Y-72634778D01*
X108681271Y-72605448D01*
X108579814Y-72522186D01*
X108470830Y-72389387D01*
X108467222Y-72384991D01*
X108383557Y-72228466D01*
X108332037Y-72058627D01*
X108314641Y-71882000D01*
X108332037Y-71705373D01*
X108383557Y-71535534D01*
X108467222Y-71379009D01*
X108529469Y-71303161D01*
X108579814Y-71241814D01*
X108681271Y-71158552D01*
X108717009Y-71129222D01*
X108873534Y-71045557D01*
X109043373Y-70994037D01*
X109109557Y-70987519D01*
X109175740Y-70981000D01*
X109264260Y-70981000D01*
X109330443Y-70987519D01*
X109330443Y-70987519D01*
G37*
G36*
X106790443Y-70987519D02*
G01*
X106856627Y-70994037D01*
X107026466Y-71045557D01*
X107182991Y-71129222D01*
X107218729Y-71158552D01*
X107320186Y-71241814D01*
X107370531Y-71303161D01*
X107432778Y-71379009D01*
X107516443Y-71535534D01*
X107567963Y-71705373D01*
X107585359Y-71882000D01*
X107567963Y-72058627D01*
X107516443Y-72228466D01*
X107432778Y-72384991D01*
X107429170Y-72389387D01*
X107320186Y-72522186D01*
X107218729Y-72605448D01*
X107182991Y-72634778D01*
X107026466Y-72718443D01*
X106856627Y-72769963D01*
X106790443Y-72776481D01*
X106724260Y-72783000D01*
X106635740Y-72783000D01*
X106569557Y-72776481D01*
X106503373Y-72769963D01*
X106333534Y-72718443D01*
X106177009Y-72634778D01*
X106141271Y-72605448D01*
X106039814Y-72522186D01*
X105930830Y-72389387D01*
X105927222Y-72384991D01*
X105843557Y-72228466D01*
X105792037Y-72058627D01*
X105774641Y-71882000D01*
X105792037Y-71705373D01*
X105843557Y-71535534D01*
X105927222Y-71379009D01*
X105989469Y-71303161D01*
X106039814Y-71241814D01*
X106141271Y-71158552D01*
X106177009Y-71129222D01*
X106333534Y-71045557D01*
X106503373Y-70994037D01*
X106569557Y-70987519D01*
X106635740Y-70981000D01*
X106724260Y-70981000D01*
X106790443Y-70987519D01*
X106790443Y-70987519D01*
G37*
G36*
X104250443Y-70987519D02*
G01*
X104316627Y-70994037D01*
X104486466Y-71045557D01*
X104642991Y-71129222D01*
X104678729Y-71158552D01*
X104780186Y-71241814D01*
X104830531Y-71303161D01*
X104892778Y-71379009D01*
X104976443Y-71535534D01*
X105027963Y-71705373D01*
X105045359Y-71882000D01*
X105027963Y-72058627D01*
X104976443Y-72228466D01*
X104892778Y-72384991D01*
X104889170Y-72389387D01*
X104780186Y-72522186D01*
X104678729Y-72605448D01*
X104642991Y-72634778D01*
X104486466Y-72718443D01*
X104316627Y-72769963D01*
X104250443Y-72776481D01*
X104184260Y-72783000D01*
X104095740Y-72783000D01*
X104029557Y-72776481D01*
X103963373Y-72769963D01*
X103793534Y-72718443D01*
X103637009Y-72634778D01*
X103601271Y-72605448D01*
X103499814Y-72522186D01*
X103390830Y-72389387D01*
X103387222Y-72384991D01*
X103303557Y-72228466D01*
X103252037Y-72058627D01*
X103234641Y-71882000D01*
X103252037Y-71705373D01*
X103303557Y-71535534D01*
X103387222Y-71379009D01*
X103449469Y-71303161D01*
X103499814Y-71241814D01*
X103601271Y-71158552D01*
X103637009Y-71129222D01*
X103793534Y-71045557D01*
X103963373Y-70994037D01*
X104029557Y-70987519D01*
X104095740Y-70981000D01*
X104184260Y-70981000D01*
X104250443Y-70987519D01*
X104250443Y-70987519D01*
G37*
G36*
X101710443Y-70987519D02*
G01*
X101776627Y-70994037D01*
X101946466Y-71045557D01*
X102102991Y-71129222D01*
X102138729Y-71158552D01*
X102240186Y-71241814D01*
X102290531Y-71303161D01*
X102352778Y-71379009D01*
X102436443Y-71535534D01*
X102487963Y-71705373D01*
X102505359Y-71882000D01*
X102487963Y-72058627D01*
X102436443Y-72228466D01*
X102352778Y-72384991D01*
X102349170Y-72389387D01*
X102240186Y-72522186D01*
X102138729Y-72605448D01*
X102102991Y-72634778D01*
X101946466Y-72718443D01*
X101776627Y-72769963D01*
X101710443Y-72776481D01*
X101644260Y-72783000D01*
X101555740Y-72783000D01*
X101489557Y-72776481D01*
X101423373Y-72769963D01*
X101253534Y-72718443D01*
X101097009Y-72634778D01*
X101061271Y-72605448D01*
X100959814Y-72522186D01*
X100850830Y-72389387D01*
X100847222Y-72384991D01*
X100763557Y-72228466D01*
X100712037Y-72058627D01*
X100694641Y-71882000D01*
X100712037Y-71705373D01*
X100763557Y-71535534D01*
X100847222Y-71379009D01*
X100909469Y-71303161D01*
X100959814Y-71241814D01*
X101061271Y-71158552D01*
X101097009Y-71129222D01*
X101253534Y-71045557D01*
X101423373Y-70994037D01*
X101489557Y-70987519D01*
X101555740Y-70981000D01*
X101644260Y-70981000D01*
X101710443Y-70987519D01*
X101710443Y-70987519D01*
G37*
G36*
X99170443Y-70987519D02*
G01*
X99236627Y-70994037D01*
X99406466Y-71045557D01*
X99562991Y-71129222D01*
X99598729Y-71158552D01*
X99700186Y-71241814D01*
X99750531Y-71303161D01*
X99812778Y-71379009D01*
X99896443Y-71535534D01*
X99947963Y-71705373D01*
X99965359Y-71882000D01*
X99947963Y-72058627D01*
X99896443Y-72228466D01*
X99812778Y-72384991D01*
X99809170Y-72389387D01*
X99700186Y-72522186D01*
X99598729Y-72605448D01*
X99562991Y-72634778D01*
X99406466Y-72718443D01*
X99236627Y-72769963D01*
X99170443Y-72776481D01*
X99104260Y-72783000D01*
X99015740Y-72783000D01*
X98949557Y-72776481D01*
X98883373Y-72769963D01*
X98713534Y-72718443D01*
X98557009Y-72634778D01*
X98521271Y-72605448D01*
X98419814Y-72522186D01*
X98310830Y-72389387D01*
X98307222Y-72384991D01*
X98223557Y-72228466D01*
X98172037Y-72058627D01*
X98154641Y-71882000D01*
X98172037Y-71705373D01*
X98223557Y-71535534D01*
X98307222Y-71379009D01*
X98369469Y-71303161D01*
X98419814Y-71241814D01*
X98521271Y-71158552D01*
X98557009Y-71129222D01*
X98713534Y-71045557D01*
X98883373Y-70994037D01*
X98949557Y-70987519D01*
X99015740Y-70981000D01*
X99104260Y-70981000D01*
X99170443Y-70987519D01*
X99170443Y-70987519D01*
G37*
G36*
X96630443Y-70987519D02*
G01*
X96696627Y-70994037D01*
X96866466Y-71045557D01*
X97022991Y-71129222D01*
X97058729Y-71158552D01*
X97160186Y-71241814D01*
X97210531Y-71303161D01*
X97272778Y-71379009D01*
X97356443Y-71535534D01*
X97407963Y-71705373D01*
X97425359Y-71882000D01*
X97407963Y-72058627D01*
X97356443Y-72228466D01*
X97272778Y-72384991D01*
X97269170Y-72389387D01*
X97160186Y-72522186D01*
X97058729Y-72605448D01*
X97022991Y-72634778D01*
X96866466Y-72718443D01*
X96696627Y-72769963D01*
X96630443Y-72776481D01*
X96564260Y-72783000D01*
X96475740Y-72783000D01*
X96409557Y-72776481D01*
X96343373Y-72769963D01*
X96173534Y-72718443D01*
X96017009Y-72634778D01*
X95981271Y-72605448D01*
X95879814Y-72522186D01*
X95770830Y-72389387D01*
X95767222Y-72384991D01*
X95683557Y-72228466D01*
X95632037Y-72058627D01*
X95614641Y-71882000D01*
X95632037Y-71705373D01*
X95683557Y-71535534D01*
X95767222Y-71379009D01*
X95829469Y-71303161D01*
X95879814Y-71241814D01*
X95981271Y-71158552D01*
X96017009Y-71129222D01*
X96173534Y-71045557D01*
X96343373Y-70994037D01*
X96409557Y-70987519D01*
X96475740Y-70981000D01*
X96564260Y-70981000D01*
X96630443Y-70987519D01*
X96630443Y-70987519D01*
G37*
G36*
X94090443Y-70987519D02*
G01*
X94156627Y-70994037D01*
X94326466Y-71045557D01*
X94482991Y-71129222D01*
X94518729Y-71158552D01*
X94620186Y-71241814D01*
X94670531Y-71303161D01*
X94732778Y-71379009D01*
X94816443Y-71535534D01*
X94867963Y-71705373D01*
X94885359Y-71882000D01*
X94867963Y-72058627D01*
X94816443Y-72228466D01*
X94732778Y-72384991D01*
X94729170Y-72389387D01*
X94620186Y-72522186D01*
X94518729Y-72605448D01*
X94482991Y-72634778D01*
X94326466Y-72718443D01*
X94156627Y-72769963D01*
X94090443Y-72776481D01*
X94024260Y-72783000D01*
X93935740Y-72783000D01*
X93869557Y-72776481D01*
X93803373Y-72769963D01*
X93633534Y-72718443D01*
X93477009Y-72634778D01*
X93441271Y-72605448D01*
X93339814Y-72522186D01*
X93230830Y-72389387D01*
X93227222Y-72384991D01*
X93143557Y-72228466D01*
X93092037Y-72058627D01*
X93074641Y-71882000D01*
X93092037Y-71705373D01*
X93143557Y-71535534D01*
X93227222Y-71379009D01*
X93289469Y-71303161D01*
X93339814Y-71241814D01*
X93441271Y-71158552D01*
X93477009Y-71129222D01*
X93633534Y-71045557D01*
X93803373Y-70994037D01*
X93869557Y-70987519D01*
X93935740Y-70981000D01*
X94024260Y-70981000D01*
X94090443Y-70987519D01*
X94090443Y-70987519D01*
G37*
G36*
X89010443Y-70987519D02*
G01*
X89076627Y-70994037D01*
X89246466Y-71045557D01*
X89402991Y-71129222D01*
X89438729Y-71158552D01*
X89540186Y-71241814D01*
X89590531Y-71303161D01*
X89652778Y-71379009D01*
X89736443Y-71535534D01*
X89787963Y-71705373D01*
X89805359Y-71882000D01*
X89787963Y-72058627D01*
X89736443Y-72228466D01*
X89652778Y-72384991D01*
X89649170Y-72389387D01*
X89540186Y-72522186D01*
X89438729Y-72605448D01*
X89402991Y-72634778D01*
X89246466Y-72718443D01*
X89076627Y-72769963D01*
X89010443Y-72776481D01*
X88944260Y-72783000D01*
X88855740Y-72783000D01*
X88789557Y-72776481D01*
X88723373Y-72769963D01*
X88553534Y-72718443D01*
X88397009Y-72634778D01*
X88361271Y-72605448D01*
X88259814Y-72522186D01*
X88150830Y-72389387D01*
X88147222Y-72384991D01*
X88063557Y-72228466D01*
X88012037Y-72058627D01*
X87994641Y-71882000D01*
X88012037Y-71705373D01*
X88063557Y-71535534D01*
X88147222Y-71379009D01*
X88209469Y-71303161D01*
X88259814Y-71241814D01*
X88361271Y-71158552D01*
X88397009Y-71129222D01*
X88553534Y-71045557D01*
X88723373Y-70994037D01*
X88789557Y-70987519D01*
X88855740Y-70981000D01*
X88944260Y-70981000D01*
X89010443Y-70987519D01*
X89010443Y-70987519D01*
G37*
G36*
X86470443Y-70987519D02*
G01*
X86536627Y-70994037D01*
X86706466Y-71045557D01*
X86862991Y-71129222D01*
X86898729Y-71158552D01*
X87000186Y-71241814D01*
X87050531Y-71303161D01*
X87112778Y-71379009D01*
X87196443Y-71535534D01*
X87247963Y-71705373D01*
X87265359Y-71882000D01*
X87247963Y-72058627D01*
X87196443Y-72228466D01*
X87112778Y-72384991D01*
X87109170Y-72389387D01*
X87000186Y-72522186D01*
X86898729Y-72605448D01*
X86862991Y-72634778D01*
X86706466Y-72718443D01*
X86536627Y-72769963D01*
X86470443Y-72776481D01*
X86404260Y-72783000D01*
X86315740Y-72783000D01*
X86249557Y-72776481D01*
X86183373Y-72769963D01*
X86013534Y-72718443D01*
X85857009Y-72634778D01*
X85821271Y-72605448D01*
X85719814Y-72522186D01*
X85610830Y-72389387D01*
X85607222Y-72384991D01*
X85523557Y-72228466D01*
X85472037Y-72058627D01*
X85454641Y-71882000D01*
X85472037Y-71705373D01*
X85523557Y-71535534D01*
X85607222Y-71379009D01*
X85669469Y-71303161D01*
X85719814Y-71241814D01*
X85821271Y-71158552D01*
X85857009Y-71129222D01*
X86013534Y-71045557D01*
X86183373Y-70994037D01*
X86249557Y-70987519D01*
X86315740Y-70981000D01*
X86404260Y-70981000D01*
X86470443Y-70987519D01*
X86470443Y-70987519D01*
G37*
G36*
X111870443Y-70987519D02*
G01*
X111936627Y-70994037D01*
X112106466Y-71045557D01*
X112262991Y-71129222D01*
X112298729Y-71158552D01*
X112400186Y-71241814D01*
X112450531Y-71303161D01*
X112512778Y-71379009D01*
X112596443Y-71535534D01*
X112647963Y-71705373D01*
X112665359Y-71882000D01*
X112647963Y-72058627D01*
X112596443Y-72228466D01*
X112512778Y-72384991D01*
X112509170Y-72389387D01*
X112400186Y-72522186D01*
X112298729Y-72605448D01*
X112262991Y-72634778D01*
X112106466Y-72718443D01*
X111936627Y-72769963D01*
X111870443Y-72776481D01*
X111804260Y-72783000D01*
X111715740Y-72783000D01*
X111649557Y-72776481D01*
X111583373Y-72769963D01*
X111413534Y-72718443D01*
X111257009Y-72634778D01*
X111221271Y-72605448D01*
X111119814Y-72522186D01*
X111010830Y-72389387D01*
X111007222Y-72384991D01*
X110923557Y-72228466D01*
X110872037Y-72058627D01*
X110854641Y-71882000D01*
X110872037Y-71705373D01*
X110923557Y-71535534D01*
X111007222Y-71379009D01*
X111069469Y-71303161D01*
X111119814Y-71241814D01*
X111221271Y-71158552D01*
X111257009Y-71129222D01*
X111413534Y-71045557D01*
X111583373Y-70994037D01*
X111649557Y-70987519D01*
X111715740Y-70981000D01*
X111804260Y-70981000D01*
X111870443Y-70987519D01*
X111870443Y-70987519D01*
G37*
G36*
X124466900Y-68825989D02*
G01*
X124499952Y-68836015D01*
X124530403Y-68852292D01*
X124557099Y-68874201D01*
X124579008Y-68900897D01*
X124595285Y-68931348D01*
X124605311Y-68964400D01*
X124609300Y-69004903D01*
X124609300Y-70441097D01*
X124605311Y-70481600D01*
X124595285Y-70514652D01*
X124579008Y-70545103D01*
X124557099Y-70571799D01*
X124530403Y-70593708D01*
X124499952Y-70609985D01*
X124466900Y-70620011D01*
X124426397Y-70624000D01*
X122690203Y-70624000D01*
X122649700Y-70620011D01*
X122616648Y-70609985D01*
X122586197Y-70593708D01*
X122559501Y-70571799D01*
X122537592Y-70545103D01*
X122521315Y-70514652D01*
X122511289Y-70481600D01*
X122507300Y-70441097D01*
X122507300Y-69004903D01*
X122511289Y-68964400D01*
X122521315Y-68931348D01*
X122537592Y-68900897D01*
X122559501Y-68874201D01*
X122586197Y-68852292D01*
X122616648Y-68836015D01*
X122649700Y-68825989D01*
X122690203Y-68822000D01*
X124426397Y-68822000D01*
X124466900Y-68825989D01*
X124466900Y-68825989D01*
G37*
G36*
X52266943Y-68765019D02*
G01*
X52333127Y-68771537D01*
X52502966Y-68823057D01*
X52659491Y-68906722D01*
X52671210Y-68916340D01*
X52796686Y-69019314D01*
X52868283Y-69106557D01*
X52909278Y-69156509D01*
X52992943Y-69313034D01*
X53044463Y-69482873D01*
X53061859Y-69659500D01*
X53044463Y-69836127D01*
X52992943Y-70005966D01*
X52909278Y-70162491D01*
X52896187Y-70178442D01*
X52796686Y-70299686D01*
X52695770Y-70382504D01*
X52659491Y-70412278D01*
X52502966Y-70495943D01*
X52333127Y-70547463D01*
X52266943Y-70553981D01*
X52200760Y-70560500D01*
X51812240Y-70560500D01*
X51746057Y-70553981D01*
X51679873Y-70547463D01*
X51510034Y-70495943D01*
X51353509Y-70412278D01*
X51317230Y-70382504D01*
X51216314Y-70299686D01*
X51116813Y-70178442D01*
X51103722Y-70162491D01*
X51020057Y-70005966D01*
X50968537Y-69836127D01*
X50951141Y-69659500D01*
X50968537Y-69482873D01*
X51020057Y-69313034D01*
X51103722Y-69156509D01*
X51144717Y-69106557D01*
X51216314Y-69019314D01*
X51341790Y-68916340D01*
X51353509Y-68906722D01*
X51510034Y-68823057D01*
X51679873Y-68771537D01*
X51746057Y-68765019D01*
X51812240Y-68758500D01*
X52200760Y-68758500D01*
X52266943Y-68765019D01*
X52266943Y-68765019D01*
G37*
G36*
X99170442Y-68447518D02*
G01*
X99236627Y-68454037D01*
X99406466Y-68505557D01*
X99562991Y-68589222D01*
X99598729Y-68618552D01*
X99700186Y-68701814D01*
X99783448Y-68803271D01*
X99812778Y-68839009D01*
X99896443Y-68995534D01*
X99947963Y-69165373D01*
X99965359Y-69342000D01*
X99947963Y-69518627D01*
X99896443Y-69688466D01*
X99812778Y-69844991D01*
X99783448Y-69880729D01*
X99700186Y-69982186D01*
X99598729Y-70065448D01*
X99562991Y-70094778D01*
X99406466Y-70178443D01*
X99236627Y-70229963D01*
X99171960Y-70236332D01*
X99104260Y-70243000D01*
X99015740Y-70243000D01*
X98948040Y-70236332D01*
X98883373Y-70229963D01*
X98713534Y-70178443D01*
X98557009Y-70094778D01*
X98521271Y-70065448D01*
X98419814Y-69982186D01*
X98336552Y-69880729D01*
X98307222Y-69844991D01*
X98223557Y-69688466D01*
X98172037Y-69518627D01*
X98154641Y-69342000D01*
X98172037Y-69165373D01*
X98223557Y-68995534D01*
X98307222Y-68839009D01*
X98336552Y-68803271D01*
X98419814Y-68701814D01*
X98521271Y-68618552D01*
X98557009Y-68589222D01*
X98713534Y-68505557D01*
X98883373Y-68454037D01*
X98949558Y-68447518D01*
X99015740Y-68441000D01*
X99104260Y-68441000D01*
X99170442Y-68447518D01*
X99170442Y-68447518D01*
G37*
G36*
X63610442Y-68447518D02*
G01*
X63676627Y-68454037D01*
X63846466Y-68505557D01*
X64002991Y-68589222D01*
X64038729Y-68618552D01*
X64140186Y-68701814D01*
X64223448Y-68803271D01*
X64252778Y-68839009D01*
X64336443Y-68995534D01*
X64387963Y-69165373D01*
X64405359Y-69342000D01*
X64387963Y-69518627D01*
X64336443Y-69688466D01*
X64252778Y-69844991D01*
X64223448Y-69880729D01*
X64140186Y-69982186D01*
X64038729Y-70065448D01*
X64002991Y-70094778D01*
X63846466Y-70178443D01*
X63676627Y-70229963D01*
X63611960Y-70236332D01*
X63544260Y-70243000D01*
X63455740Y-70243000D01*
X63388040Y-70236332D01*
X63323373Y-70229963D01*
X63153534Y-70178443D01*
X62997009Y-70094778D01*
X62961271Y-70065448D01*
X62859814Y-69982186D01*
X62776552Y-69880729D01*
X62747222Y-69844991D01*
X62663557Y-69688466D01*
X62612037Y-69518627D01*
X62594641Y-69342000D01*
X62612037Y-69165373D01*
X62663557Y-68995534D01*
X62747222Y-68839009D01*
X62776552Y-68803271D01*
X62859814Y-68701814D01*
X62961271Y-68618552D01*
X62997009Y-68589222D01*
X63153534Y-68505557D01*
X63323373Y-68454037D01*
X63389558Y-68447518D01*
X63455740Y-68441000D01*
X63544260Y-68441000D01*
X63610442Y-68447518D01*
X63610442Y-68447518D01*
G37*
G36*
X68690442Y-68447518D02*
G01*
X68756627Y-68454037D01*
X68926466Y-68505557D01*
X69082991Y-68589222D01*
X69118729Y-68618552D01*
X69220186Y-68701814D01*
X69303448Y-68803271D01*
X69332778Y-68839009D01*
X69416443Y-68995534D01*
X69467963Y-69165373D01*
X69485359Y-69342000D01*
X69467963Y-69518627D01*
X69416443Y-69688466D01*
X69332778Y-69844991D01*
X69303448Y-69880729D01*
X69220186Y-69982186D01*
X69118729Y-70065448D01*
X69082991Y-70094778D01*
X68926466Y-70178443D01*
X68756627Y-70229963D01*
X68691960Y-70236332D01*
X68624260Y-70243000D01*
X68535740Y-70243000D01*
X68468040Y-70236332D01*
X68403373Y-70229963D01*
X68233534Y-70178443D01*
X68077009Y-70094778D01*
X68041271Y-70065448D01*
X67939814Y-69982186D01*
X67856552Y-69880729D01*
X67827222Y-69844991D01*
X67743557Y-69688466D01*
X67692037Y-69518627D01*
X67674641Y-69342000D01*
X67692037Y-69165373D01*
X67743557Y-68995534D01*
X67827222Y-68839009D01*
X67856552Y-68803271D01*
X67939814Y-68701814D01*
X68041271Y-68618552D01*
X68077009Y-68589222D01*
X68233534Y-68505557D01*
X68403373Y-68454037D01*
X68469558Y-68447518D01*
X68535740Y-68441000D01*
X68624260Y-68441000D01*
X68690442Y-68447518D01*
X68690442Y-68447518D01*
G37*
G36*
X71230442Y-68447518D02*
G01*
X71296627Y-68454037D01*
X71466466Y-68505557D01*
X71622991Y-68589222D01*
X71658729Y-68618552D01*
X71760186Y-68701814D01*
X71843448Y-68803271D01*
X71872778Y-68839009D01*
X71956443Y-68995534D01*
X72007963Y-69165373D01*
X72025359Y-69342000D01*
X72007963Y-69518627D01*
X71956443Y-69688466D01*
X71872778Y-69844991D01*
X71843448Y-69880729D01*
X71760186Y-69982186D01*
X71658729Y-70065448D01*
X71622991Y-70094778D01*
X71466466Y-70178443D01*
X71296627Y-70229963D01*
X71231960Y-70236332D01*
X71164260Y-70243000D01*
X71075740Y-70243000D01*
X71008040Y-70236332D01*
X70943373Y-70229963D01*
X70773534Y-70178443D01*
X70617009Y-70094778D01*
X70581271Y-70065448D01*
X70479814Y-69982186D01*
X70396552Y-69880729D01*
X70367222Y-69844991D01*
X70283557Y-69688466D01*
X70232037Y-69518627D01*
X70214641Y-69342000D01*
X70232037Y-69165373D01*
X70283557Y-68995534D01*
X70367222Y-68839009D01*
X70396552Y-68803271D01*
X70479814Y-68701814D01*
X70581271Y-68618552D01*
X70617009Y-68589222D01*
X70773534Y-68505557D01*
X70943373Y-68454037D01*
X71009558Y-68447518D01*
X71075740Y-68441000D01*
X71164260Y-68441000D01*
X71230442Y-68447518D01*
X71230442Y-68447518D01*
G37*
G36*
X73770442Y-68447518D02*
G01*
X73836627Y-68454037D01*
X74006466Y-68505557D01*
X74162991Y-68589222D01*
X74198729Y-68618552D01*
X74300186Y-68701814D01*
X74383448Y-68803271D01*
X74412778Y-68839009D01*
X74496443Y-68995534D01*
X74547963Y-69165373D01*
X74565359Y-69342000D01*
X74547963Y-69518627D01*
X74496443Y-69688466D01*
X74412778Y-69844991D01*
X74383448Y-69880729D01*
X74300186Y-69982186D01*
X74198729Y-70065448D01*
X74162991Y-70094778D01*
X74006466Y-70178443D01*
X73836627Y-70229963D01*
X73771960Y-70236332D01*
X73704260Y-70243000D01*
X73615740Y-70243000D01*
X73548040Y-70236332D01*
X73483373Y-70229963D01*
X73313534Y-70178443D01*
X73157009Y-70094778D01*
X73121271Y-70065448D01*
X73019814Y-69982186D01*
X72936552Y-69880729D01*
X72907222Y-69844991D01*
X72823557Y-69688466D01*
X72772037Y-69518627D01*
X72754641Y-69342000D01*
X72772037Y-69165373D01*
X72823557Y-68995534D01*
X72907222Y-68839009D01*
X72936552Y-68803271D01*
X73019814Y-68701814D01*
X73121271Y-68618552D01*
X73157009Y-68589222D01*
X73313534Y-68505557D01*
X73483373Y-68454037D01*
X73549558Y-68447518D01*
X73615740Y-68441000D01*
X73704260Y-68441000D01*
X73770442Y-68447518D01*
X73770442Y-68447518D01*
G37*
G36*
X101710442Y-68447518D02*
G01*
X101776627Y-68454037D01*
X101946466Y-68505557D01*
X102102991Y-68589222D01*
X102138729Y-68618552D01*
X102240186Y-68701814D01*
X102323448Y-68803271D01*
X102352778Y-68839009D01*
X102436443Y-68995534D01*
X102487963Y-69165373D01*
X102505359Y-69342000D01*
X102487963Y-69518627D01*
X102436443Y-69688466D01*
X102352778Y-69844991D01*
X102323448Y-69880729D01*
X102240186Y-69982186D01*
X102138729Y-70065448D01*
X102102991Y-70094778D01*
X101946466Y-70178443D01*
X101776627Y-70229963D01*
X101711960Y-70236332D01*
X101644260Y-70243000D01*
X101555740Y-70243000D01*
X101488040Y-70236332D01*
X101423373Y-70229963D01*
X101253534Y-70178443D01*
X101097009Y-70094778D01*
X101061271Y-70065448D01*
X100959814Y-69982186D01*
X100876552Y-69880729D01*
X100847222Y-69844991D01*
X100763557Y-69688466D01*
X100712037Y-69518627D01*
X100694641Y-69342000D01*
X100712037Y-69165373D01*
X100763557Y-68995534D01*
X100847222Y-68839009D01*
X100876552Y-68803271D01*
X100959814Y-68701814D01*
X101061271Y-68618552D01*
X101097009Y-68589222D01*
X101253534Y-68505557D01*
X101423373Y-68454037D01*
X101489558Y-68447518D01*
X101555740Y-68441000D01*
X101644260Y-68441000D01*
X101710442Y-68447518D01*
X101710442Y-68447518D01*
G37*
G36*
X76310442Y-68447518D02*
G01*
X76376627Y-68454037D01*
X76546466Y-68505557D01*
X76702991Y-68589222D01*
X76738729Y-68618552D01*
X76840186Y-68701814D01*
X76923448Y-68803271D01*
X76952778Y-68839009D01*
X77036443Y-68995534D01*
X77087963Y-69165373D01*
X77105359Y-69342000D01*
X77087963Y-69518627D01*
X77036443Y-69688466D01*
X76952778Y-69844991D01*
X76923448Y-69880729D01*
X76840186Y-69982186D01*
X76738729Y-70065448D01*
X76702991Y-70094778D01*
X76546466Y-70178443D01*
X76376627Y-70229963D01*
X76311960Y-70236332D01*
X76244260Y-70243000D01*
X76155740Y-70243000D01*
X76088040Y-70236332D01*
X76023373Y-70229963D01*
X75853534Y-70178443D01*
X75697009Y-70094778D01*
X75661271Y-70065448D01*
X75559814Y-69982186D01*
X75476552Y-69880729D01*
X75447222Y-69844991D01*
X75363557Y-69688466D01*
X75312037Y-69518627D01*
X75294641Y-69342000D01*
X75312037Y-69165373D01*
X75363557Y-68995534D01*
X75447222Y-68839009D01*
X75476552Y-68803271D01*
X75559814Y-68701814D01*
X75661271Y-68618552D01*
X75697009Y-68589222D01*
X75853534Y-68505557D01*
X76023373Y-68454037D01*
X76089558Y-68447518D01*
X76155740Y-68441000D01*
X76244260Y-68441000D01*
X76310442Y-68447518D01*
X76310442Y-68447518D01*
G37*
G36*
X78850442Y-68447518D02*
G01*
X78916627Y-68454037D01*
X79086466Y-68505557D01*
X79242991Y-68589222D01*
X79278729Y-68618552D01*
X79380186Y-68701814D01*
X79463448Y-68803271D01*
X79492778Y-68839009D01*
X79576443Y-68995534D01*
X79627963Y-69165373D01*
X79645359Y-69342000D01*
X79627963Y-69518627D01*
X79576443Y-69688466D01*
X79492778Y-69844991D01*
X79463448Y-69880729D01*
X79380186Y-69982186D01*
X79278729Y-70065448D01*
X79242991Y-70094778D01*
X79086466Y-70178443D01*
X78916627Y-70229963D01*
X78851960Y-70236332D01*
X78784260Y-70243000D01*
X78695740Y-70243000D01*
X78628040Y-70236332D01*
X78563373Y-70229963D01*
X78393534Y-70178443D01*
X78237009Y-70094778D01*
X78201271Y-70065448D01*
X78099814Y-69982186D01*
X78016552Y-69880729D01*
X77987222Y-69844991D01*
X77903557Y-69688466D01*
X77852037Y-69518627D01*
X77834641Y-69342000D01*
X77852037Y-69165373D01*
X77903557Y-68995534D01*
X77987222Y-68839009D01*
X78016552Y-68803271D01*
X78099814Y-68701814D01*
X78201271Y-68618552D01*
X78237009Y-68589222D01*
X78393534Y-68505557D01*
X78563373Y-68454037D01*
X78629558Y-68447518D01*
X78695740Y-68441000D01*
X78784260Y-68441000D01*
X78850442Y-68447518D01*
X78850442Y-68447518D01*
G37*
G36*
X81390442Y-68447518D02*
G01*
X81456627Y-68454037D01*
X81626466Y-68505557D01*
X81782991Y-68589222D01*
X81818729Y-68618552D01*
X81920186Y-68701814D01*
X82003448Y-68803271D01*
X82032778Y-68839009D01*
X82116443Y-68995534D01*
X82167963Y-69165373D01*
X82185359Y-69342000D01*
X82167963Y-69518627D01*
X82116443Y-69688466D01*
X82032778Y-69844991D01*
X82003448Y-69880729D01*
X81920186Y-69982186D01*
X81818729Y-70065448D01*
X81782991Y-70094778D01*
X81626466Y-70178443D01*
X81456627Y-70229963D01*
X81391960Y-70236332D01*
X81324260Y-70243000D01*
X81235740Y-70243000D01*
X81168040Y-70236332D01*
X81103373Y-70229963D01*
X80933534Y-70178443D01*
X80777009Y-70094778D01*
X80741271Y-70065448D01*
X80639814Y-69982186D01*
X80556552Y-69880729D01*
X80527222Y-69844991D01*
X80443557Y-69688466D01*
X80392037Y-69518627D01*
X80374641Y-69342000D01*
X80392037Y-69165373D01*
X80443557Y-68995534D01*
X80527222Y-68839009D01*
X80556552Y-68803271D01*
X80639814Y-68701814D01*
X80741271Y-68618552D01*
X80777009Y-68589222D01*
X80933534Y-68505557D01*
X81103373Y-68454037D01*
X81169558Y-68447518D01*
X81235740Y-68441000D01*
X81324260Y-68441000D01*
X81390442Y-68447518D01*
X81390442Y-68447518D01*
G37*
G36*
X66150442Y-68447518D02*
G01*
X66216627Y-68454037D01*
X66386466Y-68505557D01*
X66542991Y-68589222D01*
X66578729Y-68618552D01*
X66680186Y-68701814D01*
X66763448Y-68803271D01*
X66792778Y-68839009D01*
X66876443Y-68995534D01*
X66927963Y-69165373D01*
X66945359Y-69342000D01*
X66927963Y-69518627D01*
X66876443Y-69688466D01*
X66792778Y-69844991D01*
X66763448Y-69880729D01*
X66680186Y-69982186D01*
X66578729Y-70065448D01*
X66542991Y-70094778D01*
X66386466Y-70178443D01*
X66216627Y-70229963D01*
X66151960Y-70236332D01*
X66084260Y-70243000D01*
X65995740Y-70243000D01*
X65928040Y-70236332D01*
X65863373Y-70229963D01*
X65693534Y-70178443D01*
X65537009Y-70094778D01*
X65501271Y-70065448D01*
X65399814Y-69982186D01*
X65316552Y-69880729D01*
X65287222Y-69844991D01*
X65203557Y-69688466D01*
X65152037Y-69518627D01*
X65134641Y-69342000D01*
X65152037Y-69165373D01*
X65203557Y-68995534D01*
X65287222Y-68839009D01*
X65316552Y-68803271D01*
X65399814Y-68701814D01*
X65501271Y-68618552D01*
X65537009Y-68589222D01*
X65693534Y-68505557D01*
X65863373Y-68454037D01*
X65929558Y-68447518D01*
X65995740Y-68441000D01*
X66084260Y-68441000D01*
X66150442Y-68447518D01*
X66150442Y-68447518D01*
G37*
G36*
X104250442Y-68447518D02*
G01*
X104316627Y-68454037D01*
X104486466Y-68505557D01*
X104642991Y-68589222D01*
X104678729Y-68618552D01*
X104780186Y-68701814D01*
X104863448Y-68803271D01*
X104892778Y-68839009D01*
X104976443Y-68995534D01*
X105027963Y-69165373D01*
X105045359Y-69342000D01*
X105027963Y-69518627D01*
X104976443Y-69688466D01*
X104892778Y-69844991D01*
X104863448Y-69880729D01*
X104780186Y-69982186D01*
X104678729Y-70065448D01*
X104642991Y-70094778D01*
X104486466Y-70178443D01*
X104316627Y-70229963D01*
X104251960Y-70236332D01*
X104184260Y-70243000D01*
X104095740Y-70243000D01*
X104028040Y-70236332D01*
X103963373Y-70229963D01*
X103793534Y-70178443D01*
X103637009Y-70094778D01*
X103601271Y-70065448D01*
X103499814Y-69982186D01*
X103416552Y-69880729D01*
X103387222Y-69844991D01*
X103303557Y-69688466D01*
X103252037Y-69518627D01*
X103234641Y-69342000D01*
X103252037Y-69165373D01*
X103303557Y-68995534D01*
X103387222Y-68839009D01*
X103416552Y-68803271D01*
X103499814Y-68701814D01*
X103601271Y-68618552D01*
X103637009Y-68589222D01*
X103793534Y-68505557D01*
X103963373Y-68454037D01*
X104029558Y-68447518D01*
X104095740Y-68441000D01*
X104184260Y-68441000D01*
X104250442Y-68447518D01*
X104250442Y-68447518D01*
G37*
G36*
X86470442Y-68447518D02*
G01*
X86536627Y-68454037D01*
X86706466Y-68505557D01*
X86862991Y-68589222D01*
X86898729Y-68618552D01*
X87000186Y-68701814D01*
X87083448Y-68803271D01*
X87112778Y-68839009D01*
X87196443Y-68995534D01*
X87247963Y-69165373D01*
X87265359Y-69342000D01*
X87247963Y-69518627D01*
X87196443Y-69688466D01*
X87112778Y-69844991D01*
X87083448Y-69880729D01*
X87000186Y-69982186D01*
X86898729Y-70065448D01*
X86862991Y-70094778D01*
X86706466Y-70178443D01*
X86536627Y-70229963D01*
X86471960Y-70236332D01*
X86404260Y-70243000D01*
X86315740Y-70243000D01*
X86248040Y-70236332D01*
X86183373Y-70229963D01*
X86013534Y-70178443D01*
X85857009Y-70094778D01*
X85821271Y-70065448D01*
X85719814Y-69982186D01*
X85636552Y-69880729D01*
X85607222Y-69844991D01*
X85523557Y-69688466D01*
X85472037Y-69518627D01*
X85454641Y-69342000D01*
X85472037Y-69165373D01*
X85523557Y-68995534D01*
X85607222Y-68839009D01*
X85636552Y-68803271D01*
X85719814Y-68701814D01*
X85821271Y-68618552D01*
X85857009Y-68589222D01*
X86013534Y-68505557D01*
X86183373Y-68454037D01*
X86249558Y-68447518D01*
X86315740Y-68441000D01*
X86404260Y-68441000D01*
X86470442Y-68447518D01*
X86470442Y-68447518D01*
G37*
G36*
X89010442Y-68447518D02*
G01*
X89076627Y-68454037D01*
X89246466Y-68505557D01*
X89402991Y-68589222D01*
X89438729Y-68618552D01*
X89540186Y-68701814D01*
X89623448Y-68803271D01*
X89652778Y-68839009D01*
X89736443Y-68995534D01*
X89787963Y-69165373D01*
X89805359Y-69342000D01*
X89787963Y-69518627D01*
X89736443Y-69688466D01*
X89652778Y-69844991D01*
X89623448Y-69880729D01*
X89540186Y-69982186D01*
X89438729Y-70065448D01*
X89402991Y-70094778D01*
X89246466Y-70178443D01*
X89076627Y-70229963D01*
X89011960Y-70236332D01*
X88944260Y-70243000D01*
X88855740Y-70243000D01*
X88788040Y-70236332D01*
X88723373Y-70229963D01*
X88553534Y-70178443D01*
X88397009Y-70094778D01*
X88361271Y-70065448D01*
X88259814Y-69982186D01*
X88176552Y-69880729D01*
X88147222Y-69844991D01*
X88063557Y-69688466D01*
X88012037Y-69518627D01*
X87994641Y-69342000D01*
X88012037Y-69165373D01*
X88063557Y-68995534D01*
X88147222Y-68839009D01*
X88176552Y-68803271D01*
X88259814Y-68701814D01*
X88361271Y-68618552D01*
X88397009Y-68589222D01*
X88553534Y-68505557D01*
X88723373Y-68454037D01*
X88789558Y-68447518D01*
X88855740Y-68441000D01*
X88944260Y-68441000D01*
X89010442Y-68447518D01*
X89010442Y-68447518D01*
G37*
G36*
X106790442Y-68447518D02*
G01*
X106856627Y-68454037D01*
X107026466Y-68505557D01*
X107182991Y-68589222D01*
X107218729Y-68618552D01*
X107320186Y-68701814D01*
X107403448Y-68803271D01*
X107432778Y-68839009D01*
X107516443Y-68995534D01*
X107567963Y-69165373D01*
X107585359Y-69342000D01*
X107567963Y-69518627D01*
X107516443Y-69688466D01*
X107432778Y-69844991D01*
X107403448Y-69880729D01*
X107320186Y-69982186D01*
X107218729Y-70065448D01*
X107182991Y-70094778D01*
X107026466Y-70178443D01*
X106856627Y-70229963D01*
X106791960Y-70236332D01*
X106724260Y-70243000D01*
X106635740Y-70243000D01*
X106568040Y-70236332D01*
X106503373Y-70229963D01*
X106333534Y-70178443D01*
X106177009Y-70094778D01*
X106141271Y-70065448D01*
X106039814Y-69982186D01*
X105956552Y-69880729D01*
X105927222Y-69844991D01*
X105843557Y-69688466D01*
X105792037Y-69518627D01*
X105774641Y-69342000D01*
X105792037Y-69165373D01*
X105843557Y-68995534D01*
X105927222Y-68839009D01*
X105956552Y-68803271D01*
X106039814Y-68701814D01*
X106141271Y-68618552D01*
X106177009Y-68589222D01*
X106333534Y-68505557D01*
X106503373Y-68454037D01*
X106569558Y-68447518D01*
X106635740Y-68441000D01*
X106724260Y-68441000D01*
X106790442Y-68447518D01*
X106790442Y-68447518D01*
G37*
G36*
X91550442Y-68447518D02*
G01*
X91616627Y-68454037D01*
X91786466Y-68505557D01*
X91942991Y-68589222D01*
X91978729Y-68618552D01*
X92080186Y-68701814D01*
X92163448Y-68803271D01*
X92192778Y-68839009D01*
X92276443Y-68995534D01*
X92327963Y-69165373D01*
X92345359Y-69342000D01*
X92327963Y-69518627D01*
X92276443Y-69688466D01*
X92192778Y-69844991D01*
X92163448Y-69880729D01*
X92080186Y-69982186D01*
X91978729Y-70065448D01*
X91942991Y-70094778D01*
X91786466Y-70178443D01*
X91616627Y-70229963D01*
X91551960Y-70236332D01*
X91484260Y-70243000D01*
X91395740Y-70243000D01*
X91328040Y-70236332D01*
X91263373Y-70229963D01*
X91093534Y-70178443D01*
X90937009Y-70094778D01*
X90901271Y-70065448D01*
X90799814Y-69982186D01*
X90716552Y-69880729D01*
X90687222Y-69844991D01*
X90603557Y-69688466D01*
X90552037Y-69518627D01*
X90534641Y-69342000D01*
X90552037Y-69165373D01*
X90603557Y-68995534D01*
X90687222Y-68839009D01*
X90716552Y-68803271D01*
X90799814Y-68701814D01*
X90901271Y-68618552D01*
X90937009Y-68589222D01*
X91093534Y-68505557D01*
X91263373Y-68454037D01*
X91329558Y-68447518D01*
X91395740Y-68441000D01*
X91484260Y-68441000D01*
X91550442Y-68447518D01*
X91550442Y-68447518D01*
G37*
G36*
X109330442Y-68447518D02*
G01*
X109396627Y-68454037D01*
X109566466Y-68505557D01*
X109722991Y-68589222D01*
X109758729Y-68618552D01*
X109860186Y-68701814D01*
X109943448Y-68803271D01*
X109972778Y-68839009D01*
X110056443Y-68995534D01*
X110107963Y-69165373D01*
X110125359Y-69342000D01*
X110107963Y-69518627D01*
X110056443Y-69688466D01*
X109972778Y-69844991D01*
X109943448Y-69880729D01*
X109860186Y-69982186D01*
X109758729Y-70065448D01*
X109722991Y-70094778D01*
X109566466Y-70178443D01*
X109396627Y-70229963D01*
X109331960Y-70236332D01*
X109264260Y-70243000D01*
X109175740Y-70243000D01*
X109108040Y-70236332D01*
X109043373Y-70229963D01*
X108873534Y-70178443D01*
X108717009Y-70094778D01*
X108681271Y-70065448D01*
X108579814Y-69982186D01*
X108496552Y-69880729D01*
X108467222Y-69844991D01*
X108383557Y-69688466D01*
X108332037Y-69518627D01*
X108314641Y-69342000D01*
X108332037Y-69165373D01*
X108383557Y-68995534D01*
X108467222Y-68839009D01*
X108496552Y-68803271D01*
X108579814Y-68701814D01*
X108681271Y-68618552D01*
X108717009Y-68589222D01*
X108873534Y-68505557D01*
X109043373Y-68454037D01*
X109109558Y-68447518D01*
X109175740Y-68441000D01*
X109264260Y-68441000D01*
X109330442Y-68447518D01*
X109330442Y-68447518D01*
G37*
G36*
X111870442Y-68447518D02*
G01*
X111936627Y-68454037D01*
X112106466Y-68505557D01*
X112262991Y-68589222D01*
X112298729Y-68618552D01*
X112400186Y-68701814D01*
X112483448Y-68803271D01*
X112512778Y-68839009D01*
X112596443Y-68995534D01*
X112647963Y-69165373D01*
X112665359Y-69342000D01*
X112647963Y-69518627D01*
X112596443Y-69688466D01*
X112512778Y-69844991D01*
X112483448Y-69880729D01*
X112400186Y-69982186D01*
X112298729Y-70065448D01*
X112262991Y-70094778D01*
X112106466Y-70178443D01*
X111936627Y-70229963D01*
X111871960Y-70236332D01*
X111804260Y-70243000D01*
X111715740Y-70243000D01*
X111648040Y-70236332D01*
X111583373Y-70229963D01*
X111413534Y-70178443D01*
X111257009Y-70094778D01*
X111221271Y-70065448D01*
X111119814Y-69982186D01*
X111036552Y-69880729D01*
X111007222Y-69844991D01*
X110923557Y-69688466D01*
X110872037Y-69518627D01*
X110854641Y-69342000D01*
X110872037Y-69165373D01*
X110923557Y-68995534D01*
X111007222Y-68839009D01*
X111036552Y-68803271D01*
X111119814Y-68701814D01*
X111221271Y-68618552D01*
X111257009Y-68589222D01*
X111413534Y-68505557D01*
X111583373Y-68454037D01*
X111649558Y-68447518D01*
X111715740Y-68441000D01*
X111804260Y-68441000D01*
X111870442Y-68447518D01*
X111870442Y-68447518D01*
G37*
G36*
X94090442Y-68447518D02*
G01*
X94156627Y-68454037D01*
X94326466Y-68505557D01*
X94482991Y-68589222D01*
X94518729Y-68618552D01*
X94620186Y-68701814D01*
X94703448Y-68803271D01*
X94732778Y-68839009D01*
X94816443Y-68995534D01*
X94867963Y-69165373D01*
X94885359Y-69342000D01*
X94867963Y-69518627D01*
X94816443Y-69688466D01*
X94732778Y-69844991D01*
X94703448Y-69880729D01*
X94620186Y-69982186D01*
X94518729Y-70065448D01*
X94482991Y-70094778D01*
X94326466Y-70178443D01*
X94156627Y-70229963D01*
X94091960Y-70236332D01*
X94024260Y-70243000D01*
X93935740Y-70243000D01*
X93868040Y-70236332D01*
X93803373Y-70229963D01*
X93633534Y-70178443D01*
X93477009Y-70094778D01*
X93441271Y-70065448D01*
X93339814Y-69982186D01*
X93256552Y-69880729D01*
X93227222Y-69844991D01*
X93143557Y-69688466D01*
X93092037Y-69518627D01*
X93074641Y-69342000D01*
X93092037Y-69165373D01*
X93143557Y-68995534D01*
X93227222Y-68839009D01*
X93256552Y-68803271D01*
X93339814Y-68701814D01*
X93441271Y-68618552D01*
X93477009Y-68589222D01*
X93633534Y-68505557D01*
X93803373Y-68454037D01*
X93869558Y-68447518D01*
X93935740Y-68441000D01*
X94024260Y-68441000D01*
X94090442Y-68447518D01*
X94090442Y-68447518D01*
G37*
G36*
X96630442Y-68447518D02*
G01*
X96696627Y-68454037D01*
X96866466Y-68505557D01*
X97022991Y-68589222D01*
X97058729Y-68618552D01*
X97160186Y-68701814D01*
X97243448Y-68803271D01*
X97272778Y-68839009D01*
X97356443Y-68995534D01*
X97407963Y-69165373D01*
X97425359Y-69342000D01*
X97407963Y-69518627D01*
X97356443Y-69688466D01*
X97272778Y-69844991D01*
X97243448Y-69880729D01*
X97160186Y-69982186D01*
X97058729Y-70065448D01*
X97022991Y-70094778D01*
X96866466Y-70178443D01*
X96696627Y-70229963D01*
X96631960Y-70236332D01*
X96564260Y-70243000D01*
X96475740Y-70243000D01*
X96408040Y-70236332D01*
X96343373Y-70229963D01*
X96173534Y-70178443D01*
X96017009Y-70094778D01*
X95981271Y-70065448D01*
X95879814Y-69982186D01*
X95796552Y-69880729D01*
X95767222Y-69844991D01*
X95683557Y-69688466D01*
X95632037Y-69518627D01*
X95614641Y-69342000D01*
X95632037Y-69165373D01*
X95683557Y-68995534D01*
X95767222Y-68839009D01*
X95796552Y-68803271D01*
X95879814Y-68701814D01*
X95981271Y-68618552D01*
X96017009Y-68589222D01*
X96173534Y-68505557D01*
X96343373Y-68454037D01*
X96409558Y-68447518D01*
X96475740Y-68441000D01*
X96564260Y-68441000D01*
X96630442Y-68447518D01*
X96630442Y-68447518D01*
G37*
G36*
X83930442Y-68447518D02*
G01*
X83996627Y-68454037D01*
X84166466Y-68505557D01*
X84322991Y-68589222D01*
X84358729Y-68618552D01*
X84460186Y-68701814D01*
X84543448Y-68803271D01*
X84572778Y-68839009D01*
X84656443Y-68995534D01*
X84707963Y-69165373D01*
X84725359Y-69342000D01*
X84707963Y-69518627D01*
X84656443Y-69688466D01*
X84572778Y-69844991D01*
X84543448Y-69880729D01*
X84460186Y-69982186D01*
X84358729Y-70065448D01*
X84322991Y-70094778D01*
X84166466Y-70178443D01*
X83996627Y-70229963D01*
X83931960Y-70236332D01*
X83864260Y-70243000D01*
X83775740Y-70243000D01*
X83708040Y-70236332D01*
X83643373Y-70229963D01*
X83473534Y-70178443D01*
X83317009Y-70094778D01*
X83281271Y-70065448D01*
X83179814Y-69982186D01*
X83096552Y-69880729D01*
X83067222Y-69844991D01*
X82983557Y-69688466D01*
X82932037Y-69518627D01*
X82914641Y-69342000D01*
X82932037Y-69165373D01*
X82983557Y-68995534D01*
X83067222Y-68839009D01*
X83096552Y-68803271D01*
X83179814Y-68701814D01*
X83281271Y-68618552D01*
X83317009Y-68589222D01*
X83473534Y-68505557D01*
X83643373Y-68454037D01*
X83709558Y-68447518D01*
X83775740Y-68441000D01*
X83864260Y-68441000D01*
X83930442Y-68447518D01*
X83930442Y-68447518D01*
G37*
M02*
