G04 #@! TF.FileFunction,Copper,L1,Top,Signal*
%FSLAX46Y46*%
G04 Gerber Fmt 4.6, Leading zero omitted, Abs format (unit mm)*
G04 Created by KiCad (PCBNEW 4.0.7) date 10/05/18 20:50:03*
%MOMM*%
%LPD*%
G01*
G04 APERTURE LIST*
%ADD10C,0.100000*%
%ADD11C,0.200000*%
%ADD12C,0.300000*%
%ADD13R,9.000000X0.680000*%
%ADD14R,4.500000X0.680000*%
%ADD15R,1.524000X0.680000*%
%ADD16R,5.250000X6.230000*%
%ADD17R,5.250000X10.300000*%
%ADD18C,4.400000*%
%ADD19C,0.700000*%
%ADD20R,1.200000X0.750000*%
%ADD21R,0.750000X1.200000*%
%ADD22R,0.900000X1.200000*%
%ADD23R,1.850000X1.850000*%
%ADD24C,1.850000*%
%ADD25R,1.200000X0.900000*%
%ADD26R,1.300000X1.300000*%
%ADD27R,2.000000X1.300000*%
%ADD28R,3.200000X1.524000*%
%ADD29R,1.600000X0.550000*%
%ADD30R,0.550000X1.600000*%
%ADD31R,1.900000X0.800000*%
%ADD32R,1.050000X0.650000*%
%ADD33R,0.600000X0.800000*%
%ADD34C,3.000000*%
%ADD35C,2.000000*%
%ADD36R,6.114800X3.193800*%
%ADD37R,3.193800X6.114800*%
%ADD38R,3.500000X1.600000*%
%ADD39R,1.600000X3.500000*%
%ADD40C,0.600000*%
%ADD41C,0.500000*%
%ADD42C,0.400000*%
%ADD43C,0.250000*%
%ADD44C,0.600000*%
%ADD45C,0.254000*%
G04 APERTURE END LIST*
D10*
D11*
X52371595Y-45322381D02*
X52371595Y-44322381D01*
X52609690Y-44322381D01*
X52752548Y-44370000D01*
X52847786Y-44465238D01*
X52895405Y-44560476D01*
X52943024Y-44750952D01*
X52943024Y-44893810D01*
X52895405Y-45084286D01*
X52847786Y-45179524D01*
X52752548Y-45274762D01*
X52609690Y-45322381D01*
X52371595Y-45322381D01*
X53752548Y-45274762D02*
X53657310Y-45322381D01*
X53466833Y-45322381D01*
X53371595Y-45274762D01*
X53323976Y-45179524D01*
X53323976Y-44798571D01*
X53371595Y-44703333D01*
X53466833Y-44655714D01*
X53657310Y-44655714D01*
X53752548Y-44703333D01*
X53800167Y-44798571D01*
X53800167Y-44893810D01*
X53323976Y-44989048D01*
X54181119Y-45274762D02*
X54276357Y-45322381D01*
X54466833Y-45322381D01*
X54562072Y-45274762D01*
X54609691Y-45179524D01*
X54609691Y-45131905D01*
X54562072Y-45036667D01*
X54466833Y-44989048D01*
X54323976Y-44989048D01*
X54228738Y-44941429D01*
X54181119Y-44846190D01*
X54181119Y-44798571D01*
X54228738Y-44703333D01*
X54323976Y-44655714D01*
X54466833Y-44655714D01*
X54562072Y-44703333D01*
X55038262Y-45322381D02*
X55038262Y-44655714D01*
X55038262Y-44322381D02*
X54990643Y-44370000D01*
X55038262Y-44417619D01*
X55085881Y-44370000D01*
X55038262Y-44322381D01*
X55038262Y-44417619D01*
X55943024Y-44655714D02*
X55943024Y-45465238D01*
X55895405Y-45560476D01*
X55847786Y-45608095D01*
X55752547Y-45655714D01*
X55609690Y-45655714D01*
X55514452Y-45608095D01*
X55943024Y-45274762D02*
X55847786Y-45322381D01*
X55657309Y-45322381D01*
X55562071Y-45274762D01*
X55514452Y-45227143D01*
X55466833Y-45131905D01*
X55466833Y-44846190D01*
X55514452Y-44750952D01*
X55562071Y-44703333D01*
X55657309Y-44655714D01*
X55847786Y-44655714D01*
X55943024Y-44703333D01*
X56419214Y-44655714D02*
X56419214Y-45322381D01*
X56419214Y-44750952D02*
X56466833Y-44703333D01*
X56562071Y-44655714D01*
X56704929Y-44655714D01*
X56800167Y-44703333D01*
X56847786Y-44798571D01*
X56847786Y-45322381D01*
X57704929Y-45274762D02*
X57609691Y-45322381D01*
X57419214Y-45322381D01*
X57323976Y-45274762D01*
X57276357Y-45179524D01*
X57276357Y-44798571D01*
X57323976Y-44703333D01*
X57419214Y-44655714D01*
X57609691Y-44655714D01*
X57704929Y-44703333D01*
X57752548Y-44798571D01*
X57752548Y-44893810D01*
X57276357Y-44989048D01*
X58609691Y-45322381D02*
X58609691Y-44322381D01*
X58609691Y-45274762D02*
X58514453Y-45322381D01*
X58323976Y-45322381D01*
X58228738Y-45274762D01*
X58181119Y-45227143D01*
X58133500Y-45131905D01*
X58133500Y-44846190D01*
X58181119Y-44750952D01*
X58228738Y-44703333D01*
X58323976Y-44655714D01*
X58514453Y-44655714D01*
X58609691Y-44703333D01*
X59847786Y-45322381D02*
X59847786Y-44322381D01*
X59847786Y-44703333D02*
X59943024Y-44655714D01*
X60133501Y-44655714D01*
X60228739Y-44703333D01*
X60276358Y-44750952D01*
X60323977Y-44846190D01*
X60323977Y-45131905D01*
X60276358Y-45227143D01*
X60228739Y-45274762D01*
X60133501Y-45322381D01*
X59943024Y-45322381D01*
X59847786Y-45274762D01*
X60657310Y-44655714D02*
X60895405Y-45322381D01*
X61133501Y-44655714D02*
X60895405Y-45322381D01*
X60800167Y-45560476D01*
X60752548Y-45608095D01*
X60657310Y-45655714D01*
X52371595Y-47022381D02*
X52371595Y-46022381D01*
X52943024Y-47022381D01*
X52943024Y-46022381D01*
X53419214Y-46927143D02*
X53466833Y-46974762D01*
X53419214Y-47022381D01*
X53371595Y-46974762D01*
X53419214Y-46927143D01*
X53419214Y-47022381D01*
X53895404Y-47022381D02*
X53895404Y-46022381D01*
X54466833Y-47022381D01*
X54466833Y-46022381D01*
X54895404Y-46736667D02*
X55371595Y-46736667D01*
X54800166Y-47022381D02*
X55133499Y-46022381D01*
X55466833Y-47022381D01*
X55800166Y-47022381D02*
X55800166Y-46022381D01*
X56371595Y-47022381D02*
X55943023Y-46450952D01*
X56371595Y-46022381D02*
X55800166Y-46593810D01*
X56752547Y-46736667D02*
X57228738Y-46736667D01*
X56657309Y-47022381D02*
X56990642Y-46022381D01*
X57323976Y-47022381D01*
X57657309Y-47022381D02*
X57657309Y-46022381D01*
X57990643Y-46736667D01*
X58323976Y-46022381D01*
X58323976Y-47022381D01*
X58990642Y-46022381D02*
X59181119Y-46022381D01*
X59276357Y-46070000D01*
X59371595Y-46165238D01*
X59419214Y-46355714D01*
X59419214Y-46689048D01*
X59371595Y-46879524D01*
X59276357Y-46974762D01*
X59181119Y-47022381D01*
X58990642Y-47022381D01*
X58895404Y-46974762D01*
X58800166Y-46879524D01*
X58752547Y-46689048D01*
X58752547Y-46355714D01*
X58800166Y-46165238D01*
X58895404Y-46070000D01*
X58990642Y-46022381D01*
X59704928Y-46022381D02*
X60276357Y-46022381D01*
X59990642Y-47022381D02*
X59990642Y-46022381D01*
X60800166Y-46022381D02*
X60990643Y-46022381D01*
X61085881Y-46070000D01*
X61181119Y-46165238D01*
X61228738Y-46355714D01*
X61228738Y-46689048D01*
X61181119Y-46879524D01*
X61085881Y-46974762D01*
X60990643Y-47022381D01*
X60800166Y-47022381D01*
X60704928Y-46974762D01*
X60609690Y-46879524D01*
X60562071Y-46689048D01*
X60562071Y-46355714D01*
X60609690Y-46165238D01*
X60704928Y-46070000D01*
X60800166Y-46022381D01*
D12*
X52317215Y-43595857D02*
X52467215Y-42395857D01*
X52760072Y-43253000D01*
X53267215Y-42395857D01*
X53117215Y-43595857D01*
X53688644Y-43595857D02*
X53838644Y-42395857D01*
X54124359Y-42395857D01*
X54288644Y-42453000D01*
X54388644Y-42567286D01*
X54431502Y-42681571D01*
X54460073Y-42910143D01*
X54438645Y-43081571D01*
X54352930Y-43310143D01*
X54281501Y-43424429D01*
X54152930Y-43538714D01*
X53974359Y-43595857D01*
X53688644Y-43595857D01*
X55860073Y-43595857D02*
X55802930Y-43595857D01*
X55695787Y-43538714D01*
X55545787Y-43367286D01*
X55302929Y-43024429D01*
X55210073Y-42853000D01*
X55174359Y-42681571D01*
X55188644Y-42567286D01*
X55260073Y-42453000D01*
X55381501Y-42395857D01*
X55438644Y-42395857D01*
X55545787Y-42453000D01*
X55588644Y-42567286D01*
X55581501Y-42624429D01*
X55510073Y-42738714D01*
X55445787Y-42795857D01*
X55074358Y-43024429D01*
X55010073Y-43081571D01*
X54938644Y-43195857D01*
X54917215Y-43367286D01*
X54960073Y-43481571D01*
X55010073Y-43538714D01*
X55117216Y-43595857D01*
X55288644Y-43595857D01*
X55410073Y-43538714D01*
X55474359Y-43481571D01*
X55674358Y-43253000D01*
X55752930Y-43081571D01*
X55767215Y-42967286D01*
X56324358Y-43538714D02*
X56488644Y-43595857D01*
X56774358Y-43595857D01*
X56895787Y-43538714D01*
X56960073Y-43481571D01*
X57031501Y-43367286D01*
X57045787Y-43253000D01*
X57002930Y-43138714D01*
X56952930Y-43081571D01*
X56845786Y-43024429D01*
X56624358Y-42967286D01*
X56517215Y-42910143D01*
X56467215Y-42853000D01*
X56424358Y-42738714D01*
X56438643Y-42624429D01*
X56510072Y-42510143D01*
X56574358Y-42453000D01*
X56695787Y-42395857D01*
X56981501Y-42395857D01*
X57145787Y-42453000D01*
X58131501Y-42795857D02*
X58031501Y-43595857D01*
X57617215Y-42795857D02*
X57538643Y-43424429D01*
X57581501Y-43538714D01*
X57688644Y-43595857D01*
X57860072Y-43595857D01*
X57981501Y-43538714D01*
X58045787Y-43481571D01*
X58602929Y-43595857D02*
X58752929Y-42395857D01*
X58695786Y-42853000D02*
X58817215Y-42795857D01*
X59045786Y-42795857D01*
X59152929Y-42853000D01*
X59202929Y-42910143D01*
X59245786Y-43024429D01*
X59202929Y-43367286D01*
X59131501Y-43481571D01*
X59067215Y-43538714D01*
X58945786Y-43595857D01*
X58717215Y-43595857D01*
X58610072Y-43538714D01*
X59745786Y-43138714D02*
X60660072Y-43138714D01*
X61874358Y-43481571D02*
X61810072Y-43538714D01*
X61631500Y-43595857D01*
X61517214Y-43595857D01*
X61352929Y-43538714D01*
X61252928Y-43424429D01*
X61210071Y-43310143D01*
X61181500Y-43081571D01*
X61202928Y-42910143D01*
X61288643Y-42681571D01*
X61360071Y-42567286D01*
X61488643Y-42453000D01*
X61667214Y-42395857D01*
X61781500Y-42395857D01*
X61945786Y-42453000D01*
X61995786Y-42510143D01*
X62374357Y-43595857D02*
X62524357Y-42395857D01*
X62981500Y-42395857D01*
X63088643Y-42453000D01*
X63138643Y-42510143D01*
X63181500Y-42624429D01*
X63160072Y-42795857D01*
X63088643Y-42910143D01*
X63024357Y-42967286D01*
X62902928Y-43024429D01*
X62445785Y-43024429D01*
X63724357Y-42395857D02*
X63602928Y-43367286D01*
X63645786Y-43481571D01*
X63695786Y-43538714D01*
X63802929Y-43595857D01*
X64031500Y-43595857D01*
X64152929Y-43538714D01*
X64217215Y-43481571D01*
X64288643Y-43367286D01*
X64410072Y-42395857D01*
D13*
X79883000Y-57010300D03*
X70930000Y-62002000D03*
D14*
X67900000Y-64012000D03*
X67710000Y-59982000D03*
X68100000Y-55002000D03*
X67700000Y-68982000D03*
D13*
X78880000Y-55002000D03*
X78900000Y-68992000D03*
D15*
X84080000Y-68992000D03*
X84080000Y-68002000D03*
X84080000Y-67002000D03*
X84080000Y-66002000D03*
X84080000Y-65002000D03*
X84080000Y-64002000D03*
X84080000Y-63002000D03*
X84080000Y-62002000D03*
X84080000Y-61002000D03*
X84080000Y-60002000D03*
X84080000Y-59002000D03*
X84080000Y-58002000D03*
X84080000Y-57002000D03*
X84080000Y-56002000D03*
X84080000Y-55002000D03*
X65780000Y-54992000D03*
X65780000Y-56992000D03*
X65780000Y-57992000D03*
X65780000Y-58982000D03*
X65780000Y-59982000D03*
X65780000Y-60982000D03*
X65780000Y-61982000D03*
X65780000Y-62982000D03*
X65780000Y-63982000D03*
X65780000Y-64982000D03*
X65780000Y-65982000D03*
X65780000Y-66982000D03*
X65780000Y-67982000D03*
X65780000Y-68982000D03*
D16*
X71870000Y-66162000D03*
X71870000Y-57832000D03*
D17*
X78020000Y-62032000D03*
D15*
X65780000Y-55992000D03*
D13*
X79883000Y-67005200D03*
D18*
X117000000Y-37500000D03*
D19*
X118650000Y-37500000D03*
X118166726Y-38666726D03*
X117000000Y-39150000D03*
X115833274Y-38666726D03*
X115350000Y-37500000D03*
X115833274Y-36333274D03*
X117000000Y-35850000D03*
X118166726Y-36333274D03*
D18*
X117000000Y-70500000D03*
D19*
X118650000Y-70500000D03*
X118166726Y-71666726D03*
X117000000Y-72150000D03*
X115833274Y-71666726D03*
X115350000Y-70500000D03*
X115833274Y-69333274D03*
X117000000Y-68850000D03*
X118166726Y-69333274D03*
D20*
X89474000Y-50888900D03*
X91374000Y-50888900D03*
X108138000Y-46101000D03*
X106238000Y-46101000D03*
D21*
X103886000Y-56962000D03*
X103886000Y-58862000D03*
D20*
X109159000Y-61976000D03*
X111059000Y-61976000D03*
D21*
X106426000Y-54930000D03*
X106426000Y-56830000D03*
D22*
X117094000Y-50589000D03*
X117094000Y-52789000D03*
X117094000Y-55669000D03*
X117094000Y-57869000D03*
D23*
X91821000Y-43370500D03*
D24*
X94321000Y-43370500D03*
X96821000Y-43370500D03*
X99321000Y-43370500D03*
D23*
X111379000Y-64135000D03*
D24*
X108879000Y-64135000D03*
X106379000Y-64135000D03*
X103879000Y-64135000D03*
X101379000Y-64135000D03*
X98879000Y-64135000D03*
X96379000Y-64135000D03*
D25*
X89324000Y-49618900D03*
X91524000Y-49618900D03*
X106088000Y-47371000D03*
X108288000Y-47371000D03*
X87088800Y-67310000D03*
X89288800Y-67310000D03*
X87088800Y-68580000D03*
X89288800Y-68580000D03*
X87088800Y-66040000D03*
X89288800Y-66040000D03*
X87088800Y-64770000D03*
X89288800Y-64770000D03*
X87088800Y-63500000D03*
X89288800Y-63500000D03*
X91524000Y-53936900D03*
X89324000Y-53936900D03*
X101938000Y-59309000D03*
X99738000Y-59309000D03*
X87088800Y-62230000D03*
X89288800Y-62230000D03*
X89324000Y-55206900D03*
X91524000Y-55206900D03*
X87088800Y-60960000D03*
X89288800Y-60960000D03*
D22*
X115824000Y-52789000D03*
X115824000Y-50589000D03*
X115824000Y-57869000D03*
X115824000Y-55669000D03*
X105156000Y-56980000D03*
X105156000Y-54780000D03*
D26*
X112732000Y-50158000D03*
D27*
X107232000Y-51308000D03*
D26*
X112732000Y-52458000D03*
D28*
X104150000Y-38140000D03*
X111750000Y-43190000D03*
X104200000Y-43190000D03*
X111700000Y-38090000D03*
X111750000Y-40640000D03*
X104150000Y-40640000D03*
D29*
X94429000Y-49905000D03*
X94429000Y-50705000D03*
X94429000Y-51505000D03*
X94429000Y-52305000D03*
X94429000Y-53105000D03*
X94429000Y-53905000D03*
X94429000Y-54705000D03*
X94429000Y-55505000D03*
D30*
X95879000Y-56955000D03*
X96679000Y-56955000D03*
X97479000Y-56955000D03*
X98279000Y-56955000D03*
X99079000Y-56955000D03*
X99879000Y-56955000D03*
X100679000Y-56955000D03*
X101479000Y-56955000D03*
D29*
X102929000Y-55505000D03*
X102929000Y-54705000D03*
X102929000Y-53905000D03*
X102929000Y-53105000D03*
X102929000Y-52305000D03*
X102929000Y-51505000D03*
X102929000Y-50705000D03*
X102929000Y-49905000D03*
D30*
X101479000Y-48455000D03*
X100679000Y-48455000D03*
X99879000Y-48455000D03*
X99079000Y-48455000D03*
X98279000Y-48455000D03*
X97479000Y-48455000D03*
X96679000Y-48455000D03*
X95879000Y-48455000D03*
D31*
X111355000Y-56957000D03*
X111355000Y-55057000D03*
X108355000Y-56007000D03*
D32*
X113622000Y-47684000D03*
X113622000Y-45534000D03*
X117772000Y-45534000D03*
X117772000Y-47684000D03*
D33*
X107989000Y-58547000D03*
X109689000Y-58547000D03*
D34*
X78105000Y-62039500D03*
X71818500Y-66103500D03*
X71882000Y-57975500D03*
D35*
X115316000Y-61531500D03*
X105156000Y-61531500D03*
D18*
X55000000Y-37500000D03*
D19*
X56650000Y-37500000D03*
X56166726Y-38666726D03*
X55000000Y-39150000D03*
X53833274Y-38666726D03*
X53350000Y-37500000D03*
X53833274Y-36333274D03*
X55000000Y-35850000D03*
X56166726Y-36333274D03*
D36*
X72527500Y-42568500D03*
D37*
X78295500Y-42100500D03*
X59285500Y-58430500D03*
D36*
X59753500Y-64198500D03*
D38*
X69756000Y-48958500D03*
X64356000Y-48958500D03*
D39*
X85852000Y-46896000D03*
X85852000Y-41496000D03*
D40*
X88773000Y-70993000D03*
X87312500Y-70993000D03*
X87312500Y-72453500D03*
X88773000Y-72453500D03*
X90233500Y-72453500D03*
X90233500Y-70993000D03*
X90868500Y-69532500D03*
X92329000Y-69532500D03*
X92329000Y-68072000D03*
X63182500Y-46228000D03*
X63182500Y-47625000D03*
X87185500Y-40132000D03*
X87185500Y-38671500D03*
X87185500Y-37211000D03*
X87185500Y-35750500D03*
X85725000Y-35750500D03*
X85725000Y-37211000D03*
X85725000Y-38671500D03*
X76962000Y-37211000D03*
X76898500Y-35750500D03*
X78422500Y-35750500D03*
X78422500Y-37211000D03*
X79883000Y-37211000D03*
X79883000Y-35750500D03*
X81343500Y-35750500D03*
X81343500Y-37211000D03*
X82804000Y-37211000D03*
X84264500Y-40132000D03*
X84264500Y-38671500D03*
X84264500Y-37211000D03*
X84264500Y-35750500D03*
X82804000Y-35750500D03*
X72580500Y-38671500D03*
X71120000Y-38671500D03*
X69659500Y-38671500D03*
X69659500Y-37211000D03*
X69659500Y-35750500D03*
X71120000Y-35750500D03*
X71120000Y-37211000D03*
X72580500Y-37211000D03*
X69659500Y-40132000D03*
X71120000Y-40132000D03*
X72580500Y-40132000D03*
X74041000Y-40132000D03*
X75501500Y-40132000D03*
X75501500Y-38671500D03*
X74041000Y-38671500D03*
X75501500Y-35750500D03*
X75501500Y-37211000D03*
X74041000Y-37211000D03*
X74041000Y-35750500D03*
X72580500Y-35750500D03*
X64516000Y-46164500D03*
X64516000Y-47625000D03*
X57340500Y-49085500D03*
X58801000Y-49085500D03*
X60261500Y-49085500D03*
X61722000Y-49085500D03*
X52959000Y-66611500D03*
X52959000Y-65151000D03*
X52959000Y-63690500D03*
X52959000Y-62230000D03*
X52959000Y-60769500D03*
X52959000Y-59309000D03*
X52959000Y-57848500D03*
X52959000Y-56388000D03*
X52959000Y-68072000D03*
X52959000Y-69532500D03*
X52959000Y-70993000D03*
X52959000Y-72453500D03*
X55880000Y-49085500D03*
X54419500Y-49085500D03*
X52959000Y-49085500D03*
X52959000Y-50546000D03*
X52959000Y-52006500D03*
X52959000Y-53467000D03*
X52959000Y-54927500D03*
X65976500Y-46164500D03*
X65976500Y-47625000D03*
X65976500Y-49085500D03*
X64516000Y-49085500D03*
X63182500Y-49085500D03*
X55880000Y-57785000D03*
X55880000Y-56388000D03*
X55880000Y-54927500D03*
X55880000Y-53467000D03*
X55880000Y-52006500D03*
X54419500Y-50546000D03*
X55880000Y-50546000D03*
X55880000Y-62230000D03*
X54419500Y-62230000D03*
X54419500Y-60769500D03*
X55880000Y-60769500D03*
X55880000Y-59309000D03*
X54419500Y-59309000D03*
X54419500Y-52006500D03*
X54419500Y-53467000D03*
X54419500Y-54927500D03*
X54419500Y-56388000D03*
X54419500Y-57785000D03*
X54419500Y-72453500D03*
X55880000Y-72453500D03*
X55880000Y-70993000D03*
X55880000Y-69532500D03*
X55880000Y-68135500D03*
X55880000Y-66675000D03*
X55880000Y-65151000D03*
X55880000Y-63690500D03*
X54419500Y-63690500D03*
X54419500Y-65151000D03*
X54419500Y-66675000D03*
X54419500Y-68072000D03*
X54419500Y-69532500D03*
X54419500Y-70993000D03*
X68008500Y-65468500D03*
X68008500Y-66548000D03*
X68008500Y-67627500D03*
X67056000Y-67627500D03*
X67056000Y-66548000D03*
X67056000Y-65468500D03*
X66675000Y-56959500D03*
X66675000Y-57912000D03*
X66675000Y-58864500D03*
X67627500Y-58864500D03*
X67627500Y-57912000D03*
X67627500Y-56959500D03*
X67627500Y-56007000D03*
X66675000Y-56007000D03*
X64198500Y-57975500D03*
X64198500Y-57023000D03*
X64198500Y-56070500D03*
X63246000Y-56070500D03*
X63246000Y-57023000D03*
X63246000Y-57975500D03*
X64198500Y-58928000D03*
X63246000Y-58928000D03*
X62293500Y-58928000D03*
X62293500Y-57975500D03*
X62293500Y-57023000D03*
X62293500Y-56070500D03*
D41*
X95885000Y-47434500D03*
X106870500Y-46164500D03*
X110299500Y-62039500D03*
X108077000Y-61976000D03*
X117094000Y-56261000D03*
X113601500Y-46799500D03*
X106616500Y-40640000D03*
X109410500Y-40640000D03*
X90487500Y-52451000D03*
X90170000Y-55181500D03*
D40*
X64897000Y-65468500D03*
X64897000Y-66548000D03*
X64897000Y-67627500D03*
X63944500Y-67627500D03*
X63944500Y-66548000D03*
X63944500Y-65468500D03*
D41*
X93345000Y-65214500D03*
X96964500Y-55626000D03*
X106426000Y-54419500D03*
X104140000Y-55372000D03*
D40*
X109474000Y-51308000D03*
X108966000Y-58547000D03*
X108331000Y-56388000D03*
D41*
X82296000Y-38925500D03*
X82296000Y-39878000D03*
X82296000Y-40830500D03*
X82296000Y-41783000D03*
X82296000Y-42735500D03*
X82296000Y-43688000D03*
X82296000Y-44640500D03*
X81280000Y-38925500D03*
X81280000Y-39878000D03*
X81280000Y-40830500D03*
X81280000Y-41783000D03*
X81280000Y-42735500D03*
X81280000Y-43688000D03*
X81280000Y-44640500D03*
X80264000Y-45593000D03*
X80264000Y-38925500D03*
X80264000Y-39878000D03*
X80264000Y-40830500D03*
X80264000Y-41783000D03*
X80264000Y-42735500D03*
X80264000Y-43688000D03*
X80264000Y-44640500D03*
X77279500Y-49657000D03*
X77279500Y-48641000D03*
X77279500Y-47625000D03*
X77279500Y-46609000D03*
X77279500Y-45593000D03*
X77279500Y-44640500D03*
X77279500Y-43688000D03*
X77279500Y-42735500D03*
X77279500Y-41783000D03*
X77279500Y-40830500D03*
X77279500Y-39878000D03*
X77279500Y-38925500D03*
X78232000Y-38925500D03*
X79184500Y-38925500D03*
X85598000Y-58039000D03*
X86360000Y-49657000D03*
X85344000Y-49657000D03*
X84328000Y-49657000D03*
X83312000Y-49657000D03*
X82296000Y-49657000D03*
X78232000Y-49657000D03*
X79248000Y-49657000D03*
X83312000Y-47625000D03*
X84328000Y-47625000D03*
X84328000Y-48641000D03*
X83312000Y-48641000D03*
X82296000Y-48641000D03*
X82296000Y-47625000D03*
X78232000Y-46609000D03*
X78232000Y-47625000D03*
X78232000Y-48641000D03*
X79248000Y-48641000D03*
X79248000Y-47625000D03*
X79248000Y-46609000D03*
X85344000Y-45593000D03*
X84328000Y-45593000D03*
X83312000Y-45593000D03*
X82296000Y-45593000D03*
X81280000Y-45593000D03*
X86360000Y-45593000D03*
X78232000Y-45593000D03*
X79248000Y-45593000D03*
X84328000Y-46609000D03*
X83312000Y-46609000D03*
X82296000Y-46609000D03*
X81280000Y-46609000D03*
X80264000Y-46609000D03*
X85344000Y-46609000D03*
X86360000Y-46609000D03*
D40*
X70421500Y-49911000D03*
X68389500Y-49911000D03*
X69405500Y-49911000D03*
X69405500Y-49022000D03*
X70421500Y-49022000D03*
X68389500Y-49022000D03*
X72390000Y-61976000D03*
X73406000Y-61976000D03*
X74422000Y-61976000D03*
X67310000Y-61976000D03*
X68326000Y-61976000D03*
X69342000Y-61976000D03*
X70358000Y-61976000D03*
X71374000Y-61976000D03*
X76708000Y-59436000D03*
X77851000Y-59436000D03*
X81280000Y-59436000D03*
X80137000Y-59436000D03*
X78994000Y-59436000D03*
X75565000Y-59436000D03*
X82423000Y-67437000D03*
X75628500Y-67437000D03*
X76708000Y-67437000D03*
X77851000Y-67437000D03*
X78994000Y-67437000D03*
X80137000Y-67437000D03*
X81280000Y-67437000D03*
X77851000Y-66294000D03*
X78994000Y-66294000D03*
X80137000Y-66294000D03*
X81280000Y-66294000D03*
X76708000Y-66294000D03*
X75628500Y-66294000D03*
X77851000Y-65151000D03*
X78994000Y-65151000D03*
X80137000Y-65151000D03*
X81280000Y-65151000D03*
X76708000Y-65151000D03*
X75628500Y-65151000D03*
X77851000Y-64008000D03*
X78994000Y-64008000D03*
X80137000Y-64008000D03*
X81280000Y-64008000D03*
X76708000Y-64008000D03*
X75628500Y-64008000D03*
X78994000Y-60579000D03*
X80137000Y-60579000D03*
X81280000Y-60579000D03*
X77851000Y-60579000D03*
X76708000Y-60579000D03*
X75565000Y-60579000D03*
X81280000Y-58293000D03*
X80137000Y-58293000D03*
X78994000Y-58293000D03*
X77851000Y-58293000D03*
X76708000Y-58293000D03*
X75565000Y-58293000D03*
X82423000Y-59436000D03*
X82423000Y-60579000D03*
X82423000Y-61722000D03*
X82423000Y-62865000D03*
X82423000Y-64008000D03*
X82423000Y-65151000D03*
X82423000Y-58293000D03*
X82423000Y-66294000D03*
X81280000Y-57150000D03*
X80137000Y-57150000D03*
X78994000Y-57150000D03*
X77851000Y-57150000D03*
X76708000Y-57150000D03*
X75565000Y-57150000D03*
X76708000Y-56007000D03*
X77851000Y-56007000D03*
X75565000Y-56007000D03*
X78994000Y-56007000D03*
X80137000Y-56007000D03*
X81280000Y-56007000D03*
X82423000Y-56007000D03*
X82423000Y-57150000D03*
D41*
X107759500Y-47434500D03*
D40*
X58102500Y-54991000D03*
X59245500Y-54991000D03*
X60388500Y-54991000D03*
D41*
X69342000Y-56007000D03*
X70358000Y-56007000D03*
X66357500Y-59817000D03*
X66357500Y-60833000D03*
X68326000Y-60833000D03*
X67310000Y-60833000D03*
X68326000Y-59817000D03*
X67310000Y-59817000D03*
X70358000Y-60833000D03*
X69342000Y-60833000D03*
X69342000Y-59817000D03*
X70358000Y-59817000D03*
X70358000Y-59817000D03*
X69342000Y-59817000D03*
X69342000Y-60833000D03*
X70358000Y-60833000D03*
X70358000Y-60833000D03*
X69342000Y-60833000D03*
X69342000Y-59817000D03*
X70358000Y-59817000D03*
X70358000Y-59817000D03*
X69342000Y-59817000D03*
X69342000Y-60833000D03*
X70358000Y-60833000D03*
X72390000Y-60833000D03*
X71374000Y-60833000D03*
X70358000Y-60833000D03*
X69342000Y-60833000D03*
X69342000Y-59817000D03*
X72390000Y-59817000D03*
X71374000Y-59817000D03*
X70358000Y-59817000D03*
X70358000Y-59817000D03*
X71374000Y-59817000D03*
X72390000Y-59817000D03*
X69342000Y-59817000D03*
X69342000Y-60833000D03*
X70358000Y-60833000D03*
X71374000Y-60833000D03*
X72390000Y-60833000D03*
X72390000Y-60833000D03*
X71374000Y-60833000D03*
X70358000Y-60833000D03*
X69342000Y-60833000D03*
X69342000Y-59817000D03*
X72390000Y-59817000D03*
X71374000Y-59817000D03*
X70358000Y-59817000D03*
X73406000Y-57848500D03*
X74422000Y-57848500D03*
X71374000Y-58801000D03*
X72390000Y-58801000D03*
X73406000Y-58801000D03*
X74422000Y-58801000D03*
X70358000Y-57848500D03*
X70358000Y-58801000D03*
X70358000Y-59817000D03*
X71374000Y-59817000D03*
X72390000Y-59817000D03*
X73406000Y-59817000D03*
X74422000Y-59817000D03*
X69342000Y-57023000D03*
X69342000Y-59817000D03*
X69342000Y-58801000D03*
X69342000Y-57848500D03*
X69342000Y-60833000D03*
X70358000Y-60833000D03*
X71374000Y-60833000D03*
X72390000Y-60833000D03*
X73406000Y-60833000D03*
X74422000Y-60833000D03*
X71374000Y-56007000D03*
X72390000Y-56007000D03*
X73406000Y-56007000D03*
X74422000Y-56007000D03*
X74422000Y-57023000D03*
X73406000Y-57023000D03*
X72390000Y-57023000D03*
X71374000Y-57023000D03*
X70358000Y-57023000D03*
D40*
X61785500Y-67818000D03*
X60642500Y-67818000D03*
X59499500Y-67818000D03*
X58356500Y-67818000D03*
X61785500Y-68961000D03*
X60642500Y-68961000D03*
X59499500Y-68961000D03*
X58356500Y-68961000D03*
X57213500Y-68961000D03*
X57213500Y-67818000D03*
X57213500Y-66675000D03*
X58356500Y-66675000D03*
X59499500Y-66675000D03*
X60642500Y-66675000D03*
X61785500Y-66675000D03*
D41*
X66294000Y-64135000D03*
X67310000Y-64135000D03*
X68326000Y-64135000D03*
X66294000Y-63119000D03*
X67310000Y-63119000D03*
X68326000Y-63119000D03*
X69342000Y-68072000D03*
X70358000Y-68072000D03*
X71437500Y-68072000D03*
X72390000Y-68072000D03*
X73406000Y-68072000D03*
X74422000Y-68072000D03*
X69342000Y-67056000D03*
X70358000Y-67056000D03*
X71437500Y-67056000D03*
X72390000Y-67056000D03*
X73406000Y-67056000D03*
X74422000Y-67056000D03*
X69342000Y-66040000D03*
X70358000Y-66040000D03*
X73406000Y-66040000D03*
X74422000Y-66040000D03*
X69342000Y-65087500D03*
X70358000Y-65087500D03*
X71374000Y-65087500D03*
X72390000Y-65087500D03*
X73406000Y-65087500D03*
X74422000Y-65087500D03*
X69342000Y-64135000D03*
X70358000Y-64135000D03*
X71374000Y-64135000D03*
X72390000Y-64135000D03*
X73406000Y-64135000D03*
X74422000Y-64135000D03*
X69342000Y-63119000D03*
X70358000Y-63119000D03*
X71374000Y-63119000D03*
X72390000Y-63119000D03*
X73406000Y-63119000D03*
X74422000Y-63119000D03*
X97472500Y-46672500D03*
X98425000Y-45275500D03*
X103759000Y-50673000D03*
X102933500Y-49911000D03*
X94488000Y-60325000D03*
X100584000Y-50736500D03*
X97409000Y-61531500D03*
X84899500Y-58991500D03*
X92456000Y-49657000D03*
X96647000Y-49784000D03*
X104394000Y-47371000D03*
X101473000Y-50927000D03*
X87579200Y-62230000D03*
X87884000Y-68478400D03*
X96647000Y-61531500D03*
X96647000Y-57848500D03*
X95948500Y-60833000D03*
X95885000Y-57848500D03*
X96901000Y-54800500D03*
X93408500Y-58229500D03*
X93408500Y-57277000D03*
X96901000Y-53911500D03*
X105283000Y-55499000D03*
X105283000Y-58928000D03*
X99631500Y-60325000D03*
X98298000Y-58039000D03*
X99060000Y-45847000D03*
X99060000Y-49847500D03*
X104394000Y-46418500D03*
X100584000Y-49784000D03*
X100711000Y-61023500D03*
X100647500Y-58102500D03*
D42*
X87312500Y-72453500D02*
X87312500Y-70993000D01*
X90233500Y-72453500D02*
X88773000Y-72453500D01*
X90233500Y-70167500D02*
X90233500Y-70993000D01*
X90868500Y-69532500D02*
X90233500Y-70167500D01*
X92329000Y-68072000D02*
X92329000Y-69532500D01*
X63182500Y-47625000D02*
X63182500Y-46228000D01*
X87185500Y-37211000D02*
X87185500Y-38671500D01*
X85725000Y-35750500D02*
X87185500Y-35750500D01*
X85725000Y-38671500D02*
X85725000Y-37211000D01*
X82804000Y-37211000D02*
X82804000Y-35750500D01*
X76962000Y-37211000D02*
X76898500Y-37147500D01*
X76898500Y-37147500D02*
X76898500Y-35750500D01*
X78422500Y-35750500D02*
X78422500Y-37211000D01*
X79883000Y-37211000D02*
X79883000Y-35750500D01*
X81343500Y-35750500D02*
X81343500Y-37211000D01*
X84264500Y-38671500D02*
X84264500Y-40132000D01*
X84264500Y-35750500D02*
X84264500Y-37211000D01*
X72580500Y-37211000D02*
X72580500Y-35750500D01*
X71120000Y-38671500D02*
X69659500Y-38671500D01*
X69659500Y-37211000D02*
X69659500Y-35750500D01*
X71120000Y-35750500D02*
X71120000Y-37211000D01*
X69659500Y-40132000D02*
X71120000Y-40132000D01*
X72580500Y-40132000D02*
X74041000Y-40132000D01*
X75501500Y-40132000D02*
X75501500Y-38671500D01*
X74041000Y-38671500D02*
X72580500Y-38671500D01*
X75501500Y-37211000D02*
X75501500Y-35750500D01*
X74041000Y-35750500D02*
X74041000Y-37211000D01*
X64300000Y-49500000D02*
X64300000Y-47841000D01*
X64300000Y-47841000D02*
X64516000Y-47625000D01*
X57340500Y-49085500D02*
X58801000Y-49085500D01*
X60261500Y-49085500D02*
X61722000Y-49085500D01*
X52959000Y-56388000D02*
X52959000Y-54927500D01*
X52959000Y-65151000D02*
X52959000Y-63690500D01*
X52959000Y-62230000D02*
X52959000Y-60769500D01*
X52959000Y-59309000D02*
X52959000Y-57848500D01*
X52959000Y-70993000D02*
X52959000Y-69532500D01*
X54419500Y-72453500D02*
X52959000Y-72453500D01*
X52959000Y-68072000D02*
X52959000Y-66611500D01*
X54419500Y-49085500D02*
X55880000Y-49085500D01*
X52959000Y-50546000D02*
X52959000Y-49085500D01*
X52959000Y-53467000D02*
X52959000Y-52006500D01*
X63182500Y-49085500D02*
X64516000Y-49085500D01*
X65976500Y-49085500D02*
X65976500Y-47625000D01*
X55880000Y-56388000D02*
X55880000Y-54927500D01*
X55880000Y-53467000D02*
X55880000Y-52006500D01*
X55880000Y-59309000D02*
X55880000Y-57785000D01*
X55880000Y-50546000D02*
X54419500Y-50546000D01*
X55880000Y-62230000D02*
X54419500Y-62230000D01*
X54419500Y-60769500D02*
X55880000Y-60769500D01*
X55880000Y-59309000D02*
X54419500Y-59309000D01*
X54419500Y-54927500D02*
X54419500Y-53467000D01*
X54419500Y-57785000D02*
X54419500Y-56388000D01*
X55880000Y-71056500D02*
X55880000Y-70993000D01*
X55880000Y-71056500D02*
X55880000Y-72453500D01*
X55880000Y-62738000D02*
X55880000Y-63690500D01*
X55880000Y-69532500D02*
X55880000Y-68135500D01*
X55880000Y-66675000D02*
X55880000Y-65151000D01*
X54419500Y-72453500D02*
X54419500Y-70993000D01*
X54419500Y-66675000D02*
X54419500Y-65151000D01*
X54419500Y-69532500D02*
X54419500Y-68072000D01*
D43*
X65780000Y-64982000D02*
X66633000Y-64982000D01*
X68008500Y-67627500D02*
X68008500Y-66548000D01*
X67056000Y-66548000D02*
X67056000Y-67627500D01*
X67056000Y-65405000D02*
X67056000Y-65468500D01*
X66633000Y-64982000D02*
X67056000Y-65405000D01*
X65780000Y-64982000D02*
X64113500Y-64982000D01*
X64113500Y-64982000D02*
X63944500Y-65151000D01*
X65780000Y-55992000D02*
X66660000Y-55992000D01*
X66675000Y-58864500D02*
X66675000Y-57912000D01*
X67627500Y-57912000D02*
X67627500Y-58864500D01*
X67627500Y-56007000D02*
X67627500Y-56959500D01*
X66660000Y-55992000D02*
X66675000Y-56007000D01*
X63246000Y-58928000D02*
X63246000Y-57975500D01*
X64198500Y-56070500D02*
X64198500Y-57023000D01*
X63246000Y-56007000D02*
X63246000Y-56070500D01*
X63246000Y-57023000D02*
X63246000Y-56007000D01*
X65780000Y-55992000D02*
X62372000Y-55992000D01*
X62293500Y-58928000D02*
X63246000Y-58928000D01*
X62293500Y-57023000D02*
X62293500Y-57975500D01*
X62372000Y-55992000D02*
X62293500Y-56070500D01*
D44*
X65780000Y-64982000D02*
X65780000Y-65468500D01*
X65780000Y-65468500D02*
X65780000Y-65982000D01*
X65780000Y-65982000D02*
X65780000Y-66982000D01*
X65780000Y-66982000D02*
X65780000Y-67982000D01*
D42*
X65780000Y-57992000D02*
X65780000Y-56992000D01*
X65780000Y-58982000D02*
X65780000Y-57992000D01*
D44*
X65780000Y-55992000D02*
X65780000Y-56992000D01*
D42*
X95879000Y-48455000D02*
X95879000Y-47440500D01*
X95879000Y-47440500D02*
X95885000Y-47434500D01*
X106870500Y-46164500D02*
X106235500Y-46164500D01*
X106235500Y-46164500D02*
X106238000Y-46101000D01*
X106426000Y-56830000D02*
X106426000Y-60325000D01*
X110299500Y-62039500D02*
X111061500Y-62039500D01*
X106426000Y-60325000D02*
X108077000Y-61976000D01*
X111061500Y-62039500D02*
X111059000Y-61976000D01*
X117094000Y-56261000D02*
X117094000Y-55753000D01*
X117094000Y-55753000D02*
X117094000Y-55669000D01*
X113622000Y-47684000D02*
X113622000Y-46820000D01*
X113622000Y-46820000D02*
X113601500Y-46799500D01*
X104150000Y-40640000D02*
X106616500Y-40640000D01*
X109410500Y-40640000D02*
X111760000Y-40640000D01*
X111760000Y-40640000D02*
X111696500Y-40640000D01*
X111696500Y-40640000D02*
X111750000Y-40640000D01*
X89324000Y-55206900D02*
X90144600Y-55206900D01*
X90487500Y-51562000D02*
X89789000Y-50863500D01*
X90487500Y-52451000D02*
X90487500Y-51562000D01*
X90144600Y-55206900D02*
X90170000Y-55181500D01*
X89789000Y-50863500D02*
X89471500Y-50863500D01*
X89471500Y-50863500D02*
X89474000Y-50888900D01*
X111059000Y-61976000D02*
X114935000Y-61976000D01*
X114935000Y-61976000D02*
X115316000Y-61595000D01*
X115316000Y-61595000D02*
X115316000Y-61531500D01*
X89324000Y-49618900D02*
X89324000Y-49550500D01*
X89324000Y-49550500D02*
X91821000Y-47053500D01*
X91821000Y-47053500D02*
X91821000Y-43434000D01*
X91821000Y-43434000D02*
X91821000Y-43370500D01*
X89324000Y-49618900D02*
X89324000Y-49446000D01*
X117094000Y-54737000D02*
X117348000Y-54483000D01*
X118110000Y-51605000D02*
X117094000Y-50589000D01*
X118110000Y-53721000D02*
X118110000Y-51605000D01*
X117348000Y-54483000D02*
X118110000Y-53721000D01*
X111355000Y-55057000D02*
X113726000Y-55057000D01*
X117094000Y-54737000D02*
X117094000Y-55669000D01*
X116840000Y-54483000D02*
X117094000Y-54737000D01*
X114300000Y-54483000D02*
X116840000Y-54483000D01*
X113726000Y-55057000D02*
X114300000Y-54483000D01*
X117094000Y-50589000D02*
X117391000Y-50589000D01*
X117094000Y-55118000D02*
X117094000Y-54991000D01*
X117094000Y-54991000D02*
X117094000Y-55669000D01*
X117094000Y-50589000D02*
X117094000Y-47684000D01*
X117094000Y-47684000D02*
X117094000Y-47879000D01*
X117094000Y-47879000D02*
X117094000Y-47684000D01*
X113622000Y-47684000D02*
X117094000Y-47684000D01*
X117094000Y-47684000D02*
X117772000Y-47684000D01*
X89324000Y-49618900D02*
X89324000Y-50738900D01*
X89324000Y-50738900D02*
X89474000Y-50888900D01*
X101938000Y-59309000D02*
X102235000Y-59309000D01*
X102235000Y-59309000D02*
X102682000Y-58862000D01*
X102682000Y-58862000D02*
X103886000Y-58862000D01*
X101479000Y-56955000D02*
X101479000Y-58850000D01*
X101479000Y-58850000D02*
X101938000Y-59309000D01*
X105156000Y-56980000D02*
X106276000Y-56980000D01*
X106276000Y-56980000D02*
X106426000Y-56830000D01*
X103886000Y-58862000D02*
X104206000Y-58862000D01*
X104206000Y-58862000D02*
X105156000Y-57912000D01*
X105156000Y-57912000D02*
X105156000Y-56980000D01*
X111379000Y-64135000D02*
X111379000Y-62296000D01*
X111379000Y-62296000D02*
X111059000Y-61976000D01*
D43*
X63944500Y-65151000D02*
X63944500Y-65468500D01*
X64897000Y-67627500D02*
X64897000Y-66548000D01*
X63944500Y-66548000D02*
X63944500Y-67627500D01*
D42*
X94321000Y-43370500D02*
X94321000Y-49887500D01*
X94321000Y-49887500D02*
X94297500Y-49911000D01*
X94297500Y-49911000D02*
X94429000Y-49905000D01*
X91630500Y-65405000D02*
X89725500Y-67310000D01*
X93154500Y-65405000D02*
X93345000Y-65214500D01*
X91630500Y-65405000D02*
X93154500Y-65405000D01*
X96964500Y-55626000D02*
X96964500Y-55562500D01*
X96964500Y-55562500D02*
X96964500Y-55626000D01*
X96964500Y-55626000D02*
X96964500Y-55562500D01*
X89288800Y-67310000D02*
X89725500Y-67310000D01*
D44*
X102929000Y-55505000D02*
X104007000Y-55505000D01*
X106426000Y-54419500D02*
X106426000Y-54930000D01*
X104007000Y-55505000D02*
X104140000Y-55372000D01*
X94429000Y-53105000D02*
X95650000Y-53105000D01*
X96393000Y-55562500D02*
X96964500Y-55562500D01*
X96964500Y-55562500D02*
X102871500Y-55562500D01*
X96012000Y-55181500D02*
X96393000Y-55562500D01*
X96012000Y-53467000D02*
X96012000Y-55181500D01*
X95650000Y-53105000D02*
X96012000Y-53467000D01*
X102871500Y-55562500D02*
X102929000Y-55505000D01*
X94429000Y-49905000D02*
X93287500Y-49905000D01*
X92303600Y-50888900D02*
X91374000Y-50888900D01*
X93287500Y-49905000D02*
X92303600Y-50888900D01*
X94429000Y-53105000D02*
X93237000Y-53105000D01*
X92100400Y-50888900D02*
X91374000Y-50888900D01*
X92202000Y-50990500D02*
X92100400Y-50888900D01*
X92202000Y-52070000D02*
X92202000Y-50990500D01*
X93237000Y-53105000D02*
X92202000Y-52070000D01*
X112732000Y-50158000D02*
X110624000Y-50158000D01*
X110624000Y-50158000D02*
X109474000Y-51308000D01*
X109689000Y-58547000D02*
X108966000Y-58547000D01*
X108331000Y-56388000D02*
X108355000Y-56364000D01*
X108355000Y-56364000D02*
X108355000Y-56007000D01*
X108331000Y-56007000D02*
X108355000Y-56007000D01*
X106426000Y-54930000D02*
X106873000Y-54930000D01*
X106873000Y-54930000D02*
X107950000Y-56007000D01*
X107950000Y-56007000D02*
X108355000Y-56007000D01*
X103384000Y-55505000D02*
X103886000Y-56007000D01*
X103886000Y-56007000D02*
X103886000Y-56962000D01*
D42*
X102929000Y-55505000D02*
X103257000Y-55505000D01*
X108331000Y-56007000D02*
X108355000Y-56007000D01*
X106426000Y-54930000D02*
X106619000Y-54930000D01*
X107696000Y-56007000D02*
X108355000Y-56007000D01*
X112732000Y-50158000D02*
X115393000Y-50158000D01*
X115393000Y-50158000D02*
X115824000Y-50589000D01*
X102929000Y-55505000D02*
X103511000Y-55505000D01*
X107823000Y-56007000D02*
X108355000Y-56007000D01*
X89288800Y-68580000D02*
X89288800Y-67310000D01*
X82296000Y-40830500D02*
X82296000Y-39878000D01*
X82296000Y-42735500D02*
X82296000Y-41783000D01*
X82296000Y-44640500D02*
X82296000Y-43688000D01*
X81280000Y-45593000D02*
X81280000Y-44640500D01*
X81280000Y-39878000D02*
X81280000Y-38925500D01*
X81280000Y-41783000D02*
X81280000Y-40830500D01*
X81280000Y-43688000D02*
X81280000Y-42735500D01*
X80264000Y-40830500D02*
X80264000Y-39878000D01*
X80264000Y-42735500D02*
X80264000Y-41783000D01*
X80264000Y-44640500D02*
X80264000Y-43688000D01*
X77279500Y-48641000D02*
X77279500Y-47625000D01*
X77279500Y-46609000D02*
X77279500Y-45593000D01*
X77279500Y-49657000D02*
X78232000Y-49657000D01*
X77279500Y-44640500D02*
X77279500Y-43688000D01*
X77279500Y-42735500D02*
X77279500Y-41783000D01*
X77279500Y-40830500D02*
X77279500Y-39878000D01*
X77279500Y-38925500D02*
X78232000Y-38925500D01*
X84137500Y-58039000D02*
X85598000Y-58039000D01*
X84137500Y-58039000D02*
X84080000Y-58002000D01*
X84137500Y-57975500D02*
X84080000Y-58002000D01*
X84080000Y-58002000D02*
X83592500Y-58002000D01*
X84328000Y-49657000D02*
X85344000Y-49657000D01*
X82296000Y-49657000D02*
X83312000Y-49657000D01*
X78232000Y-48641000D02*
X78232000Y-49657000D01*
X82296000Y-46609000D02*
X82296000Y-47625000D01*
X84328000Y-48641000D02*
X84328000Y-47625000D01*
X82296000Y-48641000D02*
X83312000Y-48641000D01*
X78232000Y-46609000D02*
X78232000Y-47625000D01*
X78232000Y-48641000D02*
X79248000Y-48641000D01*
X79248000Y-47625000D02*
X79248000Y-46609000D01*
X86360000Y-45593000D02*
X85344000Y-45593000D01*
X84328000Y-45593000D02*
X83312000Y-45593000D01*
X82296000Y-45593000D02*
X81280000Y-45593000D01*
X79248000Y-45593000D02*
X78232000Y-45593000D01*
X84328000Y-46609000D02*
X85344000Y-46609000D01*
X82296000Y-46609000D02*
X83312000Y-46609000D01*
X80264000Y-46609000D02*
X81280000Y-46609000D01*
X86360000Y-46609000D02*
X86042500Y-47158000D01*
X69405500Y-49911000D02*
X70358000Y-49911000D01*
X70421500Y-49911000D02*
X70421500Y-49022000D01*
X70421500Y-49911000D02*
X70421500Y-49022000D01*
X70421500Y-49911000D02*
X70421500Y-49911000D01*
X70358000Y-49911000D02*
X70421500Y-49911000D01*
X70421500Y-49022000D02*
X69756000Y-48958500D01*
X69405500Y-49911000D02*
X68389500Y-49911000D01*
D43*
X71374000Y-61976000D02*
X72390000Y-61976000D01*
X73406000Y-61976000D02*
X74422000Y-61976000D01*
X68326000Y-61976000D02*
X69342000Y-61976000D01*
X75565000Y-59436000D02*
X76708000Y-59436000D01*
X78994000Y-59436000D02*
X80137000Y-59436000D01*
X82423000Y-67437000D02*
X81280000Y-67437000D01*
X82423000Y-66294000D02*
X82423000Y-67437000D01*
X77851000Y-67437000D02*
X76708000Y-67437000D01*
X80137000Y-67437000D02*
X78994000Y-67437000D01*
X82423000Y-66294000D02*
X81280000Y-66294000D01*
X80137000Y-66294000D02*
X78994000Y-66294000D01*
X77851000Y-66294000D02*
X76708000Y-66294000D01*
X75628500Y-66294000D02*
X78020000Y-62032000D01*
X82423000Y-65151000D02*
X81280000Y-65151000D01*
X80137000Y-65151000D02*
X78994000Y-65151000D01*
X77851000Y-65151000D02*
X76708000Y-65151000D01*
X75628500Y-65151000D02*
X78020000Y-62032000D01*
X82423000Y-64008000D02*
X81280000Y-64008000D01*
X80137000Y-64008000D02*
X78994000Y-64008000D01*
X77851000Y-64008000D02*
X76708000Y-64008000D01*
X75628500Y-64008000D02*
X78020000Y-62032000D01*
X82423000Y-60579000D02*
X81280000Y-60579000D01*
X80137000Y-60579000D02*
X78994000Y-60579000D01*
X77851000Y-60579000D02*
X76708000Y-60579000D01*
X75565000Y-60579000D02*
X78020000Y-62032000D01*
X81280000Y-58293000D02*
X80137000Y-58293000D01*
X78994000Y-58293000D02*
X77851000Y-58293000D01*
X76708000Y-58293000D02*
X75565000Y-58293000D01*
X82423000Y-59436000D02*
X82423000Y-60579000D01*
X82423000Y-61722000D02*
X82423000Y-62865000D01*
X82423000Y-64008000D02*
X82423000Y-65151000D01*
X82423000Y-57150000D02*
X82423000Y-58293000D01*
X81280000Y-57150000D02*
X80137000Y-57150000D01*
X78994000Y-57150000D02*
X77851000Y-57150000D01*
X76708000Y-57150000D02*
X75565000Y-57150000D01*
X76708000Y-56007000D02*
X77851000Y-56007000D01*
X78994000Y-56007000D02*
X80137000Y-56007000D01*
X81280000Y-56007000D02*
X82423000Y-56007000D01*
D44*
X84080000Y-57002000D02*
X84080000Y-56002000D01*
D42*
X84080000Y-56002000D02*
X85476000Y-56002000D01*
X87541100Y-53936900D02*
X89324000Y-53936900D01*
X85476000Y-56002000D02*
X87541100Y-53936900D01*
X81100000Y-57012000D02*
X76760500Y-57012000D01*
X76760500Y-57012000D02*
X78020000Y-58271500D01*
X78020000Y-58271500D02*
X78020000Y-62032000D01*
X84080000Y-57002000D02*
X81110000Y-57002000D01*
X81110000Y-57002000D02*
X81100000Y-57012000D01*
X81180000Y-67002000D02*
X76317500Y-67002000D01*
X76317500Y-67002000D02*
X78020000Y-65299500D01*
X78020000Y-65299500D02*
X78020000Y-62032000D01*
X81180000Y-67002000D02*
X84080000Y-67002000D01*
X65780000Y-61982000D02*
X77970000Y-61982000D01*
X77970000Y-61982000D02*
X78020000Y-62032000D01*
D44*
X84080000Y-68002000D02*
X84080000Y-67002000D01*
D42*
X107759500Y-47434500D02*
X107823000Y-47371000D01*
X107823000Y-47371000D02*
X108288000Y-47371000D01*
X108138000Y-46101000D02*
X113055000Y-46101000D01*
X113055000Y-46101000D02*
X113622000Y-45534000D01*
X108288000Y-47371000D02*
X108288000Y-46251000D01*
X108288000Y-46251000D02*
X108138000Y-46101000D01*
X117772000Y-45534000D02*
X113622000Y-45534000D01*
D44*
X107989000Y-58547000D02*
X107989000Y-60806000D01*
X107989000Y-60806000D02*
X109159000Y-61976000D01*
X108879000Y-64135000D02*
X108879000Y-62256000D01*
X108879000Y-62256000D02*
X109159000Y-61976000D01*
X107989000Y-58547000D02*
X107989000Y-58000000D01*
X109032000Y-56957000D02*
X111355000Y-56957000D01*
X107989000Y-58000000D02*
X109032000Y-56957000D01*
D42*
X111355000Y-56957000D02*
X112842000Y-56957000D01*
X112842000Y-56957000D02*
X114130000Y-55669000D01*
X114130000Y-55669000D02*
X115824000Y-55669000D01*
X108879000Y-62256000D02*
X109159000Y-61976000D01*
X117094000Y-52789000D02*
X115824000Y-52789000D01*
X115824000Y-57869000D02*
X117094000Y-57869000D01*
X59285500Y-58430500D02*
X59285500Y-56174000D01*
X59285500Y-56174000D02*
X58102500Y-54991000D01*
X59245500Y-54991000D02*
X60388500Y-54991000D01*
X67710000Y-59982000D02*
X69720000Y-59982000D01*
X67710000Y-59982000D02*
X69720000Y-59982000D01*
X67710000Y-59982000D02*
X69720000Y-59982000D01*
X67710000Y-59982000D02*
X69720000Y-59982000D01*
X67710000Y-59982000D02*
X69720000Y-59982000D01*
X67710000Y-59982000D02*
X69720000Y-59982000D01*
X67710000Y-59982000D02*
X69720000Y-59982000D01*
X68100000Y-55002000D02*
X78880000Y-55002000D01*
D44*
X65780000Y-54992000D02*
X68090000Y-54992000D01*
X68090000Y-54992000D02*
X68100000Y-55002000D01*
D42*
X67710000Y-59982000D02*
X69720000Y-59982000D01*
D44*
X65780000Y-60982000D02*
X65780000Y-60407200D01*
X65780000Y-60344400D02*
X65780000Y-59982000D01*
X65786000Y-60350400D02*
X65780000Y-60344400D01*
X65786000Y-60401200D02*
X65786000Y-60350400D01*
X65780000Y-60407200D02*
X65786000Y-60401200D01*
X65780000Y-59982000D02*
X67710000Y-59982000D01*
X84080000Y-55002000D02*
X78880000Y-55002000D01*
D42*
X67310000Y-60833000D02*
X66357500Y-60833000D01*
X66357500Y-59817000D02*
X67310000Y-59817000D01*
X68326000Y-59817000D02*
X68326000Y-60833000D01*
X70358000Y-60833000D02*
X71374000Y-60833000D01*
X69342000Y-59817000D02*
X69342000Y-60833000D01*
X70358000Y-58801000D02*
X70358000Y-59817000D01*
X70358000Y-58801000D02*
X70358000Y-59817000D01*
X69342000Y-59817000D02*
X69342000Y-60833000D01*
X70358000Y-60833000D02*
X71374000Y-60833000D01*
X70358000Y-60833000D02*
X71374000Y-60833000D01*
X69342000Y-59817000D02*
X69342000Y-60833000D01*
X70358000Y-58801000D02*
X70358000Y-59817000D01*
X70358000Y-58801000D02*
X70358000Y-59817000D01*
X69342000Y-59817000D02*
X69342000Y-60833000D01*
X70358000Y-60833000D02*
X71374000Y-60833000D01*
X72390000Y-60833000D02*
X73406000Y-60833000D01*
X70358000Y-60833000D02*
X71374000Y-60833000D01*
X69342000Y-59817000D02*
X69342000Y-60833000D01*
X71374000Y-59817000D02*
X72390000Y-59817000D01*
X70358000Y-58801000D02*
X70358000Y-59817000D01*
X70358000Y-58801000D02*
X70358000Y-59817000D01*
X71374000Y-59817000D02*
X72390000Y-59817000D01*
X69342000Y-59817000D02*
X69342000Y-60833000D01*
X70358000Y-60833000D02*
X71374000Y-60833000D01*
X72390000Y-60833000D02*
X73406000Y-60833000D01*
X72390000Y-60833000D02*
X73406000Y-60833000D01*
X70358000Y-60833000D02*
X71374000Y-60833000D01*
X69342000Y-59817000D02*
X69342000Y-60833000D01*
X71374000Y-59817000D02*
X72390000Y-59817000D01*
X70358000Y-58801000D02*
X70358000Y-59817000D01*
X71870000Y-57832000D02*
X73389500Y-57832000D01*
X73389500Y-57832000D02*
X73406000Y-57848500D01*
X74422000Y-57848500D02*
X71870000Y-57832000D01*
X72390000Y-58801000D02*
X73406000Y-58801000D01*
X74422000Y-58801000D02*
X71870000Y-57832000D01*
X71870000Y-57832000D02*
X70374500Y-57832000D01*
X70374500Y-57832000D02*
X70358000Y-57848500D01*
X70358000Y-58801000D02*
X70358000Y-59817000D01*
X71374000Y-59817000D02*
X72390000Y-59817000D01*
X73406000Y-59817000D02*
X74422000Y-59817000D01*
X70358000Y-57023000D02*
X69342000Y-57023000D01*
X69342000Y-57848500D02*
X69342000Y-58801000D01*
X69342000Y-59817000D02*
X69342000Y-60833000D01*
X70358000Y-60833000D02*
X71374000Y-60833000D01*
X72390000Y-60833000D02*
X73406000Y-60833000D01*
X74422000Y-60833000D02*
X71870000Y-57832000D01*
X71870000Y-57832000D02*
X71870000Y-56503000D01*
X71870000Y-56503000D02*
X71374000Y-56007000D01*
X73406000Y-56007000D02*
X74422000Y-56007000D01*
X74422000Y-57023000D02*
X73406000Y-57023000D01*
X72390000Y-57023000D02*
X71374000Y-57023000D01*
X60642500Y-67818000D02*
X61785500Y-67818000D01*
X58356500Y-67818000D02*
X59499500Y-67818000D01*
X60642500Y-68961000D02*
X61785500Y-68961000D01*
X58356500Y-68961000D02*
X59499500Y-68961000D01*
X57213500Y-67818000D02*
X57213500Y-68961000D01*
X57213500Y-66675000D02*
X58356500Y-66675000D01*
X59499500Y-66675000D02*
X60642500Y-66675000D01*
X72898000Y-68643500D02*
X72390000Y-68135500D01*
X72390000Y-68135500D02*
X71870000Y-66162000D01*
X72865500Y-68992000D02*
X78900000Y-68992000D01*
X84080000Y-68992000D02*
X78900000Y-68992000D01*
X68326000Y-64135000D02*
X67310000Y-64135000D01*
X66294000Y-64135000D02*
X66294000Y-63119000D01*
X67310000Y-63119000D02*
X68326000Y-63119000D01*
X71870000Y-65908000D02*
X71506000Y-65908000D01*
X71506000Y-65908000D02*
X69342000Y-68072000D01*
X70358000Y-68072000D02*
X71437500Y-68072000D01*
X72390000Y-68072000D02*
X73406000Y-68072000D01*
X74422000Y-68072000D02*
X71870000Y-65908000D01*
X71870000Y-65908000D02*
X70490000Y-65908000D01*
X70490000Y-65908000D02*
X69342000Y-67056000D01*
X70358000Y-67056000D02*
X71437500Y-67056000D01*
X72390000Y-67056000D02*
X73406000Y-67056000D01*
X74422000Y-67056000D02*
X71870000Y-65908000D01*
X71870000Y-65908000D02*
X69474000Y-65908000D01*
X69474000Y-65908000D02*
X69342000Y-66040000D01*
X70358000Y-66040000D02*
X73406000Y-66040000D01*
X74422000Y-66040000D02*
X71870000Y-65908000D01*
X71818500Y-65849500D02*
X70104000Y-65849500D01*
X70104000Y-65849500D02*
X69342000Y-65087500D01*
X70358000Y-65087500D02*
X71374000Y-65087500D01*
X72390000Y-65087500D02*
X73406000Y-65087500D01*
X74422000Y-65087500D02*
X71870000Y-65908000D01*
X71870000Y-65908000D02*
X71115000Y-65908000D01*
X71115000Y-65908000D02*
X69342000Y-64135000D01*
X70358000Y-64135000D02*
X71374000Y-64135000D01*
X72390000Y-64135000D02*
X73406000Y-64135000D01*
X74422000Y-64135000D02*
X71870000Y-65908000D01*
X71870000Y-65908000D02*
X71870000Y-65520000D01*
X71743000Y-65520000D02*
X69342000Y-63119000D01*
X70358000Y-63119000D02*
X71374000Y-63119000D01*
X72390000Y-63119000D02*
X73406000Y-63119000D01*
X71870000Y-65908000D02*
X71870000Y-67742500D01*
X71870000Y-67742500D02*
X72865500Y-68738000D01*
X67900000Y-63758000D02*
X69720000Y-63758000D01*
X69720000Y-63758000D02*
X71870000Y-65908000D01*
D44*
X65780000Y-62982000D02*
X65780000Y-63341600D01*
X65786000Y-63347600D02*
X65786000Y-63976000D01*
X65780000Y-63341600D02*
X65786000Y-63347600D01*
X65786000Y-63976000D02*
X65822000Y-64012000D01*
X65822000Y-64012000D02*
X67900000Y-64012000D01*
D42*
X96821000Y-43370500D02*
X96821000Y-44941500D01*
X98298000Y-46418500D02*
X98298000Y-48641000D01*
X96821000Y-44941500D02*
X98298000Y-46418500D01*
X98298000Y-48641000D02*
X98279000Y-48455000D01*
X99321000Y-43370500D02*
X99321000Y-44379500D01*
X97472500Y-46672500D02*
X97472500Y-48577500D01*
X99321000Y-44379500D02*
X98425000Y-45275500D01*
X97472500Y-48577500D02*
X97479000Y-48455000D01*
X102929000Y-50705000D02*
X103727000Y-50705000D01*
X103727000Y-50705000D02*
X103759000Y-50673000D01*
X102933500Y-49911000D02*
X102929000Y-49906500D01*
X102929000Y-49906500D02*
X102929000Y-49905000D01*
X94429000Y-55505000D02*
X94429000Y-60266000D01*
X94429000Y-60266000D02*
X94488000Y-60325000D01*
X101479000Y-49841500D02*
X100584000Y-50736500D01*
X97409000Y-61531500D02*
X97409000Y-62166500D01*
X97409000Y-62166500D02*
X97409000Y-63246000D01*
X96520000Y-64135000D02*
X97409000Y-63246000D01*
X101479000Y-49841500D02*
X101479000Y-48455000D01*
X96520000Y-64135000D02*
X96379000Y-64135000D01*
X84899500Y-58991500D02*
X84836000Y-59055000D01*
X84836000Y-59055000D02*
X84137500Y-59055000D01*
X84137500Y-59055000D02*
X84080000Y-59002000D01*
X84137500Y-58991500D02*
X84080000Y-59002000D01*
X84201000Y-58991500D02*
X84080000Y-59002000D01*
X96679000Y-48455000D02*
X96679000Y-49752000D01*
X92417900Y-49618900D02*
X91524000Y-49618900D01*
X92456000Y-49657000D02*
X92417900Y-49618900D01*
X96679000Y-49752000D02*
X96647000Y-49784000D01*
X94429000Y-52305000D02*
X98063000Y-52305000D01*
X104394000Y-47371000D02*
X106088000Y-47371000D01*
X100584000Y-51816000D02*
X101473000Y-50927000D01*
X98552000Y-51816000D02*
X100584000Y-51816000D01*
X98063000Y-52305000D02*
X98552000Y-51816000D01*
X87088800Y-64770000D02*
X87630000Y-64770000D01*
X87630000Y-64770000D02*
X88138000Y-65278000D01*
X88138000Y-66802000D02*
X87630000Y-67310000D01*
X88138000Y-65278000D02*
X88138000Y-66802000D01*
X87630000Y-67310000D02*
X87088800Y-67310000D01*
X84080000Y-65002000D02*
X85620000Y-65002000D01*
X85852000Y-64770000D02*
X87088800Y-64770000D01*
X85620000Y-65002000D02*
X85852000Y-64770000D01*
X87088800Y-68580000D02*
X87782400Y-68580000D01*
X87579200Y-62230000D02*
X87088800Y-62230000D01*
X87782400Y-68580000D02*
X87884000Y-68478400D01*
X87088800Y-68580000D02*
X87172800Y-68580000D01*
X84080000Y-61002000D02*
X84878000Y-61002000D01*
X84878000Y-61002000D02*
X86106000Y-62230000D01*
X86106000Y-62230000D02*
X87088800Y-62230000D01*
X87088800Y-66040000D02*
X84118000Y-66040000D01*
X84118000Y-66040000D02*
X84080000Y-66002000D01*
X89288800Y-66040000D02*
X89789000Y-66040000D01*
X89789000Y-66040000D02*
X91059000Y-64770000D01*
X91059000Y-64770000D02*
X92756060Y-64770000D01*
X92756060Y-64770000D02*
X95994560Y-61531500D01*
X95994560Y-61531500D02*
X96647000Y-61531500D01*
X96647000Y-57848500D02*
X96679000Y-57816500D01*
X96679000Y-57816500D02*
X96679000Y-56955000D01*
X89288800Y-64770000D02*
X89881002Y-64770000D01*
X89881002Y-64770000D02*
X90516002Y-64135000D01*
X90516002Y-64135000D02*
X92542530Y-64135000D01*
X92542530Y-64135000D02*
X95844530Y-60833000D01*
X95844530Y-60833000D02*
X95948500Y-60833000D01*
X95885000Y-57848500D02*
X95879000Y-57842500D01*
X95879000Y-57842500D02*
X95879000Y-56955000D01*
X84080000Y-63002000D02*
X85354000Y-63002000D01*
X85852000Y-63500000D02*
X87088800Y-63500000D01*
X85354000Y-63002000D02*
X85852000Y-63500000D01*
X89288800Y-63500000D02*
X92329000Y-63500000D01*
X96520000Y-59309000D02*
X99738000Y-59309000D01*
X92329000Y-63500000D02*
X96520000Y-59309000D01*
X99879000Y-56955000D02*
X99879000Y-59168000D01*
X99879000Y-59168000D02*
X99738000Y-59309000D01*
X91524000Y-53936900D02*
X94397100Y-53936900D01*
X94397100Y-53936900D02*
X94429000Y-53905000D01*
X91524000Y-55206900D02*
X91524000Y-53936900D01*
X89288800Y-62230000D02*
X89789000Y-62230000D01*
X89789000Y-62230000D02*
X90435515Y-61583485D01*
X96933000Y-54705000D02*
X102929000Y-54705000D01*
X96901000Y-54737000D02*
X96933000Y-54705000D01*
X96901000Y-54800500D02*
X96901000Y-54737000D01*
X90435515Y-61202485D02*
X93408500Y-58229500D01*
X90435515Y-61583485D02*
X90435515Y-61202485D01*
X84080000Y-60002000D02*
X85148000Y-60002000D01*
X86106000Y-60960000D02*
X87088800Y-60960000D01*
X85148000Y-60002000D02*
X86106000Y-60960000D01*
X102929000Y-53905000D02*
X96907500Y-53905000D01*
X93408500Y-57277000D02*
X89725500Y-60960000D01*
X96907500Y-53905000D02*
X96901000Y-53911500D01*
X89725500Y-60960000D02*
X89288800Y-60960000D01*
X89288800Y-60960000D02*
X89535000Y-60960000D01*
X98279000Y-56955000D02*
X98279000Y-58020000D01*
X105283000Y-55499000D02*
X105156000Y-55372000D01*
X105283000Y-59436000D02*
X105283000Y-58928000D01*
X104394000Y-60325000D02*
X105283000Y-59436000D01*
X99631500Y-60325000D02*
X104394000Y-60325000D01*
X98279000Y-58020000D02*
X98298000Y-58039000D01*
X105156000Y-55372000D02*
X105156000Y-54780000D01*
X107232000Y-51308000D02*
X107696000Y-51308000D01*
X107696000Y-51308000D02*
X108846000Y-52458000D01*
X108846000Y-52458000D02*
X112732000Y-52458000D01*
X105156000Y-54780000D02*
X105156000Y-52959000D01*
X105156000Y-52959000D02*
X106807000Y-51308000D01*
X106807000Y-51308000D02*
X107232000Y-51308000D01*
X94429000Y-50705000D02*
X95726000Y-50705000D01*
X102044500Y-39433500D02*
X103338000Y-38140000D01*
X102044500Y-41402000D02*
X102044500Y-39433500D01*
X101473000Y-41973500D02*
X102044500Y-41402000D01*
X101473000Y-43434000D02*
X101473000Y-41973500D01*
X99060000Y-45847000D02*
X101473000Y-43434000D01*
X97599500Y-49847500D02*
X99060000Y-49847500D01*
X96964500Y-50482500D02*
X97599500Y-49847500D01*
X95948500Y-50482500D02*
X96964500Y-50482500D01*
X95726000Y-50705000D02*
X95948500Y-50482500D01*
X103338000Y-38140000D02*
X104150000Y-38140000D01*
X103211000Y-38140000D02*
X104150000Y-38140000D01*
X94429000Y-51505000D02*
X95843502Y-51505000D01*
X109537500Y-44386500D02*
X110734000Y-43190000D01*
X105791000Y-44386500D02*
X109537500Y-44386500D01*
X105092500Y-45085000D02*
X105791000Y-44386500D01*
X105092500Y-45720000D02*
X105092500Y-45085000D01*
X104394000Y-46418500D02*
X105092500Y-45720000D01*
X100076000Y-49784000D02*
X100584000Y-49784000D01*
X99314000Y-50546000D02*
X100076000Y-49784000D01*
X97853500Y-50546000D02*
X99314000Y-50546000D01*
X97316998Y-51082502D02*
X97853500Y-50546000D01*
X96266000Y-51082502D02*
X97316998Y-51082502D01*
X95843502Y-51505000D02*
X96266000Y-51082502D01*
X110734000Y-43190000D02*
X111750000Y-43190000D01*
X110797500Y-43190000D02*
X111750000Y-43190000D01*
X99879000Y-48455000D02*
X99879000Y-46869500D01*
X99879000Y-46869500D02*
X103558500Y-43190000D01*
X103558500Y-43190000D02*
X104200000Y-43190000D01*
X99079000Y-48455000D02*
X99079000Y-46780500D01*
X106934000Y-41910000D02*
X110754000Y-38090000D01*
X102489000Y-41910000D02*
X106934000Y-41910000D01*
X102171500Y-42227500D02*
X102489000Y-41910000D01*
X102171500Y-43688000D02*
X102171500Y-42227500D01*
X99079000Y-46780500D02*
X102171500Y-43688000D01*
X110754000Y-38090000D02*
X111700000Y-38090000D01*
X110563500Y-38090000D02*
X111700000Y-38090000D01*
X100679000Y-56955000D02*
X100679000Y-58071000D01*
X101219000Y-61531500D02*
X105156000Y-61531500D01*
X100711000Y-61023500D02*
X101219000Y-61531500D01*
X100679000Y-58071000D02*
X100647500Y-58102500D01*
D45*
G36*
X84772500Y-55245000D02*
X74803000Y-55245000D01*
X74767619Y-55250028D01*
X74735039Y-55264714D01*
X74707840Y-55287895D01*
X74688177Y-55317736D01*
X74677605Y-55351873D01*
X74676000Y-55372000D01*
X74676000Y-61277500D01*
X66655726Y-61277500D01*
X66648658Y-61274314D01*
X66542000Y-61259157D01*
X65018000Y-61259157D01*
X64957327Y-61263995D01*
X64913719Y-61277500D01*
X57658000Y-61277500D01*
X57658000Y-55435500D01*
X61468000Y-55435500D01*
X61468000Y-59499500D01*
X61473028Y-59534881D01*
X61487714Y-59567461D01*
X61510895Y-59594660D01*
X61540736Y-59614323D01*
X61574873Y-59624895D01*
X61595000Y-59626500D01*
X64790937Y-59626500D01*
X64813130Y-59645415D01*
X64911342Y-59689686D01*
X65018000Y-59704843D01*
X66542000Y-59704843D01*
X66602673Y-59700005D01*
X66705580Y-59668136D01*
X66768765Y-59626500D01*
X68643500Y-59626500D01*
X68678881Y-59621472D01*
X68711461Y-59606786D01*
X68738660Y-59583605D01*
X68758323Y-59553764D01*
X68768895Y-59519627D01*
X68770500Y-59499500D01*
X68770500Y-55435500D01*
X68765472Y-55400119D01*
X68750786Y-55367539D01*
X68727605Y-55340340D01*
X68697764Y-55320677D01*
X68663627Y-55310105D01*
X68643500Y-55308500D01*
X66702312Y-55308500D01*
X66648658Y-55284314D01*
X66542000Y-55269157D01*
X65018000Y-55269157D01*
X64957327Y-55273995D01*
X64854420Y-55305864D01*
X64850420Y-55308500D01*
X61595000Y-55308500D01*
X61559619Y-55313528D01*
X61527039Y-55328214D01*
X61499840Y-55351395D01*
X61480177Y-55381236D01*
X61469605Y-55415373D01*
X61468000Y-55435500D01*
X57658000Y-55435500D01*
X57658000Y-51181000D01*
X84772500Y-51181000D01*
X84772500Y-55245000D01*
X84772500Y-55245000D01*
G37*
X84772500Y-55245000D02*
X74803000Y-55245000D01*
X74767619Y-55250028D01*
X74735039Y-55264714D01*
X74707840Y-55287895D01*
X74688177Y-55317736D01*
X74677605Y-55351873D01*
X74676000Y-55372000D01*
X74676000Y-61277500D01*
X66655726Y-61277500D01*
X66648658Y-61274314D01*
X66542000Y-61259157D01*
X65018000Y-61259157D01*
X64957327Y-61263995D01*
X64913719Y-61277500D01*
X57658000Y-61277500D01*
X57658000Y-55435500D01*
X61468000Y-55435500D01*
X61468000Y-59499500D01*
X61473028Y-59534881D01*
X61487714Y-59567461D01*
X61510895Y-59594660D01*
X61540736Y-59614323D01*
X61574873Y-59624895D01*
X61595000Y-59626500D01*
X64790937Y-59626500D01*
X64813130Y-59645415D01*
X64911342Y-59689686D01*
X65018000Y-59704843D01*
X66542000Y-59704843D01*
X66602673Y-59700005D01*
X66705580Y-59668136D01*
X66768765Y-59626500D01*
X68643500Y-59626500D01*
X68678881Y-59621472D01*
X68711461Y-59606786D01*
X68738660Y-59583605D01*
X68758323Y-59553764D01*
X68768895Y-59519627D01*
X68770500Y-59499500D01*
X68770500Y-55435500D01*
X68765472Y-55400119D01*
X68750786Y-55367539D01*
X68727605Y-55340340D01*
X68697764Y-55320677D01*
X68663627Y-55310105D01*
X68643500Y-55308500D01*
X66702312Y-55308500D01*
X66648658Y-55284314D01*
X66542000Y-55269157D01*
X65018000Y-55269157D01*
X64957327Y-55273995D01*
X64854420Y-55305864D01*
X64850420Y-55308500D01*
X61595000Y-55308500D01*
X61559619Y-55313528D01*
X61527039Y-55328214D01*
X61499840Y-55351395D01*
X61480177Y-55381236D01*
X61469605Y-55415373D01*
X61468000Y-55435500D01*
X57658000Y-55435500D01*
X57658000Y-51181000D01*
X84772500Y-51181000D01*
X84772500Y-55245000D01*
G36*
X74549000Y-68516500D02*
X74554028Y-68551881D01*
X74568714Y-68584461D01*
X74591895Y-68611660D01*
X74621736Y-68631323D01*
X74655873Y-68641895D01*
X74676000Y-68643500D01*
X83087417Y-68643500D01*
X83113130Y-68665415D01*
X83211342Y-68709686D01*
X83318000Y-68724843D01*
X84709000Y-68724843D01*
X84709000Y-72950000D01*
X56705500Y-72950000D01*
X56705500Y-64452500D01*
X63119000Y-64452500D01*
X63119000Y-68516500D01*
X63124028Y-68551881D01*
X63138714Y-68584461D01*
X63161895Y-68611660D01*
X63191736Y-68631323D01*
X63225873Y-68641895D01*
X63246000Y-68643500D01*
X64810883Y-68643500D01*
X64813130Y-68645415D01*
X64911342Y-68689686D01*
X65018000Y-68704843D01*
X66542000Y-68704843D01*
X66602673Y-68700005D01*
X66705580Y-68668136D01*
X66742967Y-68643500D01*
X68643500Y-68643500D01*
X68678881Y-68638472D01*
X68711461Y-68623786D01*
X68738660Y-68600605D01*
X68758323Y-68570764D01*
X68768895Y-68536627D01*
X68770500Y-68516500D01*
X68770500Y-64452500D01*
X68765472Y-64417119D01*
X68750786Y-64384539D01*
X68727605Y-64357340D01*
X68697764Y-64337677D01*
X68663627Y-64327105D01*
X68643500Y-64325500D01*
X66754983Y-64325500D01*
X66746870Y-64318585D01*
X66648658Y-64274314D01*
X66542000Y-64259157D01*
X65018000Y-64259157D01*
X64957327Y-64263995D01*
X64854420Y-64295864D01*
X64809446Y-64325500D01*
X63246000Y-64325500D01*
X63210619Y-64330528D01*
X63178039Y-64345214D01*
X63150840Y-64368395D01*
X63131177Y-64398236D01*
X63120605Y-64432373D01*
X63119000Y-64452500D01*
X56705500Y-64452500D01*
X56705500Y-62801055D01*
X74549000Y-62738446D01*
X74549000Y-68516500D01*
X74549000Y-68516500D01*
G37*
X74549000Y-68516500D02*
X74554028Y-68551881D01*
X74568714Y-68584461D01*
X74591895Y-68611660D01*
X74621736Y-68631323D01*
X74655873Y-68641895D01*
X74676000Y-68643500D01*
X83087417Y-68643500D01*
X83113130Y-68665415D01*
X83211342Y-68709686D01*
X83318000Y-68724843D01*
X84709000Y-68724843D01*
X84709000Y-72950000D01*
X56705500Y-72950000D01*
X56705500Y-64452500D01*
X63119000Y-64452500D01*
X63119000Y-68516500D01*
X63124028Y-68551881D01*
X63138714Y-68584461D01*
X63161895Y-68611660D01*
X63191736Y-68631323D01*
X63225873Y-68641895D01*
X63246000Y-68643500D01*
X64810883Y-68643500D01*
X64813130Y-68645415D01*
X64911342Y-68689686D01*
X65018000Y-68704843D01*
X66542000Y-68704843D01*
X66602673Y-68700005D01*
X66705580Y-68668136D01*
X66742967Y-68643500D01*
X68643500Y-68643500D01*
X68678881Y-68638472D01*
X68711461Y-68623786D01*
X68738660Y-68600605D01*
X68758323Y-68570764D01*
X68768895Y-68536627D01*
X68770500Y-68516500D01*
X68770500Y-64452500D01*
X68765472Y-64417119D01*
X68750786Y-64384539D01*
X68727605Y-64357340D01*
X68697764Y-64337677D01*
X68663627Y-64327105D01*
X68643500Y-64325500D01*
X66754983Y-64325500D01*
X66746870Y-64318585D01*
X66648658Y-64274314D01*
X66542000Y-64259157D01*
X65018000Y-64259157D01*
X64957327Y-64263995D01*
X64854420Y-64295864D01*
X64809446Y-64325500D01*
X63246000Y-64325500D01*
X63210619Y-64330528D01*
X63178039Y-64345214D01*
X63150840Y-64368395D01*
X63131177Y-64398236D01*
X63120605Y-64432373D01*
X63119000Y-64452500D01*
X56705500Y-64452500D01*
X56705500Y-62801055D01*
X74549000Y-62738446D01*
X74549000Y-68516500D01*
G36*
X83121500Y-44958000D02*
X83126528Y-44993381D01*
X83141214Y-45025961D01*
X83164395Y-45053160D01*
X83194236Y-45072823D01*
X83228373Y-45083395D01*
X83248500Y-45085000D01*
X86931500Y-45085000D01*
X86931500Y-50609500D01*
X76962000Y-50609500D01*
X76962000Y-48069500D01*
X76956972Y-48034119D01*
X76942286Y-48001539D01*
X76919105Y-47974340D01*
X76889264Y-47954677D01*
X76855127Y-47944105D01*
X76835000Y-47942500D01*
X76644500Y-47942500D01*
X76644500Y-38671500D01*
X83121500Y-38671500D01*
X83121500Y-44958000D01*
X83121500Y-44958000D01*
G37*
X83121500Y-44958000D02*
X83126528Y-44993381D01*
X83141214Y-45025961D01*
X83164395Y-45053160D01*
X83194236Y-45072823D01*
X83228373Y-45083395D01*
X83248500Y-45085000D01*
X86931500Y-45085000D01*
X86931500Y-50609500D01*
X76962000Y-50609500D01*
X76962000Y-48069500D01*
X76956972Y-48034119D01*
X76942286Y-48001539D01*
X76919105Y-47974340D01*
X76889264Y-47954677D01*
X76855127Y-47944105D01*
X76835000Y-47942500D01*
X76644500Y-47942500D01*
X76644500Y-38671500D01*
X83121500Y-38671500D01*
X83121500Y-44958000D01*
G36*
X84709000Y-57279157D02*
X83318000Y-57279157D01*
X83257327Y-57283995D01*
X83154420Y-57315864D01*
X83115805Y-57341309D01*
X83086119Y-57345528D01*
X83053539Y-57360214D01*
X83026340Y-57383395D01*
X83006677Y-57413236D01*
X82996105Y-57447373D01*
X82995404Y-57456170D01*
X82994585Y-57457130D01*
X82950314Y-57555342D01*
X82935157Y-57662000D01*
X82935157Y-58342000D01*
X82939995Y-58402673D01*
X82971864Y-58505580D01*
X82972387Y-58506374D01*
X82950314Y-58555342D01*
X82935157Y-58662000D01*
X82935157Y-59342000D01*
X82939995Y-59402673D01*
X82971864Y-59505580D01*
X82972387Y-59506374D01*
X82950314Y-59555342D01*
X82935157Y-59662000D01*
X82935157Y-60342000D01*
X82939995Y-60402673D01*
X82971864Y-60505580D01*
X82972387Y-60506374D01*
X82950314Y-60555342D01*
X82935157Y-60662000D01*
X82935157Y-61342000D01*
X82939995Y-61402673D01*
X82971864Y-61505580D01*
X82972387Y-61506374D01*
X82950314Y-61555342D01*
X82935157Y-61662000D01*
X82935157Y-62342000D01*
X82939995Y-62402673D01*
X82971864Y-62505580D01*
X82972387Y-62506374D01*
X82950314Y-62555342D01*
X82935157Y-62662000D01*
X82935157Y-63342000D01*
X82939995Y-63402673D01*
X82971864Y-63505580D01*
X82972387Y-63506374D01*
X82950314Y-63555342D01*
X82935157Y-63662000D01*
X82935157Y-64342000D01*
X82939995Y-64402673D01*
X82971864Y-64505580D01*
X82972387Y-64506374D01*
X82950314Y-64555342D01*
X82935157Y-64662000D01*
X82935157Y-65342000D01*
X82939995Y-65402673D01*
X82971864Y-65505580D01*
X82972387Y-65506374D01*
X82950314Y-65555342D01*
X82935157Y-65662000D01*
X82935157Y-66342000D01*
X82939995Y-66402673D01*
X82971864Y-66505580D01*
X83031140Y-66595535D01*
X83113130Y-66665415D01*
X83211342Y-66709686D01*
X83318000Y-66724843D01*
X84709000Y-66724843D01*
X84709000Y-68135500D01*
X75184000Y-68135500D01*
X75184000Y-62484000D01*
X75178972Y-62448619D01*
X75164286Y-62416039D01*
X75141105Y-62388840D01*
X75111264Y-62369177D01*
X75077127Y-62358605D01*
X75057000Y-62357000D01*
X74956352Y-62357000D01*
X74948170Y-62344383D01*
X74822998Y-62259499D01*
X74674663Y-62230002D01*
X66365488Y-62259157D01*
X65087500Y-62259157D01*
X65087500Y-61785500D01*
X74803000Y-61785500D01*
X74941477Y-61759444D01*
X75068660Y-61677604D01*
X75084371Y-61654610D01*
X75092381Y-61653472D01*
X75124961Y-61638786D01*
X75152160Y-61615605D01*
X75171823Y-61585764D01*
X75182395Y-61551627D01*
X75184000Y-61531500D01*
X75184000Y-55753000D01*
X84709000Y-55753000D01*
X84709000Y-57279157D01*
X84709000Y-57279157D01*
G37*
X84709000Y-57279157D02*
X83318000Y-57279157D01*
X83257327Y-57283995D01*
X83154420Y-57315864D01*
X83115805Y-57341309D01*
X83086119Y-57345528D01*
X83053539Y-57360214D01*
X83026340Y-57383395D01*
X83006677Y-57413236D01*
X82996105Y-57447373D01*
X82995404Y-57456170D01*
X82994585Y-57457130D01*
X82950314Y-57555342D01*
X82935157Y-57662000D01*
X82935157Y-58342000D01*
X82939995Y-58402673D01*
X82971864Y-58505580D01*
X82972387Y-58506374D01*
X82950314Y-58555342D01*
X82935157Y-58662000D01*
X82935157Y-59342000D01*
X82939995Y-59402673D01*
X82971864Y-59505580D01*
X82972387Y-59506374D01*
X82950314Y-59555342D01*
X82935157Y-59662000D01*
X82935157Y-60342000D01*
X82939995Y-60402673D01*
X82971864Y-60505580D01*
X82972387Y-60506374D01*
X82950314Y-60555342D01*
X82935157Y-60662000D01*
X82935157Y-61342000D01*
X82939995Y-61402673D01*
X82971864Y-61505580D01*
X82972387Y-61506374D01*
X82950314Y-61555342D01*
X82935157Y-61662000D01*
X82935157Y-62342000D01*
X82939995Y-62402673D01*
X82971864Y-62505580D01*
X82972387Y-62506374D01*
X82950314Y-62555342D01*
X82935157Y-62662000D01*
X82935157Y-63342000D01*
X82939995Y-63402673D01*
X82971864Y-63505580D01*
X82972387Y-63506374D01*
X82950314Y-63555342D01*
X82935157Y-63662000D01*
X82935157Y-64342000D01*
X82939995Y-64402673D01*
X82971864Y-64505580D01*
X82972387Y-64506374D01*
X82950314Y-64555342D01*
X82935157Y-64662000D01*
X82935157Y-65342000D01*
X82939995Y-65402673D01*
X82971864Y-65505580D01*
X82972387Y-65506374D01*
X82950314Y-65555342D01*
X82935157Y-65662000D01*
X82935157Y-66342000D01*
X82939995Y-66402673D01*
X82971864Y-66505580D01*
X83031140Y-66595535D01*
X83113130Y-66665415D01*
X83211342Y-66709686D01*
X83318000Y-66724843D01*
X84709000Y-66724843D01*
X84709000Y-68135500D01*
X75184000Y-68135500D01*
X75184000Y-62484000D01*
X75178972Y-62448619D01*
X75164286Y-62416039D01*
X75141105Y-62388840D01*
X75111264Y-62369177D01*
X75077127Y-62358605D01*
X75057000Y-62357000D01*
X74956352Y-62357000D01*
X74948170Y-62344383D01*
X74822998Y-62259499D01*
X74674663Y-62230002D01*
X66365488Y-62259157D01*
X65087500Y-62259157D01*
X65087500Y-61785500D01*
X74803000Y-61785500D01*
X74941477Y-61759444D01*
X75068660Y-61677604D01*
X75084371Y-61654610D01*
X75092381Y-61653472D01*
X75124961Y-61638786D01*
X75152160Y-61615605D01*
X75171823Y-61585764D01*
X75182395Y-61551627D01*
X75184000Y-61531500D01*
X75184000Y-55753000D01*
X84709000Y-55753000D01*
X84709000Y-57279157D01*
G36*
X118519852Y-34833195D02*
X118730846Y-34896898D01*
X118925453Y-35000372D01*
X119096254Y-35139673D01*
X119236741Y-35309493D01*
X119341573Y-35503375D01*
X119406748Y-35713921D01*
X119432000Y-35954185D01*
X119432000Y-36627157D01*
X119289914Y-36282431D01*
X119009809Y-35860840D01*
X118653151Y-35501683D01*
X118233526Y-35218642D01*
X117766915Y-35022497D01*
X117271093Y-34920719D01*
X116764945Y-34917186D01*
X116267751Y-35012031D01*
X115798447Y-35201642D01*
X115374911Y-35478796D01*
X115013273Y-35832938D01*
X114727309Y-36250578D01*
X114527911Y-36715807D01*
X114422675Y-37210907D01*
X114415608Y-37717017D01*
X114506979Y-38214862D01*
X114693309Y-38685478D01*
X114967500Y-39110939D01*
X115319109Y-39475040D01*
X115734742Y-39763913D01*
X116198568Y-39966554D01*
X116692921Y-40075244D01*
X117198970Y-40085844D01*
X117697440Y-39997951D01*
X118169345Y-39814911D01*
X118596711Y-39543696D01*
X118963258Y-39194638D01*
X119255025Y-38781032D01*
X119432000Y-38383540D01*
X119432000Y-69627157D01*
X119289914Y-69282431D01*
X119009809Y-68860840D01*
X118653151Y-68501683D01*
X118233526Y-68218642D01*
X117766915Y-68022497D01*
X117271093Y-67920719D01*
X116764945Y-67917186D01*
X116267751Y-68012031D01*
X115798447Y-68201642D01*
X115374911Y-68478796D01*
X115013273Y-68832938D01*
X114727309Y-69250578D01*
X114527911Y-69715807D01*
X114422675Y-70210907D01*
X114415608Y-70717017D01*
X114506979Y-71214862D01*
X114693309Y-71685478D01*
X114967500Y-72110939D01*
X115319109Y-72475040D01*
X115734742Y-72763913D01*
X116160677Y-72950000D01*
X85217000Y-72950000D01*
X85217000Y-69387190D01*
X85224843Y-69332000D01*
X85224843Y-68652000D01*
X85220005Y-68591327D01*
X85217000Y-68581624D01*
X85217000Y-68516500D01*
X85205840Y-68457190D01*
X85209686Y-68448658D01*
X85224843Y-68342000D01*
X85224843Y-67662000D01*
X85220005Y-67601327D01*
X85188136Y-67498420D01*
X85187613Y-67497626D01*
X85209686Y-67448658D01*
X85224843Y-67342000D01*
X85224843Y-66662000D01*
X85221574Y-66621000D01*
X86132574Y-66621000D01*
X86142664Y-66653580D01*
X86156571Y-66674684D01*
X86121114Y-66753342D01*
X86105957Y-66860000D01*
X86105957Y-67760000D01*
X86110795Y-67820673D01*
X86142664Y-67923580D01*
X86156571Y-67944684D01*
X86121114Y-68023342D01*
X86105957Y-68130000D01*
X86105957Y-69030000D01*
X86110795Y-69090673D01*
X86142664Y-69193580D01*
X86201940Y-69283535D01*
X86283930Y-69353415D01*
X86382142Y-69397686D01*
X86488800Y-69412843D01*
X87688800Y-69412843D01*
X87749473Y-69408005D01*
X87852380Y-69376136D01*
X87942335Y-69316860D01*
X88012215Y-69234870D01*
X88056486Y-69136658D01*
X88063755Y-69085510D01*
X88169880Y-69044347D01*
X88274362Y-68978041D01*
X88305957Y-68947953D01*
X88305957Y-69030000D01*
X88310795Y-69090673D01*
X88342664Y-69193580D01*
X88401940Y-69283535D01*
X88483930Y-69353415D01*
X88582142Y-69397686D01*
X88688800Y-69412843D01*
X89888800Y-69412843D01*
X89949473Y-69408005D01*
X90052380Y-69376136D01*
X90142335Y-69316860D01*
X90212215Y-69234870D01*
X90256486Y-69136658D01*
X90271643Y-69030000D01*
X90271643Y-68130000D01*
X90266805Y-68069327D01*
X90234936Y-67966420D01*
X90221029Y-67945316D01*
X90256486Y-67866658D01*
X90271643Y-67760000D01*
X90271643Y-67585515D01*
X91871158Y-65986000D01*
X93154500Y-65986000D01*
X93207894Y-65980765D01*
X93261376Y-65976086D01*
X93264313Y-65975233D01*
X93267350Y-65974935D01*
X93318701Y-65959431D01*
X93370265Y-65944450D01*
X93372978Y-65943044D01*
X93375902Y-65942161D01*
X93423257Y-65916982D01*
X93470935Y-65892268D01*
X93473325Y-65890360D01*
X93476020Y-65888927D01*
X93517586Y-65855027D01*
X93559553Y-65821525D01*
X93563805Y-65817332D01*
X93563892Y-65817261D01*
X93563959Y-65817180D01*
X93565329Y-65815829D01*
X93581595Y-65799563D01*
X93630880Y-65780447D01*
X93735362Y-65714141D01*
X93824975Y-65628803D01*
X93896306Y-65527685D01*
X93946638Y-65414638D01*
X93974053Y-65293968D01*
X93976027Y-65152627D01*
X93951991Y-65031239D01*
X93904836Y-64916830D01*
X93836356Y-64813760D01*
X93749161Y-64725954D01*
X93673081Y-64674637D01*
X96235218Y-62112500D01*
X96400665Y-62112500D01*
X96451067Y-62134520D01*
X96571926Y-62161093D01*
X96695644Y-62163684D01*
X96817509Y-62142196D01*
X96828000Y-62138127D01*
X96828000Y-62906985D01*
X96767063Y-62881370D01*
X96516175Y-62829870D01*
X96260061Y-62828082D01*
X96008478Y-62876074D01*
X95771008Y-62972018D01*
X95556696Y-63112260D01*
X95373705Y-63291458D01*
X95229006Y-63502786D01*
X95128110Y-63738194D01*
X95074859Y-63988717D01*
X95071283Y-64244812D01*
X95117518Y-64496724D01*
X95211802Y-64734858D01*
X95350544Y-64950144D01*
X95528460Y-65134381D01*
X95738772Y-65280552D01*
X95973471Y-65383090D01*
X96223616Y-65438088D01*
X96479680Y-65443451D01*
X96731909Y-65398977D01*
X96970695Y-65306357D01*
X97186944Y-65169121D01*
X97372419Y-64992496D01*
X97520055Y-64783209D01*
X97624228Y-64549232D01*
X97629361Y-64526637D01*
X97711802Y-64734858D01*
X97850544Y-64950144D01*
X98028460Y-65134381D01*
X98238772Y-65280552D01*
X98473471Y-65383090D01*
X98723616Y-65438088D01*
X98979680Y-65443451D01*
X99231909Y-65398977D01*
X99470695Y-65306357D01*
X99686944Y-65169121D01*
X99872419Y-64992496D01*
X100020055Y-64783209D01*
X100124228Y-64549232D01*
X100129361Y-64526637D01*
X100211802Y-64734858D01*
X100350544Y-64950144D01*
X100528460Y-65134381D01*
X100738772Y-65280552D01*
X100973471Y-65383090D01*
X101223616Y-65438088D01*
X101479680Y-65443451D01*
X101731909Y-65398977D01*
X101970695Y-65306357D01*
X102186944Y-65169121D01*
X102372419Y-64992496D01*
X102520055Y-64783209D01*
X102624228Y-64549232D01*
X102629361Y-64526637D01*
X102711802Y-64734858D01*
X102850544Y-64950144D01*
X103028460Y-65134381D01*
X103238772Y-65280552D01*
X103473471Y-65383090D01*
X103723616Y-65438088D01*
X103979680Y-65443451D01*
X104231909Y-65398977D01*
X104470695Y-65306357D01*
X104686944Y-65169121D01*
X104872419Y-64992496D01*
X105020055Y-64783209D01*
X105124228Y-64549232D01*
X105129361Y-64526637D01*
X105211802Y-64734858D01*
X105350544Y-64950144D01*
X105528460Y-65134381D01*
X105738772Y-65280552D01*
X105973471Y-65383090D01*
X106223616Y-65438088D01*
X106479680Y-65443451D01*
X106731909Y-65398977D01*
X106970695Y-65306357D01*
X107186944Y-65169121D01*
X107372419Y-64992496D01*
X107520055Y-64783209D01*
X107624228Y-64549232D01*
X107629361Y-64526637D01*
X107711802Y-64734858D01*
X107850544Y-64950144D01*
X108028460Y-65134381D01*
X108238772Y-65280552D01*
X108473471Y-65383090D01*
X108723616Y-65438088D01*
X108979680Y-65443451D01*
X109231909Y-65398977D01*
X109470695Y-65306357D01*
X109686944Y-65169121D01*
X109872419Y-64992496D01*
X110020055Y-64783209D01*
X110124228Y-64549232D01*
X110180971Y-64299477D01*
X110185056Y-64006940D01*
X110135309Y-63755698D01*
X110037709Y-63518904D01*
X109895974Y-63305576D01*
X109715504Y-63123841D01*
X109560000Y-63018952D01*
X109560000Y-62733843D01*
X109759000Y-62733843D01*
X109819673Y-62729005D01*
X109922580Y-62697136D01*
X110012535Y-62637860D01*
X110082415Y-62555870D01*
X110126686Y-62457658D01*
X110141843Y-62351000D01*
X110141843Y-61601000D01*
X110137005Y-61540327D01*
X110105136Y-61437420D01*
X110045860Y-61347465D01*
X109963870Y-61277585D01*
X109865658Y-61233314D01*
X109759000Y-61218157D01*
X109364237Y-61218157D01*
X108670000Y-60523920D01*
X108670000Y-59160868D01*
X108754541Y-59197803D01*
X108884977Y-59226481D01*
X109018498Y-59229278D01*
X109025746Y-59228000D01*
X109134365Y-59228000D01*
X109184130Y-59270415D01*
X109282342Y-59314686D01*
X109389000Y-59329843D01*
X109989000Y-59329843D01*
X110049673Y-59325005D01*
X110152580Y-59293136D01*
X110242535Y-59233860D01*
X110312415Y-59151870D01*
X110356686Y-59053658D01*
X110371843Y-58947000D01*
X110371843Y-58147000D01*
X110367005Y-58086327D01*
X110335136Y-57983420D01*
X110275860Y-57893465D01*
X110193870Y-57823585D01*
X110095658Y-57779314D01*
X109989000Y-57764157D01*
X109389000Y-57764157D01*
X109328327Y-57768995D01*
X109225420Y-57800864D01*
X109135465Y-57860140D01*
X109130471Y-57866000D01*
X109086080Y-57866000D01*
X109314080Y-57638000D01*
X110150365Y-57638000D01*
X110200130Y-57680415D01*
X110298342Y-57724686D01*
X110405000Y-57739843D01*
X112305000Y-57739843D01*
X112365673Y-57735005D01*
X112468580Y-57703136D01*
X112558535Y-57643860D01*
X112628415Y-57561870D01*
X112639175Y-57538000D01*
X112842000Y-57538000D01*
X112895394Y-57532765D01*
X112948876Y-57528086D01*
X112951813Y-57527233D01*
X112954850Y-57526935D01*
X113006201Y-57511431D01*
X113057765Y-57496450D01*
X113060478Y-57495044D01*
X113063402Y-57494161D01*
X113110757Y-57468982D01*
X113158435Y-57444268D01*
X113160825Y-57442360D01*
X113163520Y-57440927D01*
X113205086Y-57407027D01*
X113247053Y-57373525D01*
X113251305Y-57369332D01*
X113251392Y-57369261D01*
X113251459Y-57369180D01*
X113252829Y-57367829D01*
X113351658Y-57269000D01*
X114991157Y-57269000D01*
X114991157Y-58469000D01*
X114995995Y-58529673D01*
X115027864Y-58632580D01*
X115087140Y-58722535D01*
X115169130Y-58792415D01*
X115267342Y-58836686D01*
X115374000Y-58851843D01*
X116274000Y-58851843D01*
X116334673Y-58847005D01*
X116437580Y-58815136D01*
X116458684Y-58801229D01*
X116537342Y-58836686D01*
X116644000Y-58851843D01*
X117544000Y-58851843D01*
X117604673Y-58847005D01*
X117707580Y-58815136D01*
X117797535Y-58755860D01*
X117867415Y-58673870D01*
X117911686Y-58575658D01*
X117926843Y-58469000D01*
X117926843Y-57269000D01*
X117922005Y-57208327D01*
X117890136Y-57105420D01*
X117830860Y-57015465D01*
X117748870Y-56945585D01*
X117650658Y-56901314D01*
X117544000Y-56886157D01*
X116644000Y-56886157D01*
X116583327Y-56890995D01*
X116480420Y-56922864D01*
X116459316Y-56936771D01*
X116380658Y-56901314D01*
X116274000Y-56886157D01*
X115374000Y-56886157D01*
X115313327Y-56890995D01*
X115210420Y-56922864D01*
X115120465Y-56982140D01*
X115050585Y-57064130D01*
X115006314Y-57162342D01*
X114991157Y-57269000D01*
X113351658Y-57269000D01*
X114370658Y-56250000D01*
X114991157Y-56250000D01*
X114991157Y-56269000D01*
X114995995Y-56329673D01*
X115027864Y-56432580D01*
X115087140Y-56522535D01*
X115169130Y-56592415D01*
X115267342Y-56636686D01*
X115374000Y-56651843D01*
X116274000Y-56651843D01*
X116334673Y-56647005D01*
X116437580Y-56615136D01*
X116527535Y-56555860D01*
X116597415Y-56473870D01*
X116641686Y-56375658D01*
X116656843Y-56269000D01*
X116656843Y-55069000D01*
X116652005Y-55008327D01*
X116620136Y-54905420D01*
X116560860Y-54815465D01*
X116478870Y-54745585D01*
X116380658Y-54701314D01*
X116274000Y-54686157D01*
X115374000Y-54686157D01*
X115313327Y-54690995D01*
X115210420Y-54722864D01*
X115120465Y-54782140D01*
X115050585Y-54864130D01*
X115006314Y-54962342D01*
X114991157Y-55069000D01*
X114991157Y-55088000D01*
X114130000Y-55088000D01*
X114076606Y-55093235D01*
X114023124Y-55097914D01*
X114020187Y-55098767D01*
X114017150Y-55099065D01*
X113965799Y-55114569D01*
X113914235Y-55129550D01*
X113911522Y-55130956D01*
X113908598Y-55131839D01*
X113861243Y-55157018D01*
X113813565Y-55181732D01*
X113811175Y-55183640D01*
X113808480Y-55185073D01*
X113766914Y-55218973D01*
X113724947Y-55252475D01*
X113720695Y-55256668D01*
X113720608Y-55256739D01*
X113720541Y-55256820D01*
X113719171Y-55258171D01*
X112624438Y-56352904D01*
X112591860Y-56303465D01*
X112509870Y-56233585D01*
X112411658Y-56189314D01*
X112305000Y-56174157D01*
X110405000Y-56174157D01*
X110344327Y-56178995D01*
X110241420Y-56210864D01*
X110151465Y-56270140D01*
X110146471Y-56276000D01*
X109687843Y-56276000D01*
X109687843Y-55607000D01*
X109683005Y-55546327D01*
X109651136Y-55443420D01*
X109591860Y-55353465D01*
X109509870Y-55283585D01*
X109411658Y-55239314D01*
X109305000Y-55224157D01*
X108130237Y-55224157D01*
X107354540Y-54448460D01*
X107305946Y-54408545D01*
X107257743Y-54368098D01*
X107254602Y-54366371D01*
X107251837Y-54364100D01*
X107196412Y-54334381D01*
X107183632Y-54327355D01*
X107179005Y-54269327D01*
X107147136Y-54166420D01*
X107087860Y-54076465D01*
X107005870Y-54006585D01*
X106939363Y-53976606D01*
X106909218Y-53939644D01*
X106806810Y-53854925D01*
X106689898Y-53791711D01*
X106562934Y-53752409D01*
X106430754Y-53738517D01*
X106298393Y-53750562D01*
X106170893Y-53788088D01*
X106053109Y-53849664D01*
X105949529Y-53932944D01*
X105920179Y-53967923D01*
X105892860Y-53926465D01*
X105810870Y-53856585D01*
X105737000Y-53823287D01*
X105737000Y-53199658D01*
X106595815Y-52340843D01*
X107907185Y-52340843D01*
X108435171Y-52868829D01*
X108476642Y-52902894D01*
X108517754Y-52937391D01*
X108520431Y-52938863D01*
X108522792Y-52940802D01*
X108570066Y-52966150D01*
X108617120Y-52992018D01*
X108620035Y-52992943D01*
X108622725Y-52994385D01*
X108673984Y-53010056D01*
X108725203Y-53026304D01*
X108728243Y-53026645D01*
X108731161Y-53027537D01*
X108784557Y-53032961D01*
X108837888Y-53038943D01*
X108843853Y-53038985D01*
X108843972Y-53038997D01*
X108844083Y-53038987D01*
X108846000Y-53039000D01*
X111699157Y-53039000D01*
X111699157Y-53108000D01*
X111703995Y-53168673D01*
X111735864Y-53271580D01*
X111795140Y-53361535D01*
X111877130Y-53431415D01*
X111975342Y-53475686D01*
X112082000Y-53490843D01*
X113382000Y-53490843D01*
X113442673Y-53486005D01*
X113545580Y-53454136D01*
X113635535Y-53394860D01*
X113705415Y-53312870D01*
X113749686Y-53214658D01*
X113764843Y-53108000D01*
X113764843Y-52189000D01*
X114991157Y-52189000D01*
X114991157Y-53389000D01*
X114995995Y-53449673D01*
X115027864Y-53552580D01*
X115087140Y-53642535D01*
X115169130Y-53712415D01*
X115267342Y-53756686D01*
X115374000Y-53771843D01*
X116274000Y-53771843D01*
X116334673Y-53767005D01*
X116437580Y-53735136D01*
X116458684Y-53721229D01*
X116537342Y-53756686D01*
X116644000Y-53771843D01*
X117544000Y-53771843D01*
X117604673Y-53767005D01*
X117707580Y-53735136D01*
X117797535Y-53675860D01*
X117867415Y-53593870D01*
X117911686Y-53495658D01*
X117926843Y-53389000D01*
X117926843Y-52189000D01*
X117922005Y-52128327D01*
X117890136Y-52025420D01*
X117830860Y-51935465D01*
X117748870Y-51865585D01*
X117650658Y-51821314D01*
X117544000Y-51806157D01*
X116644000Y-51806157D01*
X116583327Y-51810995D01*
X116480420Y-51842864D01*
X116459316Y-51856771D01*
X116380658Y-51821314D01*
X116274000Y-51806157D01*
X115374000Y-51806157D01*
X115313327Y-51810995D01*
X115210420Y-51842864D01*
X115120465Y-51902140D01*
X115050585Y-51984130D01*
X115006314Y-52082342D01*
X114991157Y-52189000D01*
X113764843Y-52189000D01*
X113764843Y-51808000D01*
X113760005Y-51747327D01*
X113728136Y-51644420D01*
X113668860Y-51554465D01*
X113586870Y-51484585D01*
X113488658Y-51440314D01*
X113382000Y-51425157D01*
X112082000Y-51425157D01*
X112021327Y-51429995D01*
X111918420Y-51461864D01*
X111828465Y-51521140D01*
X111758585Y-51603130D01*
X111714314Y-51701342D01*
X111699157Y-51808000D01*
X111699157Y-51877000D01*
X109848387Y-51877000D01*
X109895294Y-51847232D01*
X109992008Y-51755132D01*
X109996941Y-51748139D01*
X110906079Y-50839000D01*
X111701629Y-50839000D01*
X111703995Y-50868673D01*
X111735864Y-50971580D01*
X111795140Y-51061535D01*
X111877130Y-51131415D01*
X111975342Y-51175686D01*
X112082000Y-51190843D01*
X113382000Y-51190843D01*
X113442673Y-51186005D01*
X113545580Y-51154136D01*
X113635535Y-51094860D01*
X113705415Y-51012870D01*
X113749686Y-50914658D01*
X113764843Y-50808000D01*
X113764843Y-50739000D01*
X114991157Y-50739000D01*
X114991157Y-51189000D01*
X114995995Y-51249673D01*
X115027864Y-51352580D01*
X115087140Y-51442535D01*
X115169130Y-51512415D01*
X115267342Y-51556686D01*
X115374000Y-51571843D01*
X116274000Y-51571843D01*
X116334673Y-51567005D01*
X116437580Y-51535136D01*
X116527535Y-51475860D01*
X116597415Y-51393870D01*
X116641686Y-51295658D01*
X116656843Y-51189000D01*
X116656843Y-49989000D01*
X116652005Y-49928327D01*
X116620136Y-49825420D01*
X116560860Y-49735465D01*
X116478870Y-49665585D01*
X116380658Y-49621314D01*
X116274000Y-49606157D01*
X115565714Y-49606157D01*
X115565016Y-49605944D01*
X115513797Y-49589696D01*
X115510757Y-49589355D01*
X115507839Y-49588463D01*
X115454483Y-49583043D01*
X115401112Y-49577057D01*
X115395137Y-49577015D01*
X115395029Y-49577004D01*
X115394928Y-49577014D01*
X115393000Y-49577000D01*
X113764843Y-49577000D01*
X113764843Y-49508000D01*
X113760005Y-49447327D01*
X113728136Y-49344420D01*
X113668860Y-49254465D01*
X113586870Y-49184585D01*
X113488658Y-49140314D01*
X113382000Y-49125157D01*
X112082000Y-49125157D01*
X112021327Y-49129995D01*
X111918420Y-49161864D01*
X111828465Y-49221140D01*
X111758585Y-49303130D01*
X111714314Y-49401342D01*
X111703562Y-49477000D01*
X110624000Y-49477000D01*
X110561428Y-49483135D01*
X110498730Y-49488621D01*
X110495289Y-49489621D01*
X110491726Y-49489970D01*
X110431505Y-49508151D01*
X110371099Y-49525701D01*
X110367920Y-49527349D01*
X110364491Y-49528384D01*
X110308954Y-49557914D01*
X110253101Y-49586865D01*
X110250301Y-49589100D01*
X110247140Y-49590781D01*
X110198429Y-49630508D01*
X110149230Y-49669783D01*
X110144249Y-49674697D01*
X110144144Y-49674782D01*
X110144064Y-49674879D01*
X110142461Y-49676460D01*
X108996906Y-50822014D01*
X108949800Y-50868144D01*
X108874348Y-50978338D01*
X108821736Y-51101090D01*
X108793970Y-51231722D01*
X108792105Y-51365260D01*
X108816213Y-51496617D01*
X108865377Y-51620790D01*
X108928688Y-51719030D01*
X108614843Y-51405185D01*
X108614843Y-50658000D01*
X108610005Y-50597327D01*
X108578136Y-50494420D01*
X108518860Y-50404465D01*
X108436870Y-50334585D01*
X108338658Y-50290314D01*
X108232000Y-50275157D01*
X106232000Y-50275157D01*
X106171327Y-50279995D01*
X106068420Y-50311864D01*
X105978465Y-50371140D01*
X105908585Y-50453130D01*
X105864314Y-50551342D01*
X105849157Y-50658000D01*
X105849157Y-51444185D01*
X104745171Y-52548171D01*
X104711106Y-52589642D01*
X104676609Y-52630754D01*
X104675137Y-52633431D01*
X104673198Y-52635792D01*
X104647850Y-52683066D01*
X104621982Y-52730120D01*
X104621057Y-52733035D01*
X104619615Y-52735725D01*
X104603944Y-52786984D01*
X104587696Y-52838203D01*
X104587355Y-52841243D01*
X104586463Y-52844161D01*
X104581043Y-52897517D01*
X104575057Y-52950888D01*
X104575015Y-52956863D01*
X104575004Y-52956971D01*
X104575014Y-52957072D01*
X104575000Y-52959000D01*
X104575000Y-53823774D01*
X104542420Y-53833864D01*
X104452465Y-53893140D01*
X104382585Y-53975130D01*
X104338314Y-54073342D01*
X104323157Y-54180000D01*
X104323157Y-54719148D01*
X104279261Y-54705392D01*
X104147131Y-54691037D01*
X104111843Y-54694124D01*
X104111843Y-54430000D01*
X104107005Y-54369327D01*
X104087627Y-54306755D01*
X104096686Y-54286658D01*
X104111843Y-54180000D01*
X104111843Y-53630000D01*
X104107005Y-53569327D01*
X104087627Y-53506755D01*
X104096686Y-53486658D01*
X104111843Y-53380000D01*
X104111843Y-52830000D01*
X104107005Y-52769327D01*
X104087627Y-52706755D01*
X104096686Y-52686658D01*
X104111843Y-52580000D01*
X104111843Y-52030000D01*
X104107005Y-51969327D01*
X104087627Y-51906755D01*
X104096686Y-51886658D01*
X104111843Y-51780000D01*
X104111843Y-51230000D01*
X104109297Y-51198067D01*
X104149362Y-51172641D01*
X104238975Y-51087303D01*
X104310306Y-50986185D01*
X104360638Y-50873138D01*
X104388053Y-50752468D01*
X104390027Y-50611127D01*
X104365991Y-50489739D01*
X104318836Y-50375330D01*
X104250356Y-50272260D01*
X104163161Y-50184454D01*
X104111843Y-50149839D01*
X104111843Y-49630000D01*
X104107005Y-49569327D01*
X104075136Y-49466420D01*
X104015860Y-49376465D01*
X103933870Y-49306585D01*
X103835658Y-49262314D01*
X103729000Y-49247157D01*
X102136843Y-49247157D01*
X102136843Y-47655000D01*
X102132005Y-47594327D01*
X102100136Y-47491420D01*
X102040860Y-47401465D01*
X101958870Y-47331585D01*
X101860658Y-47287314D01*
X101754000Y-47272157D01*
X101204000Y-47272157D01*
X101143327Y-47276995D01*
X101080755Y-47296373D01*
X101060658Y-47287314D01*
X100954000Y-47272157D01*
X100460000Y-47272157D01*
X100460000Y-47110158D01*
X103235315Y-44334843D01*
X105020999Y-44334843D01*
X104681671Y-44674171D01*
X104647606Y-44715642D01*
X104613109Y-44756754D01*
X104611637Y-44759431D01*
X104609698Y-44761792D01*
X104584350Y-44809066D01*
X104558482Y-44856120D01*
X104557557Y-44859035D01*
X104556115Y-44861725D01*
X104540444Y-44912984D01*
X104524196Y-44964203D01*
X104523855Y-44967243D01*
X104522963Y-44970161D01*
X104517543Y-45023517D01*
X104511557Y-45076888D01*
X104511515Y-45082863D01*
X104511504Y-45082971D01*
X104511514Y-45083072D01*
X104511500Y-45085000D01*
X104511500Y-45479342D01*
X104157289Y-45833553D01*
X104100246Y-45856600D01*
X103996700Y-45924358D01*
X103908287Y-46010939D01*
X103838375Y-46113043D01*
X103789627Y-46226781D01*
X103763898Y-46347823D01*
X103762171Y-46471556D01*
X103784509Y-46593269D01*
X103830063Y-46708324D01*
X103897097Y-46812341D01*
X103977530Y-46895631D01*
X103908287Y-46963439D01*
X103838375Y-47065543D01*
X103789627Y-47179281D01*
X103763898Y-47300323D01*
X103762171Y-47424056D01*
X103784509Y-47545769D01*
X103830063Y-47660824D01*
X103897097Y-47764841D01*
X103983058Y-47853856D01*
X104084671Y-47924479D01*
X104198067Y-47974020D01*
X104318926Y-48000593D01*
X104442644Y-48003184D01*
X104564509Y-47981696D01*
X104641071Y-47952000D01*
X105131774Y-47952000D01*
X105141864Y-47984580D01*
X105201140Y-48074535D01*
X105283130Y-48144415D01*
X105381342Y-48188686D01*
X105488000Y-48203843D01*
X106688000Y-48203843D01*
X106748673Y-48199005D01*
X106851580Y-48167136D01*
X106941535Y-48107860D01*
X107011415Y-48025870D01*
X107055686Y-47927658D01*
X107070843Y-47821000D01*
X107070843Y-47487556D01*
X107127671Y-47487556D01*
X107150009Y-47609269D01*
X107195563Y-47724324D01*
X107262597Y-47828341D01*
X107309626Y-47877040D01*
X107309995Y-47881673D01*
X107341864Y-47984580D01*
X107401140Y-48074535D01*
X107483130Y-48144415D01*
X107581342Y-48188686D01*
X107688000Y-48203843D01*
X108888000Y-48203843D01*
X108948673Y-48199005D01*
X109051580Y-48167136D01*
X109141535Y-48107860D01*
X109211415Y-48025870D01*
X109255686Y-47927658D01*
X109270843Y-47821000D01*
X109270843Y-46921000D01*
X109266005Y-46860327D01*
X109234136Y-46757420D01*
X109184438Y-46682000D01*
X113055000Y-46682000D01*
X113108394Y-46676765D01*
X113161876Y-46672086D01*
X113164813Y-46671233D01*
X113167850Y-46670935D01*
X113219201Y-46655431D01*
X113270765Y-46640450D01*
X113273478Y-46639044D01*
X113276402Y-46638161D01*
X113323757Y-46612982D01*
X113371435Y-46588268D01*
X113373825Y-46586360D01*
X113376520Y-46584927D01*
X113418086Y-46551027D01*
X113460053Y-46517525D01*
X113464305Y-46513332D01*
X113464392Y-46513261D01*
X113464459Y-46513180D01*
X113465829Y-46511829D01*
X113735815Y-46241843D01*
X114147000Y-46241843D01*
X114207673Y-46237005D01*
X114310580Y-46205136D01*
X114400535Y-46145860D01*
X114426837Y-46115000D01*
X116963032Y-46115000D01*
X117042130Y-46182415D01*
X117140342Y-46226686D01*
X117247000Y-46241843D01*
X118297000Y-46241843D01*
X118357673Y-46237005D01*
X118460580Y-46205136D01*
X118550535Y-46145860D01*
X118620415Y-46063870D01*
X118664686Y-45965658D01*
X118679843Y-45859000D01*
X118679843Y-45209000D01*
X118675005Y-45148327D01*
X118643136Y-45045420D01*
X118583860Y-44955465D01*
X118501870Y-44885585D01*
X118403658Y-44841314D01*
X118297000Y-44826157D01*
X117247000Y-44826157D01*
X117186327Y-44830995D01*
X117083420Y-44862864D01*
X116993465Y-44922140D01*
X116967163Y-44953000D01*
X114430968Y-44953000D01*
X114351870Y-44885585D01*
X114253658Y-44841314D01*
X114147000Y-44826157D01*
X113097000Y-44826157D01*
X113036327Y-44830995D01*
X112933420Y-44862864D01*
X112843465Y-44922140D01*
X112773585Y-45004130D01*
X112729314Y-45102342D01*
X112714157Y-45209000D01*
X112714157Y-45520000D01*
X109056183Y-45520000D01*
X109024860Y-45472465D01*
X108942870Y-45402585D01*
X108844658Y-45358314D01*
X108738000Y-45343157D01*
X107538000Y-45343157D01*
X107477327Y-45347995D01*
X107374420Y-45379864D01*
X107284465Y-45439140D01*
X107214585Y-45521130D01*
X107170314Y-45619342D01*
X107155157Y-45726000D01*
X107155157Y-46476000D01*
X107159995Y-46536673D01*
X107191864Y-46639580D01*
X107251140Y-46729535D01*
X107328732Y-46795667D01*
X107320314Y-46814342D01*
X107305157Y-46921000D01*
X107305157Y-46996219D01*
X107273787Y-47026939D01*
X107203875Y-47129043D01*
X107155127Y-47242781D01*
X107129398Y-47363823D01*
X107127671Y-47487556D01*
X107070843Y-47487556D01*
X107070843Y-46921000D01*
X107066005Y-46860327D01*
X107034136Y-46757420D01*
X106974860Y-46667465D01*
X106892870Y-46597585D01*
X106794658Y-46553314D01*
X106688000Y-46538157D01*
X105488000Y-46538157D01*
X105427327Y-46542995D01*
X105324420Y-46574864D01*
X105234465Y-46634140D01*
X105164585Y-46716130D01*
X105131287Y-46790000D01*
X104904169Y-46790000D01*
X104945306Y-46731685D01*
X104979682Y-46654476D01*
X105503329Y-46130829D01*
X105537394Y-46089358D01*
X105571891Y-46048246D01*
X105573363Y-46045569D01*
X105575302Y-46043208D01*
X105600650Y-45995934D01*
X105626518Y-45948880D01*
X105627443Y-45945965D01*
X105628885Y-45943275D01*
X105644556Y-45892016D01*
X105660804Y-45840797D01*
X105661145Y-45837757D01*
X105662037Y-45834839D01*
X105667457Y-45781483D01*
X105673443Y-45728112D01*
X105673485Y-45722137D01*
X105673496Y-45722029D01*
X105673486Y-45721928D01*
X105673500Y-45720000D01*
X105673500Y-45325658D01*
X106031658Y-44967500D01*
X109537500Y-44967500D01*
X109590894Y-44962265D01*
X109644376Y-44957586D01*
X109647313Y-44956733D01*
X109650350Y-44956435D01*
X109701701Y-44940931D01*
X109753265Y-44925950D01*
X109755978Y-44924544D01*
X109758902Y-44923661D01*
X109806257Y-44898482D01*
X109853935Y-44873768D01*
X109856325Y-44871860D01*
X109859020Y-44870427D01*
X109900586Y-44836527D01*
X109942553Y-44803025D01*
X109946805Y-44798832D01*
X109946892Y-44798761D01*
X109946959Y-44798680D01*
X109948329Y-44797329D01*
X110410815Y-44334843D01*
X113350000Y-44334843D01*
X113410673Y-44330005D01*
X113513580Y-44298136D01*
X113603535Y-44238860D01*
X113673415Y-44156870D01*
X113717686Y-44058658D01*
X113732843Y-43952000D01*
X113732843Y-42428000D01*
X113728005Y-42367327D01*
X113696136Y-42264420D01*
X113636860Y-42174465D01*
X113554870Y-42104585D01*
X113456658Y-42060314D01*
X113350000Y-42045157D01*
X110150000Y-42045157D01*
X110089327Y-42049995D01*
X109986420Y-42081864D01*
X109896465Y-42141140D01*
X109826585Y-42223130D01*
X109782314Y-42321342D01*
X109767157Y-42428000D01*
X109767157Y-43335185D01*
X109296842Y-43805500D01*
X106182843Y-43805500D01*
X106182843Y-42491000D01*
X106934000Y-42491000D01*
X106987394Y-42485765D01*
X107040876Y-42481086D01*
X107043813Y-42480233D01*
X107046850Y-42479935D01*
X107098201Y-42464431D01*
X107149765Y-42449450D01*
X107152478Y-42448044D01*
X107155402Y-42447161D01*
X107202757Y-42421982D01*
X107250435Y-42397268D01*
X107252825Y-42395360D01*
X107255520Y-42393927D01*
X107297086Y-42360027D01*
X107339053Y-42326525D01*
X107343305Y-42322332D01*
X107343392Y-42322261D01*
X107343459Y-42322180D01*
X107344829Y-42320829D01*
X110430815Y-39234843D01*
X113300000Y-39234843D01*
X113360673Y-39230005D01*
X113463580Y-39198136D01*
X113553535Y-39138860D01*
X113623415Y-39056870D01*
X113667686Y-38958658D01*
X113682843Y-38852000D01*
X113682843Y-37328000D01*
X113678005Y-37267327D01*
X113646136Y-37164420D01*
X113586860Y-37074465D01*
X113504870Y-37004585D01*
X113406658Y-36960314D01*
X113300000Y-36945157D01*
X110100000Y-36945157D01*
X110039327Y-36949995D01*
X109936420Y-36981864D01*
X109846465Y-37041140D01*
X109776585Y-37123130D01*
X109732314Y-37221342D01*
X109717157Y-37328000D01*
X109717157Y-38305185D01*
X106693342Y-41329000D01*
X102625500Y-41329000D01*
X102625500Y-39674158D01*
X103014815Y-39284843D01*
X105750000Y-39284843D01*
X105810673Y-39280005D01*
X105913580Y-39248136D01*
X106003535Y-39188860D01*
X106073415Y-39106870D01*
X106117686Y-39008658D01*
X106132843Y-38902000D01*
X106132843Y-37378000D01*
X106128005Y-37317327D01*
X106096136Y-37214420D01*
X106036860Y-37124465D01*
X105954870Y-37054585D01*
X105856658Y-37010314D01*
X105750000Y-36995157D01*
X102550000Y-36995157D01*
X102489327Y-36999995D01*
X102386420Y-37031864D01*
X102296465Y-37091140D01*
X102226585Y-37173130D01*
X102182314Y-37271342D01*
X102167157Y-37378000D01*
X102167157Y-38489185D01*
X101633671Y-39022671D01*
X101599606Y-39064142D01*
X101565109Y-39105254D01*
X101563637Y-39107931D01*
X101561698Y-39110292D01*
X101536350Y-39157566D01*
X101510482Y-39204620D01*
X101509557Y-39207535D01*
X101508115Y-39210225D01*
X101492444Y-39261484D01*
X101476196Y-39312703D01*
X101475855Y-39315743D01*
X101474963Y-39318661D01*
X101469543Y-39372017D01*
X101463557Y-39425388D01*
X101463515Y-39431363D01*
X101463504Y-39431471D01*
X101463514Y-39431572D01*
X101463500Y-39433500D01*
X101463500Y-41161342D01*
X101062171Y-41562671D01*
X101028106Y-41604142D01*
X100993609Y-41645254D01*
X100992137Y-41647931D01*
X100990198Y-41650292D01*
X100964850Y-41697566D01*
X100938982Y-41744620D01*
X100938057Y-41747535D01*
X100936615Y-41750225D01*
X100920944Y-41801484D01*
X100904696Y-41852703D01*
X100904355Y-41855743D01*
X100903463Y-41858661D01*
X100898043Y-41912017D01*
X100892057Y-41965388D01*
X100892015Y-41971363D01*
X100892004Y-41971471D01*
X100892014Y-41971572D01*
X100892000Y-41973500D01*
X100892000Y-43193342D01*
X100623999Y-43461343D01*
X100627056Y-43242440D01*
X100577309Y-42991198D01*
X100479709Y-42754404D01*
X100337974Y-42541076D01*
X100157504Y-42359341D01*
X99945171Y-42216120D01*
X99709063Y-42116870D01*
X99458175Y-42065370D01*
X99202061Y-42063582D01*
X98950478Y-42111574D01*
X98713008Y-42207518D01*
X98498696Y-42347760D01*
X98315705Y-42526958D01*
X98171006Y-42738286D01*
X98070110Y-42973694D01*
X98070105Y-42973719D01*
X97979709Y-42754404D01*
X97837974Y-42541076D01*
X97657504Y-42359341D01*
X97445171Y-42216120D01*
X97209063Y-42116870D01*
X96958175Y-42065370D01*
X96702061Y-42063582D01*
X96450478Y-42111574D01*
X96213008Y-42207518D01*
X95998696Y-42347760D01*
X95815705Y-42526958D01*
X95671006Y-42738286D01*
X95570110Y-42973694D01*
X95570105Y-42973719D01*
X95479709Y-42754404D01*
X95337974Y-42541076D01*
X95157504Y-42359341D01*
X94945171Y-42216120D01*
X94709063Y-42116870D01*
X94458175Y-42065370D01*
X94202061Y-42063582D01*
X93950478Y-42111574D01*
X93713008Y-42207518D01*
X93498696Y-42347760D01*
X93315705Y-42526958D01*
X93171006Y-42738286D01*
X93070110Y-42973694D01*
X93016859Y-43224217D01*
X93013283Y-43480312D01*
X93059518Y-43732224D01*
X93153802Y-43970358D01*
X93292544Y-44185644D01*
X93470460Y-44369881D01*
X93680772Y-44516052D01*
X93740000Y-44541928D01*
X93740000Y-49224000D01*
X93287500Y-49224000D01*
X93224928Y-49230135D01*
X93162230Y-49235621D01*
X93158789Y-49236621D01*
X93155226Y-49236970D01*
X93095005Y-49255151D01*
X93034599Y-49272701D01*
X93031420Y-49274349D01*
X93027991Y-49275384D01*
X92977795Y-49302074D01*
X92947356Y-49256260D01*
X92860161Y-49168454D01*
X92757571Y-49099256D01*
X92643495Y-49051303D01*
X92522277Y-49026420D01*
X92476572Y-49026101D01*
X92470136Y-49005320D01*
X92410860Y-48915365D01*
X92328870Y-48845485D01*
X92230658Y-48801214D01*
X92124000Y-48786057D01*
X90924000Y-48786057D01*
X90863327Y-48790895D01*
X90760420Y-48822764D01*
X90670465Y-48882040D01*
X90600585Y-48964030D01*
X90556314Y-49062242D01*
X90541157Y-49168900D01*
X90541157Y-50068900D01*
X90545995Y-50129573D01*
X90566737Y-50196549D01*
X90520465Y-50227040D01*
X90450585Y-50309030D01*
X90406314Y-50407242D01*
X90391157Y-50513900D01*
X90391157Y-51263900D01*
X90395995Y-51324573D01*
X90427864Y-51427480D01*
X90487140Y-51517435D01*
X90569130Y-51587315D01*
X90667342Y-51631586D01*
X90774000Y-51646743D01*
X91521000Y-51646743D01*
X91521000Y-52070000D01*
X91527135Y-52132572D01*
X91532621Y-52195270D01*
X91533621Y-52198711D01*
X91533970Y-52202274D01*
X91552161Y-52262527D01*
X91569702Y-52322902D01*
X91571348Y-52326077D01*
X91572384Y-52329509D01*
X91601923Y-52385063D01*
X91630865Y-52440899D01*
X91633100Y-52443699D01*
X91634781Y-52446860D01*
X91674533Y-52495601D01*
X91713784Y-52544770D01*
X91718699Y-52549754D01*
X91718782Y-52549856D01*
X91718876Y-52549934D01*
X91720460Y-52551540D01*
X92352803Y-53183883D01*
X92328870Y-53163485D01*
X92230658Y-53119214D01*
X92124000Y-53104057D01*
X90924000Y-53104057D01*
X90863327Y-53108895D01*
X90760420Y-53140764D01*
X90670465Y-53200040D01*
X90600585Y-53282030D01*
X90556314Y-53380242D01*
X90541157Y-53486900D01*
X90541157Y-54386900D01*
X90545995Y-54447573D01*
X90577864Y-54550480D01*
X90591771Y-54571584D01*
X90556314Y-54650242D01*
X90541157Y-54756900D01*
X90541157Y-55656900D01*
X90545995Y-55717573D01*
X90577864Y-55820480D01*
X90637140Y-55910435D01*
X90719130Y-55980315D01*
X90817342Y-56024586D01*
X90924000Y-56039743D01*
X92124000Y-56039743D01*
X92184673Y-56034905D01*
X92287580Y-56003036D01*
X92377535Y-55943760D01*
X92447415Y-55861770D01*
X92491686Y-55763558D01*
X92506843Y-55656900D01*
X92506843Y-54756900D01*
X92502005Y-54696227D01*
X92470136Y-54593320D01*
X92456229Y-54572216D01*
X92480713Y-54517900D01*
X93246157Y-54517900D01*
X93246157Y-54980000D01*
X93250995Y-55040673D01*
X93270373Y-55103245D01*
X93261314Y-55123342D01*
X93246157Y-55230000D01*
X93246157Y-55780000D01*
X93250995Y-55840673D01*
X93282864Y-55943580D01*
X93342140Y-56033535D01*
X93424130Y-56103415D01*
X93522342Y-56147686D01*
X93629000Y-56162843D01*
X93848000Y-56162843D01*
X93848000Y-56824041D01*
X93812661Y-56788454D01*
X93710071Y-56719256D01*
X93595995Y-56671303D01*
X93474777Y-56646420D01*
X93351034Y-56645557D01*
X93229481Y-56668744D01*
X93114746Y-56715100D01*
X93011200Y-56782858D01*
X92922787Y-56869439D01*
X92852875Y-56971543D01*
X92823304Y-57040538D01*
X89736685Y-60127157D01*
X88688800Y-60127157D01*
X88628127Y-60131995D01*
X88525220Y-60163864D01*
X88435265Y-60223140D01*
X88365385Y-60305130D01*
X88321114Y-60403342D01*
X88305957Y-60510000D01*
X88305957Y-61410000D01*
X88310795Y-61470673D01*
X88342664Y-61573580D01*
X88356571Y-61594684D01*
X88321114Y-61673342D01*
X88305957Y-61780000D01*
X88305957Y-62680000D01*
X88310795Y-62740673D01*
X88342664Y-62843580D01*
X88356571Y-62864684D01*
X88321114Y-62943342D01*
X88305957Y-63050000D01*
X88305957Y-63950000D01*
X88310795Y-64010673D01*
X88342664Y-64113580D01*
X88356571Y-64134684D01*
X88321114Y-64213342D01*
X88305957Y-64320000D01*
X88305957Y-64624299D01*
X88071643Y-64389985D01*
X88071643Y-64320000D01*
X88066805Y-64259327D01*
X88034936Y-64156420D01*
X88021029Y-64135316D01*
X88056486Y-64056658D01*
X88071643Y-63950000D01*
X88071643Y-63050000D01*
X88066805Y-62989327D01*
X88034936Y-62886420D01*
X88021029Y-62865316D01*
X88056486Y-62786658D01*
X88071643Y-62680000D01*
X88071643Y-62626629D01*
X88130506Y-62543185D01*
X88180838Y-62430138D01*
X88208253Y-62309468D01*
X88210227Y-62168127D01*
X88186191Y-62046739D01*
X88139036Y-61932330D01*
X88071643Y-61830896D01*
X88071643Y-61780000D01*
X88066805Y-61719327D01*
X88034936Y-61616420D01*
X88021029Y-61595316D01*
X88056486Y-61516658D01*
X88071643Y-61410000D01*
X88071643Y-60510000D01*
X88066805Y-60449327D01*
X88034936Y-60346420D01*
X87975660Y-60256465D01*
X87893670Y-60186585D01*
X87795458Y-60142314D01*
X87688800Y-60127157D01*
X86488800Y-60127157D01*
X86428127Y-60131995D01*
X86325220Y-60163864D01*
X86235265Y-60223140D01*
X86214804Y-60247146D01*
X85558829Y-59591171D01*
X85517358Y-59557106D01*
X85476246Y-59522609D01*
X85473569Y-59521137D01*
X85471208Y-59519198D01*
X85423934Y-59493850D01*
X85376880Y-59467982D01*
X85373965Y-59467057D01*
X85371275Y-59465615D01*
X85329938Y-59452977D01*
X85379475Y-59405803D01*
X85450806Y-59304685D01*
X85501138Y-59191638D01*
X85528553Y-59070968D01*
X85530527Y-58929627D01*
X85506491Y-58808239D01*
X85459336Y-58693830D01*
X85428822Y-58647902D01*
X85522926Y-58668593D01*
X85646644Y-58671184D01*
X85768509Y-58649696D01*
X85883880Y-58604947D01*
X85988362Y-58538641D01*
X86077975Y-58453303D01*
X86149306Y-58352185D01*
X86199638Y-58239138D01*
X86227053Y-58118468D01*
X86229027Y-57977127D01*
X86204991Y-57855739D01*
X86157836Y-57741330D01*
X86089356Y-57638260D01*
X86002161Y-57550454D01*
X85899571Y-57481256D01*
X85785495Y-57433303D01*
X85664277Y-57408420D01*
X85540534Y-57407557D01*
X85418981Y-57430744D01*
X85351520Y-57458000D01*
X85205475Y-57458000D01*
X85209686Y-57448658D01*
X85224843Y-57342000D01*
X85224843Y-56662000D01*
X85220005Y-56601327D01*
X85214329Y-56583000D01*
X85476000Y-56583000D01*
X85529394Y-56577765D01*
X85582876Y-56573086D01*
X85585813Y-56572233D01*
X85588850Y-56571935D01*
X85640201Y-56556431D01*
X85691765Y-56541450D01*
X85694478Y-56540044D01*
X85697402Y-56539161D01*
X85744757Y-56513982D01*
X85792435Y-56489268D01*
X85794825Y-56487360D01*
X85797520Y-56485927D01*
X85839086Y-56452027D01*
X85881053Y-56418525D01*
X85885305Y-56414332D01*
X85885392Y-56414261D01*
X85885459Y-56414180D01*
X85886829Y-56412829D01*
X87781758Y-54517900D01*
X88367774Y-54517900D01*
X88377864Y-54550480D01*
X88437140Y-54640435D01*
X88519130Y-54710315D01*
X88617342Y-54754586D01*
X88724000Y-54769743D01*
X89924000Y-54769743D01*
X89984673Y-54764905D01*
X90087580Y-54733036D01*
X90177535Y-54673760D01*
X90247415Y-54591770D01*
X90291686Y-54493558D01*
X90306843Y-54386900D01*
X90306843Y-53486900D01*
X90302005Y-53426227D01*
X90270136Y-53323320D01*
X90210860Y-53233365D01*
X90128870Y-53163485D01*
X90030658Y-53119214D01*
X89924000Y-53104057D01*
X88724000Y-53104057D01*
X88663327Y-53108895D01*
X88560420Y-53140764D01*
X88470465Y-53200040D01*
X88400585Y-53282030D01*
X88367287Y-53355900D01*
X87541100Y-53355900D01*
X87487660Y-53361140D01*
X87434224Y-53365815D01*
X87431292Y-53366667D01*
X87428250Y-53366965D01*
X87376857Y-53382481D01*
X87325335Y-53397450D01*
X87322622Y-53398856D01*
X87319698Y-53399739D01*
X87272363Y-53424907D01*
X87224664Y-53449632D01*
X87222272Y-53451542D01*
X87219580Y-53452973D01*
X87178005Y-53486880D01*
X87136047Y-53520376D01*
X87131797Y-53524566D01*
X87131708Y-53524639D01*
X87131640Y-53524721D01*
X87130271Y-53526071D01*
X85279524Y-55376818D01*
X85280500Y-55372000D01*
X85280500Y-51117500D01*
X87058500Y-51117500D01*
X87196977Y-51091444D01*
X87324160Y-51009604D01*
X87409483Y-50884730D01*
X87439500Y-50736500D01*
X87439500Y-44958000D01*
X87413444Y-44819523D01*
X87331604Y-44692340D01*
X87206730Y-44607017D01*
X87058500Y-44577000D01*
X83629500Y-44577000D01*
X83629500Y-38544500D01*
X83603444Y-38406023D01*
X83521604Y-38278840D01*
X83396730Y-38193517D01*
X83248500Y-38163500D01*
X76517500Y-38163500D01*
X76379023Y-38189556D01*
X76251840Y-38271396D01*
X76166517Y-38396270D01*
X76136500Y-38544500D01*
X76136500Y-48069500D01*
X76162556Y-48207977D01*
X76244396Y-48335160D01*
X76369270Y-48420483D01*
X76454000Y-48437641D01*
X76454000Y-50673000D01*
X57531000Y-50673000D01*
X57392523Y-50699056D01*
X57265340Y-50780896D01*
X57180017Y-50905770D01*
X57150000Y-51054000D01*
X57150000Y-61404500D01*
X57176056Y-61542977D01*
X57257896Y-61670160D01*
X57382770Y-61755483D01*
X57404000Y-61759782D01*
X57404000Y-62218757D01*
X56696100Y-62218757D01*
X56635427Y-62223595D01*
X56532520Y-62255464D01*
X56442565Y-62314740D01*
X56436562Y-62321783D01*
X56312840Y-62401396D01*
X56227517Y-62526270D01*
X56197500Y-62674500D01*
X56197500Y-72950000D01*
X53171807Y-72950000D01*
X52930148Y-72926305D01*
X52719154Y-72862602D01*
X52524547Y-72759128D01*
X52353748Y-72619828D01*
X52213259Y-72450007D01*
X52108427Y-72256125D01*
X52043252Y-72045579D01*
X52018000Y-71805315D01*
X52018000Y-48450500D01*
X61912500Y-48450500D01*
X62055867Y-48422497D01*
X62181908Y-48338908D01*
X62362316Y-48158500D01*
X67623157Y-48158500D01*
X67623157Y-49758500D01*
X67627995Y-49819173D01*
X67659864Y-49922080D01*
X67714288Y-50004671D01*
X67731713Y-50099617D01*
X67780877Y-50223790D01*
X67853222Y-50336048D01*
X67945995Y-50432117D01*
X68055660Y-50508336D01*
X68178041Y-50561803D01*
X68308477Y-50590481D01*
X68441998Y-50593278D01*
X68573520Y-50570087D01*
X68698033Y-50521792D01*
X68744978Y-50492000D01*
X69048156Y-50492000D01*
X69071660Y-50508336D01*
X69194041Y-50561803D01*
X69324477Y-50590481D01*
X69457998Y-50593278D01*
X69589520Y-50570087D01*
X69714033Y-50521792D01*
X69760978Y-50492000D01*
X70064156Y-50492000D01*
X70087660Y-50508336D01*
X70210041Y-50561803D01*
X70340477Y-50590481D01*
X70473998Y-50593278D01*
X70605520Y-50570087D01*
X70730033Y-50521792D01*
X70842794Y-50450232D01*
X70939508Y-50358132D01*
X71016491Y-50249002D01*
X71064424Y-50141343D01*
X71506000Y-50141343D01*
X71566673Y-50136505D01*
X71669580Y-50104636D01*
X71759535Y-50045360D01*
X71829415Y-49963370D01*
X71873686Y-49865158D01*
X71888843Y-49758500D01*
X71888843Y-48158500D01*
X71884005Y-48097827D01*
X71852136Y-47994920D01*
X71792860Y-47904965D01*
X71710870Y-47835085D01*
X71612658Y-47790814D01*
X71506000Y-47775657D01*
X68006000Y-47775657D01*
X67945327Y-47780495D01*
X67842420Y-47812364D01*
X67752465Y-47871640D01*
X67682585Y-47953630D01*
X67638314Y-48051842D01*
X67623157Y-48158500D01*
X62362316Y-48158500D01*
X62435908Y-48084908D01*
X62517483Y-47963730D01*
X62547500Y-47815500D01*
X62547500Y-45085000D01*
X65024000Y-45085000D01*
X65167367Y-45056997D01*
X65293408Y-44973408D01*
X65547408Y-44719408D01*
X65628983Y-44598230D01*
X65659000Y-44450000D01*
X65659000Y-41783000D01*
X65630997Y-41639633D01*
X65547408Y-41513592D01*
X65293408Y-41259592D01*
X65172230Y-41178017D01*
X65024000Y-41148000D01*
X52018000Y-41148000D01*
X52018000Y-37717017D01*
X52415608Y-37717017D01*
X52506979Y-38214862D01*
X52693309Y-38685478D01*
X52967500Y-39110939D01*
X53319109Y-39475040D01*
X53734742Y-39763913D01*
X54198568Y-39966554D01*
X54692921Y-40075244D01*
X55198970Y-40085844D01*
X55697440Y-39997951D01*
X56169345Y-39814911D01*
X56596711Y-39543696D01*
X56963258Y-39194638D01*
X57255025Y-38781032D01*
X57460899Y-38318632D01*
X57573038Y-37825050D01*
X57581110Y-37246920D01*
X57482797Y-36750400D01*
X57289914Y-36282431D01*
X57009809Y-35860840D01*
X56653151Y-35501683D01*
X56233526Y-35218642D01*
X55766915Y-35022497D01*
X55271093Y-34920719D01*
X54764945Y-34917186D01*
X54267751Y-35012031D01*
X53798447Y-35201642D01*
X53374911Y-35478796D01*
X53013273Y-35832938D01*
X52727309Y-36250578D01*
X52527911Y-36715807D01*
X52422675Y-37210907D01*
X52415608Y-37717017D01*
X52018000Y-37717017D01*
X52018000Y-35963306D01*
X52041695Y-35721648D01*
X52105398Y-35510654D01*
X52208872Y-35316047D01*
X52348173Y-35145246D01*
X52517993Y-35004759D01*
X52711875Y-34899927D01*
X52922421Y-34834752D01*
X53162685Y-34809500D01*
X118278194Y-34809500D01*
X118519852Y-34833195D01*
X118519852Y-34833195D01*
G37*
X118519852Y-34833195D02*
X118730846Y-34896898D01*
X118925453Y-35000372D01*
X119096254Y-35139673D01*
X119236741Y-35309493D01*
X119341573Y-35503375D01*
X119406748Y-35713921D01*
X119432000Y-35954185D01*
X119432000Y-36627157D01*
X119289914Y-36282431D01*
X119009809Y-35860840D01*
X118653151Y-35501683D01*
X118233526Y-35218642D01*
X117766915Y-35022497D01*
X117271093Y-34920719D01*
X116764945Y-34917186D01*
X116267751Y-35012031D01*
X115798447Y-35201642D01*
X115374911Y-35478796D01*
X115013273Y-35832938D01*
X114727309Y-36250578D01*
X114527911Y-36715807D01*
X114422675Y-37210907D01*
X114415608Y-37717017D01*
X114506979Y-38214862D01*
X114693309Y-38685478D01*
X114967500Y-39110939D01*
X115319109Y-39475040D01*
X115734742Y-39763913D01*
X116198568Y-39966554D01*
X116692921Y-40075244D01*
X117198970Y-40085844D01*
X117697440Y-39997951D01*
X118169345Y-39814911D01*
X118596711Y-39543696D01*
X118963258Y-39194638D01*
X119255025Y-38781032D01*
X119432000Y-38383540D01*
X119432000Y-69627157D01*
X119289914Y-69282431D01*
X119009809Y-68860840D01*
X118653151Y-68501683D01*
X118233526Y-68218642D01*
X117766915Y-68022497D01*
X117271093Y-67920719D01*
X116764945Y-67917186D01*
X116267751Y-68012031D01*
X115798447Y-68201642D01*
X115374911Y-68478796D01*
X115013273Y-68832938D01*
X114727309Y-69250578D01*
X114527911Y-69715807D01*
X114422675Y-70210907D01*
X114415608Y-70717017D01*
X114506979Y-71214862D01*
X114693309Y-71685478D01*
X114967500Y-72110939D01*
X115319109Y-72475040D01*
X115734742Y-72763913D01*
X116160677Y-72950000D01*
X85217000Y-72950000D01*
X85217000Y-69387190D01*
X85224843Y-69332000D01*
X85224843Y-68652000D01*
X85220005Y-68591327D01*
X85217000Y-68581624D01*
X85217000Y-68516500D01*
X85205840Y-68457190D01*
X85209686Y-68448658D01*
X85224843Y-68342000D01*
X85224843Y-67662000D01*
X85220005Y-67601327D01*
X85188136Y-67498420D01*
X85187613Y-67497626D01*
X85209686Y-67448658D01*
X85224843Y-67342000D01*
X85224843Y-66662000D01*
X85221574Y-66621000D01*
X86132574Y-66621000D01*
X86142664Y-66653580D01*
X86156571Y-66674684D01*
X86121114Y-66753342D01*
X86105957Y-66860000D01*
X86105957Y-67760000D01*
X86110795Y-67820673D01*
X86142664Y-67923580D01*
X86156571Y-67944684D01*
X86121114Y-68023342D01*
X86105957Y-68130000D01*
X86105957Y-69030000D01*
X86110795Y-69090673D01*
X86142664Y-69193580D01*
X86201940Y-69283535D01*
X86283930Y-69353415D01*
X86382142Y-69397686D01*
X86488800Y-69412843D01*
X87688800Y-69412843D01*
X87749473Y-69408005D01*
X87852380Y-69376136D01*
X87942335Y-69316860D01*
X88012215Y-69234870D01*
X88056486Y-69136658D01*
X88063755Y-69085510D01*
X88169880Y-69044347D01*
X88274362Y-68978041D01*
X88305957Y-68947953D01*
X88305957Y-69030000D01*
X88310795Y-69090673D01*
X88342664Y-69193580D01*
X88401940Y-69283535D01*
X88483930Y-69353415D01*
X88582142Y-69397686D01*
X88688800Y-69412843D01*
X89888800Y-69412843D01*
X89949473Y-69408005D01*
X90052380Y-69376136D01*
X90142335Y-69316860D01*
X90212215Y-69234870D01*
X90256486Y-69136658D01*
X90271643Y-69030000D01*
X90271643Y-68130000D01*
X90266805Y-68069327D01*
X90234936Y-67966420D01*
X90221029Y-67945316D01*
X90256486Y-67866658D01*
X90271643Y-67760000D01*
X90271643Y-67585515D01*
X91871158Y-65986000D01*
X93154500Y-65986000D01*
X93207894Y-65980765D01*
X93261376Y-65976086D01*
X93264313Y-65975233D01*
X93267350Y-65974935D01*
X93318701Y-65959431D01*
X93370265Y-65944450D01*
X93372978Y-65943044D01*
X93375902Y-65942161D01*
X93423257Y-65916982D01*
X93470935Y-65892268D01*
X93473325Y-65890360D01*
X93476020Y-65888927D01*
X93517586Y-65855027D01*
X93559553Y-65821525D01*
X93563805Y-65817332D01*
X93563892Y-65817261D01*
X93563959Y-65817180D01*
X93565329Y-65815829D01*
X93581595Y-65799563D01*
X93630880Y-65780447D01*
X93735362Y-65714141D01*
X93824975Y-65628803D01*
X93896306Y-65527685D01*
X93946638Y-65414638D01*
X93974053Y-65293968D01*
X93976027Y-65152627D01*
X93951991Y-65031239D01*
X93904836Y-64916830D01*
X93836356Y-64813760D01*
X93749161Y-64725954D01*
X93673081Y-64674637D01*
X96235218Y-62112500D01*
X96400665Y-62112500D01*
X96451067Y-62134520D01*
X96571926Y-62161093D01*
X96695644Y-62163684D01*
X96817509Y-62142196D01*
X96828000Y-62138127D01*
X96828000Y-62906985D01*
X96767063Y-62881370D01*
X96516175Y-62829870D01*
X96260061Y-62828082D01*
X96008478Y-62876074D01*
X95771008Y-62972018D01*
X95556696Y-63112260D01*
X95373705Y-63291458D01*
X95229006Y-63502786D01*
X95128110Y-63738194D01*
X95074859Y-63988717D01*
X95071283Y-64244812D01*
X95117518Y-64496724D01*
X95211802Y-64734858D01*
X95350544Y-64950144D01*
X95528460Y-65134381D01*
X95738772Y-65280552D01*
X95973471Y-65383090D01*
X96223616Y-65438088D01*
X96479680Y-65443451D01*
X96731909Y-65398977D01*
X96970695Y-65306357D01*
X97186944Y-65169121D01*
X97372419Y-64992496D01*
X97520055Y-64783209D01*
X97624228Y-64549232D01*
X97629361Y-64526637D01*
X97711802Y-64734858D01*
X97850544Y-64950144D01*
X98028460Y-65134381D01*
X98238772Y-65280552D01*
X98473471Y-65383090D01*
X98723616Y-65438088D01*
X98979680Y-65443451D01*
X99231909Y-65398977D01*
X99470695Y-65306357D01*
X99686944Y-65169121D01*
X99872419Y-64992496D01*
X100020055Y-64783209D01*
X100124228Y-64549232D01*
X100129361Y-64526637D01*
X100211802Y-64734858D01*
X100350544Y-64950144D01*
X100528460Y-65134381D01*
X100738772Y-65280552D01*
X100973471Y-65383090D01*
X101223616Y-65438088D01*
X101479680Y-65443451D01*
X101731909Y-65398977D01*
X101970695Y-65306357D01*
X102186944Y-65169121D01*
X102372419Y-64992496D01*
X102520055Y-64783209D01*
X102624228Y-64549232D01*
X102629361Y-64526637D01*
X102711802Y-64734858D01*
X102850544Y-64950144D01*
X103028460Y-65134381D01*
X103238772Y-65280552D01*
X103473471Y-65383090D01*
X103723616Y-65438088D01*
X103979680Y-65443451D01*
X104231909Y-65398977D01*
X104470695Y-65306357D01*
X104686944Y-65169121D01*
X104872419Y-64992496D01*
X105020055Y-64783209D01*
X105124228Y-64549232D01*
X105129361Y-64526637D01*
X105211802Y-64734858D01*
X105350544Y-64950144D01*
X105528460Y-65134381D01*
X105738772Y-65280552D01*
X105973471Y-65383090D01*
X106223616Y-65438088D01*
X106479680Y-65443451D01*
X106731909Y-65398977D01*
X106970695Y-65306357D01*
X107186944Y-65169121D01*
X107372419Y-64992496D01*
X107520055Y-64783209D01*
X107624228Y-64549232D01*
X107629361Y-64526637D01*
X107711802Y-64734858D01*
X107850544Y-64950144D01*
X108028460Y-65134381D01*
X108238772Y-65280552D01*
X108473471Y-65383090D01*
X108723616Y-65438088D01*
X108979680Y-65443451D01*
X109231909Y-65398977D01*
X109470695Y-65306357D01*
X109686944Y-65169121D01*
X109872419Y-64992496D01*
X110020055Y-64783209D01*
X110124228Y-64549232D01*
X110180971Y-64299477D01*
X110185056Y-64006940D01*
X110135309Y-63755698D01*
X110037709Y-63518904D01*
X109895974Y-63305576D01*
X109715504Y-63123841D01*
X109560000Y-63018952D01*
X109560000Y-62733843D01*
X109759000Y-62733843D01*
X109819673Y-62729005D01*
X109922580Y-62697136D01*
X110012535Y-62637860D01*
X110082415Y-62555870D01*
X110126686Y-62457658D01*
X110141843Y-62351000D01*
X110141843Y-61601000D01*
X110137005Y-61540327D01*
X110105136Y-61437420D01*
X110045860Y-61347465D01*
X109963870Y-61277585D01*
X109865658Y-61233314D01*
X109759000Y-61218157D01*
X109364237Y-61218157D01*
X108670000Y-60523920D01*
X108670000Y-59160868D01*
X108754541Y-59197803D01*
X108884977Y-59226481D01*
X109018498Y-59229278D01*
X109025746Y-59228000D01*
X109134365Y-59228000D01*
X109184130Y-59270415D01*
X109282342Y-59314686D01*
X109389000Y-59329843D01*
X109989000Y-59329843D01*
X110049673Y-59325005D01*
X110152580Y-59293136D01*
X110242535Y-59233860D01*
X110312415Y-59151870D01*
X110356686Y-59053658D01*
X110371843Y-58947000D01*
X110371843Y-58147000D01*
X110367005Y-58086327D01*
X110335136Y-57983420D01*
X110275860Y-57893465D01*
X110193870Y-57823585D01*
X110095658Y-57779314D01*
X109989000Y-57764157D01*
X109389000Y-57764157D01*
X109328327Y-57768995D01*
X109225420Y-57800864D01*
X109135465Y-57860140D01*
X109130471Y-57866000D01*
X109086080Y-57866000D01*
X109314080Y-57638000D01*
X110150365Y-57638000D01*
X110200130Y-57680415D01*
X110298342Y-57724686D01*
X110405000Y-57739843D01*
X112305000Y-57739843D01*
X112365673Y-57735005D01*
X112468580Y-57703136D01*
X112558535Y-57643860D01*
X112628415Y-57561870D01*
X112639175Y-57538000D01*
X112842000Y-57538000D01*
X112895394Y-57532765D01*
X112948876Y-57528086D01*
X112951813Y-57527233D01*
X112954850Y-57526935D01*
X113006201Y-57511431D01*
X113057765Y-57496450D01*
X113060478Y-57495044D01*
X113063402Y-57494161D01*
X113110757Y-57468982D01*
X113158435Y-57444268D01*
X113160825Y-57442360D01*
X113163520Y-57440927D01*
X113205086Y-57407027D01*
X113247053Y-57373525D01*
X113251305Y-57369332D01*
X113251392Y-57369261D01*
X113251459Y-57369180D01*
X113252829Y-57367829D01*
X113351658Y-57269000D01*
X114991157Y-57269000D01*
X114991157Y-58469000D01*
X114995995Y-58529673D01*
X115027864Y-58632580D01*
X115087140Y-58722535D01*
X115169130Y-58792415D01*
X115267342Y-58836686D01*
X115374000Y-58851843D01*
X116274000Y-58851843D01*
X116334673Y-58847005D01*
X116437580Y-58815136D01*
X116458684Y-58801229D01*
X116537342Y-58836686D01*
X116644000Y-58851843D01*
X117544000Y-58851843D01*
X117604673Y-58847005D01*
X117707580Y-58815136D01*
X117797535Y-58755860D01*
X117867415Y-58673870D01*
X117911686Y-58575658D01*
X117926843Y-58469000D01*
X117926843Y-57269000D01*
X117922005Y-57208327D01*
X117890136Y-57105420D01*
X117830860Y-57015465D01*
X117748870Y-56945585D01*
X117650658Y-56901314D01*
X117544000Y-56886157D01*
X116644000Y-56886157D01*
X116583327Y-56890995D01*
X116480420Y-56922864D01*
X116459316Y-56936771D01*
X116380658Y-56901314D01*
X116274000Y-56886157D01*
X115374000Y-56886157D01*
X115313327Y-56890995D01*
X115210420Y-56922864D01*
X115120465Y-56982140D01*
X115050585Y-57064130D01*
X115006314Y-57162342D01*
X114991157Y-57269000D01*
X113351658Y-57269000D01*
X114370658Y-56250000D01*
X114991157Y-56250000D01*
X114991157Y-56269000D01*
X114995995Y-56329673D01*
X115027864Y-56432580D01*
X115087140Y-56522535D01*
X115169130Y-56592415D01*
X115267342Y-56636686D01*
X115374000Y-56651843D01*
X116274000Y-56651843D01*
X116334673Y-56647005D01*
X116437580Y-56615136D01*
X116527535Y-56555860D01*
X116597415Y-56473870D01*
X116641686Y-56375658D01*
X116656843Y-56269000D01*
X116656843Y-55069000D01*
X116652005Y-55008327D01*
X116620136Y-54905420D01*
X116560860Y-54815465D01*
X116478870Y-54745585D01*
X116380658Y-54701314D01*
X116274000Y-54686157D01*
X115374000Y-54686157D01*
X115313327Y-54690995D01*
X115210420Y-54722864D01*
X115120465Y-54782140D01*
X115050585Y-54864130D01*
X115006314Y-54962342D01*
X114991157Y-55069000D01*
X114991157Y-55088000D01*
X114130000Y-55088000D01*
X114076606Y-55093235D01*
X114023124Y-55097914D01*
X114020187Y-55098767D01*
X114017150Y-55099065D01*
X113965799Y-55114569D01*
X113914235Y-55129550D01*
X113911522Y-55130956D01*
X113908598Y-55131839D01*
X113861243Y-55157018D01*
X113813565Y-55181732D01*
X113811175Y-55183640D01*
X113808480Y-55185073D01*
X113766914Y-55218973D01*
X113724947Y-55252475D01*
X113720695Y-55256668D01*
X113720608Y-55256739D01*
X113720541Y-55256820D01*
X113719171Y-55258171D01*
X112624438Y-56352904D01*
X112591860Y-56303465D01*
X112509870Y-56233585D01*
X112411658Y-56189314D01*
X112305000Y-56174157D01*
X110405000Y-56174157D01*
X110344327Y-56178995D01*
X110241420Y-56210864D01*
X110151465Y-56270140D01*
X110146471Y-56276000D01*
X109687843Y-56276000D01*
X109687843Y-55607000D01*
X109683005Y-55546327D01*
X109651136Y-55443420D01*
X109591860Y-55353465D01*
X109509870Y-55283585D01*
X109411658Y-55239314D01*
X109305000Y-55224157D01*
X108130237Y-55224157D01*
X107354540Y-54448460D01*
X107305946Y-54408545D01*
X107257743Y-54368098D01*
X107254602Y-54366371D01*
X107251837Y-54364100D01*
X107196412Y-54334381D01*
X107183632Y-54327355D01*
X107179005Y-54269327D01*
X107147136Y-54166420D01*
X107087860Y-54076465D01*
X107005870Y-54006585D01*
X106939363Y-53976606D01*
X106909218Y-53939644D01*
X106806810Y-53854925D01*
X106689898Y-53791711D01*
X106562934Y-53752409D01*
X106430754Y-53738517D01*
X106298393Y-53750562D01*
X106170893Y-53788088D01*
X106053109Y-53849664D01*
X105949529Y-53932944D01*
X105920179Y-53967923D01*
X105892860Y-53926465D01*
X105810870Y-53856585D01*
X105737000Y-53823287D01*
X105737000Y-53199658D01*
X106595815Y-52340843D01*
X107907185Y-52340843D01*
X108435171Y-52868829D01*
X108476642Y-52902894D01*
X108517754Y-52937391D01*
X108520431Y-52938863D01*
X108522792Y-52940802D01*
X108570066Y-52966150D01*
X108617120Y-52992018D01*
X108620035Y-52992943D01*
X108622725Y-52994385D01*
X108673984Y-53010056D01*
X108725203Y-53026304D01*
X108728243Y-53026645D01*
X108731161Y-53027537D01*
X108784557Y-53032961D01*
X108837888Y-53038943D01*
X108843853Y-53038985D01*
X108843972Y-53038997D01*
X108844083Y-53038987D01*
X108846000Y-53039000D01*
X111699157Y-53039000D01*
X111699157Y-53108000D01*
X111703995Y-53168673D01*
X111735864Y-53271580D01*
X111795140Y-53361535D01*
X111877130Y-53431415D01*
X111975342Y-53475686D01*
X112082000Y-53490843D01*
X113382000Y-53490843D01*
X113442673Y-53486005D01*
X113545580Y-53454136D01*
X113635535Y-53394860D01*
X113705415Y-53312870D01*
X113749686Y-53214658D01*
X113764843Y-53108000D01*
X113764843Y-52189000D01*
X114991157Y-52189000D01*
X114991157Y-53389000D01*
X114995995Y-53449673D01*
X115027864Y-53552580D01*
X115087140Y-53642535D01*
X115169130Y-53712415D01*
X115267342Y-53756686D01*
X115374000Y-53771843D01*
X116274000Y-53771843D01*
X116334673Y-53767005D01*
X116437580Y-53735136D01*
X116458684Y-53721229D01*
X116537342Y-53756686D01*
X116644000Y-53771843D01*
X117544000Y-53771843D01*
X117604673Y-53767005D01*
X117707580Y-53735136D01*
X117797535Y-53675860D01*
X117867415Y-53593870D01*
X117911686Y-53495658D01*
X117926843Y-53389000D01*
X117926843Y-52189000D01*
X117922005Y-52128327D01*
X117890136Y-52025420D01*
X117830860Y-51935465D01*
X117748870Y-51865585D01*
X117650658Y-51821314D01*
X117544000Y-51806157D01*
X116644000Y-51806157D01*
X116583327Y-51810995D01*
X116480420Y-51842864D01*
X116459316Y-51856771D01*
X116380658Y-51821314D01*
X116274000Y-51806157D01*
X115374000Y-51806157D01*
X115313327Y-51810995D01*
X115210420Y-51842864D01*
X115120465Y-51902140D01*
X115050585Y-51984130D01*
X115006314Y-52082342D01*
X114991157Y-52189000D01*
X113764843Y-52189000D01*
X113764843Y-51808000D01*
X113760005Y-51747327D01*
X113728136Y-51644420D01*
X113668860Y-51554465D01*
X113586870Y-51484585D01*
X113488658Y-51440314D01*
X113382000Y-51425157D01*
X112082000Y-51425157D01*
X112021327Y-51429995D01*
X111918420Y-51461864D01*
X111828465Y-51521140D01*
X111758585Y-51603130D01*
X111714314Y-51701342D01*
X111699157Y-51808000D01*
X111699157Y-51877000D01*
X109848387Y-51877000D01*
X109895294Y-51847232D01*
X109992008Y-51755132D01*
X109996941Y-51748139D01*
X110906079Y-50839000D01*
X111701629Y-50839000D01*
X111703995Y-50868673D01*
X111735864Y-50971580D01*
X111795140Y-51061535D01*
X111877130Y-51131415D01*
X111975342Y-51175686D01*
X112082000Y-51190843D01*
X113382000Y-51190843D01*
X113442673Y-51186005D01*
X113545580Y-51154136D01*
X113635535Y-51094860D01*
X113705415Y-51012870D01*
X113749686Y-50914658D01*
X113764843Y-50808000D01*
X113764843Y-50739000D01*
X114991157Y-50739000D01*
X114991157Y-51189000D01*
X114995995Y-51249673D01*
X115027864Y-51352580D01*
X115087140Y-51442535D01*
X115169130Y-51512415D01*
X115267342Y-51556686D01*
X115374000Y-51571843D01*
X116274000Y-51571843D01*
X116334673Y-51567005D01*
X116437580Y-51535136D01*
X116527535Y-51475860D01*
X116597415Y-51393870D01*
X116641686Y-51295658D01*
X116656843Y-51189000D01*
X116656843Y-49989000D01*
X116652005Y-49928327D01*
X116620136Y-49825420D01*
X116560860Y-49735465D01*
X116478870Y-49665585D01*
X116380658Y-49621314D01*
X116274000Y-49606157D01*
X115565714Y-49606157D01*
X115565016Y-49605944D01*
X115513797Y-49589696D01*
X115510757Y-49589355D01*
X115507839Y-49588463D01*
X115454483Y-49583043D01*
X115401112Y-49577057D01*
X115395137Y-49577015D01*
X115395029Y-49577004D01*
X115394928Y-49577014D01*
X115393000Y-49577000D01*
X113764843Y-49577000D01*
X113764843Y-49508000D01*
X113760005Y-49447327D01*
X113728136Y-49344420D01*
X113668860Y-49254465D01*
X113586870Y-49184585D01*
X113488658Y-49140314D01*
X113382000Y-49125157D01*
X112082000Y-49125157D01*
X112021327Y-49129995D01*
X111918420Y-49161864D01*
X111828465Y-49221140D01*
X111758585Y-49303130D01*
X111714314Y-49401342D01*
X111703562Y-49477000D01*
X110624000Y-49477000D01*
X110561428Y-49483135D01*
X110498730Y-49488621D01*
X110495289Y-49489621D01*
X110491726Y-49489970D01*
X110431505Y-49508151D01*
X110371099Y-49525701D01*
X110367920Y-49527349D01*
X110364491Y-49528384D01*
X110308954Y-49557914D01*
X110253101Y-49586865D01*
X110250301Y-49589100D01*
X110247140Y-49590781D01*
X110198429Y-49630508D01*
X110149230Y-49669783D01*
X110144249Y-49674697D01*
X110144144Y-49674782D01*
X110144064Y-49674879D01*
X110142461Y-49676460D01*
X108996906Y-50822014D01*
X108949800Y-50868144D01*
X108874348Y-50978338D01*
X108821736Y-51101090D01*
X108793970Y-51231722D01*
X108792105Y-51365260D01*
X108816213Y-51496617D01*
X108865377Y-51620790D01*
X108928688Y-51719030D01*
X108614843Y-51405185D01*
X108614843Y-50658000D01*
X108610005Y-50597327D01*
X108578136Y-50494420D01*
X108518860Y-50404465D01*
X108436870Y-50334585D01*
X108338658Y-50290314D01*
X108232000Y-50275157D01*
X106232000Y-50275157D01*
X106171327Y-50279995D01*
X106068420Y-50311864D01*
X105978465Y-50371140D01*
X105908585Y-50453130D01*
X105864314Y-50551342D01*
X105849157Y-50658000D01*
X105849157Y-51444185D01*
X104745171Y-52548171D01*
X104711106Y-52589642D01*
X104676609Y-52630754D01*
X104675137Y-52633431D01*
X104673198Y-52635792D01*
X104647850Y-52683066D01*
X104621982Y-52730120D01*
X104621057Y-52733035D01*
X104619615Y-52735725D01*
X104603944Y-52786984D01*
X104587696Y-52838203D01*
X104587355Y-52841243D01*
X104586463Y-52844161D01*
X104581043Y-52897517D01*
X104575057Y-52950888D01*
X104575015Y-52956863D01*
X104575004Y-52956971D01*
X104575014Y-52957072D01*
X104575000Y-52959000D01*
X104575000Y-53823774D01*
X104542420Y-53833864D01*
X104452465Y-53893140D01*
X104382585Y-53975130D01*
X104338314Y-54073342D01*
X104323157Y-54180000D01*
X104323157Y-54719148D01*
X104279261Y-54705392D01*
X104147131Y-54691037D01*
X104111843Y-54694124D01*
X104111843Y-54430000D01*
X104107005Y-54369327D01*
X104087627Y-54306755D01*
X104096686Y-54286658D01*
X104111843Y-54180000D01*
X104111843Y-53630000D01*
X104107005Y-53569327D01*
X104087627Y-53506755D01*
X104096686Y-53486658D01*
X104111843Y-53380000D01*
X104111843Y-52830000D01*
X104107005Y-52769327D01*
X104087627Y-52706755D01*
X104096686Y-52686658D01*
X104111843Y-52580000D01*
X104111843Y-52030000D01*
X104107005Y-51969327D01*
X104087627Y-51906755D01*
X104096686Y-51886658D01*
X104111843Y-51780000D01*
X104111843Y-51230000D01*
X104109297Y-51198067D01*
X104149362Y-51172641D01*
X104238975Y-51087303D01*
X104310306Y-50986185D01*
X104360638Y-50873138D01*
X104388053Y-50752468D01*
X104390027Y-50611127D01*
X104365991Y-50489739D01*
X104318836Y-50375330D01*
X104250356Y-50272260D01*
X104163161Y-50184454D01*
X104111843Y-50149839D01*
X104111843Y-49630000D01*
X104107005Y-49569327D01*
X104075136Y-49466420D01*
X104015860Y-49376465D01*
X103933870Y-49306585D01*
X103835658Y-49262314D01*
X103729000Y-49247157D01*
X102136843Y-49247157D01*
X102136843Y-47655000D01*
X102132005Y-47594327D01*
X102100136Y-47491420D01*
X102040860Y-47401465D01*
X101958870Y-47331585D01*
X101860658Y-47287314D01*
X101754000Y-47272157D01*
X101204000Y-47272157D01*
X101143327Y-47276995D01*
X101080755Y-47296373D01*
X101060658Y-47287314D01*
X100954000Y-47272157D01*
X100460000Y-47272157D01*
X100460000Y-47110158D01*
X103235315Y-44334843D01*
X105020999Y-44334843D01*
X104681671Y-44674171D01*
X104647606Y-44715642D01*
X104613109Y-44756754D01*
X104611637Y-44759431D01*
X104609698Y-44761792D01*
X104584350Y-44809066D01*
X104558482Y-44856120D01*
X104557557Y-44859035D01*
X104556115Y-44861725D01*
X104540444Y-44912984D01*
X104524196Y-44964203D01*
X104523855Y-44967243D01*
X104522963Y-44970161D01*
X104517543Y-45023517D01*
X104511557Y-45076888D01*
X104511515Y-45082863D01*
X104511504Y-45082971D01*
X104511514Y-45083072D01*
X104511500Y-45085000D01*
X104511500Y-45479342D01*
X104157289Y-45833553D01*
X104100246Y-45856600D01*
X103996700Y-45924358D01*
X103908287Y-46010939D01*
X103838375Y-46113043D01*
X103789627Y-46226781D01*
X103763898Y-46347823D01*
X103762171Y-46471556D01*
X103784509Y-46593269D01*
X103830063Y-46708324D01*
X103897097Y-46812341D01*
X103977530Y-46895631D01*
X103908287Y-46963439D01*
X103838375Y-47065543D01*
X103789627Y-47179281D01*
X103763898Y-47300323D01*
X103762171Y-47424056D01*
X103784509Y-47545769D01*
X103830063Y-47660824D01*
X103897097Y-47764841D01*
X103983058Y-47853856D01*
X104084671Y-47924479D01*
X104198067Y-47974020D01*
X104318926Y-48000593D01*
X104442644Y-48003184D01*
X104564509Y-47981696D01*
X104641071Y-47952000D01*
X105131774Y-47952000D01*
X105141864Y-47984580D01*
X105201140Y-48074535D01*
X105283130Y-48144415D01*
X105381342Y-48188686D01*
X105488000Y-48203843D01*
X106688000Y-48203843D01*
X106748673Y-48199005D01*
X106851580Y-48167136D01*
X106941535Y-48107860D01*
X107011415Y-48025870D01*
X107055686Y-47927658D01*
X107070843Y-47821000D01*
X107070843Y-47487556D01*
X107127671Y-47487556D01*
X107150009Y-47609269D01*
X107195563Y-47724324D01*
X107262597Y-47828341D01*
X107309626Y-47877040D01*
X107309995Y-47881673D01*
X107341864Y-47984580D01*
X107401140Y-48074535D01*
X107483130Y-48144415D01*
X107581342Y-48188686D01*
X107688000Y-48203843D01*
X108888000Y-48203843D01*
X108948673Y-48199005D01*
X109051580Y-48167136D01*
X109141535Y-48107860D01*
X109211415Y-48025870D01*
X109255686Y-47927658D01*
X109270843Y-47821000D01*
X109270843Y-46921000D01*
X109266005Y-46860327D01*
X109234136Y-46757420D01*
X109184438Y-46682000D01*
X113055000Y-46682000D01*
X113108394Y-46676765D01*
X113161876Y-46672086D01*
X113164813Y-46671233D01*
X113167850Y-46670935D01*
X113219201Y-46655431D01*
X113270765Y-46640450D01*
X113273478Y-46639044D01*
X113276402Y-46638161D01*
X113323757Y-46612982D01*
X113371435Y-46588268D01*
X113373825Y-46586360D01*
X113376520Y-46584927D01*
X113418086Y-46551027D01*
X113460053Y-46517525D01*
X113464305Y-46513332D01*
X113464392Y-46513261D01*
X113464459Y-46513180D01*
X113465829Y-46511829D01*
X113735815Y-46241843D01*
X114147000Y-46241843D01*
X114207673Y-46237005D01*
X114310580Y-46205136D01*
X114400535Y-46145860D01*
X114426837Y-46115000D01*
X116963032Y-46115000D01*
X117042130Y-46182415D01*
X117140342Y-46226686D01*
X117247000Y-46241843D01*
X118297000Y-46241843D01*
X118357673Y-46237005D01*
X118460580Y-46205136D01*
X118550535Y-46145860D01*
X118620415Y-46063870D01*
X118664686Y-45965658D01*
X118679843Y-45859000D01*
X118679843Y-45209000D01*
X118675005Y-45148327D01*
X118643136Y-45045420D01*
X118583860Y-44955465D01*
X118501870Y-44885585D01*
X118403658Y-44841314D01*
X118297000Y-44826157D01*
X117247000Y-44826157D01*
X117186327Y-44830995D01*
X117083420Y-44862864D01*
X116993465Y-44922140D01*
X116967163Y-44953000D01*
X114430968Y-44953000D01*
X114351870Y-44885585D01*
X114253658Y-44841314D01*
X114147000Y-44826157D01*
X113097000Y-44826157D01*
X113036327Y-44830995D01*
X112933420Y-44862864D01*
X112843465Y-44922140D01*
X112773585Y-45004130D01*
X112729314Y-45102342D01*
X112714157Y-45209000D01*
X112714157Y-45520000D01*
X109056183Y-45520000D01*
X109024860Y-45472465D01*
X108942870Y-45402585D01*
X108844658Y-45358314D01*
X108738000Y-45343157D01*
X107538000Y-45343157D01*
X107477327Y-45347995D01*
X107374420Y-45379864D01*
X107284465Y-45439140D01*
X107214585Y-45521130D01*
X107170314Y-45619342D01*
X107155157Y-45726000D01*
X107155157Y-46476000D01*
X107159995Y-46536673D01*
X107191864Y-46639580D01*
X107251140Y-46729535D01*
X107328732Y-46795667D01*
X107320314Y-46814342D01*
X107305157Y-46921000D01*
X107305157Y-46996219D01*
X107273787Y-47026939D01*
X107203875Y-47129043D01*
X107155127Y-47242781D01*
X107129398Y-47363823D01*
X107127671Y-47487556D01*
X107070843Y-47487556D01*
X107070843Y-46921000D01*
X107066005Y-46860327D01*
X107034136Y-46757420D01*
X106974860Y-46667465D01*
X106892870Y-46597585D01*
X106794658Y-46553314D01*
X106688000Y-46538157D01*
X105488000Y-46538157D01*
X105427327Y-46542995D01*
X105324420Y-46574864D01*
X105234465Y-46634140D01*
X105164585Y-46716130D01*
X105131287Y-46790000D01*
X104904169Y-46790000D01*
X104945306Y-46731685D01*
X104979682Y-46654476D01*
X105503329Y-46130829D01*
X105537394Y-46089358D01*
X105571891Y-46048246D01*
X105573363Y-46045569D01*
X105575302Y-46043208D01*
X105600650Y-45995934D01*
X105626518Y-45948880D01*
X105627443Y-45945965D01*
X105628885Y-45943275D01*
X105644556Y-45892016D01*
X105660804Y-45840797D01*
X105661145Y-45837757D01*
X105662037Y-45834839D01*
X105667457Y-45781483D01*
X105673443Y-45728112D01*
X105673485Y-45722137D01*
X105673496Y-45722029D01*
X105673486Y-45721928D01*
X105673500Y-45720000D01*
X105673500Y-45325658D01*
X106031658Y-44967500D01*
X109537500Y-44967500D01*
X109590894Y-44962265D01*
X109644376Y-44957586D01*
X109647313Y-44956733D01*
X109650350Y-44956435D01*
X109701701Y-44940931D01*
X109753265Y-44925950D01*
X109755978Y-44924544D01*
X109758902Y-44923661D01*
X109806257Y-44898482D01*
X109853935Y-44873768D01*
X109856325Y-44871860D01*
X109859020Y-44870427D01*
X109900586Y-44836527D01*
X109942553Y-44803025D01*
X109946805Y-44798832D01*
X109946892Y-44798761D01*
X109946959Y-44798680D01*
X109948329Y-44797329D01*
X110410815Y-44334843D01*
X113350000Y-44334843D01*
X113410673Y-44330005D01*
X113513580Y-44298136D01*
X113603535Y-44238860D01*
X113673415Y-44156870D01*
X113717686Y-44058658D01*
X113732843Y-43952000D01*
X113732843Y-42428000D01*
X113728005Y-42367327D01*
X113696136Y-42264420D01*
X113636860Y-42174465D01*
X113554870Y-42104585D01*
X113456658Y-42060314D01*
X113350000Y-42045157D01*
X110150000Y-42045157D01*
X110089327Y-42049995D01*
X109986420Y-42081864D01*
X109896465Y-42141140D01*
X109826585Y-42223130D01*
X109782314Y-42321342D01*
X109767157Y-42428000D01*
X109767157Y-43335185D01*
X109296842Y-43805500D01*
X106182843Y-43805500D01*
X106182843Y-42491000D01*
X106934000Y-42491000D01*
X106987394Y-42485765D01*
X107040876Y-42481086D01*
X107043813Y-42480233D01*
X107046850Y-42479935D01*
X107098201Y-42464431D01*
X107149765Y-42449450D01*
X107152478Y-42448044D01*
X107155402Y-42447161D01*
X107202757Y-42421982D01*
X107250435Y-42397268D01*
X107252825Y-42395360D01*
X107255520Y-42393927D01*
X107297086Y-42360027D01*
X107339053Y-42326525D01*
X107343305Y-42322332D01*
X107343392Y-42322261D01*
X107343459Y-42322180D01*
X107344829Y-42320829D01*
X110430815Y-39234843D01*
X113300000Y-39234843D01*
X113360673Y-39230005D01*
X113463580Y-39198136D01*
X113553535Y-39138860D01*
X113623415Y-39056870D01*
X113667686Y-38958658D01*
X113682843Y-38852000D01*
X113682843Y-37328000D01*
X113678005Y-37267327D01*
X113646136Y-37164420D01*
X113586860Y-37074465D01*
X113504870Y-37004585D01*
X113406658Y-36960314D01*
X113300000Y-36945157D01*
X110100000Y-36945157D01*
X110039327Y-36949995D01*
X109936420Y-36981864D01*
X109846465Y-37041140D01*
X109776585Y-37123130D01*
X109732314Y-37221342D01*
X109717157Y-37328000D01*
X109717157Y-38305185D01*
X106693342Y-41329000D01*
X102625500Y-41329000D01*
X102625500Y-39674158D01*
X103014815Y-39284843D01*
X105750000Y-39284843D01*
X105810673Y-39280005D01*
X105913580Y-39248136D01*
X106003535Y-39188860D01*
X106073415Y-39106870D01*
X106117686Y-39008658D01*
X106132843Y-38902000D01*
X106132843Y-37378000D01*
X106128005Y-37317327D01*
X106096136Y-37214420D01*
X106036860Y-37124465D01*
X105954870Y-37054585D01*
X105856658Y-37010314D01*
X105750000Y-36995157D01*
X102550000Y-36995157D01*
X102489327Y-36999995D01*
X102386420Y-37031864D01*
X102296465Y-37091140D01*
X102226585Y-37173130D01*
X102182314Y-37271342D01*
X102167157Y-37378000D01*
X102167157Y-38489185D01*
X101633671Y-39022671D01*
X101599606Y-39064142D01*
X101565109Y-39105254D01*
X101563637Y-39107931D01*
X101561698Y-39110292D01*
X101536350Y-39157566D01*
X101510482Y-39204620D01*
X101509557Y-39207535D01*
X101508115Y-39210225D01*
X101492444Y-39261484D01*
X101476196Y-39312703D01*
X101475855Y-39315743D01*
X101474963Y-39318661D01*
X101469543Y-39372017D01*
X101463557Y-39425388D01*
X101463515Y-39431363D01*
X101463504Y-39431471D01*
X101463514Y-39431572D01*
X101463500Y-39433500D01*
X101463500Y-41161342D01*
X101062171Y-41562671D01*
X101028106Y-41604142D01*
X100993609Y-41645254D01*
X100992137Y-41647931D01*
X100990198Y-41650292D01*
X100964850Y-41697566D01*
X100938982Y-41744620D01*
X100938057Y-41747535D01*
X100936615Y-41750225D01*
X100920944Y-41801484D01*
X100904696Y-41852703D01*
X100904355Y-41855743D01*
X100903463Y-41858661D01*
X100898043Y-41912017D01*
X100892057Y-41965388D01*
X100892015Y-41971363D01*
X100892004Y-41971471D01*
X100892014Y-41971572D01*
X100892000Y-41973500D01*
X100892000Y-43193342D01*
X100623999Y-43461343D01*
X100627056Y-43242440D01*
X100577309Y-42991198D01*
X100479709Y-42754404D01*
X100337974Y-42541076D01*
X100157504Y-42359341D01*
X99945171Y-42216120D01*
X99709063Y-42116870D01*
X99458175Y-42065370D01*
X99202061Y-42063582D01*
X98950478Y-42111574D01*
X98713008Y-42207518D01*
X98498696Y-42347760D01*
X98315705Y-42526958D01*
X98171006Y-42738286D01*
X98070110Y-42973694D01*
X98070105Y-42973719D01*
X97979709Y-42754404D01*
X97837974Y-42541076D01*
X97657504Y-42359341D01*
X97445171Y-42216120D01*
X97209063Y-42116870D01*
X96958175Y-42065370D01*
X96702061Y-42063582D01*
X96450478Y-42111574D01*
X96213008Y-42207518D01*
X95998696Y-42347760D01*
X95815705Y-42526958D01*
X95671006Y-42738286D01*
X95570110Y-42973694D01*
X95570105Y-42973719D01*
X95479709Y-42754404D01*
X95337974Y-42541076D01*
X95157504Y-42359341D01*
X94945171Y-42216120D01*
X94709063Y-42116870D01*
X94458175Y-42065370D01*
X94202061Y-42063582D01*
X93950478Y-42111574D01*
X93713008Y-42207518D01*
X93498696Y-42347760D01*
X93315705Y-42526958D01*
X93171006Y-42738286D01*
X93070110Y-42973694D01*
X93016859Y-43224217D01*
X93013283Y-43480312D01*
X93059518Y-43732224D01*
X93153802Y-43970358D01*
X93292544Y-44185644D01*
X93470460Y-44369881D01*
X93680772Y-44516052D01*
X93740000Y-44541928D01*
X93740000Y-49224000D01*
X93287500Y-49224000D01*
X93224928Y-49230135D01*
X93162230Y-49235621D01*
X93158789Y-49236621D01*
X93155226Y-49236970D01*
X93095005Y-49255151D01*
X93034599Y-49272701D01*
X93031420Y-49274349D01*
X93027991Y-49275384D01*
X92977795Y-49302074D01*
X92947356Y-49256260D01*
X92860161Y-49168454D01*
X92757571Y-49099256D01*
X92643495Y-49051303D01*
X92522277Y-49026420D01*
X92476572Y-49026101D01*
X92470136Y-49005320D01*
X92410860Y-48915365D01*
X92328870Y-48845485D01*
X92230658Y-48801214D01*
X92124000Y-48786057D01*
X90924000Y-48786057D01*
X90863327Y-48790895D01*
X90760420Y-48822764D01*
X90670465Y-48882040D01*
X90600585Y-48964030D01*
X90556314Y-49062242D01*
X90541157Y-49168900D01*
X90541157Y-50068900D01*
X90545995Y-50129573D01*
X90566737Y-50196549D01*
X90520465Y-50227040D01*
X90450585Y-50309030D01*
X90406314Y-50407242D01*
X90391157Y-50513900D01*
X90391157Y-51263900D01*
X90395995Y-51324573D01*
X90427864Y-51427480D01*
X90487140Y-51517435D01*
X90569130Y-51587315D01*
X90667342Y-51631586D01*
X90774000Y-51646743D01*
X91521000Y-51646743D01*
X91521000Y-52070000D01*
X91527135Y-52132572D01*
X91532621Y-52195270D01*
X91533621Y-52198711D01*
X91533970Y-52202274D01*
X91552161Y-52262527D01*
X91569702Y-52322902D01*
X91571348Y-52326077D01*
X91572384Y-52329509D01*
X91601923Y-52385063D01*
X91630865Y-52440899D01*
X91633100Y-52443699D01*
X91634781Y-52446860D01*
X91674533Y-52495601D01*
X91713784Y-52544770D01*
X91718699Y-52549754D01*
X91718782Y-52549856D01*
X91718876Y-52549934D01*
X91720460Y-52551540D01*
X92352803Y-53183883D01*
X92328870Y-53163485D01*
X92230658Y-53119214D01*
X92124000Y-53104057D01*
X90924000Y-53104057D01*
X90863327Y-53108895D01*
X90760420Y-53140764D01*
X90670465Y-53200040D01*
X90600585Y-53282030D01*
X90556314Y-53380242D01*
X90541157Y-53486900D01*
X90541157Y-54386900D01*
X90545995Y-54447573D01*
X90577864Y-54550480D01*
X90591771Y-54571584D01*
X90556314Y-54650242D01*
X90541157Y-54756900D01*
X90541157Y-55656900D01*
X90545995Y-55717573D01*
X90577864Y-55820480D01*
X90637140Y-55910435D01*
X90719130Y-55980315D01*
X90817342Y-56024586D01*
X90924000Y-56039743D01*
X92124000Y-56039743D01*
X92184673Y-56034905D01*
X92287580Y-56003036D01*
X92377535Y-55943760D01*
X92447415Y-55861770D01*
X92491686Y-55763558D01*
X92506843Y-55656900D01*
X92506843Y-54756900D01*
X92502005Y-54696227D01*
X92470136Y-54593320D01*
X92456229Y-54572216D01*
X92480713Y-54517900D01*
X93246157Y-54517900D01*
X93246157Y-54980000D01*
X93250995Y-55040673D01*
X93270373Y-55103245D01*
X93261314Y-55123342D01*
X93246157Y-55230000D01*
X93246157Y-55780000D01*
X93250995Y-55840673D01*
X93282864Y-55943580D01*
X93342140Y-56033535D01*
X93424130Y-56103415D01*
X93522342Y-56147686D01*
X93629000Y-56162843D01*
X93848000Y-56162843D01*
X93848000Y-56824041D01*
X93812661Y-56788454D01*
X93710071Y-56719256D01*
X93595995Y-56671303D01*
X93474777Y-56646420D01*
X93351034Y-56645557D01*
X93229481Y-56668744D01*
X93114746Y-56715100D01*
X93011200Y-56782858D01*
X92922787Y-56869439D01*
X92852875Y-56971543D01*
X92823304Y-57040538D01*
X89736685Y-60127157D01*
X88688800Y-60127157D01*
X88628127Y-60131995D01*
X88525220Y-60163864D01*
X88435265Y-60223140D01*
X88365385Y-60305130D01*
X88321114Y-60403342D01*
X88305957Y-60510000D01*
X88305957Y-61410000D01*
X88310795Y-61470673D01*
X88342664Y-61573580D01*
X88356571Y-61594684D01*
X88321114Y-61673342D01*
X88305957Y-61780000D01*
X88305957Y-62680000D01*
X88310795Y-62740673D01*
X88342664Y-62843580D01*
X88356571Y-62864684D01*
X88321114Y-62943342D01*
X88305957Y-63050000D01*
X88305957Y-63950000D01*
X88310795Y-64010673D01*
X88342664Y-64113580D01*
X88356571Y-64134684D01*
X88321114Y-64213342D01*
X88305957Y-64320000D01*
X88305957Y-64624299D01*
X88071643Y-64389985D01*
X88071643Y-64320000D01*
X88066805Y-64259327D01*
X88034936Y-64156420D01*
X88021029Y-64135316D01*
X88056486Y-64056658D01*
X88071643Y-63950000D01*
X88071643Y-63050000D01*
X88066805Y-62989327D01*
X88034936Y-62886420D01*
X88021029Y-62865316D01*
X88056486Y-62786658D01*
X88071643Y-62680000D01*
X88071643Y-62626629D01*
X88130506Y-62543185D01*
X88180838Y-62430138D01*
X88208253Y-62309468D01*
X88210227Y-62168127D01*
X88186191Y-62046739D01*
X88139036Y-61932330D01*
X88071643Y-61830896D01*
X88071643Y-61780000D01*
X88066805Y-61719327D01*
X88034936Y-61616420D01*
X88021029Y-61595316D01*
X88056486Y-61516658D01*
X88071643Y-61410000D01*
X88071643Y-60510000D01*
X88066805Y-60449327D01*
X88034936Y-60346420D01*
X87975660Y-60256465D01*
X87893670Y-60186585D01*
X87795458Y-60142314D01*
X87688800Y-60127157D01*
X86488800Y-60127157D01*
X86428127Y-60131995D01*
X86325220Y-60163864D01*
X86235265Y-60223140D01*
X86214804Y-60247146D01*
X85558829Y-59591171D01*
X85517358Y-59557106D01*
X85476246Y-59522609D01*
X85473569Y-59521137D01*
X85471208Y-59519198D01*
X85423934Y-59493850D01*
X85376880Y-59467982D01*
X85373965Y-59467057D01*
X85371275Y-59465615D01*
X85329938Y-59452977D01*
X85379475Y-59405803D01*
X85450806Y-59304685D01*
X85501138Y-59191638D01*
X85528553Y-59070968D01*
X85530527Y-58929627D01*
X85506491Y-58808239D01*
X85459336Y-58693830D01*
X85428822Y-58647902D01*
X85522926Y-58668593D01*
X85646644Y-58671184D01*
X85768509Y-58649696D01*
X85883880Y-58604947D01*
X85988362Y-58538641D01*
X86077975Y-58453303D01*
X86149306Y-58352185D01*
X86199638Y-58239138D01*
X86227053Y-58118468D01*
X86229027Y-57977127D01*
X86204991Y-57855739D01*
X86157836Y-57741330D01*
X86089356Y-57638260D01*
X86002161Y-57550454D01*
X85899571Y-57481256D01*
X85785495Y-57433303D01*
X85664277Y-57408420D01*
X85540534Y-57407557D01*
X85418981Y-57430744D01*
X85351520Y-57458000D01*
X85205475Y-57458000D01*
X85209686Y-57448658D01*
X85224843Y-57342000D01*
X85224843Y-56662000D01*
X85220005Y-56601327D01*
X85214329Y-56583000D01*
X85476000Y-56583000D01*
X85529394Y-56577765D01*
X85582876Y-56573086D01*
X85585813Y-56572233D01*
X85588850Y-56571935D01*
X85640201Y-56556431D01*
X85691765Y-56541450D01*
X85694478Y-56540044D01*
X85697402Y-56539161D01*
X85744757Y-56513982D01*
X85792435Y-56489268D01*
X85794825Y-56487360D01*
X85797520Y-56485927D01*
X85839086Y-56452027D01*
X85881053Y-56418525D01*
X85885305Y-56414332D01*
X85885392Y-56414261D01*
X85885459Y-56414180D01*
X85886829Y-56412829D01*
X87781758Y-54517900D01*
X88367774Y-54517900D01*
X88377864Y-54550480D01*
X88437140Y-54640435D01*
X88519130Y-54710315D01*
X88617342Y-54754586D01*
X88724000Y-54769743D01*
X89924000Y-54769743D01*
X89984673Y-54764905D01*
X90087580Y-54733036D01*
X90177535Y-54673760D01*
X90247415Y-54591770D01*
X90291686Y-54493558D01*
X90306843Y-54386900D01*
X90306843Y-53486900D01*
X90302005Y-53426227D01*
X90270136Y-53323320D01*
X90210860Y-53233365D01*
X90128870Y-53163485D01*
X90030658Y-53119214D01*
X89924000Y-53104057D01*
X88724000Y-53104057D01*
X88663327Y-53108895D01*
X88560420Y-53140764D01*
X88470465Y-53200040D01*
X88400585Y-53282030D01*
X88367287Y-53355900D01*
X87541100Y-53355900D01*
X87487660Y-53361140D01*
X87434224Y-53365815D01*
X87431292Y-53366667D01*
X87428250Y-53366965D01*
X87376857Y-53382481D01*
X87325335Y-53397450D01*
X87322622Y-53398856D01*
X87319698Y-53399739D01*
X87272363Y-53424907D01*
X87224664Y-53449632D01*
X87222272Y-53451542D01*
X87219580Y-53452973D01*
X87178005Y-53486880D01*
X87136047Y-53520376D01*
X87131797Y-53524566D01*
X87131708Y-53524639D01*
X87131640Y-53524721D01*
X87130271Y-53526071D01*
X85279524Y-55376818D01*
X85280500Y-55372000D01*
X85280500Y-51117500D01*
X87058500Y-51117500D01*
X87196977Y-51091444D01*
X87324160Y-51009604D01*
X87409483Y-50884730D01*
X87439500Y-50736500D01*
X87439500Y-44958000D01*
X87413444Y-44819523D01*
X87331604Y-44692340D01*
X87206730Y-44607017D01*
X87058500Y-44577000D01*
X83629500Y-44577000D01*
X83629500Y-38544500D01*
X83603444Y-38406023D01*
X83521604Y-38278840D01*
X83396730Y-38193517D01*
X83248500Y-38163500D01*
X76517500Y-38163500D01*
X76379023Y-38189556D01*
X76251840Y-38271396D01*
X76166517Y-38396270D01*
X76136500Y-38544500D01*
X76136500Y-48069500D01*
X76162556Y-48207977D01*
X76244396Y-48335160D01*
X76369270Y-48420483D01*
X76454000Y-48437641D01*
X76454000Y-50673000D01*
X57531000Y-50673000D01*
X57392523Y-50699056D01*
X57265340Y-50780896D01*
X57180017Y-50905770D01*
X57150000Y-51054000D01*
X57150000Y-61404500D01*
X57176056Y-61542977D01*
X57257896Y-61670160D01*
X57382770Y-61755483D01*
X57404000Y-61759782D01*
X57404000Y-62218757D01*
X56696100Y-62218757D01*
X56635427Y-62223595D01*
X56532520Y-62255464D01*
X56442565Y-62314740D01*
X56436562Y-62321783D01*
X56312840Y-62401396D01*
X56227517Y-62526270D01*
X56197500Y-62674500D01*
X56197500Y-72950000D01*
X53171807Y-72950000D01*
X52930148Y-72926305D01*
X52719154Y-72862602D01*
X52524547Y-72759128D01*
X52353748Y-72619828D01*
X52213259Y-72450007D01*
X52108427Y-72256125D01*
X52043252Y-72045579D01*
X52018000Y-71805315D01*
X52018000Y-48450500D01*
X61912500Y-48450500D01*
X62055867Y-48422497D01*
X62181908Y-48338908D01*
X62362316Y-48158500D01*
X67623157Y-48158500D01*
X67623157Y-49758500D01*
X67627995Y-49819173D01*
X67659864Y-49922080D01*
X67714288Y-50004671D01*
X67731713Y-50099617D01*
X67780877Y-50223790D01*
X67853222Y-50336048D01*
X67945995Y-50432117D01*
X68055660Y-50508336D01*
X68178041Y-50561803D01*
X68308477Y-50590481D01*
X68441998Y-50593278D01*
X68573520Y-50570087D01*
X68698033Y-50521792D01*
X68744978Y-50492000D01*
X69048156Y-50492000D01*
X69071660Y-50508336D01*
X69194041Y-50561803D01*
X69324477Y-50590481D01*
X69457998Y-50593278D01*
X69589520Y-50570087D01*
X69714033Y-50521792D01*
X69760978Y-50492000D01*
X70064156Y-50492000D01*
X70087660Y-50508336D01*
X70210041Y-50561803D01*
X70340477Y-50590481D01*
X70473998Y-50593278D01*
X70605520Y-50570087D01*
X70730033Y-50521792D01*
X70842794Y-50450232D01*
X70939508Y-50358132D01*
X71016491Y-50249002D01*
X71064424Y-50141343D01*
X71506000Y-50141343D01*
X71566673Y-50136505D01*
X71669580Y-50104636D01*
X71759535Y-50045360D01*
X71829415Y-49963370D01*
X71873686Y-49865158D01*
X71888843Y-49758500D01*
X71888843Y-48158500D01*
X71884005Y-48097827D01*
X71852136Y-47994920D01*
X71792860Y-47904965D01*
X71710870Y-47835085D01*
X71612658Y-47790814D01*
X71506000Y-47775657D01*
X68006000Y-47775657D01*
X67945327Y-47780495D01*
X67842420Y-47812364D01*
X67752465Y-47871640D01*
X67682585Y-47953630D01*
X67638314Y-48051842D01*
X67623157Y-48158500D01*
X62362316Y-48158500D01*
X62435908Y-48084908D01*
X62517483Y-47963730D01*
X62547500Y-47815500D01*
X62547500Y-45085000D01*
X65024000Y-45085000D01*
X65167367Y-45056997D01*
X65293408Y-44973408D01*
X65547408Y-44719408D01*
X65628983Y-44598230D01*
X65659000Y-44450000D01*
X65659000Y-41783000D01*
X65630997Y-41639633D01*
X65547408Y-41513592D01*
X65293408Y-41259592D01*
X65172230Y-41178017D01*
X65024000Y-41148000D01*
X52018000Y-41148000D01*
X52018000Y-37717017D01*
X52415608Y-37717017D01*
X52506979Y-38214862D01*
X52693309Y-38685478D01*
X52967500Y-39110939D01*
X53319109Y-39475040D01*
X53734742Y-39763913D01*
X54198568Y-39966554D01*
X54692921Y-40075244D01*
X55198970Y-40085844D01*
X55697440Y-39997951D01*
X56169345Y-39814911D01*
X56596711Y-39543696D01*
X56963258Y-39194638D01*
X57255025Y-38781032D01*
X57460899Y-38318632D01*
X57573038Y-37825050D01*
X57581110Y-37246920D01*
X57482797Y-36750400D01*
X57289914Y-36282431D01*
X57009809Y-35860840D01*
X56653151Y-35501683D01*
X56233526Y-35218642D01*
X55766915Y-35022497D01*
X55271093Y-34920719D01*
X54764945Y-34917186D01*
X54267751Y-35012031D01*
X53798447Y-35201642D01*
X53374911Y-35478796D01*
X53013273Y-35832938D01*
X52727309Y-36250578D01*
X52527911Y-36715807D01*
X52422675Y-37210907D01*
X52415608Y-37717017D01*
X52018000Y-37717017D01*
X52018000Y-35963306D01*
X52041695Y-35721648D01*
X52105398Y-35510654D01*
X52208872Y-35316047D01*
X52348173Y-35145246D01*
X52517993Y-35004759D01*
X52711875Y-34899927D01*
X52922421Y-34834752D01*
X53162685Y-34809500D01*
X118278194Y-34809500D01*
X118519852Y-34833195D01*
G36*
X68262500Y-68135500D02*
X63627000Y-68135500D01*
X63627000Y-64833500D01*
X68262500Y-64833500D01*
X68262500Y-68135500D01*
X68262500Y-68135500D01*
G37*
X68262500Y-68135500D02*
X63627000Y-68135500D01*
X63627000Y-64833500D01*
X68262500Y-64833500D01*
X68262500Y-68135500D01*
G36*
X104706000Y-55762843D02*
X104708776Y-55762843D01*
X104719063Y-55788824D01*
X104786097Y-55892841D01*
X104872058Y-55981856D01*
X104973671Y-56052479D01*
X105087067Y-56102020D01*
X105207926Y-56128593D01*
X105331644Y-56131184D01*
X105453509Y-56109696D01*
X105568880Y-56064947D01*
X105673362Y-55998641D01*
X105762975Y-55913303D01*
X105820582Y-55831640D01*
X105846130Y-55853415D01*
X105944342Y-55897686D01*
X106051000Y-55912843D01*
X106801000Y-55912843D01*
X106861673Y-55908005D01*
X106881717Y-55901797D01*
X107022157Y-56042237D01*
X107022157Y-56407000D01*
X107026995Y-56467673D01*
X107058864Y-56570580D01*
X107118140Y-56660535D01*
X107200130Y-56730415D01*
X107298342Y-56774686D01*
X107405000Y-56789843D01*
X107779767Y-56789843D01*
X107794722Y-56813048D01*
X107887495Y-56909117D01*
X107997160Y-56985336D01*
X108027381Y-56998539D01*
X107507460Y-57518460D01*
X107467545Y-57567054D01*
X107427098Y-57615257D01*
X107425371Y-57618398D01*
X107423100Y-57621163D01*
X107393381Y-57676588D01*
X107363069Y-57731726D01*
X107361986Y-57735139D01*
X107360294Y-57738295D01*
X107341907Y-57798436D01*
X107322881Y-57858412D01*
X107322482Y-57861973D01*
X107321435Y-57865396D01*
X107315080Y-57927958D01*
X107308066Y-57990492D01*
X107308017Y-57997491D01*
X107308004Y-57997623D01*
X107308016Y-57997746D01*
X107308000Y-58000000D01*
X107308000Y-58134031D01*
X107306157Y-58147000D01*
X107306157Y-58947000D01*
X107308000Y-58970113D01*
X107308000Y-60806000D01*
X107314135Y-60868572D01*
X107319621Y-60931270D01*
X107320621Y-60934711D01*
X107320970Y-60938274D01*
X107339151Y-60998493D01*
X107356702Y-61058902D01*
X107358348Y-61062077D01*
X107359384Y-61065509D01*
X107388923Y-61121063D01*
X107417865Y-61176899D01*
X107420100Y-61179699D01*
X107421781Y-61182860D01*
X107461533Y-61231601D01*
X107500784Y-61280770D01*
X107505699Y-61285754D01*
X107505782Y-61285856D01*
X107505876Y-61285934D01*
X107507460Y-61287540D01*
X108176157Y-61956237D01*
X108176157Y-62351000D01*
X108180995Y-62411673D01*
X108198000Y-62466583D01*
X108198000Y-63019793D01*
X108056696Y-63112260D01*
X107873705Y-63291458D01*
X107729006Y-63502786D01*
X107628110Y-63738194D01*
X107628105Y-63738219D01*
X107537709Y-63518904D01*
X107395974Y-63305576D01*
X107215504Y-63123841D01*
X107003171Y-62980620D01*
X106767063Y-62881370D01*
X106516175Y-62829870D01*
X106260061Y-62828082D01*
X106008478Y-62876074D01*
X105771008Y-62972018D01*
X105556696Y-63112260D01*
X105373705Y-63291458D01*
X105229006Y-63502786D01*
X105128110Y-63738194D01*
X105128105Y-63738219D01*
X105037709Y-63518904D01*
X104895974Y-63305576D01*
X104715504Y-63123841D01*
X104503171Y-62980620D01*
X104267063Y-62881370D01*
X104016175Y-62829870D01*
X103760061Y-62828082D01*
X103508478Y-62876074D01*
X103271008Y-62972018D01*
X103056696Y-63112260D01*
X102873705Y-63291458D01*
X102729006Y-63502786D01*
X102628110Y-63738194D01*
X102628105Y-63738219D01*
X102537709Y-63518904D01*
X102395974Y-63305576D01*
X102215504Y-63123841D01*
X102003171Y-62980620D01*
X101767063Y-62881370D01*
X101516175Y-62829870D01*
X101260061Y-62828082D01*
X101008478Y-62876074D01*
X100771008Y-62972018D01*
X100556696Y-63112260D01*
X100373705Y-63291458D01*
X100229006Y-63502786D01*
X100128110Y-63738194D01*
X100128105Y-63738219D01*
X100037709Y-63518904D01*
X99895974Y-63305576D01*
X99715504Y-63123841D01*
X99503171Y-62980620D01*
X99267063Y-62881370D01*
X99016175Y-62829870D01*
X98760061Y-62828082D01*
X98508478Y-62876074D01*
X98271008Y-62972018D01*
X98056696Y-63112260D01*
X97990000Y-63177574D01*
X97990000Y-61777991D01*
X98010638Y-61731638D01*
X98038053Y-61610968D01*
X98040027Y-61469627D01*
X98015991Y-61348239D01*
X97968836Y-61233830D01*
X97900356Y-61130760D01*
X97813161Y-61042954D01*
X97710571Y-60973756D01*
X97596495Y-60925803D01*
X97475277Y-60900920D01*
X97351534Y-60900057D01*
X97229981Y-60923244D01*
X97115246Y-60969600D01*
X97027518Y-61027007D01*
X96948571Y-60973756D01*
X96834495Y-60925803D01*
X96713277Y-60900920D01*
X96589534Y-60900057D01*
X96577695Y-60902315D01*
X96579527Y-60771127D01*
X96555491Y-60649739D01*
X96508336Y-60535330D01*
X96439856Y-60432260D01*
X96352661Y-60344454D01*
X96324917Y-60325741D01*
X96760658Y-59890000D01*
X98781774Y-59890000D01*
X98791864Y-59922580D01*
X98851140Y-60012535D01*
X98933130Y-60082415D01*
X99030178Y-60126161D01*
X99027127Y-60133281D01*
X99001398Y-60254323D01*
X98999671Y-60378056D01*
X99022009Y-60499769D01*
X99067563Y-60614824D01*
X99134597Y-60718841D01*
X99220558Y-60807856D01*
X99322171Y-60878479D01*
X99435567Y-60928020D01*
X99556426Y-60954593D01*
X99680144Y-60957184D01*
X99802009Y-60935696D01*
X99878571Y-60906000D01*
X100090851Y-60906000D01*
X100080898Y-60952823D01*
X100079171Y-61076556D01*
X100101509Y-61198269D01*
X100147063Y-61313324D01*
X100214097Y-61417341D01*
X100300058Y-61506356D01*
X100401671Y-61576979D01*
X100474747Y-61608905D01*
X100808171Y-61942329D01*
X100849642Y-61976394D01*
X100890754Y-62010891D01*
X100893431Y-62012363D01*
X100895792Y-62014302D01*
X100943085Y-62039660D01*
X100990120Y-62065518D01*
X100993033Y-62066442D01*
X100995724Y-62067885D01*
X101046998Y-62083561D01*
X101098203Y-62099804D01*
X101101243Y-62100145D01*
X101104161Y-62101037D01*
X101157517Y-62106457D01*
X101210888Y-62112443D01*
X101216863Y-62112485D01*
X101216971Y-62112496D01*
X101217072Y-62112486D01*
X101219000Y-62112500D01*
X103900667Y-62112500D01*
X103921773Y-62165807D01*
X104068483Y-62393456D01*
X104256616Y-62588273D01*
X104479006Y-62742838D01*
X104727183Y-62851264D01*
X104991693Y-62909420D01*
X105262462Y-62915092D01*
X105529175Y-62868063D01*
X105781675Y-62770125D01*
X106010342Y-62625008D01*
X106206468Y-62438240D01*
X106362582Y-62216934D01*
X106472738Y-61969520D01*
X106532740Y-61705423D01*
X106537059Y-61396086D01*
X106484455Y-61130416D01*
X106381250Y-60880023D01*
X106231377Y-60654444D01*
X106040542Y-60462273D01*
X105816015Y-60310828D01*
X105566349Y-60205877D01*
X105374219Y-60166439D01*
X105693829Y-59846829D01*
X105727894Y-59805358D01*
X105762391Y-59764246D01*
X105763863Y-59761569D01*
X105765802Y-59759208D01*
X105791150Y-59711934D01*
X105817018Y-59664880D01*
X105817943Y-59661965D01*
X105819385Y-59659275D01*
X105835056Y-59608016D01*
X105851304Y-59556797D01*
X105851645Y-59553757D01*
X105852537Y-59550839D01*
X105857962Y-59497438D01*
X105863943Y-59444112D01*
X105863985Y-59438148D01*
X105863997Y-59438029D01*
X105863987Y-59437918D01*
X105864000Y-59436000D01*
X105864000Y-59174491D01*
X105884638Y-59128138D01*
X105912053Y-59007468D01*
X105914027Y-58866127D01*
X105889991Y-58744739D01*
X105842836Y-58630330D01*
X105774356Y-58527260D01*
X105687161Y-58439454D01*
X105584571Y-58370256D01*
X105470495Y-58322303D01*
X105349277Y-58297420D01*
X105225534Y-58296557D01*
X105103981Y-58319744D01*
X104989246Y-58366100D01*
X104885700Y-58433858D01*
X104797287Y-58520439D01*
X104727375Y-58622543D01*
X104678627Y-58736281D01*
X104652898Y-58857323D01*
X104651171Y-58981056D01*
X104673509Y-59102769D01*
X104702000Y-59174728D01*
X104702000Y-59195342D01*
X104153342Y-59744000D01*
X100720843Y-59744000D01*
X100720843Y-58859000D01*
X100716005Y-58798327D01*
X100696288Y-58734659D01*
X100818009Y-58713196D01*
X100933380Y-58668447D01*
X101037862Y-58602141D01*
X101127475Y-58516803D01*
X101198806Y-58415685D01*
X101249138Y-58302638D01*
X101276553Y-58181968D01*
X101278527Y-58040627D01*
X101265341Y-57974036D01*
X101277415Y-57959870D01*
X101321686Y-57861658D01*
X101336843Y-57755000D01*
X101336843Y-56243500D01*
X102871500Y-56243500D01*
X102934072Y-56237365D01*
X102996770Y-56231879D01*
X103000211Y-56230879D01*
X103003774Y-56230530D01*
X103064027Y-56212339D01*
X103113799Y-56197879D01*
X103151998Y-56236078D01*
X103143314Y-56255342D01*
X103128157Y-56362000D01*
X103128157Y-57562000D01*
X103132995Y-57622673D01*
X103164864Y-57725580D01*
X103224140Y-57815535D01*
X103306130Y-57885415D01*
X103404342Y-57929686D01*
X103511000Y-57944843D01*
X104261000Y-57944843D01*
X104321673Y-57940005D01*
X104424580Y-57908136D01*
X104514535Y-57848860D01*
X104584415Y-57766870D01*
X104628686Y-57668658D01*
X104643843Y-57562000D01*
X104643843Y-56362000D01*
X104639005Y-56301327D01*
X104607136Y-56198420D01*
X104567000Y-56137511D01*
X104567000Y-56007000D01*
X104560865Y-55944428D01*
X104558434Y-55916646D01*
X104621539Y-55853540D01*
X104697079Y-55761575D01*
X104706000Y-55762843D01*
X104706000Y-55762843D01*
G37*
X104706000Y-55762843D02*
X104708776Y-55762843D01*
X104719063Y-55788824D01*
X104786097Y-55892841D01*
X104872058Y-55981856D01*
X104973671Y-56052479D01*
X105087067Y-56102020D01*
X105207926Y-56128593D01*
X105331644Y-56131184D01*
X105453509Y-56109696D01*
X105568880Y-56064947D01*
X105673362Y-55998641D01*
X105762975Y-55913303D01*
X105820582Y-55831640D01*
X105846130Y-55853415D01*
X105944342Y-55897686D01*
X106051000Y-55912843D01*
X106801000Y-55912843D01*
X106861673Y-55908005D01*
X106881717Y-55901797D01*
X107022157Y-56042237D01*
X107022157Y-56407000D01*
X107026995Y-56467673D01*
X107058864Y-56570580D01*
X107118140Y-56660535D01*
X107200130Y-56730415D01*
X107298342Y-56774686D01*
X107405000Y-56789843D01*
X107779767Y-56789843D01*
X107794722Y-56813048D01*
X107887495Y-56909117D01*
X107997160Y-56985336D01*
X108027381Y-56998539D01*
X107507460Y-57518460D01*
X107467545Y-57567054D01*
X107427098Y-57615257D01*
X107425371Y-57618398D01*
X107423100Y-57621163D01*
X107393381Y-57676588D01*
X107363069Y-57731726D01*
X107361986Y-57735139D01*
X107360294Y-57738295D01*
X107341907Y-57798436D01*
X107322881Y-57858412D01*
X107322482Y-57861973D01*
X107321435Y-57865396D01*
X107315080Y-57927958D01*
X107308066Y-57990492D01*
X107308017Y-57997491D01*
X107308004Y-57997623D01*
X107308016Y-57997746D01*
X107308000Y-58000000D01*
X107308000Y-58134031D01*
X107306157Y-58147000D01*
X107306157Y-58947000D01*
X107308000Y-58970113D01*
X107308000Y-60806000D01*
X107314135Y-60868572D01*
X107319621Y-60931270D01*
X107320621Y-60934711D01*
X107320970Y-60938274D01*
X107339151Y-60998493D01*
X107356702Y-61058902D01*
X107358348Y-61062077D01*
X107359384Y-61065509D01*
X107388923Y-61121063D01*
X107417865Y-61176899D01*
X107420100Y-61179699D01*
X107421781Y-61182860D01*
X107461533Y-61231601D01*
X107500784Y-61280770D01*
X107505699Y-61285754D01*
X107505782Y-61285856D01*
X107505876Y-61285934D01*
X107507460Y-61287540D01*
X108176157Y-61956237D01*
X108176157Y-62351000D01*
X108180995Y-62411673D01*
X108198000Y-62466583D01*
X108198000Y-63019793D01*
X108056696Y-63112260D01*
X107873705Y-63291458D01*
X107729006Y-63502786D01*
X107628110Y-63738194D01*
X107628105Y-63738219D01*
X107537709Y-63518904D01*
X107395974Y-63305576D01*
X107215504Y-63123841D01*
X107003171Y-62980620D01*
X106767063Y-62881370D01*
X106516175Y-62829870D01*
X106260061Y-62828082D01*
X106008478Y-62876074D01*
X105771008Y-62972018D01*
X105556696Y-63112260D01*
X105373705Y-63291458D01*
X105229006Y-63502786D01*
X105128110Y-63738194D01*
X105128105Y-63738219D01*
X105037709Y-63518904D01*
X104895974Y-63305576D01*
X104715504Y-63123841D01*
X104503171Y-62980620D01*
X104267063Y-62881370D01*
X104016175Y-62829870D01*
X103760061Y-62828082D01*
X103508478Y-62876074D01*
X103271008Y-62972018D01*
X103056696Y-63112260D01*
X102873705Y-63291458D01*
X102729006Y-63502786D01*
X102628110Y-63738194D01*
X102628105Y-63738219D01*
X102537709Y-63518904D01*
X102395974Y-63305576D01*
X102215504Y-63123841D01*
X102003171Y-62980620D01*
X101767063Y-62881370D01*
X101516175Y-62829870D01*
X101260061Y-62828082D01*
X101008478Y-62876074D01*
X100771008Y-62972018D01*
X100556696Y-63112260D01*
X100373705Y-63291458D01*
X100229006Y-63502786D01*
X100128110Y-63738194D01*
X100128105Y-63738219D01*
X100037709Y-63518904D01*
X99895974Y-63305576D01*
X99715504Y-63123841D01*
X99503171Y-62980620D01*
X99267063Y-62881370D01*
X99016175Y-62829870D01*
X98760061Y-62828082D01*
X98508478Y-62876074D01*
X98271008Y-62972018D01*
X98056696Y-63112260D01*
X97990000Y-63177574D01*
X97990000Y-61777991D01*
X98010638Y-61731638D01*
X98038053Y-61610968D01*
X98040027Y-61469627D01*
X98015991Y-61348239D01*
X97968836Y-61233830D01*
X97900356Y-61130760D01*
X97813161Y-61042954D01*
X97710571Y-60973756D01*
X97596495Y-60925803D01*
X97475277Y-60900920D01*
X97351534Y-60900057D01*
X97229981Y-60923244D01*
X97115246Y-60969600D01*
X97027518Y-61027007D01*
X96948571Y-60973756D01*
X96834495Y-60925803D01*
X96713277Y-60900920D01*
X96589534Y-60900057D01*
X96577695Y-60902315D01*
X96579527Y-60771127D01*
X96555491Y-60649739D01*
X96508336Y-60535330D01*
X96439856Y-60432260D01*
X96352661Y-60344454D01*
X96324917Y-60325741D01*
X96760658Y-59890000D01*
X98781774Y-59890000D01*
X98791864Y-59922580D01*
X98851140Y-60012535D01*
X98933130Y-60082415D01*
X99030178Y-60126161D01*
X99027127Y-60133281D01*
X99001398Y-60254323D01*
X98999671Y-60378056D01*
X99022009Y-60499769D01*
X99067563Y-60614824D01*
X99134597Y-60718841D01*
X99220558Y-60807856D01*
X99322171Y-60878479D01*
X99435567Y-60928020D01*
X99556426Y-60954593D01*
X99680144Y-60957184D01*
X99802009Y-60935696D01*
X99878571Y-60906000D01*
X100090851Y-60906000D01*
X100080898Y-60952823D01*
X100079171Y-61076556D01*
X100101509Y-61198269D01*
X100147063Y-61313324D01*
X100214097Y-61417341D01*
X100300058Y-61506356D01*
X100401671Y-61576979D01*
X100474747Y-61608905D01*
X100808171Y-61942329D01*
X100849642Y-61976394D01*
X100890754Y-62010891D01*
X100893431Y-62012363D01*
X100895792Y-62014302D01*
X100943085Y-62039660D01*
X100990120Y-62065518D01*
X100993033Y-62066442D01*
X100995724Y-62067885D01*
X101046998Y-62083561D01*
X101098203Y-62099804D01*
X101101243Y-62100145D01*
X101104161Y-62101037D01*
X101157517Y-62106457D01*
X101210888Y-62112443D01*
X101216863Y-62112485D01*
X101216971Y-62112496D01*
X101217072Y-62112486D01*
X101219000Y-62112500D01*
X103900667Y-62112500D01*
X103921773Y-62165807D01*
X104068483Y-62393456D01*
X104256616Y-62588273D01*
X104479006Y-62742838D01*
X104727183Y-62851264D01*
X104991693Y-62909420D01*
X105262462Y-62915092D01*
X105529175Y-62868063D01*
X105781675Y-62770125D01*
X106010342Y-62625008D01*
X106206468Y-62438240D01*
X106362582Y-62216934D01*
X106472738Y-61969520D01*
X106532740Y-61705423D01*
X106537059Y-61396086D01*
X106484455Y-61130416D01*
X106381250Y-60880023D01*
X106231377Y-60654444D01*
X106040542Y-60462273D01*
X105816015Y-60310828D01*
X105566349Y-60205877D01*
X105374219Y-60166439D01*
X105693829Y-59846829D01*
X105727894Y-59805358D01*
X105762391Y-59764246D01*
X105763863Y-59761569D01*
X105765802Y-59759208D01*
X105791150Y-59711934D01*
X105817018Y-59664880D01*
X105817943Y-59661965D01*
X105819385Y-59659275D01*
X105835056Y-59608016D01*
X105851304Y-59556797D01*
X105851645Y-59553757D01*
X105852537Y-59550839D01*
X105857962Y-59497438D01*
X105863943Y-59444112D01*
X105863985Y-59438148D01*
X105863997Y-59438029D01*
X105863987Y-59437918D01*
X105864000Y-59436000D01*
X105864000Y-59174491D01*
X105884638Y-59128138D01*
X105912053Y-59007468D01*
X105914027Y-58866127D01*
X105889991Y-58744739D01*
X105842836Y-58630330D01*
X105774356Y-58527260D01*
X105687161Y-58439454D01*
X105584571Y-58370256D01*
X105470495Y-58322303D01*
X105349277Y-58297420D01*
X105225534Y-58296557D01*
X105103981Y-58319744D01*
X104989246Y-58366100D01*
X104885700Y-58433858D01*
X104797287Y-58520439D01*
X104727375Y-58622543D01*
X104678627Y-58736281D01*
X104652898Y-58857323D01*
X104651171Y-58981056D01*
X104673509Y-59102769D01*
X104702000Y-59174728D01*
X104702000Y-59195342D01*
X104153342Y-59744000D01*
X100720843Y-59744000D01*
X100720843Y-58859000D01*
X100716005Y-58798327D01*
X100696288Y-58734659D01*
X100818009Y-58713196D01*
X100933380Y-58668447D01*
X101037862Y-58602141D01*
X101127475Y-58516803D01*
X101198806Y-58415685D01*
X101249138Y-58302638D01*
X101276553Y-58181968D01*
X101278527Y-58040627D01*
X101265341Y-57974036D01*
X101277415Y-57959870D01*
X101321686Y-57861658D01*
X101336843Y-57755000D01*
X101336843Y-56243500D01*
X102871500Y-56243500D01*
X102934072Y-56237365D01*
X102996770Y-56231879D01*
X103000211Y-56230879D01*
X103003774Y-56230530D01*
X103064027Y-56212339D01*
X103113799Y-56197879D01*
X103151998Y-56236078D01*
X103143314Y-56255342D01*
X103128157Y-56362000D01*
X103128157Y-57562000D01*
X103132995Y-57622673D01*
X103164864Y-57725580D01*
X103224140Y-57815535D01*
X103306130Y-57885415D01*
X103404342Y-57929686D01*
X103511000Y-57944843D01*
X104261000Y-57944843D01*
X104321673Y-57940005D01*
X104424580Y-57908136D01*
X104514535Y-57848860D01*
X104584415Y-57766870D01*
X104628686Y-57668658D01*
X104643843Y-57562000D01*
X104643843Y-56362000D01*
X104639005Y-56301327D01*
X104607136Y-56198420D01*
X104567000Y-56137511D01*
X104567000Y-56007000D01*
X104560865Y-55944428D01*
X104558434Y-55916646D01*
X104621539Y-55853540D01*
X104697079Y-55761575D01*
X104706000Y-55762843D01*
G36*
X68262500Y-59118500D02*
X61976000Y-59118500D01*
X61976000Y-55816500D01*
X68262500Y-55816500D01*
X68262500Y-59118500D01*
X68262500Y-59118500D01*
G37*
X68262500Y-59118500D02*
X61976000Y-59118500D01*
X61976000Y-55816500D01*
X68262500Y-55816500D01*
X68262500Y-59118500D01*
G36*
X95653802Y-43970358D02*
X95792544Y-44185644D01*
X95970460Y-44369881D01*
X96180772Y-44516052D01*
X96240000Y-44541928D01*
X96240000Y-44941500D01*
X96245235Y-44994894D01*
X96249914Y-45048376D01*
X96250767Y-45051313D01*
X96251065Y-45054350D01*
X96266569Y-45105701D01*
X96281550Y-45157265D01*
X96282956Y-45159978D01*
X96283839Y-45162902D01*
X96309018Y-45210257D01*
X96333732Y-45257935D01*
X96335640Y-45260325D01*
X96337073Y-45263020D01*
X96370973Y-45304586D01*
X96404475Y-45346553D01*
X96408668Y-45350805D01*
X96408739Y-45350892D01*
X96408820Y-45350959D01*
X96410171Y-45352329D01*
X97172518Y-46114676D01*
X97075200Y-46178358D01*
X96986787Y-46264939D01*
X96916875Y-46367043D01*
X96868127Y-46480781D01*
X96842398Y-46601823D01*
X96840671Y-46725556D01*
X96863009Y-46847269D01*
X96891500Y-46919228D01*
X96891500Y-47272157D01*
X96404000Y-47272157D01*
X96343327Y-47276995D01*
X96240420Y-47308864D01*
X96150465Y-47368140D01*
X96080585Y-47450130D01*
X96036314Y-47548342D01*
X96021157Y-47655000D01*
X96021157Y-49255000D01*
X96025995Y-49315673D01*
X96057864Y-49418580D01*
X96094433Y-49474076D01*
X96091375Y-49478543D01*
X96042627Y-49592281D01*
X96016898Y-49713323D01*
X96015171Y-49837056D01*
X96026998Y-49901500D01*
X95948500Y-49901500D01*
X95895101Y-49906736D01*
X95841625Y-49911414D01*
X95838689Y-49912267D01*
X95835650Y-49912565D01*
X95784333Y-49928059D01*
X95732735Y-49943049D01*
X95730018Y-49944457D01*
X95727098Y-49945339D01*
X95679779Y-49970499D01*
X95632065Y-49995232D01*
X95629675Y-49997140D01*
X95626980Y-49998573D01*
X95611843Y-50010918D01*
X95611843Y-49630000D01*
X95607005Y-49569327D01*
X95575136Y-49466420D01*
X95515860Y-49376465D01*
X95433870Y-49306585D01*
X95335658Y-49262314D01*
X95229000Y-49247157D01*
X94902000Y-49247157D01*
X94902000Y-44546005D01*
X94912695Y-44541857D01*
X95128944Y-44404621D01*
X95314419Y-44227996D01*
X95462055Y-44018709D01*
X95566228Y-43784732D01*
X95571361Y-43762137D01*
X95653802Y-43970358D01*
X95653802Y-43970358D01*
G37*
X95653802Y-43970358D02*
X95792544Y-44185644D01*
X95970460Y-44369881D01*
X96180772Y-44516052D01*
X96240000Y-44541928D01*
X96240000Y-44941500D01*
X96245235Y-44994894D01*
X96249914Y-45048376D01*
X96250767Y-45051313D01*
X96251065Y-45054350D01*
X96266569Y-45105701D01*
X96281550Y-45157265D01*
X96282956Y-45159978D01*
X96283839Y-45162902D01*
X96309018Y-45210257D01*
X96333732Y-45257935D01*
X96335640Y-45260325D01*
X96337073Y-45263020D01*
X96370973Y-45304586D01*
X96404475Y-45346553D01*
X96408668Y-45350805D01*
X96408739Y-45350892D01*
X96408820Y-45350959D01*
X96410171Y-45352329D01*
X97172518Y-46114676D01*
X97075200Y-46178358D01*
X96986787Y-46264939D01*
X96916875Y-46367043D01*
X96868127Y-46480781D01*
X96842398Y-46601823D01*
X96840671Y-46725556D01*
X96863009Y-46847269D01*
X96891500Y-46919228D01*
X96891500Y-47272157D01*
X96404000Y-47272157D01*
X96343327Y-47276995D01*
X96240420Y-47308864D01*
X96150465Y-47368140D01*
X96080585Y-47450130D01*
X96036314Y-47548342D01*
X96021157Y-47655000D01*
X96021157Y-49255000D01*
X96025995Y-49315673D01*
X96057864Y-49418580D01*
X96094433Y-49474076D01*
X96091375Y-49478543D01*
X96042627Y-49592281D01*
X96016898Y-49713323D01*
X96015171Y-49837056D01*
X96026998Y-49901500D01*
X95948500Y-49901500D01*
X95895101Y-49906736D01*
X95841625Y-49911414D01*
X95838689Y-49912267D01*
X95835650Y-49912565D01*
X95784333Y-49928059D01*
X95732735Y-49943049D01*
X95730018Y-49944457D01*
X95727098Y-49945339D01*
X95679779Y-49970499D01*
X95632065Y-49995232D01*
X95629675Y-49997140D01*
X95626980Y-49998573D01*
X95611843Y-50010918D01*
X95611843Y-49630000D01*
X95607005Y-49569327D01*
X95575136Y-49466420D01*
X95515860Y-49376465D01*
X95433870Y-49306585D01*
X95335658Y-49262314D01*
X95229000Y-49247157D01*
X94902000Y-49247157D01*
X94902000Y-44546005D01*
X94912695Y-44541857D01*
X95128944Y-44404621D01*
X95314419Y-44227996D01*
X95462055Y-44018709D01*
X95566228Y-43784732D01*
X95571361Y-43762137D01*
X95653802Y-43970358D01*
G36*
X64971394Y-44577000D02*
X62166500Y-44577000D01*
X62131119Y-44582028D01*
X62098539Y-44596714D01*
X62071340Y-44619895D01*
X62051677Y-44649736D01*
X62041105Y-44683873D01*
X62039500Y-44704000D01*
X62039500Y-47762894D01*
X61859894Y-47942500D01*
X52018000Y-47942500D01*
X52018000Y-47851000D01*
X61800214Y-47851000D01*
X61800214Y-47787579D01*
X61811803Y-47778303D01*
X61875303Y-47714803D01*
X61896766Y-47686229D01*
X61909418Y-47652807D01*
X61912500Y-47625000D01*
X61912500Y-44544000D01*
X65004394Y-44544000D01*
X64971394Y-44577000D01*
X64971394Y-44577000D01*
G37*
X64971394Y-44577000D02*
X62166500Y-44577000D01*
X62131119Y-44582028D01*
X62098539Y-44596714D01*
X62071340Y-44619895D01*
X62051677Y-44649736D01*
X62041105Y-44683873D01*
X62039500Y-44704000D01*
X62039500Y-47762894D01*
X61859894Y-47942500D01*
X52018000Y-47942500D01*
X52018000Y-47851000D01*
X61800214Y-47851000D01*
X61800214Y-47787579D01*
X61811803Y-47778303D01*
X61875303Y-47714803D01*
X61896766Y-47686229D01*
X61909418Y-47652807D01*
X61912500Y-47625000D01*
X61912500Y-44544000D01*
X65004394Y-44544000D01*
X64971394Y-44577000D01*
G36*
X65151000Y-41835606D02*
X65151000Y-44397394D01*
X65069643Y-44478751D01*
X65069643Y-41754249D01*
X65151000Y-41835606D01*
X65151000Y-41835606D01*
G37*
X65151000Y-41835606D02*
X65151000Y-44397394D01*
X65069643Y-44478751D01*
X65069643Y-41754249D01*
X65151000Y-41835606D01*
G36*
X64997394Y-41682000D02*
X52018000Y-41682000D01*
X52018000Y-41656000D01*
X64971394Y-41656000D01*
X64997394Y-41682000D01*
X64997394Y-41682000D01*
G37*
X64997394Y-41682000D02*
X52018000Y-41682000D01*
X52018000Y-41656000D01*
X64971394Y-41656000D01*
X64997394Y-41682000D01*
M02*
