G04 #@! TF.FileFunction,Soldermask,Top*
%FSLAX46Y46*%
G04 Gerber Fmt 4.6, Leading zero omitted, Abs format (unit mm)*
G04 Created by KiCad (PCBNEW 4.0.7) date 10/05/18 20:50:03*
%MOMM*%
%LPD*%
G01*
G04 APERTURE LIST*
%ADD10C,0.100000*%
%ADD11C,0.200000*%
%ADD12C,0.300000*%
%ADD13R,9.400000X1.080000*%
%ADD14R,4.900000X1.080000*%
%ADD15R,1.924000X1.080000*%
%ADD16R,5.650000X6.630000*%
%ADD17R,5.650000X10.700000*%
%ADD18C,4.800000*%
%ADD19C,1.100000*%
%ADD20R,1.600000X1.150000*%
%ADD21R,1.150000X1.600000*%
%ADD22R,1.300000X1.600000*%
%ADD23R,2.250000X2.250000*%
%ADD24C,2.250000*%
%ADD25R,1.600000X1.300000*%
%ADD26R,1.700000X1.700000*%
%ADD27R,2.400000X1.700000*%
%ADD28R,3.600000X1.924000*%
%ADD29R,2.000000X0.950000*%
%ADD30R,0.950000X2.000000*%
%ADD31R,2.300000X1.200000*%
%ADD32R,1.450000X1.050000*%
%ADD33R,1.000000X1.200000*%
%ADD34C,3.400000*%
%ADD35C,2.400000*%
%ADD36R,6.514800X3.593800*%
%ADD37R,3.593800X6.514800*%
%ADD38R,3.900000X2.000000*%
%ADD39R,2.000000X3.900000*%
%ADD40C,0.254000*%
G04 APERTURE END LIST*
D10*
D11*
X52371595Y-45322381D02*
X52371595Y-44322381D01*
X52609690Y-44322381D01*
X52752548Y-44370000D01*
X52847786Y-44465238D01*
X52895405Y-44560476D01*
X52943024Y-44750952D01*
X52943024Y-44893810D01*
X52895405Y-45084286D01*
X52847786Y-45179524D01*
X52752548Y-45274762D01*
X52609690Y-45322381D01*
X52371595Y-45322381D01*
X53752548Y-45274762D02*
X53657310Y-45322381D01*
X53466833Y-45322381D01*
X53371595Y-45274762D01*
X53323976Y-45179524D01*
X53323976Y-44798571D01*
X53371595Y-44703333D01*
X53466833Y-44655714D01*
X53657310Y-44655714D01*
X53752548Y-44703333D01*
X53800167Y-44798571D01*
X53800167Y-44893810D01*
X53323976Y-44989048D01*
X54181119Y-45274762D02*
X54276357Y-45322381D01*
X54466833Y-45322381D01*
X54562072Y-45274762D01*
X54609691Y-45179524D01*
X54609691Y-45131905D01*
X54562072Y-45036667D01*
X54466833Y-44989048D01*
X54323976Y-44989048D01*
X54228738Y-44941429D01*
X54181119Y-44846190D01*
X54181119Y-44798571D01*
X54228738Y-44703333D01*
X54323976Y-44655714D01*
X54466833Y-44655714D01*
X54562072Y-44703333D01*
X55038262Y-45322381D02*
X55038262Y-44655714D01*
X55038262Y-44322381D02*
X54990643Y-44370000D01*
X55038262Y-44417619D01*
X55085881Y-44370000D01*
X55038262Y-44322381D01*
X55038262Y-44417619D01*
X55943024Y-44655714D02*
X55943024Y-45465238D01*
X55895405Y-45560476D01*
X55847786Y-45608095D01*
X55752547Y-45655714D01*
X55609690Y-45655714D01*
X55514452Y-45608095D01*
X55943024Y-45274762D02*
X55847786Y-45322381D01*
X55657309Y-45322381D01*
X55562071Y-45274762D01*
X55514452Y-45227143D01*
X55466833Y-45131905D01*
X55466833Y-44846190D01*
X55514452Y-44750952D01*
X55562071Y-44703333D01*
X55657309Y-44655714D01*
X55847786Y-44655714D01*
X55943024Y-44703333D01*
X56419214Y-44655714D02*
X56419214Y-45322381D01*
X56419214Y-44750952D02*
X56466833Y-44703333D01*
X56562071Y-44655714D01*
X56704929Y-44655714D01*
X56800167Y-44703333D01*
X56847786Y-44798571D01*
X56847786Y-45322381D01*
X57704929Y-45274762D02*
X57609691Y-45322381D01*
X57419214Y-45322381D01*
X57323976Y-45274762D01*
X57276357Y-45179524D01*
X57276357Y-44798571D01*
X57323976Y-44703333D01*
X57419214Y-44655714D01*
X57609691Y-44655714D01*
X57704929Y-44703333D01*
X57752548Y-44798571D01*
X57752548Y-44893810D01*
X57276357Y-44989048D01*
X58609691Y-45322381D02*
X58609691Y-44322381D01*
X58609691Y-45274762D02*
X58514453Y-45322381D01*
X58323976Y-45322381D01*
X58228738Y-45274762D01*
X58181119Y-45227143D01*
X58133500Y-45131905D01*
X58133500Y-44846190D01*
X58181119Y-44750952D01*
X58228738Y-44703333D01*
X58323976Y-44655714D01*
X58514453Y-44655714D01*
X58609691Y-44703333D01*
X59847786Y-45322381D02*
X59847786Y-44322381D01*
X59847786Y-44703333D02*
X59943024Y-44655714D01*
X60133501Y-44655714D01*
X60228739Y-44703333D01*
X60276358Y-44750952D01*
X60323977Y-44846190D01*
X60323977Y-45131905D01*
X60276358Y-45227143D01*
X60228739Y-45274762D01*
X60133501Y-45322381D01*
X59943024Y-45322381D01*
X59847786Y-45274762D01*
X60657310Y-44655714D02*
X60895405Y-45322381D01*
X61133501Y-44655714D02*
X60895405Y-45322381D01*
X60800167Y-45560476D01*
X60752548Y-45608095D01*
X60657310Y-45655714D01*
X52371595Y-47022381D02*
X52371595Y-46022381D01*
X52943024Y-47022381D01*
X52943024Y-46022381D01*
X53419214Y-46927143D02*
X53466833Y-46974762D01*
X53419214Y-47022381D01*
X53371595Y-46974762D01*
X53419214Y-46927143D01*
X53419214Y-47022381D01*
X53895404Y-47022381D02*
X53895404Y-46022381D01*
X54466833Y-47022381D01*
X54466833Y-46022381D01*
X54895404Y-46736667D02*
X55371595Y-46736667D01*
X54800166Y-47022381D02*
X55133499Y-46022381D01*
X55466833Y-47022381D01*
X55800166Y-47022381D02*
X55800166Y-46022381D01*
X56371595Y-47022381D02*
X55943023Y-46450952D01*
X56371595Y-46022381D02*
X55800166Y-46593810D01*
X56752547Y-46736667D02*
X57228738Y-46736667D01*
X56657309Y-47022381D02*
X56990642Y-46022381D01*
X57323976Y-47022381D01*
X57657309Y-47022381D02*
X57657309Y-46022381D01*
X57990643Y-46736667D01*
X58323976Y-46022381D01*
X58323976Y-47022381D01*
X58990642Y-46022381D02*
X59181119Y-46022381D01*
X59276357Y-46070000D01*
X59371595Y-46165238D01*
X59419214Y-46355714D01*
X59419214Y-46689048D01*
X59371595Y-46879524D01*
X59276357Y-46974762D01*
X59181119Y-47022381D01*
X58990642Y-47022381D01*
X58895404Y-46974762D01*
X58800166Y-46879524D01*
X58752547Y-46689048D01*
X58752547Y-46355714D01*
X58800166Y-46165238D01*
X58895404Y-46070000D01*
X58990642Y-46022381D01*
X59704928Y-46022381D02*
X60276357Y-46022381D01*
X59990642Y-47022381D02*
X59990642Y-46022381D01*
X60800166Y-46022381D02*
X60990643Y-46022381D01*
X61085881Y-46070000D01*
X61181119Y-46165238D01*
X61228738Y-46355714D01*
X61228738Y-46689048D01*
X61181119Y-46879524D01*
X61085881Y-46974762D01*
X60990643Y-47022381D01*
X60800166Y-47022381D01*
X60704928Y-46974762D01*
X60609690Y-46879524D01*
X60562071Y-46689048D01*
X60562071Y-46355714D01*
X60609690Y-46165238D01*
X60704928Y-46070000D01*
X60800166Y-46022381D01*
D12*
X52317215Y-43595857D02*
X52467215Y-42395857D01*
X52760072Y-43253000D01*
X53267215Y-42395857D01*
X53117215Y-43595857D01*
X53688644Y-43595857D02*
X53838644Y-42395857D01*
X54124359Y-42395857D01*
X54288644Y-42453000D01*
X54388644Y-42567286D01*
X54431502Y-42681571D01*
X54460073Y-42910143D01*
X54438645Y-43081571D01*
X54352930Y-43310143D01*
X54281501Y-43424429D01*
X54152930Y-43538714D01*
X53974359Y-43595857D01*
X53688644Y-43595857D01*
X55860073Y-43595857D02*
X55802930Y-43595857D01*
X55695787Y-43538714D01*
X55545787Y-43367286D01*
X55302929Y-43024429D01*
X55210073Y-42853000D01*
X55174359Y-42681571D01*
X55188644Y-42567286D01*
X55260073Y-42453000D01*
X55381501Y-42395857D01*
X55438644Y-42395857D01*
X55545787Y-42453000D01*
X55588644Y-42567286D01*
X55581501Y-42624429D01*
X55510073Y-42738714D01*
X55445787Y-42795857D01*
X55074358Y-43024429D01*
X55010073Y-43081571D01*
X54938644Y-43195857D01*
X54917215Y-43367286D01*
X54960073Y-43481571D01*
X55010073Y-43538714D01*
X55117216Y-43595857D01*
X55288644Y-43595857D01*
X55410073Y-43538714D01*
X55474359Y-43481571D01*
X55674358Y-43253000D01*
X55752930Y-43081571D01*
X55767215Y-42967286D01*
X56324358Y-43538714D02*
X56488644Y-43595857D01*
X56774358Y-43595857D01*
X56895787Y-43538714D01*
X56960073Y-43481571D01*
X57031501Y-43367286D01*
X57045787Y-43253000D01*
X57002930Y-43138714D01*
X56952930Y-43081571D01*
X56845786Y-43024429D01*
X56624358Y-42967286D01*
X56517215Y-42910143D01*
X56467215Y-42853000D01*
X56424358Y-42738714D01*
X56438643Y-42624429D01*
X56510072Y-42510143D01*
X56574358Y-42453000D01*
X56695787Y-42395857D01*
X56981501Y-42395857D01*
X57145787Y-42453000D01*
X58131501Y-42795857D02*
X58031501Y-43595857D01*
X57617215Y-42795857D02*
X57538643Y-43424429D01*
X57581501Y-43538714D01*
X57688644Y-43595857D01*
X57860072Y-43595857D01*
X57981501Y-43538714D01*
X58045787Y-43481571D01*
X58602929Y-43595857D02*
X58752929Y-42395857D01*
X58695786Y-42853000D02*
X58817215Y-42795857D01*
X59045786Y-42795857D01*
X59152929Y-42853000D01*
X59202929Y-42910143D01*
X59245786Y-43024429D01*
X59202929Y-43367286D01*
X59131501Y-43481571D01*
X59067215Y-43538714D01*
X58945786Y-43595857D01*
X58717215Y-43595857D01*
X58610072Y-43538714D01*
X59745786Y-43138714D02*
X60660072Y-43138714D01*
X61874358Y-43481571D02*
X61810072Y-43538714D01*
X61631500Y-43595857D01*
X61517214Y-43595857D01*
X61352929Y-43538714D01*
X61252928Y-43424429D01*
X61210071Y-43310143D01*
X61181500Y-43081571D01*
X61202928Y-42910143D01*
X61288643Y-42681571D01*
X61360071Y-42567286D01*
X61488643Y-42453000D01*
X61667214Y-42395857D01*
X61781500Y-42395857D01*
X61945786Y-42453000D01*
X61995786Y-42510143D01*
X62374357Y-43595857D02*
X62524357Y-42395857D01*
X62981500Y-42395857D01*
X63088643Y-42453000D01*
X63138643Y-42510143D01*
X63181500Y-42624429D01*
X63160072Y-42795857D01*
X63088643Y-42910143D01*
X63024357Y-42967286D01*
X62902928Y-43024429D01*
X62445785Y-43024429D01*
X63724357Y-42395857D02*
X63602928Y-43367286D01*
X63645786Y-43481571D01*
X63695786Y-43538714D01*
X63802929Y-43595857D01*
X64031500Y-43595857D01*
X64152929Y-43538714D01*
X64217215Y-43481571D01*
X64288643Y-43367286D01*
X64410072Y-42395857D01*
D13*
X79883000Y-57010300D03*
X70930000Y-62002000D03*
D14*
X67900000Y-64012000D03*
X67710000Y-59982000D03*
X68100000Y-55002000D03*
X67700000Y-68982000D03*
D13*
X78880000Y-55002000D03*
X78900000Y-68992000D03*
D15*
X84080000Y-68992000D03*
X84080000Y-68002000D03*
X84080000Y-67002000D03*
X84080000Y-66002000D03*
X84080000Y-65002000D03*
X84080000Y-64002000D03*
X84080000Y-63002000D03*
X84080000Y-62002000D03*
X84080000Y-61002000D03*
X84080000Y-60002000D03*
X84080000Y-59002000D03*
X84080000Y-58002000D03*
X84080000Y-57002000D03*
X84080000Y-56002000D03*
X84080000Y-55002000D03*
X65780000Y-54992000D03*
X65780000Y-56992000D03*
X65780000Y-57992000D03*
X65780000Y-58982000D03*
X65780000Y-59982000D03*
X65780000Y-60982000D03*
X65780000Y-61982000D03*
X65780000Y-62982000D03*
X65780000Y-63982000D03*
X65780000Y-64982000D03*
X65780000Y-65982000D03*
X65780000Y-66982000D03*
X65780000Y-67982000D03*
X65780000Y-68982000D03*
D16*
X71870000Y-66162000D03*
X71870000Y-57832000D03*
D17*
X78020000Y-62032000D03*
D15*
X65780000Y-55992000D03*
D13*
X79883000Y-67005200D03*
D18*
X117000000Y-37500000D03*
D19*
X118650000Y-37500000D03*
X118166726Y-38666726D03*
X117000000Y-39150000D03*
X115833274Y-38666726D03*
X115350000Y-37500000D03*
X115833274Y-36333274D03*
X117000000Y-35850000D03*
X118166726Y-36333274D03*
D18*
X117000000Y-70500000D03*
D19*
X118650000Y-70500000D03*
X118166726Y-71666726D03*
X117000000Y-72150000D03*
X115833274Y-71666726D03*
X115350000Y-70500000D03*
X115833274Y-69333274D03*
X117000000Y-68850000D03*
X118166726Y-69333274D03*
D20*
X89474000Y-50888900D03*
X91374000Y-50888900D03*
X108138000Y-46101000D03*
X106238000Y-46101000D03*
D21*
X103886000Y-56962000D03*
X103886000Y-58862000D03*
D20*
X109159000Y-61976000D03*
X111059000Y-61976000D03*
D21*
X106426000Y-54930000D03*
X106426000Y-56830000D03*
D22*
X117094000Y-50589000D03*
X117094000Y-52789000D03*
X117094000Y-55669000D03*
X117094000Y-57869000D03*
D23*
X91821000Y-43370500D03*
D24*
X94321000Y-43370500D03*
X96821000Y-43370500D03*
X99321000Y-43370500D03*
D23*
X111379000Y-64135000D03*
D24*
X108879000Y-64135000D03*
X106379000Y-64135000D03*
X103879000Y-64135000D03*
X101379000Y-64135000D03*
X98879000Y-64135000D03*
X96379000Y-64135000D03*
D25*
X89324000Y-49618900D03*
X91524000Y-49618900D03*
X106088000Y-47371000D03*
X108288000Y-47371000D03*
X87088800Y-67310000D03*
X89288800Y-67310000D03*
X87088800Y-68580000D03*
X89288800Y-68580000D03*
X87088800Y-66040000D03*
X89288800Y-66040000D03*
X87088800Y-64770000D03*
X89288800Y-64770000D03*
X87088800Y-63500000D03*
X89288800Y-63500000D03*
X91524000Y-53936900D03*
X89324000Y-53936900D03*
X101938000Y-59309000D03*
X99738000Y-59309000D03*
X87088800Y-62230000D03*
X89288800Y-62230000D03*
X89324000Y-55206900D03*
X91524000Y-55206900D03*
X87088800Y-60960000D03*
X89288800Y-60960000D03*
D22*
X115824000Y-52789000D03*
X115824000Y-50589000D03*
X115824000Y-57869000D03*
X115824000Y-55669000D03*
X105156000Y-56980000D03*
X105156000Y-54780000D03*
D26*
X112732000Y-50158000D03*
D27*
X107232000Y-51308000D03*
D26*
X112732000Y-52458000D03*
D28*
X104150000Y-38140000D03*
X111750000Y-43190000D03*
X104200000Y-43190000D03*
X111700000Y-38090000D03*
X111750000Y-40640000D03*
X104150000Y-40640000D03*
D29*
X94429000Y-49905000D03*
X94429000Y-50705000D03*
X94429000Y-51505000D03*
X94429000Y-52305000D03*
X94429000Y-53105000D03*
X94429000Y-53905000D03*
X94429000Y-54705000D03*
X94429000Y-55505000D03*
D30*
X95879000Y-56955000D03*
X96679000Y-56955000D03*
X97479000Y-56955000D03*
X98279000Y-56955000D03*
X99079000Y-56955000D03*
X99879000Y-56955000D03*
X100679000Y-56955000D03*
X101479000Y-56955000D03*
D29*
X102929000Y-55505000D03*
X102929000Y-54705000D03*
X102929000Y-53905000D03*
X102929000Y-53105000D03*
X102929000Y-52305000D03*
X102929000Y-51505000D03*
X102929000Y-50705000D03*
X102929000Y-49905000D03*
D30*
X101479000Y-48455000D03*
X100679000Y-48455000D03*
X99879000Y-48455000D03*
X99079000Y-48455000D03*
X98279000Y-48455000D03*
X97479000Y-48455000D03*
X96679000Y-48455000D03*
X95879000Y-48455000D03*
D31*
X111355000Y-56957000D03*
X111355000Y-55057000D03*
X108355000Y-56007000D03*
D32*
X113622000Y-47684000D03*
X113622000Y-45534000D03*
X117772000Y-45534000D03*
X117772000Y-47684000D03*
D33*
X107989000Y-58547000D03*
X109689000Y-58547000D03*
D34*
X78105000Y-62039500D03*
X71818500Y-66103500D03*
X71882000Y-57975500D03*
D35*
X115316000Y-61531500D03*
X105156000Y-61531500D03*
D18*
X55000000Y-37500000D03*
D19*
X56650000Y-37500000D03*
X56166726Y-38666726D03*
X55000000Y-39150000D03*
X53833274Y-38666726D03*
X53350000Y-37500000D03*
X53833274Y-36333274D03*
X55000000Y-35850000D03*
X56166726Y-36333274D03*
D36*
X72527500Y-42568500D03*
D37*
X78295500Y-42100500D03*
X59285500Y-58430500D03*
D36*
X59753500Y-64198500D03*
D38*
X69756000Y-48958500D03*
X64356000Y-48958500D03*
D39*
X85852000Y-46896000D03*
X85852000Y-41496000D03*
D40*
G36*
X83185000Y-72961500D02*
X56832500Y-72961500D01*
X56832500Y-69786198D01*
X83185000Y-69723304D01*
X83185000Y-72961500D01*
X83185000Y-72961500D01*
G37*
X83185000Y-72961500D02*
X56832500Y-72961500D01*
X56832500Y-69786198D01*
X83185000Y-69723304D01*
X83185000Y-72961500D01*
G36*
X63563500Y-52324000D02*
X63573506Y-52373410D01*
X63601947Y-52415035D01*
X63644341Y-52442315D01*
X63690500Y-52451000D01*
X70358000Y-52451000D01*
X70407410Y-52440994D01*
X70449035Y-52412553D01*
X70476315Y-52370159D01*
X70485000Y-52324000D01*
X70485000Y-51181000D01*
X83185000Y-51181000D01*
X83185000Y-54356000D01*
X57658000Y-54356000D01*
X57658000Y-51181000D01*
X63563500Y-51181000D01*
X63563500Y-52324000D01*
X63563500Y-52324000D01*
G37*
X63563500Y-52324000D02*
X63573506Y-52373410D01*
X63601947Y-52415035D01*
X63644341Y-52442315D01*
X63690500Y-52451000D01*
X70358000Y-52451000D01*
X70407410Y-52440994D01*
X70449035Y-52412553D01*
X70476315Y-52370159D01*
X70485000Y-52324000D01*
X70485000Y-51181000D01*
X83185000Y-51181000D01*
X83185000Y-54356000D01*
X57658000Y-54356000D01*
X57658000Y-51181000D01*
X63563500Y-51181000D01*
X63563500Y-52324000D01*
M02*
