G04 #@! TF.FileFunction,Copper,L2,Bot,Signal*
%FSLAX46Y46*%
G04 Gerber Fmt 4.6, Leading zero omitted, Abs format (unit mm)*
G04 Created by KiCad (PCBNEW 4.0.7) date 10/05/18 20:50:03*
%MOMM*%
%LPD*%
G01*
G04 APERTURE LIST*
%ADD10C,0.100000*%
%ADD11C,0.200000*%
%ADD12C,4.400000*%
%ADD13C,0.700000*%
%ADD14R,1.200000X0.750000*%
%ADD15R,1.850000X1.850000*%
%ADD16C,1.850000*%
%ADD17R,1.200000X2.200000*%
%ADD18R,5.800000X6.400000*%
%ADD19R,2.750000X3.050000*%
%ADD20C,3.000000*%
%ADD21C,2.000000*%
%ADD22R,6.114800X3.193800*%
%ADD23R,3.193800X6.114800*%
%ADD24C,0.600000*%
%ADD25C,0.500000*%
%ADD26C,0.400000*%
%ADD27C,0.250000*%
%ADD28C,0.600000*%
%ADD29C,0.254000*%
G04 APERTURE END LIST*
D10*
D11*
X111901595Y-72651881D02*
X111901595Y-71651881D01*
X111425405Y-72651881D02*
X111425405Y-71651881D01*
X110853976Y-72651881D01*
X110853976Y-71651881D01*
X110520643Y-71651881D02*
X109949214Y-71651881D01*
X110234929Y-72651881D02*
X110234929Y-71651881D01*
X109615881Y-72128071D02*
X109282547Y-72128071D01*
X109139690Y-72651881D02*
X109615881Y-72651881D01*
X109615881Y-71651881D01*
X109139690Y-71651881D01*
X108234928Y-72651881D02*
X108711119Y-72651881D01*
X108711119Y-71651881D01*
X107425404Y-72651881D02*
X107901595Y-72651881D01*
X107901595Y-71651881D01*
X107092071Y-72651881D02*
X107092071Y-71651881D01*
X106092071Y-71699500D02*
X106187309Y-71651881D01*
X106330166Y-71651881D01*
X106473024Y-71699500D01*
X106568262Y-71794738D01*
X106615881Y-71889976D01*
X106663500Y-72080452D01*
X106663500Y-72223310D01*
X106615881Y-72413786D01*
X106568262Y-72509024D01*
X106473024Y-72604262D01*
X106330166Y-72651881D01*
X106234928Y-72651881D01*
X106092071Y-72604262D01*
X106044452Y-72556643D01*
X106044452Y-72223310D01*
X106234928Y-72223310D01*
X105615881Y-72128071D02*
X105282547Y-72128071D01*
X105139690Y-72651881D02*
X105615881Y-72651881D01*
X105615881Y-71651881D01*
X105139690Y-71651881D01*
X104711119Y-72651881D02*
X104711119Y-71651881D01*
X104139690Y-72651881D01*
X104139690Y-71651881D01*
X103806357Y-71651881D02*
X103234928Y-71651881D01*
X103520643Y-72651881D02*
X103520643Y-71651881D01*
X101568261Y-72651881D02*
X101901595Y-72175690D01*
X102139690Y-72651881D02*
X102139690Y-71651881D01*
X101758737Y-71651881D01*
X101663499Y-71699500D01*
X101615880Y-71747119D01*
X101568261Y-71842357D01*
X101568261Y-71985214D01*
X101615880Y-72080452D01*
X101663499Y-72128071D01*
X101758737Y-72175690D01*
X102139690Y-72175690D01*
X100949214Y-71651881D02*
X100758737Y-71651881D01*
X100663499Y-71699500D01*
X100568261Y-71794738D01*
X100520642Y-71985214D01*
X100520642Y-72318548D01*
X100568261Y-72509024D01*
X100663499Y-72604262D01*
X100758737Y-72651881D01*
X100949214Y-72651881D01*
X101044452Y-72604262D01*
X101139690Y-72509024D01*
X101187309Y-72318548D01*
X101187309Y-71985214D01*
X101139690Y-71794738D01*
X101044452Y-71699500D01*
X100949214Y-71651881D01*
X99758737Y-72128071D02*
X99615880Y-72175690D01*
X99568261Y-72223310D01*
X99520642Y-72318548D01*
X99520642Y-72461405D01*
X99568261Y-72556643D01*
X99615880Y-72604262D01*
X99711118Y-72651881D01*
X100092071Y-72651881D01*
X100092071Y-71651881D01*
X99758737Y-71651881D01*
X99663499Y-71699500D01*
X99615880Y-71747119D01*
X99568261Y-71842357D01*
X99568261Y-71937595D01*
X99615880Y-72032833D01*
X99663499Y-72080452D01*
X99758737Y-72128071D01*
X100092071Y-72128071D01*
X98901595Y-71651881D02*
X98711118Y-71651881D01*
X98615880Y-71699500D01*
X98520642Y-71794738D01*
X98473023Y-71985214D01*
X98473023Y-72318548D01*
X98520642Y-72509024D01*
X98615880Y-72604262D01*
X98711118Y-72651881D01*
X98901595Y-72651881D01*
X98996833Y-72604262D01*
X99092071Y-72509024D01*
X99139690Y-72318548D01*
X99139690Y-71985214D01*
X99092071Y-71794738D01*
X98996833Y-71699500D01*
X98901595Y-71651881D01*
X98187309Y-71651881D02*
X97615880Y-71651881D01*
X97901595Y-72651881D02*
X97901595Y-71651881D01*
X97282547Y-72651881D02*
X97282547Y-71651881D01*
X96234928Y-72556643D02*
X96282547Y-72604262D01*
X96425404Y-72651881D01*
X96520642Y-72651881D01*
X96663500Y-72604262D01*
X96758738Y-72509024D01*
X96806357Y-72413786D01*
X96853976Y-72223310D01*
X96853976Y-72080452D01*
X96806357Y-71889976D01*
X96758738Y-71794738D01*
X96663500Y-71699500D01*
X96520642Y-71651881D01*
X96425404Y-71651881D01*
X96282547Y-71699500D01*
X96234928Y-71747119D01*
X95853976Y-72604262D02*
X95711119Y-72651881D01*
X95473023Y-72651881D01*
X95377785Y-72604262D01*
X95330166Y-72556643D01*
X95282547Y-72461405D01*
X95282547Y-72366167D01*
X95330166Y-72270929D01*
X95377785Y-72223310D01*
X95473023Y-72175690D01*
X95663500Y-72128071D01*
X95758738Y-72080452D01*
X95806357Y-72032833D01*
X95853976Y-71937595D01*
X95853976Y-71842357D01*
X95806357Y-71747119D01*
X95758738Y-71699500D01*
X95663500Y-71651881D01*
X95425404Y-71651881D01*
X95282547Y-71699500D01*
X93615880Y-72651881D02*
X94092071Y-72651881D01*
X94092071Y-71651881D01*
X93330166Y-72366167D02*
X92853975Y-72366167D01*
X93425404Y-72651881D02*
X93092071Y-71651881D01*
X92758737Y-72651881D01*
X92092070Y-72128071D02*
X91949213Y-72175690D01*
X91901594Y-72223310D01*
X91853975Y-72318548D01*
X91853975Y-72461405D01*
X91901594Y-72556643D01*
X91949213Y-72604262D01*
X92044451Y-72651881D01*
X92425404Y-72651881D01*
X92425404Y-71651881D01*
X92092070Y-71651881D01*
X91996832Y-71699500D01*
X91949213Y-71747119D01*
X91901594Y-71842357D01*
X91901594Y-71937595D01*
X91949213Y-72032833D01*
X91996832Y-72080452D01*
X92092070Y-72128071D01*
X92425404Y-72128071D01*
X91425404Y-72556643D02*
X91377785Y-72604262D01*
X91425404Y-72651881D01*
X91473023Y-72604262D01*
X91425404Y-72556643D01*
X91425404Y-72651881D01*
D12*
X117000000Y-37500000D03*
D13*
X118650000Y-37500000D03*
X118166726Y-38666726D03*
X117000000Y-39150000D03*
X115833274Y-38666726D03*
X115350000Y-37500000D03*
X115833274Y-36333274D03*
X117000000Y-35850000D03*
X118166726Y-36333274D03*
D12*
X117000000Y-70500000D03*
D13*
X118650000Y-70500000D03*
X118166726Y-71666726D03*
X117000000Y-72150000D03*
X115833274Y-71666726D03*
X115350000Y-70500000D03*
X115833274Y-69333274D03*
X117000000Y-68850000D03*
X118166726Y-69333274D03*
D14*
X68260000Y-47688500D03*
X66360000Y-47688500D03*
D15*
X91821000Y-43370500D03*
D16*
X94321000Y-43370500D03*
X96821000Y-43370500D03*
X99321000Y-43370500D03*
D15*
X111379000Y-64135000D03*
D16*
X108879000Y-64135000D03*
X106379000Y-64135000D03*
X103879000Y-64135000D03*
X101379000Y-64135000D03*
X98879000Y-64135000D03*
X96379000Y-64135000D03*
D17*
X76015500Y-49457500D03*
X80575500Y-49457500D03*
D18*
X78295500Y-55757500D03*
D19*
X79820500Y-57432500D03*
X76770500Y-54082500D03*
X76770500Y-57432500D03*
X79820500Y-54082500D03*
D20*
X78105000Y-62039500D03*
X71818500Y-66103500D03*
X71882000Y-57975500D03*
D21*
X115316000Y-61531500D03*
X105156000Y-61531500D03*
D12*
X55000000Y-37500000D03*
D13*
X56650000Y-37500000D03*
X56166726Y-38666726D03*
X55000000Y-39150000D03*
X53833274Y-38666726D03*
X53350000Y-37500000D03*
X53833274Y-36333274D03*
X55000000Y-35850000D03*
X56166726Y-36333274D03*
D22*
X72527500Y-42568500D03*
D23*
X78295500Y-42100500D03*
X59285500Y-58430500D03*
D22*
X59753500Y-64198500D03*
D24*
X88773000Y-70993000D03*
X87312500Y-70993000D03*
X87312500Y-72453500D03*
X88773000Y-72453500D03*
X90233500Y-72453500D03*
X90233500Y-70993000D03*
X90868500Y-69532500D03*
X92329000Y-69532500D03*
X92329000Y-68072000D03*
X63182500Y-46228000D03*
X63182500Y-47625000D03*
X87185500Y-40132000D03*
X87185500Y-38671500D03*
X87185500Y-37211000D03*
X87185500Y-35750500D03*
X85725000Y-35750500D03*
X85725000Y-37211000D03*
X85725000Y-38671500D03*
X76962000Y-37211000D03*
X76898500Y-35750500D03*
X78422500Y-35750500D03*
X78422500Y-37211000D03*
X79883000Y-37211000D03*
X79883000Y-35750500D03*
X81343500Y-35750500D03*
X81343500Y-37211000D03*
X82804000Y-37211000D03*
X84264500Y-40132000D03*
X84264500Y-38671500D03*
X84264500Y-37211000D03*
X84264500Y-35750500D03*
X82804000Y-35750500D03*
X72580500Y-38671500D03*
X71120000Y-38671500D03*
X69659500Y-38671500D03*
X69659500Y-37211000D03*
X69659500Y-35750500D03*
X71120000Y-35750500D03*
X71120000Y-37211000D03*
X72580500Y-37211000D03*
X69659500Y-40132000D03*
X71120000Y-40132000D03*
X72580500Y-40132000D03*
X74041000Y-40132000D03*
X75501500Y-40132000D03*
X75501500Y-38671500D03*
X74041000Y-38671500D03*
X75501500Y-35750500D03*
X75501500Y-37211000D03*
X74041000Y-37211000D03*
X74041000Y-35750500D03*
X72580500Y-35750500D03*
X64516000Y-46164500D03*
X64516000Y-47625000D03*
X57340500Y-49085500D03*
X58801000Y-49085500D03*
X60261500Y-49085500D03*
X61722000Y-49085500D03*
X52959000Y-66611500D03*
X52959000Y-65151000D03*
X52959000Y-63690500D03*
X52959000Y-62230000D03*
X52959000Y-60769500D03*
X52959000Y-59309000D03*
X52959000Y-57848500D03*
X52959000Y-56388000D03*
X52959000Y-68072000D03*
X52959000Y-69532500D03*
X52959000Y-70993000D03*
X52959000Y-72453500D03*
X55880000Y-49085500D03*
X54419500Y-49085500D03*
X52959000Y-49085500D03*
X52959000Y-50546000D03*
X52959000Y-52006500D03*
X52959000Y-53467000D03*
X52959000Y-54927500D03*
X65976500Y-46164500D03*
X65976500Y-47625000D03*
X65976500Y-49085500D03*
X64516000Y-49085500D03*
X63182500Y-49085500D03*
X55880000Y-57785000D03*
X55880000Y-56388000D03*
X55880000Y-54927500D03*
X55880000Y-53467000D03*
X55880000Y-52006500D03*
X54419500Y-50546000D03*
X55880000Y-50546000D03*
X55880000Y-62230000D03*
X54419500Y-62230000D03*
X54419500Y-60769500D03*
X55880000Y-60769500D03*
X55880000Y-59309000D03*
X54419500Y-59309000D03*
X54419500Y-52006500D03*
X54419500Y-53467000D03*
X54419500Y-54927500D03*
X54419500Y-56388000D03*
X54419500Y-57785000D03*
X54419500Y-72453500D03*
X55880000Y-72453500D03*
X55880000Y-70993000D03*
X55880000Y-69532500D03*
X55880000Y-68135500D03*
X55880000Y-66675000D03*
X55880000Y-65151000D03*
X55880000Y-63690500D03*
X54419500Y-63690500D03*
X54419500Y-65151000D03*
X54419500Y-66675000D03*
X54419500Y-68072000D03*
X54419500Y-69532500D03*
X54419500Y-70993000D03*
X68008500Y-65468500D03*
X68008500Y-66548000D03*
X68008500Y-67627500D03*
X67056000Y-67627500D03*
X67056000Y-66548000D03*
X67056000Y-65468500D03*
X66675000Y-56959500D03*
X66675000Y-57912000D03*
X66675000Y-58864500D03*
X67627500Y-58864500D03*
X67627500Y-57912000D03*
X67627500Y-56959500D03*
X67627500Y-56007000D03*
X66675000Y-56007000D03*
X64198500Y-57975500D03*
X64198500Y-57023000D03*
X64198500Y-56070500D03*
X63246000Y-56070500D03*
X63246000Y-57023000D03*
X63246000Y-57975500D03*
X64198500Y-58928000D03*
X63246000Y-58928000D03*
X62293500Y-58928000D03*
X62293500Y-57975500D03*
X62293500Y-57023000D03*
X62293500Y-56070500D03*
D25*
X95885000Y-47434500D03*
X106870500Y-46164500D03*
X110299500Y-62039500D03*
X108077000Y-61976000D03*
X117094000Y-56261000D03*
X113601500Y-46799500D03*
X106616500Y-40640000D03*
X109410500Y-40640000D03*
X90487500Y-52451000D03*
X90170000Y-55181500D03*
D24*
X64897000Y-65468500D03*
X64897000Y-66548000D03*
X64897000Y-67627500D03*
X63944500Y-67627500D03*
X63944500Y-66548000D03*
X63944500Y-65468500D03*
D25*
X93345000Y-65214500D03*
X96964500Y-55626000D03*
X106426000Y-54419500D03*
X104140000Y-55372000D03*
D24*
X109474000Y-51308000D03*
X108966000Y-58547000D03*
X108331000Y-56388000D03*
D25*
X82296000Y-38925500D03*
X82296000Y-39878000D03*
X82296000Y-40830500D03*
X82296000Y-41783000D03*
X82296000Y-42735500D03*
X82296000Y-43688000D03*
X82296000Y-44640500D03*
X81280000Y-38925500D03*
X81280000Y-39878000D03*
X81280000Y-40830500D03*
X81280000Y-41783000D03*
X81280000Y-42735500D03*
X81280000Y-43688000D03*
X81280000Y-44640500D03*
X80264000Y-45593000D03*
X80264000Y-38925500D03*
X80264000Y-39878000D03*
X80264000Y-40830500D03*
X80264000Y-41783000D03*
X80264000Y-42735500D03*
X80264000Y-43688000D03*
X80264000Y-44640500D03*
X77279500Y-49657000D03*
X77279500Y-48641000D03*
X77279500Y-47625000D03*
X77279500Y-46609000D03*
X77279500Y-45593000D03*
X77279500Y-44640500D03*
X77279500Y-43688000D03*
X77279500Y-42735500D03*
X77279500Y-41783000D03*
X77279500Y-40830500D03*
X77279500Y-39878000D03*
X77279500Y-38925500D03*
X78232000Y-38925500D03*
X79184500Y-38925500D03*
X85598000Y-58039000D03*
X86360000Y-49657000D03*
X85344000Y-49657000D03*
X84328000Y-49657000D03*
X83312000Y-49657000D03*
X82296000Y-49657000D03*
X78232000Y-49657000D03*
X79248000Y-49657000D03*
X83312000Y-47625000D03*
X84328000Y-47625000D03*
X84328000Y-48641000D03*
X83312000Y-48641000D03*
X82296000Y-48641000D03*
X82296000Y-47625000D03*
X78232000Y-46609000D03*
X78232000Y-47625000D03*
X78232000Y-48641000D03*
X79248000Y-48641000D03*
X79248000Y-47625000D03*
X79248000Y-46609000D03*
X85344000Y-45593000D03*
X84328000Y-45593000D03*
X83312000Y-45593000D03*
X82296000Y-45593000D03*
X81280000Y-45593000D03*
X86360000Y-45593000D03*
X78232000Y-45593000D03*
X79248000Y-45593000D03*
X84328000Y-46609000D03*
X83312000Y-46609000D03*
X82296000Y-46609000D03*
X81280000Y-46609000D03*
X80264000Y-46609000D03*
X85344000Y-46609000D03*
X86360000Y-46609000D03*
D24*
X70421500Y-49911000D03*
X68389500Y-49911000D03*
X69405500Y-49911000D03*
X69405500Y-49022000D03*
X70421500Y-49022000D03*
X68389500Y-49022000D03*
X72390000Y-61976000D03*
X73406000Y-61976000D03*
X74422000Y-61976000D03*
X67310000Y-61976000D03*
X68326000Y-61976000D03*
X69342000Y-61976000D03*
X70358000Y-61976000D03*
X71374000Y-61976000D03*
X76708000Y-59436000D03*
X77851000Y-59436000D03*
X81280000Y-59436000D03*
X80137000Y-59436000D03*
X78994000Y-59436000D03*
X75565000Y-59436000D03*
X82423000Y-67437000D03*
X75628500Y-67437000D03*
X76708000Y-67437000D03*
X77851000Y-67437000D03*
X78994000Y-67437000D03*
X80137000Y-67437000D03*
X81280000Y-67437000D03*
X77851000Y-66294000D03*
X78994000Y-66294000D03*
X80137000Y-66294000D03*
X81280000Y-66294000D03*
X76708000Y-66294000D03*
X75628500Y-66294000D03*
X77851000Y-65151000D03*
X78994000Y-65151000D03*
X80137000Y-65151000D03*
X81280000Y-65151000D03*
X76708000Y-65151000D03*
X75628500Y-65151000D03*
X77851000Y-64008000D03*
X78994000Y-64008000D03*
X80137000Y-64008000D03*
X81280000Y-64008000D03*
X76708000Y-64008000D03*
X75628500Y-64008000D03*
X78994000Y-60579000D03*
X80137000Y-60579000D03*
X81280000Y-60579000D03*
X77851000Y-60579000D03*
X76708000Y-60579000D03*
X75565000Y-60579000D03*
X81280000Y-58293000D03*
X80137000Y-58293000D03*
X78994000Y-58293000D03*
X77851000Y-58293000D03*
X76708000Y-58293000D03*
X75565000Y-58293000D03*
X82423000Y-59436000D03*
X82423000Y-60579000D03*
X82423000Y-61722000D03*
X82423000Y-62865000D03*
X82423000Y-64008000D03*
X82423000Y-65151000D03*
X82423000Y-58293000D03*
X82423000Y-66294000D03*
X81280000Y-57150000D03*
X80137000Y-57150000D03*
X78994000Y-57150000D03*
X77851000Y-57150000D03*
X76708000Y-57150000D03*
X75565000Y-57150000D03*
X76708000Y-56007000D03*
X77851000Y-56007000D03*
X75565000Y-56007000D03*
X78994000Y-56007000D03*
X80137000Y-56007000D03*
X81280000Y-56007000D03*
X82423000Y-56007000D03*
X82423000Y-57150000D03*
D25*
X107759500Y-47434500D03*
D24*
X58102500Y-54991000D03*
X59245500Y-54991000D03*
X60388500Y-54991000D03*
D25*
X69342000Y-56007000D03*
X70358000Y-56007000D03*
X66357500Y-59817000D03*
X66357500Y-60833000D03*
X68326000Y-60833000D03*
X67310000Y-60833000D03*
X68326000Y-59817000D03*
X67310000Y-59817000D03*
X70358000Y-60833000D03*
X69342000Y-60833000D03*
X69342000Y-59817000D03*
X70358000Y-59817000D03*
X70358000Y-59817000D03*
X69342000Y-59817000D03*
X69342000Y-60833000D03*
X70358000Y-60833000D03*
X70358000Y-60833000D03*
X69342000Y-60833000D03*
X69342000Y-59817000D03*
X70358000Y-59817000D03*
X70358000Y-59817000D03*
X69342000Y-59817000D03*
X69342000Y-60833000D03*
X70358000Y-60833000D03*
X72390000Y-60833000D03*
X71374000Y-60833000D03*
X70358000Y-60833000D03*
X69342000Y-60833000D03*
X69342000Y-59817000D03*
X72390000Y-59817000D03*
X71374000Y-59817000D03*
X70358000Y-59817000D03*
X70358000Y-59817000D03*
X71374000Y-59817000D03*
X72390000Y-59817000D03*
X69342000Y-59817000D03*
X69342000Y-60833000D03*
X70358000Y-60833000D03*
X71374000Y-60833000D03*
X72390000Y-60833000D03*
X72390000Y-60833000D03*
X71374000Y-60833000D03*
X70358000Y-60833000D03*
X69342000Y-60833000D03*
X69342000Y-59817000D03*
X72390000Y-59817000D03*
X71374000Y-59817000D03*
X70358000Y-59817000D03*
X73406000Y-57848500D03*
X74422000Y-57848500D03*
X71374000Y-58801000D03*
X72390000Y-58801000D03*
X73406000Y-58801000D03*
X74422000Y-58801000D03*
X70358000Y-57848500D03*
X70358000Y-58801000D03*
X70358000Y-59817000D03*
X71374000Y-59817000D03*
X72390000Y-59817000D03*
X73406000Y-59817000D03*
X74422000Y-59817000D03*
X69342000Y-57023000D03*
X69342000Y-59817000D03*
X69342000Y-58801000D03*
X69342000Y-57848500D03*
X69342000Y-60833000D03*
X70358000Y-60833000D03*
X71374000Y-60833000D03*
X72390000Y-60833000D03*
X73406000Y-60833000D03*
X74422000Y-60833000D03*
X71374000Y-56007000D03*
X72390000Y-56007000D03*
X73406000Y-56007000D03*
X74422000Y-56007000D03*
X74422000Y-57023000D03*
X73406000Y-57023000D03*
X72390000Y-57023000D03*
X71374000Y-57023000D03*
X70358000Y-57023000D03*
D24*
X61785500Y-67818000D03*
X60642500Y-67818000D03*
X59499500Y-67818000D03*
X58356500Y-67818000D03*
X61785500Y-68961000D03*
X60642500Y-68961000D03*
X59499500Y-68961000D03*
X58356500Y-68961000D03*
X57213500Y-68961000D03*
X57213500Y-67818000D03*
X57213500Y-66675000D03*
X58356500Y-66675000D03*
X59499500Y-66675000D03*
X60642500Y-66675000D03*
X61785500Y-66675000D03*
D25*
X66294000Y-64135000D03*
X67310000Y-64135000D03*
X68326000Y-64135000D03*
X66294000Y-63119000D03*
X67310000Y-63119000D03*
X68326000Y-63119000D03*
X69342000Y-68072000D03*
X70358000Y-68072000D03*
X71437500Y-68072000D03*
X72390000Y-68072000D03*
X73406000Y-68072000D03*
X74422000Y-68072000D03*
X69342000Y-67056000D03*
X70358000Y-67056000D03*
X71437500Y-67056000D03*
X72390000Y-67056000D03*
X73406000Y-67056000D03*
X74422000Y-67056000D03*
X69342000Y-66040000D03*
X70358000Y-66040000D03*
X73406000Y-66040000D03*
X74422000Y-66040000D03*
X69342000Y-65087500D03*
X70358000Y-65087500D03*
X71374000Y-65087500D03*
X72390000Y-65087500D03*
X73406000Y-65087500D03*
X74422000Y-65087500D03*
X69342000Y-64135000D03*
X70358000Y-64135000D03*
X71374000Y-64135000D03*
X72390000Y-64135000D03*
X73406000Y-64135000D03*
X74422000Y-64135000D03*
X69342000Y-63119000D03*
X70358000Y-63119000D03*
X71374000Y-63119000D03*
X72390000Y-63119000D03*
X73406000Y-63119000D03*
X74422000Y-63119000D03*
X97472500Y-46672500D03*
X98425000Y-45275500D03*
X103759000Y-50673000D03*
X102933500Y-49911000D03*
X94488000Y-60325000D03*
X100584000Y-50736500D03*
X97409000Y-61531500D03*
X84899500Y-58991500D03*
X92456000Y-49657000D03*
X96647000Y-49784000D03*
X104394000Y-47371000D03*
X101473000Y-50927000D03*
X87579200Y-62230000D03*
X87884000Y-68478400D03*
X96647000Y-61531500D03*
X96647000Y-57848500D03*
X95948500Y-60833000D03*
X95885000Y-57848500D03*
X96901000Y-54800500D03*
X93408500Y-58229500D03*
X93408500Y-57277000D03*
X96901000Y-53911500D03*
X105283000Y-55499000D03*
X105283000Y-58928000D03*
X99631500Y-60325000D03*
X98298000Y-58039000D03*
X99060000Y-45847000D03*
X99060000Y-49847500D03*
X104394000Y-46418500D03*
X100584000Y-49784000D03*
X100711000Y-61023500D03*
X100647500Y-58102500D03*
D26*
X111379000Y-64135000D02*
X111379000Y-64833500D01*
X111379000Y-64833500D02*
X108140500Y-68072000D01*
X87312500Y-70993000D02*
X88773000Y-70993000D01*
X88773000Y-72453500D02*
X87312500Y-72453500D01*
X90233500Y-70993000D02*
X90233500Y-72453500D01*
X92329000Y-69532500D02*
X90868500Y-69532500D01*
X108140500Y-68072000D02*
X92329000Y-68072000D01*
X63182500Y-49085500D02*
X63182500Y-47625000D01*
X84264500Y-38671500D02*
X85725000Y-38671500D01*
X87185500Y-38671500D02*
X87185500Y-40132000D01*
X87185500Y-35750500D02*
X87185500Y-37211000D01*
X85725000Y-37211000D02*
X85725000Y-35750500D01*
X76898500Y-35750500D02*
X78422500Y-35750500D01*
X78422500Y-37211000D02*
X79883000Y-37211000D01*
X79883000Y-35750500D02*
X81343500Y-35750500D01*
X81343500Y-37211000D02*
X82804000Y-37211000D01*
X75501500Y-37211000D02*
X76962000Y-37211000D01*
X84264500Y-37211000D02*
X84264500Y-38671500D01*
X82804000Y-35750500D02*
X84264500Y-35750500D01*
X72580500Y-38671500D02*
X71120000Y-38671500D01*
X69659500Y-38671500D02*
X69659500Y-37211000D01*
X69659500Y-35750500D02*
X71120000Y-35750500D01*
X71120000Y-37211000D02*
X72580500Y-37211000D01*
X72096000Y-42568500D02*
X69659500Y-40132000D01*
X71120000Y-40132000D02*
X72580500Y-40132000D01*
X74041000Y-40132000D02*
X75501500Y-40132000D01*
X75501500Y-38671500D02*
X74041000Y-38671500D01*
X74041000Y-37211000D02*
X75501500Y-37211000D01*
X72580500Y-35750500D02*
X74041000Y-35750500D01*
X72527500Y-42568500D02*
X72096000Y-42568500D01*
X64516000Y-47625000D02*
X64516000Y-46164500D01*
X61722000Y-49085500D02*
X63182500Y-49085500D01*
X58801000Y-49085500D02*
X60261500Y-49085500D01*
X52959000Y-66611500D02*
X52959000Y-65151000D01*
X52959000Y-63690500D02*
X52959000Y-62230000D01*
X52959000Y-60769500D02*
X52959000Y-59309000D01*
X52959000Y-57848500D02*
X52959000Y-56388000D01*
X52959000Y-69532500D02*
X52959000Y-68072000D01*
X52959000Y-72453500D02*
X52959000Y-70993000D01*
X52959000Y-49085500D02*
X54419500Y-49085500D01*
X52959000Y-52006500D02*
X52959000Y-50546000D01*
X52959000Y-54927500D02*
X52959000Y-53467000D01*
X55880000Y-49085500D02*
X57340500Y-49085500D01*
X65976500Y-47625000D02*
X65976500Y-46164500D01*
X64516000Y-49085500D02*
X65976500Y-49085500D01*
X55880000Y-52006500D02*
X55880000Y-50546000D01*
X55880000Y-57785000D02*
X55880000Y-56388000D01*
X55880000Y-54927500D02*
X55880000Y-53467000D01*
X54419500Y-59309000D02*
X54419500Y-57785000D01*
X54419500Y-62230000D02*
X54419500Y-60769500D01*
X55880000Y-60769500D02*
X55880000Y-59309000D01*
X55880000Y-63690500D02*
X55880000Y-62230000D01*
X54419500Y-53467000D02*
X54419500Y-52006500D01*
X54419500Y-56388000D02*
X54419500Y-54927500D01*
X55880000Y-72453500D02*
X54419500Y-72453500D01*
X55880000Y-70993000D02*
X55880000Y-69532500D01*
X55880000Y-68135500D02*
X55880000Y-66675000D01*
X55880000Y-65151000D02*
X55880000Y-63690500D01*
X54419500Y-65151000D02*
X54419500Y-63690500D01*
X54419500Y-68072000D02*
X54419500Y-66675000D01*
X54419500Y-70993000D02*
X54419500Y-69532500D01*
D27*
X68008500Y-66548000D02*
X68008500Y-65468500D01*
X67056000Y-67627500D02*
X68008500Y-67627500D01*
X67056000Y-65468500D02*
X67056000Y-66548000D01*
X66675000Y-57912000D02*
X66675000Y-56959500D01*
X67627500Y-58864500D02*
X66675000Y-58864500D01*
X67627500Y-56959500D02*
X67627500Y-57912000D01*
X66675000Y-56007000D02*
X67627500Y-56007000D01*
X64198500Y-57023000D02*
X64198500Y-57975500D01*
X63246000Y-56070500D02*
X64198500Y-56070500D01*
X63246000Y-57975500D02*
X63246000Y-57023000D01*
X63246000Y-58928000D02*
X64198500Y-58928000D01*
X62293500Y-57975500D02*
X62293500Y-58928000D01*
X62293500Y-56070500D02*
X62293500Y-57023000D01*
D26*
X95885000Y-47434500D02*
X91821000Y-43370500D01*
X106616500Y-40640000D02*
X106616500Y-45910500D01*
X106616500Y-45910500D02*
X106870500Y-46164500D01*
X91821000Y-43370500D02*
X91821000Y-42989500D01*
X91821000Y-42989500D02*
X94170500Y-40640000D01*
X94170500Y-40640000D02*
X106616500Y-40640000D01*
X108140500Y-62039500D02*
X110299500Y-62039500D01*
X108077000Y-61976000D02*
X108140500Y-62039500D01*
X115316000Y-61531500D02*
X115316000Y-58039000D01*
X115316000Y-58039000D02*
X117094000Y-56261000D01*
X110998000Y-40640000D02*
X109410500Y-40640000D01*
X113601500Y-43243500D02*
X110998000Y-40640000D01*
X113601500Y-46799500D02*
X113601500Y-43243500D01*
X106616500Y-40640000D02*
X109410500Y-40640000D01*
X90487500Y-54864000D02*
X90487500Y-52451000D01*
X90170000Y-55181500D02*
X90487500Y-54864000D01*
D27*
X64897000Y-66548000D02*
X64897000Y-65468500D01*
X63944500Y-67627500D02*
X64897000Y-67627500D01*
X63944500Y-65468500D02*
X63944500Y-66548000D01*
D26*
X96964500Y-55626000D02*
X94932500Y-57658000D01*
X93599000Y-58991500D02*
X94932500Y-57658000D01*
X93599000Y-64960500D02*
X93599000Y-58991500D01*
X93345000Y-65214500D02*
X93599000Y-64960500D01*
D28*
X105092500Y-54419500D02*
X106426000Y-54419500D01*
X104140000Y-55372000D02*
X105092500Y-54419500D01*
X108331000Y-52451000D02*
X108331000Y-56388000D01*
X109474000Y-51308000D02*
X108331000Y-52451000D01*
X108966000Y-58547000D02*
X108331000Y-57912000D01*
X108331000Y-57912000D02*
X108331000Y-56388000D01*
D26*
X82296000Y-45593000D02*
X82296000Y-44640500D01*
X82296000Y-39878000D02*
X82296000Y-38925500D01*
X82296000Y-41783000D02*
X82296000Y-40830500D01*
X82296000Y-43688000D02*
X82296000Y-42735500D01*
X81280000Y-40830500D02*
X81280000Y-39878000D01*
X81280000Y-42735500D02*
X81280000Y-41783000D01*
X81280000Y-44640500D02*
X81280000Y-43688000D01*
X80264000Y-45593000D02*
X80264000Y-44640500D01*
X80264000Y-39878000D02*
X80264000Y-38925500D01*
X80264000Y-41783000D02*
X80264000Y-40830500D01*
X80264000Y-43688000D02*
X80264000Y-42735500D01*
X77279500Y-44640500D02*
X77279500Y-45593000D01*
X77279500Y-49657000D02*
X77279500Y-48641000D01*
X77279500Y-47625000D02*
X77279500Y-46609000D01*
X77279500Y-43688000D02*
X77279500Y-42735500D01*
X77279500Y-41783000D02*
X77279500Y-40830500D01*
X77279500Y-39878000D02*
X77279500Y-38925500D01*
X78232000Y-38925500D02*
X79184500Y-38925500D01*
X85598000Y-53657500D02*
X85598000Y-48323500D01*
X85598000Y-54673500D02*
X85598000Y-58039000D01*
X85598000Y-53721000D02*
X85598000Y-54673500D01*
X85598000Y-53657500D02*
X85598000Y-53721000D01*
X85598000Y-48323500D02*
X84772500Y-47498000D01*
X82296000Y-48641000D02*
X82296000Y-49657000D01*
X85344000Y-49657000D02*
X86360000Y-49657000D01*
X83312000Y-49657000D02*
X84328000Y-49657000D01*
X78232000Y-49657000D02*
X79248000Y-49657000D01*
X84328000Y-47625000D02*
X83312000Y-47625000D01*
X83312000Y-48641000D02*
X84328000Y-48641000D01*
X82296000Y-47625000D02*
X82296000Y-48641000D01*
X79248000Y-46609000D02*
X80264000Y-46609000D01*
X78232000Y-47625000D02*
X78232000Y-48641000D01*
X79248000Y-48641000D02*
X79248000Y-47625000D01*
X80264000Y-45593000D02*
X80264000Y-45593000D01*
X80264000Y-45593000D02*
X79248000Y-45593000D01*
X85344000Y-45593000D02*
X84328000Y-45593000D01*
X83312000Y-45593000D02*
X82296000Y-45593000D01*
X80264000Y-45593000D02*
X81280000Y-45593000D01*
X78232000Y-45593000D02*
X78232000Y-46609000D01*
X83312000Y-46609000D02*
X84328000Y-46609000D01*
X81280000Y-46609000D02*
X82296000Y-46609000D01*
X85344000Y-46609000D02*
X86360000Y-46609000D01*
X69405500Y-49022000D02*
X70421500Y-49022000D01*
X69405500Y-49022000D02*
X69405500Y-49911000D01*
D27*
X72390000Y-61976000D02*
X73406000Y-61976000D01*
X67310000Y-61976000D02*
X68326000Y-61976000D01*
X70358000Y-61976000D02*
X71374000Y-61976000D01*
X77851000Y-59436000D02*
X78994000Y-59436000D01*
X77851000Y-59436000D02*
X76708000Y-59436000D01*
X80137000Y-59436000D02*
X81280000Y-59436000D01*
X76708000Y-67437000D02*
X75628500Y-67437000D01*
X78994000Y-67437000D02*
X77851000Y-67437000D01*
X81280000Y-67437000D02*
X80137000Y-67437000D01*
X78994000Y-66294000D02*
X77851000Y-66294000D01*
X81280000Y-66294000D02*
X80137000Y-66294000D01*
X76708000Y-66294000D02*
X75628500Y-66294000D01*
X78994000Y-65151000D02*
X77851000Y-65151000D01*
X81280000Y-65151000D02*
X80137000Y-65151000D01*
X76708000Y-65151000D02*
X75628500Y-65151000D01*
X78994000Y-64008000D02*
X77851000Y-64008000D01*
X81280000Y-64008000D02*
X80137000Y-64008000D01*
X76708000Y-64008000D02*
X75628500Y-64008000D01*
X78994000Y-60579000D02*
X77851000Y-60579000D01*
X81280000Y-60579000D02*
X80137000Y-60579000D01*
X76708000Y-60579000D02*
X75565000Y-60579000D01*
X82423000Y-58293000D02*
X81280000Y-58293000D01*
X80137000Y-58293000D02*
X78994000Y-58293000D01*
X77851000Y-58293000D02*
X76708000Y-58293000D01*
X75565000Y-58293000D02*
X78295500Y-55757500D01*
X82423000Y-65151000D02*
X82423000Y-66294000D01*
X82423000Y-60579000D02*
X82423000Y-61722000D01*
X82423000Y-62865000D02*
X82423000Y-64008000D01*
X82423000Y-58293000D02*
X82423000Y-59436000D01*
X82423000Y-57150000D02*
X81280000Y-57150000D01*
X80137000Y-57150000D02*
X78994000Y-57150000D01*
X77851000Y-57150000D02*
X76708000Y-57150000D01*
X75565000Y-57150000D02*
X78295500Y-55757500D01*
X78295500Y-55757500D02*
X76957500Y-55757500D01*
X76957500Y-55757500D02*
X76708000Y-56007000D01*
X77851000Y-56007000D02*
X78295500Y-55757500D01*
X80137000Y-56007000D02*
X81280000Y-56007000D01*
X82423000Y-56007000D02*
X82423000Y-57150000D01*
D26*
X106379000Y-64135000D02*
X106379000Y-64055000D01*
X106379000Y-64055000D02*
X107378500Y-63055500D01*
X107378500Y-63055500D02*
X107378500Y-47815500D01*
X107378500Y-47815500D02*
X107759500Y-47434500D01*
X58102500Y-54991000D02*
X59245500Y-54991000D01*
X69342000Y-56007000D02*
X70358000Y-56007000D01*
X69342000Y-59817000D02*
X68326000Y-59817000D01*
X66357500Y-60833000D02*
X66357500Y-59817000D01*
X68326000Y-60833000D02*
X67310000Y-60833000D01*
X69342000Y-60833000D02*
X70358000Y-60833000D01*
X69342000Y-58801000D02*
X69342000Y-59817000D01*
X70358000Y-59817000D02*
X71374000Y-59817000D01*
X70358000Y-59817000D02*
X71374000Y-59817000D01*
X69342000Y-58801000D02*
X69342000Y-59817000D01*
X69342000Y-60833000D02*
X70358000Y-60833000D01*
X69342000Y-60833000D02*
X70358000Y-60833000D01*
X69342000Y-58801000D02*
X69342000Y-59817000D01*
X70358000Y-59817000D02*
X71374000Y-59817000D01*
X70358000Y-59817000D02*
X71374000Y-59817000D01*
X69342000Y-58801000D02*
X69342000Y-59817000D01*
X69342000Y-60833000D02*
X70358000Y-60833000D01*
X71374000Y-60833000D02*
X72390000Y-60833000D01*
X69342000Y-60833000D02*
X70358000Y-60833000D01*
X69342000Y-58801000D02*
X69342000Y-59817000D01*
X72390000Y-59817000D02*
X73406000Y-59817000D01*
X70358000Y-59817000D02*
X71374000Y-59817000D01*
X71374000Y-59817000D02*
X71374000Y-58801000D01*
X71374000Y-59817000D02*
X71374000Y-58801000D01*
X70358000Y-59817000D02*
X71374000Y-59817000D01*
X72390000Y-59817000D02*
X73406000Y-59817000D01*
X69342000Y-58801000D02*
X69342000Y-59817000D01*
X69342000Y-60833000D02*
X70358000Y-60833000D01*
X71374000Y-60833000D02*
X72390000Y-60833000D01*
X71374000Y-60833000D02*
X72390000Y-60833000D01*
X69342000Y-60833000D02*
X70358000Y-60833000D01*
X69342000Y-58801000D02*
X69342000Y-59817000D01*
X72390000Y-59817000D02*
X73406000Y-59817000D01*
X70358000Y-59817000D02*
X71374000Y-59817000D01*
X71374000Y-59817000D02*
X71374000Y-58801000D01*
X73406000Y-57848500D02*
X74422000Y-57848500D01*
X71374000Y-59817000D02*
X71374000Y-58801000D01*
X72326500Y-58801000D02*
X72390000Y-58801000D01*
X73406000Y-58801000D02*
X74422000Y-58801000D01*
X70358000Y-57848500D02*
X70358000Y-58801000D01*
X70358000Y-59817000D02*
X71374000Y-59817000D01*
X72390000Y-59817000D02*
X73406000Y-59817000D01*
X69342000Y-57023000D02*
X69342000Y-57848500D01*
X69342000Y-58801000D02*
X69342000Y-59817000D01*
X69342000Y-60833000D02*
X70358000Y-60833000D01*
X71374000Y-60833000D02*
X72390000Y-60833000D01*
X73406000Y-60833000D02*
X74422000Y-60833000D01*
X72390000Y-56007000D02*
X73406000Y-56007000D01*
X74422000Y-56007000D02*
X74422000Y-57023000D01*
X73406000Y-57023000D02*
X72390000Y-57023000D01*
X71374000Y-57023000D02*
X70358000Y-57023000D01*
X59499500Y-67818000D02*
X60642500Y-67818000D01*
X57213500Y-67818000D02*
X58356500Y-67818000D01*
X59499500Y-68961000D02*
X60642500Y-68961000D01*
X57213500Y-68961000D02*
X58356500Y-68961000D01*
X57213500Y-66675000D02*
X57213500Y-67818000D01*
X57213500Y-66675000D02*
X57213500Y-66675000D01*
X59753500Y-64198500D02*
X59690000Y-64198500D01*
X59690000Y-64198500D02*
X57213500Y-66675000D01*
X58356500Y-66675000D02*
X59499500Y-66675000D01*
X60642500Y-66675000D02*
X61785500Y-66675000D01*
X69342000Y-64135000D02*
X68326000Y-64135000D01*
X67310000Y-64135000D02*
X66294000Y-64135000D01*
X66294000Y-63119000D02*
X67310000Y-63119000D01*
X69342000Y-68072000D02*
X70358000Y-68072000D01*
X71437500Y-68072000D02*
X72390000Y-68072000D01*
X73406000Y-68072000D02*
X74422000Y-68072000D01*
X69342000Y-67056000D02*
X70358000Y-67056000D01*
X71437500Y-67056000D02*
X72390000Y-67056000D01*
X73406000Y-67056000D02*
X74422000Y-67056000D01*
X69342000Y-66040000D02*
X70358000Y-66040000D01*
X73406000Y-66040000D02*
X74422000Y-66040000D01*
X69342000Y-65087500D02*
X70358000Y-65087500D01*
X71374000Y-65087500D02*
X72390000Y-65087500D01*
X73406000Y-65087500D02*
X74422000Y-65087500D01*
X69342000Y-64135000D02*
X70294500Y-64135000D01*
X70294500Y-64135000D02*
X70358000Y-64135000D01*
X71374000Y-64135000D02*
X72390000Y-64135000D01*
X73406000Y-64135000D02*
X74422000Y-64135000D01*
X69342000Y-63119000D02*
X70358000Y-63119000D01*
X71374000Y-63119000D02*
X72390000Y-63119000D01*
X73406000Y-63119000D02*
X74422000Y-63119000D01*
X97472500Y-46228000D02*
X97472500Y-46672500D01*
X98425000Y-45275500D02*
X97472500Y-46228000D01*
X103759000Y-50673000D02*
X103568500Y-50863500D01*
X103568500Y-50863500D02*
X103568500Y-52006500D01*
X103568500Y-52006500D02*
X103124000Y-52451000D01*
X103124000Y-52451000D02*
X103124000Y-63380000D01*
X103124000Y-63380000D02*
X103879000Y-64135000D01*
X101379000Y-64135000D02*
X101379000Y-56228000D01*
X102933500Y-51689000D02*
X102933500Y-49911000D01*
X102425500Y-52197000D02*
X102933500Y-51689000D01*
X102425500Y-55181500D02*
X102425500Y-52197000D01*
X101379000Y-56228000D02*
X102425500Y-55181500D01*
X97355000Y-62611000D02*
X98879000Y-64135000D01*
X96774000Y-62611000D02*
X97355000Y-62611000D01*
X94488000Y-60325000D02*
X96774000Y-62611000D01*
X98806000Y-64135000D02*
X98879000Y-64135000D01*
X97409000Y-61531500D02*
X97409000Y-56642000D01*
X100584000Y-53467000D02*
X100584000Y-50736500D01*
X97409000Y-56642000D02*
X100584000Y-53467000D01*
X76015500Y-49457500D02*
X76015500Y-50679000D01*
X81280000Y-52006500D02*
X84899500Y-55626000D01*
X77343000Y-52006500D02*
X81280000Y-52006500D01*
X76015500Y-50679000D02*
X77343000Y-52006500D01*
X84899500Y-55626000D02*
X84899500Y-58991500D01*
X96520000Y-49657000D02*
X92456000Y-49657000D01*
X96647000Y-49784000D02*
X96520000Y-49657000D01*
X102108000Y-49657000D02*
X104394000Y-47371000D01*
X102108000Y-50292000D02*
X102108000Y-49657000D01*
X101473000Y-50927000D02*
X102108000Y-50292000D01*
X87731600Y-62230000D02*
X87579200Y-62230000D01*
X88188800Y-62687200D02*
X87731600Y-62230000D01*
X88188800Y-68173600D02*
X88188800Y-62687200D01*
X87884000Y-68478400D02*
X88188800Y-68173600D01*
X96647000Y-61531500D02*
X96647000Y-57848500D01*
X95948500Y-60833000D02*
X95885000Y-60769500D01*
X95885000Y-60769500D02*
X95885000Y-57848500D01*
X96837500Y-54800500D02*
X96901000Y-54800500D01*
X93408500Y-58229500D02*
X96837500Y-54800500D01*
X93472000Y-57277000D02*
X93408500Y-57277000D01*
X96837500Y-53911500D02*
X93472000Y-57277000D01*
X96901000Y-53911500D02*
X96837500Y-53911500D01*
X105283000Y-58928000D02*
X105283000Y-55499000D01*
X98869500Y-60325000D02*
X99631500Y-60325000D01*
X98298000Y-59753500D02*
X98869500Y-60325000D01*
X98298000Y-58039000D02*
X98298000Y-59753500D01*
X99060000Y-49847500D02*
X99060000Y-45847000D01*
X103949500Y-46418500D02*
X104394000Y-46418500D01*
X100584000Y-49784000D02*
X103949500Y-46418500D01*
X100711000Y-58166000D02*
X100711000Y-61023500D01*
X100647500Y-58102500D02*
X100711000Y-58166000D01*
D29*
G36*
X74676000Y-55624697D02*
X74676000Y-61277500D01*
X65087500Y-61277500D01*
X65087500Y-59626500D01*
X68643500Y-59626500D01*
X68678881Y-59621472D01*
X68711461Y-59606786D01*
X68738660Y-59583605D01*
X68758323Y-59553764D01*
X68768895Y-59519627D01*
X68770500Y-59499500D01*
X68770500Y-55563816D01*
X74676000Y-55624697D01*
X74676000Y-55624697D01*
G37*
X74676000Y-55624697D02*
X74676000Y-61277500D01*
X65087500Y-61277500D01*
X65087500Y-59626500D01*
X68643500Y-59626500D01*
X68678881Y-59621472D01*
X68711461Y-59606786D01*
X68738660Y-59583605D01*
X68758323Y-59553764D01*
X68768895Y-59519627D01*
X68770500Y-59499500D01*
X68770500Y-55563816D01*
X74676000Y-55624697D01*
G36*
X74676000Y-68516500D02*
X68770500Y-68516500D01*
X68770500Y-64452500D01*
X68765472Y-64417119D01*
X68750786Y-64384539D01*
X68727605Y-64357340D01*
X68697764Y-64337677D01*
X68663627Y-64327105D01*
X68643500Y-64325500D01*
X65151000Y-64325500D01*
X65151000Y-62738000D01*
X74676000Y-62738000D01*
X74676000Y-68516500D01*
X74676000Y-68516500D01*
G37*
X74676000Y-68516500D02*
X68770500Y-68516500D01*
X68770500Y-64452500D01*
X68765472Y-64417119D01*
X68750786Y-64384539D01*
X68727605Y-64357340D01*
X68697764Y-64337677D01*
X68663627Y-64327105D01*
X68643500Y-64325500D01*
X65151000Y-64325500D01*
X65151000Y-62738000D01*
X74676000Y-62738000D01*
X74676000Y-68516500D01*
G36*
X83121500Y-44958000D02*
X83126528Y-44993381D01*
X83141214Y-45025961D01*
X83164395Y-45053160D01*
X83194236Y-45072823D01*
X83228373Y-45083395D01*
X83248500Y-45085000D01*
X86931500Y-45085000D01*
X86931500Y-50609500D01*
X76990953Y-50609500D01*
X76998343Y-50557500D01*
X76998343Y-48357500D01*
X76993505Y-48296827D01*
X76962000Y-48195095D01*
X76962000Y-48069500D01*
X76956972Y-48034119D01*
X76942286Y-48001539D01*
X76919105Y-47974340D01*
X76889264Y-47954677D01*
X76855127Y-47944105D01*
X76835000Y-47942500D01*
X76644500Y-47942500D01*
X76644500Y-38671500D01*
X83121500Y-38671500D01*
X83121500Y-44958000D01*
X83121500Y-44958000D01*
G37*
X83121500Y-44958000D02*
X83126528Y-44993381D01*
X83141214Y-45025961D01*
X83164395Y-45053160D01*
X83194236Y-45072823D01*
X83228373Y-45083395D01*
X83248500Y-45085000D01*
X86931500Y-45085000D01*
X86931500Y-50609500D01*
X76990953Y-50609500D01*
X76998343Y-50557500D01*
X76998343Y-48357500D01*
X76993505Y-48296827D01*
X76962000Y-48195095D01*
X76962000Y-48069500D01*
X76956972Y-48034119D01*
X76942286Y-48001539D01*
X76919105Y-47974340D01*
X76889264Y-47954677D01*
X76855127Y-47944105D01*
X76835000Y-47942500D01*
X76644500Y-47942500D01*
X76644500Y-38671500D01*
X83121500Y-38671500D01*
X83121500Y-44958000D01*
G36*
X74485500Y-50927000D02*
X74490528Y-50962381D01*
X74505214Y-50994961D01*
X74528395Y-51022160D01*
X74558236Y-51041823D01*
X74592373Y-51052395D01*
X74612500Y-51054000D01*
X75574984Y-51054000D01*
X75598975Y-51084053D01*
X75603168Y-51088305D01*
X75603239Y-51088392D01*
X75603320Y-51088459D01*
X75604671Y-51089829D01*
X76932171Y-52417329D01*
X76973642Y-52451394D01*
X77014754Y-52485891D01*
X77017431Y-52487363D01*
X77019792Y-52489302D01*
X77067066Y-52514650D01*
X77114120Y-52540518D01*
X77117035Y-52541443D01*
X77119725Y-52542885D01*
X77170984Y-52558556D01*
X77222203Y-52574804D01*
X77225243Y-52575145D01*
X77228161Y-52576037D01*
X77281557Y-52581461D01*
X77334888Y-52587443D01*
X77340853Y-52587485D01*
X77340972Y-52587497D01*
X77341083Y-52587487D01*
X77343000Y-52587500D01*
X81039342Y-52587500D01*
X84318500Y-55866658D01*
X84318500Y-57340500D01*
X83121500Y-57340500D01*
X83086119Y-57345528D01*
X83053539Y-57360214D01*
X83026340Y-57383395D01*
X83006677Y-57413236D01*
X82996105Y-57447373D01*
X82994500Y-57467500D01*
X82994500Y-66484500D01*
X82999528Y-66519881D01*
X83014214Y-66552461D01*
X83037395Y-66579660D01*
X83067236Y-66599323D01*
X83101373Y-66609895D01*
X83121500Y-66611500D01*
X84709000Y-66611500D01*
X84709000Y-68262500D01*
X75184000Y-68262500D01*
X75184000Y-62484000D01*
X75178972Y-62448619D01*
X75164286Y-62416039D01*
X75141105Y-62388840D01*
X75111264Y-62369177D01*
X75077127Y-62358605D01*
X75057000Y-62357000D01*
X65087500Y-62357000D01*
X65087500Y-61658500D01*
X75057000Y-61658500D01*
X75092381Y-61653472D01*
X75124961Y-61638786D01*
X75152160Y-61615605D01*
X75171823Y-61585764D01*
X75182395Y-61551627D01*
X75184000Y-61531500D01*
X75184000Y-52387500D01*
X75178972Y-52352119D01*
X75164286Y-52319539D01*
X75141105Y-52292340D01*
X75111264Y-52272677D01*
X75077127Y-52262105D01*
X75057000Y-52260500D01*
X70802500Y-52260500D01*
X70802500Y-50546000D01*
X70797472Y-50510619D01*
X70782786Y-50478039D01*
X70759605Y-50450840D01*
X70729764Y-50431177D01*
X70695627Y-50420605D01*
X70675500Y-50419000D01*
X67881500Y-50419000D01*
X67881500Y-47371000D01*
X74485500Y-47371000D01*
X74485500Y-50927000D01*
X74485500Y-50927000D01*
G37*
X74485500Y-50927000D02*
X74490528Y-50962381D01*
X74505214Y-50994961D01*
X74528395Y-51022160D01*
X74558236Y-51041823D01*
X74592373Y-51052395D01*
X74612500Y-51054000D01*
X75574984Y-51054000D01*
X75598975Y-51084053D01*
X75603168Y-51088305D01*
X75603239Y-51088392D01*
X75603320Y-51088459D01*
X75604671Y-51089829D01*
X76932171Y-52417329D01*
X76973642Y-52451394D01*
X77014754Y-52485891D01*
X77017431Y-52487363D01*
X77019792Y-52489302D01*
X77067066Y-52514650D01*
X77114120Y-52540518D01*
X77117035Y-52541443D01*
X77119725Y-52542885D01*
X77170984Y-52558556D01*
X77222203Y-52574804D01*
X77225243Y-52575145D01*
X77228161Y-52576037D01*
X77281557Y-52581461D01*
X77334888Y-52587443D01*
X77340853Y-52587485D01*
X77340972Y-52587497D01*
X77341083Y-52587487D01*
X77343000Y-52587500D01*
X81039342Y-52587500D01*
X84318500Y-55866658D01*
X84318500Y-57340500D01*
X83121500Y-57340500D01*
X83086119Y-57345528D01*
X83053539Y-57360214D01*
X83026340Y-57383395D01*
X83006677Y-57413236D01*
X82996105Y-57447373D01*
X82994500Y-57467500D01*
X82994500Y-66484500D01*
X82999528Y-66519881D01*
X83014214Y-66552461D01*
X83037395Y-66579660D01*
X83067236Y-66599323D01*
X83101373Y-66609895D01*
X83121500Y-66611500D01*
X84709000Y-66611500D01*
X84709000Y-68262500D01*
X75184000Y-68262500D01*
X75184000Y-62484000D01*
X75178972Y-62448619D01*
X75164286Y-62416039D01*
X75141105Y-62388840D01*
X75111264Y-62369177D01*
X75077127Y-62358605D01*
X75057000Y-62357000D01*
X65087500Y-62357000D01*
X65087500Y-61658500D01*
X75057000Y-61658500D01*
X75092381Y-61653472D01*
X75124961Y-61638786D01*
X75152160Y-61615605D01*
X75171823Y-61585764D01*
X75182395Y-61551627D01*
X75184000Y-61531500D01*
X75184000Y-52387500D01*
X75178972Y-52352119D01*
X75164286Y-52319539D01*
X75141105Y-52292340D01*
X75111264Y-52272677D01*
X75077127Y-52262105D01*
X75057000Y-52260500D01*
X70802500Y-52260500D01*
X70802500Y-50546000D01*
X70797472Y-50510619D01*
X70782786Y-50478039D01*
X70759605Y-50450840D01*
X70729764Y-50431177D01*
X70695627Y-50420605D01*
X70675500Y-50419000D01*
X67881500Y-50419000D01*
X67881500Y-47371000D01*
X74485500Y-47371000D01*
X74485500Y-50927000D01*
G36*
X118519852Y-34833195D02*
X118730846Y-34896898D01*
X118925453Y-35000372D01*
X119096254Y-35139673D01*
X119236741Y-35309493D01*
X119341573Y-35503375D01*
X119406748Y-35713921D01*
X119432000Y-35954185D01*
X119432000Y-36627157D01*
X119289914Y-36282431D01*
X119009809Y-35860840D01*
X118653151Y-35501683D01*
X118233526Y-35218642D01*
X117766915Y-35022497D01*
X117271093Y-34920719D01*
X116764945Y-34917186D01*
X116267751Y-35012031D01*
X115798447Y-35201642D01*
X115374911Y-35478796D01*
X115013273Y-35832938D01*
X114727309Y-36250578D01*
X114527911Y-36715807D01*
X114422675Y-37210907D01*
X114415608Y-37717017D01*
X114506979Y-38214862D01*
X114693309Y-38685478D01*
X114967500Y-39110939D01*
X115319109Y-39475040D01*
X115734742Y-39763913D01*
X116198568Y-39966554D01*
X116692921Y-40075244D01*
X117198970Y-40085844D01*
X117697440Y-39997951D01*
X118169345Y-39814911D01*
X118596711Y-39543696D01*
X118963258Y-39194638D01*
X119255025Y-38781032D01*
X119432000Y-38383540D01*
X119432000Y-69627157D01*
X119289914Y-69282431D01*
X119009809Y-68860840D01*
X118653151Y-68501683D01*
X118233526Y-68218642D01*
X117766915Y-68022497D01*
X117271093Y-67920719D01*
X116764945Y-67917186D01*
X116267751Y-68012031D01*
X115798447Y-68201642D01*
X115374911Y-68478796D01*
X115013273Y-68832938D01*
X114727309Y-69250578D01*
X114527911Y-69715807D01*
X114422675Y-70210907D01*
X114415608Y-70717017D01*
X114506979Y-71214862D01*
X114693309Y-71685478D01*
X114967500Y-72110939D01*
X115319109Y-72475040D01*
X115734742Y-72763913D01*
X116160677Y-72950000D01*
X112520691Y-72950000D01*
X112520691Y-71018500D01*
X90806310Y-71018500D01*
X90806310Y-72950000D01*
X63627000Y-72950000D01*
X63627000Y-64770000D01*
X64770000Y-64770000D01*
X64814509Y-64761625D01*
X64875770Y-64803483D01*
X65024000Y-64833500D01*
X68262500Y-64833500D01*
X68262500Y-68643500D01*
X68288556Y-68781977D01*
X68370396Y-68909160D01*
X68495270Y-68994483D01*
X68643500Y-69024500D01*
X74803000Y-69024500D01*
X74941477Y-68998444D01*
X75068660Y-68916604D01*
X75153983Y-68791730D01*
X75158282Y-68770500D01*
X84836000Y-68770500D01*
X84974477Y-68744444D01*
X85101660Y-68662604D01*
X85186983Y-68537730D01*
X85217000Y-68389500D01*
X85217000Y-66484500D01*
X85190944Y-66346023D01*
X85109104Y-66218840D01*
X84984230Y-66133517D01*
X84836000Y-66103500D01*
X83502500Y-66103500D01*
X83502500Y-62283056D01*
X86947371Y-62283056D01*
X86969709Y-62404769D01*
X87015263Y-62519824D01*
X87082297Y-62623841D01*
X87168258Y-62712856D01*
X87269871Y-62783479D01*
X87383267Y-62833020D01*
X87504126Y-62859593D01*
X87540292Y-62860350D01*
X87607800Y-62927858D01*
X87607800Y-67909408D01*
X87590246Y-67916500D01*
X87486700Y-67984258D01*
X87398287Y-68070839D01*
X87328375Y-68172943D01*
X87279627Y-68286681D01*
X87253898Y-68407723D01*
X87252171Y-68531456D01*
X87274509Y-68653169D01*
X87320063Y-68768224D01*
X87387097Y-68872241D01*
X87473058Y-68961256D01*
X87574671Y-69031879D01*
X87688067Y-69081420D01*
X87808926Y-69107993D01*
X87932644Y-69110584D01*
X88054509Y-69089096D01*
X88169880Y-69044347D01*
X88274362Y-68978041D01*
X88363975Y-68892703D01*
X88435306Y-68791585D01*
X88469682Y-68714376D01*
X88599629Y-68584429D01*
X88633694Y-68542958D01*
X88668191Y-68501846D01*
X88669663Y-68499169D01*
X88671602Y-68496808D01*
X88696960Y-68449515D01*
X88722818Y-68402480D01*
X88723742Y-68399567D01*
X88725185Y-68396876D01*
X88740861Y-68345602D01*
X88757104Y-68294397D01*
X88757445Y-68291357D01*
X88758337Y-68288439D01*
X88763757Y-68235083D01*
X88769743Y-68181712D01*
X88769785Y-68175737D01*
X88769796Y-68175629D01*
X88769786Y-68175528D01*
X88769800Y-68173600D01*
X88769800Y-65267556D01*
X92713171Y-65267556D01*
X92735509Y-65389269D01*
X92781063Y-65504324D01*
X92848097Y-65608341D01*
X92934058Y-65697356D01*
X93035671Y-65767979D01*
X93149067Y-65817520D01*
X93269926Y-65844093D01*
X93393644Y-65846684D01*
X93515509Y-65825196D01*
X93630880Y-65780447D01*
X93735362Y-65714141D01*
X93824975Y-65628803D01*
X93896306Y-65527685D01*
X93930682Y-65450476D01*
X94009829Y-65371329D01*
X94043894Y-65329858D01*
X94078391Y-65288746D01*
X94079863Y-65286069D01*
X94081802Y-65283708D01*
X94107160Y-65236415D01*
X94133018Y-65189380D01*
X94133942Y-65186467D01*
X94135385Y-65183776D01*
X94151061Y-65132502D01*
X94167304Y-65081297D01*
X94167645Y-65078257D01*
X94168537Y-65075339D01*
X94173957Y-65021983D01*
X94179943Y-64968612D01*
X94179985Y-64962637D01*
X94179996Y-64962529D01*
X94179986Y-64962428D01*
X94180000Y-64960500D01*
X94180000Y-60879060D01*
X94251747Y-60910405D01*
X96183944Y-62842602D01*
X96008478Y-62876074D01*
X95771008Y-62972018D01*
X95556696Y-63112260D01*
X95373705Y-63291458D01*
X95229006Y-63502786D01*
X95128110Y-63738194D01*
X95074859Y-63988717D01*
X95071283Y-64244812D01*
X95117518Y-64496724D01*
X95211802Y-64734858D01*
X95350544Y-64950144D01*
X95528460Y-65134381D01*
X95738772Y-65280552D01*
X95973471Y-65383090D01*
X96223616Y-65438088D01*
X96479680Y-65443451D01*
X96731909Y-65398977D01*
X96970695Y-65306357D01*
X97186944Y-65169121D01*
X97372419Y-64992496D01*
X97520055Y-64783209D01*
X97624228Y-64549232D01*
X97629361Y-64526637D01*
X97711802Y-64734858D01*
X97850544Y-64950144D01*
X98028460Y-65134381D01*
X98238772Y-65280552D01*
X98473471Y-65383090D01*
X98723616Y-65438088D01*
X98979680Y-65443451D01*
X99231909Y-65398977D01*
X99470695Y-65306357D01*
X99686944Y-65169121D01*
X99872419Y-64992496D01*
X100020055Y-64783209D01*
X100124228Y-64549232D01*
X100129361Y-64526637D01*
X100211802Y-64734858D01*
X100350544Y-64950144D01*
X100528460Y-65134381D01*
X100738772Y-65280552D01*
X100973471Y-65383090D01*
X101223616Y-65438088D01*
X101479680Y-65443451D01*
X101731909Y-65398977D01*
X101970695Y-65306357D01*
X102186944Y-65169121D01*
X102372419Y-64992496D01*
X102520055Y-64783209D01*
X102624228Y-64549232D01*
X102629361Y-64526637D01*
X102711802Y-64734858D01*
X102850544Y-64950144D01*
X103028460Y-65134381D01*
X103238772Y-65280552D01*
X103473471Y-65383090D01*
X103723616Y-65438088D01*
X103979680Y-65443451D01*
X104231909Y-65398977D01*
X104470695Y-65306357D01*
X104686944Y-65169121D01*
X104872419Y-64992496D01*
X105020055Y-64783209D01*
X105124228Y-64549232D01*
X105129361Y-64526637D01*
X105211802Y-64734858D01*
X105350544Y-64950144D01*
X105528460Y-65134381D01*
X105738772Y-65280552D01*
X105973471Y-65383090D01*
X106223616Y-65438088D01*
X106479680Y-65443451D01*
X106731909Y-65398977D01*
X106970695Y-65306357D01*
X107186944Y-65169121D01*
X107372419Y-64992496D01*
X107520055Y-64783209D01*
X107624228Y-64549232D01*
X107629361Y-64526637D01*
X107711802Y-64734858D01*
X107850544Y-64950144D01*
X108028460Y-65134381D01*
X108238772Y-65280552D01*
X108473471Y-65383090D01*
X108723616Y-65438088D01*
X108979680Y-65443451D01*
X109231909Y-65398977D01*
X109470695Y-65306357D01*
X109686944Y-65169121D01*
X109872419Y-64992496D01*
X110020055Y-64783209D01*
X110124228Y-64549232D01*
X110180971Y-64299477D01*
X110185056Y-64006940D01*
X110135309Y-63755698D01*
X110037709Y-63518904D01*
X109895974Y-63305576D01*
X109715504Y-63123841D01*
X109503171Y-62980620D01*
X109267063Y-62881370D01*
X109016175Y-62829870D01*
X108760061Y-62828082D01*
X108508478Y-62876074D01*
X108271008Y-62972018D01*
X108056696Y-63112260D01*
X107926948Y-63239318D01*
X107930561Y-63227502D01*
X107946804Y-63176297D01*
X107947145Y-63173257D01*
X107948037Y-63170339D01*
X107953457Y-63116983D01*
X107959443Y-63063612D01*
X107959485Y-63057637D01*
X107959496Y-63057529D01*
X107959486Y-63057428D01*
X107959500Y-63055500D01*
X107959500Y-58503580D01*
X108479064Y-59023143D01*
X108522495Y-59068117D01*
X108632160Y-59144336D01*
X108754541Y-59197803D01*
X108884977Y-59226481D01*
X109018498Y-59229278D01*
X109150020Y-59206087D01*
X109274533Y-59157792D01*
X109387294Y-59086232D01*
X109484008Y-58994132D01*
X109560991Y-58885002D01*
X109615311Y-58762997D01*
X109644899Y-58632765D01*
X109645855Y-58564335D01*
X109646963Y-58554131D01*
X109646130Y-58544610D01*
X109647029Y-58480225D01*
X109621089Y-58349217D01*
X109570197Y-58225743D01*
X109496291Y-58114506D01*
X109402186Y-58019742D01*
X109401065Y-58018986D01*
X109012000Y-57629920D01*
X109012000Y-56323302D01*
X109012029Y-56321225D01*
X109012000Y-56321079D01*
X109012000Y-52733080D01*
X109948828Y-51796252D01*
X109992008Y-51755132D01*
X110068991Y-51646002D01*
X110123311Y-51523997D01*
X110152899Y-51393765D01*
X110153915Y-51321022D01*
X110154996Y-51310377D01*
X110154183Y-51301781D01*
X110155029Y-51241225D01*
X110129089Y-51110217D01*
X110078197Y-50986743D01*
X110004291Y-50875506D01*
X109910186Y-50780742D01*
X109799467Y-50706061D01*
X109676352Y-50654308D01*
X109545528Y-50627454D01*
X109411981Y-50626521D01*
X109280795Y-50651546D01*
X109156969Y-50701575D01*
X109045218Y-50774703D01*
X108949800Y-50868144D01*
X108947680Y-50871240D01*
X107959500Y-51859420D01*
X107959500Y-48056158D01*
X107996095Y-48019563D01*
X108045380Y-48000447D01*
X108149862Y-47934141D01*
X108239475Y-47848803D01*
X108310806Y-47747685D01*
X108361138Y-47634638D01*
X108388553Y-47513968D01*
X108390527Y-47372627D01*
X108366491Y-47251239D01*
X108319336Y-47136830D01*
X108250856Y-47033760D01*
X108163661Y-46945954D01*
X108061071Y-46876756D01*
X107946995Y-46828803D01*
X107825777Y-46803920D01*
X107702034Y-46803057D01*
X107580481Y-46826244D01*
X107465746Y-46872600D01*
X107362200Y-46940358D01*
X107273787Y-47026939D01*
X107203875Y-47129043D01*
X107174304Y-47198038D01*
X106967671Y-47404671D01*
X106933606Y-47446142D01*
X106899109Y-47487254D01*
X106897637Y-47489931D01*
X106895698Y-47492292D01*
X106870350Y-47539566D01*
X106844482Y-47586620D01*
X106843557Y-47589535D01*
X106842115Y-47592225D01*
X106826444Y-47643484D01*
X106810196Y-47694703D01*
X106809855Y-47697743D01*
X106808963Y-47700661D01*
X106803543Y-47754017D01*
X106797557Y-47807388D01*
X106797515Y-47813363D01*
X106797504Y-47813471D01*
X106797514Y-47813572D01*
X106797500Y-47815500D01*
X106797500Y-53850318D01*
X106694274Y-53793569D01*
X106567588Y-53753381D01*
X106435508Y-53738566D01*
X106426000Y-53738500D01*
X105092500Y-53738500D01*
X105029932Y-53744635D01*
X104967229Y-53750121D01*
X104963788Y-53751121D01*
X104960226Y-53751470D01*
X104899985Y-53769658D01*
X104839598Y-53787202D01*
X104836423Y-53788848D01*
X104832991Y-53789884D01*
X104777457Y-53819412D01*
X104721600Y-53848365D01*
X104718798Y-53850602D01*
X104715640Y-53852281D01*
X104666921Y-53892015D01*
X104617730Y-53931284D01*
X104612750Y-53936195D01*
X104612644Y-53936282D01*
X104612563Y-53936380D01*
X104610960Y-53937961D01*
X103705000Y-54843920D01*
X103705000Y-52691658D01*
X103979329Y-52417329D01*
X104013394Y-52375858D01*
X104047891Y-52334746D01*
X104049363Y-52332069D01*
X104051302Y-52329708D01*
X104076650Y-52282434D01*
X104102518Y-52235380D01*
X104103443Y-52232465D01*
X104104885Y-52229775D01*
X104120556Y-52178516D01*
X104136804Y-52127297D01*
X104137145Y-52124257D01*
X104138037Y-52121339D01*
X104143457Y-52067983D01*
X104149443Y-52014612D01*
X104149485Y-52008637D01*
X104149496Y-52008529D01*
X104149486Y-52008428D01*
X104149500Y-52006500D01*
X104149500Y-51172510D01*
X104238975Y-51087303D01*
X104310306Y-50986185D01*
X104360638Y-50873138D01*
X104388053Y-50752468D01*
X104390027Y-50611127D01*
X104365991Y-50489739D01*
X104318836Y-50375330D01*
X104250356Y-50272260D01*
X104163161Y-50184454D01*
X104060571Y-50115256D01*
X103946495Y-50067303D01*
X103825277Y-50042420D01*
X103701534Y-50041557D01*
X103579981Y-50064744D01*
X103542211Y-50080004D01*
X103562553Y-49990468D01*
X103564527Y-49849127D01*
X103540491Y-49727739D01*
X103493336Y-49613330D01*
X103424856Y-49510260D01*
X103337661Y-49422454D01*
X103235071Y-49353256D01*
X103233896Y-49352762D01*
X104630595Y-47956063D01*
X104679880Y-47936947D01*
X104784362Y-47870641D01*
X104873975Y-47785303D01*
X104945306Y-47684185D01*
X104995638Y-47571138D01*
X105023053Y-47450468D01*
X105025027Y-47309127D01*
X105000991Y-47187739D01*
X104953836Y-47073330D01*
X104885356Y-46970260D01*
X104809668Y-46894042D01*
X104873975Y-46832803D01*
X104945306Y-46731685D01*
X104995638Y-46618638D01*
X105023053Y-46497968D01*
X105025027Y-46356627D01*
X105000991Y-46235239D01*
X104953836Y-46120830D01*
X104885356Y-46017760D01*
X104798161Y-45929954D01*
X104695571Y-45860756D01*
X104581495Y-45812803D01*
X104460277Y-45787920D01*
X104336534Y-45787057D01*
X104214981Y-45810244D01*
X104147520Y-45837500D01*
X103949500Y-45837500D01*
X103896101Y-45842736D01*
X103842625Y-45847414D01*
X103839689Y-45848267D01*
X103836650Y-45848565D01*
X103785333Y-45864059D01*
X103733735Y-45879049D01*
X103731018Y-45880457D01*
X103728098Y-45881339D01*
X103680779Y-45906499D01*
X103633065Y-45931232D01*
X103630675Y-45933140D01*
X103627980Y-45934573D01*
X103586414Y-45968473D01*
X103544447Y-46001975D01*
X103540195Y-46006168D01*
X103540108Y-46006239D01*
X103540041Y-46006320D01*
X103538671Y-46007671D01*
X100347289Y-49199053D01*
X100290246Y-49222100D01*
X100186700Y-49289858D01*
X100098287Y-49376439D01*
X100028375Y-49478543D01*
X99979627Y-49592281D01*
X99953898Y-49713323D01*
X99952171Y-49837056D01*
X99974509Y-49958769D01*
X100020063Y-50073824D01*
X100087097Y-50177841D01*
X100167530Y-50261131D01*
X100098287Y-50328939D01*
X100028375Y-50431043D01*
X99979627Y-50544781D01*
X99953898Y-50665823D01*
X99952171Y-50789556D01*
X99974509Y-50911269D01*
X100003000Y-50983228D01*
X100003000Y-53226342D01*
X97594540Y-55634802D01*
X97595527Y-55564127D01*
X97571491Y-55442739D01*
X97524336Y-55328330D01*
X97455856Y-55225260D01*
X97407762Y-55176829D01*
X97452306Y-55113685D01*
X97502638Y-55000638D01*
X97530053Y-54879968D01*
X97532027Y-54738627D01*
X97507991Y-54617239D01*
X97460836Y-54502830D01*
X97392356Y-54399760D01*
X97349078Y-54356179D01*
X97380975Y-54325803D01*
X97452306Y-54224685D01*
X97502638Y-54111638D01*
X97530053Y-53990968D01*
X97532027Y-53849627D01*
X97507991Y-53728239D01*
X97460836Y-53613830D01*
X97392356Y-53510760D01*
X97305161Y-53422954D01*
X97202571Y-53353756D01*
X97088495Y-53305803D01*
X96967277Y-53280920D01*
X96843534Y-53280057D01*
X96721981Y-53303244D01*
X96607246Y-53349600D01*
X96503700Y-53417358D01*
X96415287Y-53503939D01*
X96397661Y-53529681D01*
X93265462Y-56661880D01*
X93229481Y-56668744D01*
X93114746Y-56715100D01*
X93011200Y-56782858D01*
X92922787Y-56869439D01*
X92852875Y-56971543D01*
X92804127Y-57085281D01*
X92778398Y-57206323D01*
X92776671Y-57330056D01*
X92799009Y-57451769D01*
X92844563Y-57566824D01*
X92911597Y-57670841D01*
X92992030Y-57754131D01*
X92922787Y-57821939D01*
X92852875Y-57924043D01*
X92804127Y-58037781D01*
X92778398Y-58158823D01*
X92776671Y-58282556D01*
X92799009Y-58404269D01*
X92844563Y-58519324D01*
X92911597Y-58623341D01*
X92997558Y-58712356D01*
X93066336Y-58760158D01*
X93064982Y-58762620D01*
X93064057Y-58765535D01*
X93062615Y-58768225D01*
X93046944Y-58819484D01*
X93030696Y-58870703D01*
X93030355Y-58873743D01*
X93029463Y-58876661D01*
X93024045Y-58930000D01*
X93018057Y-58983388D01*
X93018015Y-58989363D01*
X93018004Y-58989471D01*
X93018014Y-58989572D01*
X93018000Y-58991500D01*
X93018000Y-64674355D01*
X92947700Y-64720358D01*
X92859287Y-64806939D01*
X92789375Y-64909043D01*
X92740627Y-65022781D01*
X92714898Y-65143823D01*
X92713171Y-65267556D01*
X88769800Y-65267556D01*
X88769800Y-62687200D01*
X88764560Y-62633760D01*
X88759885Y-62580324D01*
X88759033Y-62577392D01*
X88758735Y-62574350D01*
X88743219Y-62522957D01*
X88728250Y-62471435D01*
X88726844Y-62468722D01*
X88725961Y-62465798D01*
X88700793Y-62418463D01*
X88676068Y-62370764D01*
X88674158Y-62368372D01*
X88672727Y-62365680D01*
X88638820Y-62324105D01*
X88605324Y-62282147D01*
X88601134Y-62277897D01*
X88601061Y-62277808D01*
X88600979Y-62277740D01*
X88599629Y-62276371D01*
X88142429Y-61819171D01*
X88100958Y-61785106D01*
X88059846Y-61750609D01*
X88057169Y-61749137D01*
X88054808Y-61747198D01*
X88007534Y-61721850D01*
X87960480Y-61695982D01*
X87957565Y-61695057D01*
X87954875Y-61693615D01*
X87903616Y-61677944D01*
X87865654Y-61665901D01*
X87766695Y-61624303D01*
X87645477Y-61599420D01*
X87521734Y-61598557D01*
X87400181Y-61621744D01*
X87285446Y-61668100D01*
X87181900Y-61735858D01*
X87093487Y-61822439D01*
X87023575Y-61924543D01*
X86974827Y-62038281D01*
X86949098Y-62159323D01*
X86947371Y-62283056D01*
X83502500Y-62283056D01*
X83502500Y-57848500D01*
X84318500Y-57848500D01*
X84318500Y-58745248D01*
X84295127Y-58799781D01*
X84269398Y-58920823D01*
X84267671Y-59044556D01*
X84290009Y-59166269D01*
X84335563Y-59281324D01*
X84402597Y-59385341D01*
X84488558Y-59474356D01*
X84590171Y-59544979D01*
X84703567Y-59594520D01*
X84824426Y-59621093D01*
X84948144Y-59623684D01*
X85070009Y-59602196D01*
X85185380Y-59557447D01*
X85289862Y-59491141D01*
X85379475Y-59405803D01*
X85450806Y-59304685D01*
X85501138Y-59191638D01*
X85528553Y-59070968D01*
X85530527Y-58929627D01*
X85506491Y-58808239D01*
X85480500Y-58745179D01*
X85480500Y-58659265D01*
X85522926Y-58668593D01*
X85646644Y-58671184D01*
X85768509Y-58649696D01*
X85883880Y-58604947D01*
X85988362Y-58538641D01*
X86077975Y-58453303D01*
X86149306Y-58352185D01*
X86199638Y-58239138D01*
X86227053Y-58118468D01*
X86229027Y-57977127D01*
X86204991Y-57855739D01*
X86179000Y-57792679D01*
X86179000Y-51117500D01*
X87058500Y-51117500D01*
X87196977Y-51091444D01*
X87324160Y-51009604D01*
X87409483Y-50884730D01*
X87439500Y-50736500D01*
X87439500Y-49710056D01*
X91824171Y-49710056D01*
X91846509Y-49831769D01*
X91892063Y-49946824D01*
X91959097Y-50050841D01*
X92045058Y-50139856D01*
X92146671Y-50210479D01*
X92260067Y-50260020D01*
X92380926Y-50286593D01*
X92504644Y-50289184D01*
X92626509Y-50267696D01*
X92703071Y-50238000D01*
X96208192Y-50238000D01*
X96236058Y-50266856D01*
X96337671Y-50337479D01*
X96451067Y-50387020D01*
X96571926Y-50413593D01*
X96695644Y-50416184D01*
X96817509Y-50394696D01*
X96932880Y-50349947D01*
X97037362Y-50283641D01*
X97126975Y-50198303D01*
X97198306Y-50097185D01*
X97248638Y-49984138D01*
X97276053Y-49863468D01*
X97278027Y-49722127D01*
X97253991Y-49600739D01*
X97206836Y-49486330D01*
X97138356Y-49383260D01*
X97051161Y-49295454D01*
X96948571Y-49226256D01*
X96863707Y-49190583D01*
X96848246Y-49177609D01*
X96845569Y-49176137D01*
X96843208Y-49174198D01*
X96795934Y-49148850D01*
X96748880Y-49122982D01*
X96745965Y-49122057D01*
X96743275Y-49120615D01*
X96692016Y-49104944D01*
X96640797Y-49088696D01*
X96637757Y-49088355D01*
X96634839Y-49087463D01*
X96581483Y-49082043D01*
X96528112Y-49076057D01*
X96522137Y-49076015D01*
X96522029Y-49076004D01*
X96521928Y-49076014D01*
X96520000Y-49076000D01*
X92702247Y-49076000D01*
X92643495Y-49051303D01*
X92522277Y-49026420D01*
X92398534Y-49025557D01*
X92276981Y-49048744D01*
X92162246Y-49095100D01*
X92058700Y-49162858D01*
X91970287Y-49249439D01*
X91900375Y-49351543D01*
X91851627Y-49465281D01*
X91825898Y-49586323D01*
X91824171Y-49710056D01*
X87439500Y-49710056D01*
X87439500Y-46725556D01*
X96840671Y-46725556D01*
X96863009Y-46847269D01*
X96908563Y-46962324D01*
X96975597Y-47066341D01*
X97061558Y-47155356D01*
X97163171Y-47225979D01*
X97276567Y-47275520D01*
X97397426Y-47302093D01*
X97521144Y-47304684D01*
X97643009Y-47283196D01*
X97758380Y-47238447D01*
X97862862Y-47172141D01*
X97952475Y-47086803D01*
X98023806Y-46985685D01*
X98074138Y-46872638D01*
X98101553Y-46751968D01*
X98103527Y-46610627D01*
X98079491Y-46489239D01*
X98065898Y-46456260D01*
X98464657Y-46057501D01*
X98479000Y-46093728D01*
X98479000Y-49601248D01*
X98455627Y-49655781D01*
X98429898Y-49776823D01*
X98428171Y-49900556D01*
X98450509Y-50022269D01*
X98496063Y-50137324D01*
X98563097Y-50241341D01*
X98649058Y-50330356D01*
X98750671Y-50400979D01*
X98864067Y-50450520D01*
X98984926Y-50477093D01*
X99108644Y-50479684D01*
X99230509Y-50458196D01*
X99345880Y-50413447D01*
X99450362Y-50347141D01*
X99539975Y-50261803D01*
X99611306Y-50160685D01*
X99661638Y-50047638D01*
X99689053Y-49926968D01*
X99691027Y-49785627D01*
X99666991Y-49664239D01*
X99641000Y-49601179D01*
X99641000Y-46093491D01*
X99661638Y-46047138D01*
X99689053Y-45926468D01*
X99691027Y-45785127D01*
X99666991Y-45663739D01*
X99619836Y-45549330D01*
X99551356Y-45446260D01*
X99464161Y-45358454D01*
X99361571Y-45289256D01*
X99247495Y-45241303D01*
X99126277Y-45216420D01*
X99055995Y-45215930D01*
X99056027Y-45213627D01*
X99031991Y-45092239D01*
X98984836Y-44977830D01*
X98916356Y-44874760D01*
X98829161Y-44786954D01*
X98726571Y-44717756D01*
X98612495Y-44669803D01*
X98491277Y-44644920D01*
X98367534Y-44644057D01*
X98245981Y-44667244D01*
X98131246Y-44713600D01*
X98027700Y-44781358D01*
X97939287Y-44867939D01*
X97869375Y-44970043D01*
X97839804Y-45039038D01*
X97061671Y-45817171D01*
X97027606Y-45858642D01*
X96993109Y-45899754D01*
X96991637Y-45902431D01*
X96989698Y-45904792D01*
X96964350Y-45952066D01*
X96938482Y-45999120D01*
X96937557Y-46002035D01*
X96936115Y-46004725D01*
X96920444Y-46055984D01*
X96904196Y-46107203D01*
X96903855Y-46110243D01*
X96902963Y-46113161D01*
X96897543Y-46166517D01*
X96891557Y-46219888D01*
X96891515Y-46225863D01*
X96891504Y-46225971D01*
X96891514Y-46226072D01*
X96891500Y-46228000D01*
X96891500Y-46426248D01*
X96868127Y-46480781D01*
X96842398Y-46601823D01*
X96840671Y-46725556D01*
X87439500Y-46725556D01*
X87439500Y-44958000D01*
X87413444Y-44819523D01*
X87331604Y-44692340D01*
X87206730Y-44607017D01*
X87058500Y-44577000D01*
X83629500Y-44577000D01*
X83629500Y-43480312D01*
X93013283Y-43480312D01*
X93059518Y-43732224D01*
X93153802Y-43970358D01*
X93292544Y-44185644D01*
X93470460Y-44369881D01*
X93680772Y-44516052D01*
X93915471Y-44618590D01*
X94165616Y-44673588D01*
X94421680Y-44678951D01*
X94673909Y-44634477D01*
X94912695Y-44541857D01*
X95128944Y-44404621D01*
X95314419Y-44227996D01*
X95462055Y-44018709D01*
X95566228Y-43784732D01*
X95571361Y-43762137D01*
X95653802Y-43970358D01*
X95792544Y-44185644D01*
X95970460Y-44369881D01*
X96180772Y-44516052D01*
X96415471Y-44618590D01*
X96665616Y-44673588D01*
X96921680Y-44678951D01*
X97173909Y-44634477D01*
X97412695Y-44541857D01*
X97628944Y-44404621D01*
X97814419Y-44227996D01*
X97962055Y-44018709D01*
X98066228Y-43784732D01*
X98071361Y-43762137D01*
X98153802Y-43970358D01*
X98292544Y-44185644D01*
X98470460Y-44369881D01*
X98680772Y-44516052D01*
X98915471Y-44618590D01*
X99165616Y-44673588D01*
X99421680Y-44678951D01*
X99673909Y-44634477D01*
X99912695Y-44541857D01*
X100128944Y-44404621D01*
X100314419Y-44227996D01*
X100462055Y-44018709D01*
X100566228Y-43784732D01*
X100622971Y-43534977D01*
X100627056Y-43242440D01*
X100577309Y-42991198D01*
X100479709Y-42754404D01*
X100337974Y-42541076D01*
X100157504Y-42359341D01*
X99945171Y-42216120D01*
X99709063Y-42116870D01*
X99458175Y-42065370D01*
X99202061Y-42063582D01*
X98950478Y-42111574D01*
X98713008Y-42207518D01*
X98498696Y-42347760D01*
X98315705Y-42526958D01*
X98171006Y-42738286D01*
X98070110Y-42973694D01*
X98070105Y-42973719D01*
X97979709Y-42754404D01*
X97837974Y-42541076D01*
X97657504Y-42359341D01*
X97445171Y-42216120D01*
X97209063Y-42116870D01*
X96958175Y-42065370D01*
X96702061Y-42063582D01*
X96450478Y-42111574D01*
X96213008Y-42207518D01*
X95998696Y-42347760D01*
X95815705Y-42526958D01*
X95671006Y-42738286D01*
X95570110Y-42973694D01*
X95570105Y-42973719D01*
X95479709Y-42754404D01*
X95337974Y-42541076D01*
X95157504Y-42359341D01*
X94945171Y-42216120D01*
X94709063Y-42116870D01*
X94458175Y-42065370D01*
X94202061Y-42063582D01*
X93950478Y-42111574D01*
X93713008Y-42207518D01*
X93498696Y-42347760D01*
X93315705Y-42526958D01*
X93171006Y-42738286D01*
X93070110Y-42973694D01*
X93016859Y-43224217D01*
X93013283Y-43480312D01*
X83629500Y-43480312D01*
X83629500Y-38544500D01*
X83603444Y-38406023D01*
X83521604Y-38278840D01*
X83396730Y-38193517D01*
X83248500Y-38163500D01*
X76517500Y-38163500D01*
X76379023Y-38189556D01*
X76251840Y-38271396D01*
X76166517Y-38396270D01*
X76136500Y-38544500D01*
X76136500Y-47974657D01*
X75415500Y-47974657D01*
X75354827Y-47979495D01*
X75251920Y-48011364D01*
X75161965Y-48070640D01*
X75092085Y-48152630D01*
X75047814Y-48250842D01*
X75032657Y-48357500D01*
X75032657Y-50546000D01*
X74993500Y-50546000D01*
X74993500Y-47244000D01*
X74967444Y-47105523D01*
X74885604Y-46978340D01*
X74760730Y-46893017D01*
X74612500Y-46863000D01*
X67754500Y-46863000D01*
X67616023Y-46889056D01*
X67488840Y-46970896D01*
X67487022Y-46973557D01*
X67406465Y-47026640D01*
X67336585Y-47108630D01*
X67292314Y-47206842D01*
X67277157Y-47313500D01*
X67277157Y-48063500D01*
X67281995Y-48124173D01*
X67313864Y-48227080D01*
X67373140Y-48317035D01*
X67373500Y-48317342D01*
X67373500Y-50546000D01*
X67399556Y-50684477D01*
X67481396Y-50811660D01*
X67606270Y-50896983D01*
X67754500Y-50927000D01*
X70294500Y-50927000D01*
X70294500Y-52387500D01*
X70320556Y-52525977D01*
X70402396Y-52653160D01*
X70527270Y-52738483D01*
X70675500Y-52768500D01*
X74676000Y-52768500D01*
X74676000Y-55116670D01*
X68647428Y-55054520D01*
X68505023Y-55080556D01*
X68377840Y-55162396D01*
X68292517Y-55287270D01*
X68262500Y-55435500D01*
X68262500Y-59118500D01*
X64960500Y-59118500D01*
X64822023Y-59144556D01*
X64694840Y-59226396D01*
X64609517Y-59351270D01*
X64579500Y-59499500D01*
X64579500Y-61404500D01*
X64591887Y-61470331D01*
X64579500Y-61531500D01*
X64579500Y-62039500D01*
X63373000Y-62039500D01*
X63326841Y-62048185D01*
X63317756Y-62054031D01*
X63246000Y-62039500D01*
X61150500Y-62039500D01*
X61150500Y-61900552D01*
X61225477Y-61886444D01*
X61352660Y-61804604D01*
X61437983Y-61679730D01*
X61468000Y-61531500D01*
X61468000Y-53530500D01*
X61441944Y-53392023D01*
X61360104Y-53264840D01*
X61235230Y-53179517D01*
X61087000Y-53149500D01*
X57531000Y-53149500D01*
X57392523Y-53175556D01*
X57265340Y-53257396D01*
X57180017Y-53382270D01*
X57150000Y-53530500D01*
X57150000Y-61531500D01*
X57176056Y-61669977D01*
X57257896Y-61797160D01*
X57382770Y-61882483D01*
X57404000Y-61886782D01*
X57404000Y-62039500D01*
X56578500Y-62039500D01*
X56440023Y-62065556D01*
X56312840Y-62147396D01*
X56227517Y-62272270D01*
X56197500Y-62420500D01*
X56197500Y-72950000D01*
X53171807Y-72950000D01*
X52930148Y-72926305D01*
X52719154Y-72862602D01*
X52524547Y-72759128D01*
X52353748Y-72619828D01*
X52213259Y-72450007D01*
X52108427Y-72256125D01*
X52043252Y-72045579D01*
X52018000Y-71805315D01*
X52018000Y-37717017D01*
X52415608Y-37717017D01*
X52506979Y-38214862D01*
X52693309Y-38685478D01*
X52967500Y-39110939D01*
X53319109Y-39475040D01*
X53734742Y-39763913D01*
X54198568Y-39966554D01*
X54692921Y-40075244D01*
X55198970Y-40085844D01*
X55697440Y-39997951D01*
X56169345Y-39814911D01*
X56596711Y-39543696D01*
X56963258Y-39194638D01*
X57255025Y-38781032D01*
X57460899Y-38318632D01*
X57573038Y-37825050D01*
X57581110Y-37246920D01*
X57482797Y-36750400D01*
X57289914Y-36282431D01*
X57009809Y-35860840D01*
X56653151Y-35501683D01*
X56233526Y-35218642D01*
X55766915Y-35022497D01*
X55271093Y-34920719D01*
X54764945Y-34917186D01*
X54267751Y-35012031D01*
X53798447Y-35201642D01*
X53374911Y-35478796D01*
X53013273Y-35832938D01*
X52727309Y-36250578D01*
X52527911Y-36715807D01*
X52422675Y-37210907D01*
X52415608Y-37717017D01*
X52018000Y-37717017D01*
X52018000Y-35963306D01*
X52041695Y-35721648D01*
X52105398Y-35510654D01*
X52208872Y-35316047D01*
X52348173Y-35145246D01*
X52517993Y-35004759D01*
X52711875Y-34899927D01*
X52922421Y-34834752D01*
X53162685Y-34809500D01*
X118278194Y-34809500D01*
X118519852Y-34833195D01*
X118519852Y-34833195D01*
G37*
X118519852Y-34833195D02*
X118730846Y-34896898D01*
X118925453Y-35000372D01*
X119096254Y-35139673D01*
X119236741Y-35309493D01*
X119341573Y-35503375D01*
X119406748Y-35713921D01*
X119432000Y-35954185D01*
X119432000Y-36627157D01*
X119289914Y-36282431D01*
X119009809Y-35860840D01*
X118653151Y-35501683D01*
X118233526Y-35218642D01*
X117766915Y-35022497D01*
X117271093Y-34920719D01*
X116764945Y-34917186D01*
X116267751Y-35012031D01*
X115798447Y-35201642D01*
X115374911Y-35478796D01*
X115013273Y-35832938D01*
X114727309Y-36250578D01*
X114527911Y-36715807D01*
X114422675Y-37210907D01*
X114415608Y-37717017D01*
X114506979Y-38214862D01*
X114693309Y-38685478D01*
X114967500Y-39110939D01*
X115319109Y-39475040D01*
X115734742Y-39763913D01*
X116198568Y-39966554D01*
X116692921Y-40075244D01*
X117198970Y-40085844D01*
X117697440Y-39997951D01*
X118169345Y-39814911D01*
X118596711Y-39543696D01*
X118963258Y-39194638D01*
X119255025Y-38781032D01*
X119432000Y-38383540D01*
X119432000Y-69627157D01*
X119289914Y-69282431D01*
X119009809Y-68860840D01*
X118653151Y-68501683D01*
X118233526Y-68218642D01*
X117766915Y-68022497D01*
X117271093Y-67920719D01*
X116764945Y-67917186D01*
X116267751Y-68012031D01*
X115798447Y-68201642D01*
X115374911Y-68478796D01*
X115013273Y-68832938D01*
X114727309Y-69250578D01*
X114527911Y-69715807D01*
X114422675Y-70210907D01*
X114415608Y-70717017D01*
X114506979Y-71214862D01*
X114693309Y-71685478D01*
X114967500Y-72110939D01*
X115319109Y-72475040D01*
X115734742Y-72763913D01*
X116160677Y-72950000D01*
X112520691Y-72950000D01*
X112520691Y-71018500D01*
X90806310Y-71018500D01*
X90806310Y-72950000D01*
X63627000Y-72950000D01*
X63627000Y-64770000D01*
X64770000Y-64770000D01*
X64814509Y-64761625D01*
X64875770Y-64803483D01*
X65024000Y-64833500D01*
X68262500Y-64833500D01*
X68262500Y-68643500D01*
X68288556Y-68781977D01*
X68370396Y-68909160D01*
X68495270Y-68994483D01*
X68643500Y-69024500D01*
X74803000Y-69024500D01*
X74941477Y-68998444D01*
X75068660Y-68916604D01*
X75153983Y-68791730D01*
X75158282Y-68770500D01*
X84836000Y-68770500D01*
X84974477Y-68744444D01*
X85101660Y-68662604D01*
X85186983Y-68537730D01*
X85217000Y-68389500D01*
X85217000Y-66484500D01*
X85190944Y-66346023D01*
X85109104Y-66218840D01*
X84984230Y-66133517D01*
X84836000Y-66103500D01*
X83502500Y-66103500D01*
X83502500Y-62283056D01*
X86947371Y-62283056D01*
X86969709Y-62404769D01*
X87015263Y-62519824D01*
X87082297Y-62623841D01*
X87168258Y-62712856D01*
X87269871Y-62783479D01*
X87383267Y-62833020D01*
X87504126Y-62859593D01*
X87540292Y-62860350D01*
X87607800Y-62927858D01*
X87607800Y-67909408D01*
X87590246Y-67916500D01*
X87486700Y-67984258D01*
X87398287Y-68070839D01*
X87328375Y-68172943D01*
X87279627Y-68286681D01*
X87253898Y-68407723D01*
X87252171Y-68531456D01*
X87274509Y-68653169D01*
X87320063Y-68768224D01*
X87387097Y-68872241D01*
X87473058Y-68961256D01*
X87574671Y-69031879D01*
X87688067Y-69081420D01*
X87808926Y-69107993D01*
X87932644Y-69110584D01*
X88054509Y-69089096D01*
X88169880Y-69044347D01*
X88274362Y-68978041D01*
X88363975Y-68892703D01*
X88435306Y-68791585D01*
X88469682Y-68714376D01*
X88599629Y-68584429D01*
X88633694Y-68542958D01*
X88668191Y-68501846D01*
X88669663Y-68499169D01*
X88671602Y-68496808D01*
X88696960Y-68449515D01*
X88722818Y-68402480D01*
X88723742Y-68399567D01*
X88725185Y-68396876D01*
X88740861Y-68345602D01*
X88757104Y-68294397D01*
X88757445Y-68291357D01*
X88758337Y-68288439D01*
X88763757Y-68235083D01*
X88769743Y-68181712D01*
X88769785Y-68175737D01*
X88769796Y-68175629D01*
X88769786Y-68175528D01*
X88769800Y-68173600D01*
X88769800Y-65267556D01*
X92713171Y-65267556D01*
X92735509Y-65389269D01*
X92781063Y-65504324D01*
X92848097Y-65608341D01*
X92934058Y-65697356D01*
X93035671Y-65767979D01*
X93149067Y-65817520D01*
X93269926Y-65844093D01*
X93393644Y-65846684D01*
X93515509Y-65825196D01*
X93630880Y-65780447D01*
X93735362Y-65714141D01*
X93824975Y-65628803D01*
X93896306Y-65527685D01*
X93930682Y-65450476D01*
X94009829Y-65371329D01*
X94043894Y-65329858D01*
X94078391Y-65288746D01*
X94079863Y-65286069D01*
X94081802Y-65283708D01*
X94107160Y-65236415D01*
X94133018Y-65189380D01*
X94133942Y-65186467D01*
X94135385Y-65183776D01*
X94151061Y-65132502D01*
X94167304Y-65081297D01*
X94167645Y-65078257D01*
X94168537Y-65075339D01*
X94173957Y-65021983D01*
X94179943Y-64968612D01*
X94179985Y-64962637D01*
X94179996Y-64962529D01*
X94179986Y-64962428D01*
X94180000Y-64960500D01*
X94180000Y-60879060D01*
X94251747Y-60910405D01*
X96183944Y-62842602D01*
X96008478Y-62876074D01*
X95771008Y-62972018D01*
X95556696Y-63112260D01*
X95373705Y-63291458D01*
X95229006Y-63502786D01*
X95128110Y-63738194D01*
X95074859Y-63988717D01*
X95071283Y-64244812D01*
X95117518Y-64496724D01*
X95211802Y-64734858D01*
X95350544Y-64950144D01*
X95528460Y-65134381D01*
X95738772Y-65280552D01*
X95973471Y-65383090D01*
X96223616Y-65438088D01*
X96479680Y-65443451D01*
X96731909Y-65398977D01*
X96970695Y-65306357D01*
X97186944Y-65169121D01*
X97372419Y-64992496D01*
X97520055Y-64783209D01*
X97624228Y-64549232D01*
X97629361Y-64526637D01*
X97711802Y-64734858D01*
X97850544Y-64950144D01*
X98028460Y-65134381D01*
X98238772Y-65280552D01*
X98473471Y-65383090D01*
X98723616Y-65438088D01*
X98979680Y-65443451D01*
X99231909Y-65398977D01*
X99470695Y-65306357D01*
X99686944Y-65169121D01*
X99872419Y-64992496D01*
X100020055Y-64783209D01*
X100124228Y-64549232D01*
X100129361Y-64526637D01*
X100211802Y-64734858D01*
X100350544Y-64950144D01*
X100528460Y-65134381D01*
X100738772Y-65280552D01*
X100973471Y-65383090D01*
X101223616Y-65438088D01*
X101479680Y-65443451D01*
X101731909Y-65398977D01*
X101970695Y-65306357D01*
X102186944Y-65169121D01*
X102372419Y-64992496D01*
X102520055Y-64783209D01*
X102624228Y-64549232D01*
X102629361Y-64526637D01*
X102711802Y-64734858D01*
X102850544Y-64950144D01*
X103028460Y-65134381D01*
X103238772Y-65280552D01*
X103473471Y-65383090D01*
X103723616Y-65438088D01*
X103979680Y-65443451D01*
X104231909Y-65398977D01*
X104470695Y-65306357D01*
X104686944Y-65169121D01*
X104872419Y-64992496D01*
X105020055Y-64783209D01*
X105124228Y-64549232D01*
X105129361Y-64526637D01*
X105211802Y-64734858D01*
X105350544Y-64950144D01*
X105528460Y-65134381D01*
X105738772Y-65280552D01*
X105973471Y-65383090D01*
X106223616Y-65438088D01*
X106479680Y-65443451D01*
X106731909Y-65398977D01*
X106970695Y-65306357D01*
X107186944Y-65169121D01*
X107372419Y-64992496D01*
X107520055Y-64783209D01*
X107624228Y-64549232D01*
X107629361Y-64526637D01*
X107711802Y-64734858D01*
X107850544Y-64950144D01*
X108028460Y-65134381D01*
X108238772Y-65280552D01*
X108473471Y-65383090D01*
X108723616Y-65438088D01*
X108979680Y-65443451D01*
X109231909Y-65398977D01*
X109470695Y-65306357D01*
X109686944Y-65169121D01*
X109872419Y-64992496D01*
X110020055Y-64783209D01*
X110124228Y-64549232D01*
X110180971Y-64299477D01*
X110185056Y-64006940D01*
X110135309Y-63755698D01*
X110037709Y-63518904D01*
X109895974Y-63305576D01*
X109715504Y-63123841D01*
X109503171Y-62980620D01*
X109267063Y-62881370D01*
X109016175Y-62829870D01*
X108760061Y-62828082D01*
X108508478Y-62876074D01*
X108271008Y-62972018D01*
X108056696Y-63112260D01*
X107926948Y-63239318D01*
X107930561Y-63227502D01*
X107946804Y-63176297D01*
X107947145Y-63173257D01*
X107948037Y-63170339D01*
X107953457Y-63116983D01*
X107959443Y-63063612D01*
X107959485Y-63057637D01*
X107959496Y-63057529D01*
X107959486Y-63057428D01*
X107959500Y-63055500D01*
X107959500Y-58503580D01*
X108479064Y-59023143D01*
X108522495Y-59068117D01*
X108632160Y-59144336D01*
X108754541Y-59197803D01*
X108884977Y-59226481D01*
X109018498Y-59229278D01*
X109150020Y-59206087D01*
X109274533Y-59157792D01*
X109387294Y-59086232D01*
X109484008Y-58994132D01*
X109560991Y-58885002D01*
X109615311Y-58762997D01*
X109644899Y-58632765D01*
X109645855Y-58564335D01*
X109646963Y-58554131D01*
X109646130Y-58544610D01*
X109647029Y-58480225D01*
X109621089Y-58349217D01*
X109570197Y-58225743D01*
X109496291Y-58114506D01*
X109402186Y-58019742D01*
X109401065Y-58018986D01*
X109012000Y-57629920D01*
X109012000Y-56323302D01*
X109012029Y-56321225D01*
X109012000Y-56321079D01*
X109012000Y-52733080D01*
X109948828Y-51796252D01*
X109992008Y-51755132D01*
X110068991Y-51646002D01*
X110123311Y-51523997D01*
X110152899Y-51393765D01*
X110153915Y-51321022D01*
X110154996Y-51310377D01*
X110154183Y-51301781D01*
X110155029Y-51241225D01*
X110129089Y-51110217D01*
X110078197Y-50986743D01*
X110004291Y-50875506D01*
X109910186Y-50780742D01*
X109799467Y-50706061D01*
X109676352Y-50654308D01*
X109545528Y-50627454D01*
X109411981Y-50626521D01*
X109280795Y-50651546D01*
X109156969Y-50701575D01*
X109045218Y-50774703D01*
X108949800Y-50868144D01*
X108947680Y-50871240D01*
X107959500Y-51859420D01*
X107959500Y-48056158D01*
X107996095Y-48019563D01*
X108045380Y-48000447D01*
X108149862Y-47934141D01*
X108239475Y-47848803D01*
X108310806Y-47747685D01*
X108361138Y-47634638D01*
X108388553Y-47513968D01*
X108390527Y-47372627D01*
X108366491Y-47251239D01*
X108319336Y-47136830D01*
X108250856Y-47033760D01*
X108163661Y-46945954D01*
X108061071Y-46876756D01*
X107946995Y-46828803D01*
X107825777Y-46803920D01*
X107702034Y-46803057D01*
X107580481Y-46826244D01*
X107465746Y-46872600D01*
X107362200Y-46940358D01*
X107273787Y-47026939D01*
X107203875Y-47129043D01*
X107174304Y-47198038D01*
X106967671Y-47404671D01*
X106933606Y-47446142D01*
X106899109Y-47487254D01*
X106897637Y-47489931D01*
X106895698Y-47492292D01*
X106870350Y-47539566D01*
X106844482Y-47586620D01*
X106843557Y-47589535D01*
X106842115Y-47592225D01*
X106826444Y-47643484D01*
X106810196Y-47694703D01*
X106809855Y-47697743D01*
X106808963Y-47700661D01*
X106803543Y-47754017D01*
X106797557Y-47807388D01*
X106797515Y-47813363D01*
X106797504Y-47813471D01*
X106797514Y-47813572D01*
X106797500Y-47815500D01*
X106797500Y-53850318D01*
X106694274Y-53793569D01*
X106567588Y-53753381D01*
X106435508Y-53738566D01*
X106426000Y-53738500D01*
X105092500Y-53738500D01*
X105029932Y-53744635D01*
X104967229Y-53750121D01*
X104963788Y-53751121D01*
X104960226Y-53751470D01*
X104899985Y-53769658D01*
X104839598Y-53787202D01*
X104836423Y-53788848D01*
X104832991Y-53789884D01*
X104777457Y-53819412D01*
X104721600Y-53848365D01*
X104718798Y-53850602D01*
X104715640Y-53852281D01*
X104666921Y-53892015D01*
X104617730Y-53931284D01*
X104612750Y-53936195D01*
X104612644Y-53936282D01*
X104612563Y-53936380D01*
X104610960Y-53937961D01*
X103705000Y-54843920D01*
X103705000Y-52691658D01*
X103979329Y-52417329D01*
X104013394Y-52375858D01*
X104047891Y-52334746D01*
X104049363Y-52332069D01*
X104051302Y-52329708D01*
X104076650Y-52282434D01*
X104102518Y-52235380D01*
X104103443Y-52232465D01*
X104104885Y-52229775D01*
X104120556Y-52178516D01*
X104136804Y-52127297D01*
X104137145Y-52124257D01*
X104138037Y-52121339D01*
X104143457Y-52067983D01*
X104149443Y-52014612D01*
X104149485Y-52008637D01*
X104149496Y-52008529D01*
X104149486Y-52008428D01*
X104149500Y-52006500D01*
X104149500Y-51172510D01*
X104238975Y-51087303D01*
X104310306Y-50986185D01*
X104360638Y-50873138D01*
X104388053Y-50752468D01*
X104390027Y-50611127D01*
X104365991Y-50489739D01*
X104318836Y-50375330D01*
X104250356Y-50272260D01*
X104163161Y-50184454D01*
X104060571Y-50115256D01*
X103946495Y-50067303D01*
X103825277Y-50042420D01*
X103701534Y-50041557D01*
X103579981Y-50064744D01*
X103542211Y-50080004D01*
X103562553Y-49990468D01*
X103564527Y-49849127D01*
X103540491Y-49727739D01*
X103493336Y-49613330D01*
X103424856Y-49510260D01*
X103337661Y-49422454D01*
X103235071Y-49353256D01*
X103233896Y-49352762D01*
X104630595Y-47956063D01*
X104679880Y-47936947D01*
X104784362Y-47870641D01*
X104873975Y-47785303D01*
X104945306Y-47684185D01*
X104995638Y-47571138D01*
X105023053Y-47450468D01*
X105025027Y-47309127D01*
X105000991Y-47187739D01*
X104953836Y-47073330D01*
X104885356Y-46970260D01*
X104809668Y-46894042D01*
X104873975Y-46832803D01*
X104945306Y-46731685D01*
X104995638Y-46618638D01*
X105023053Y-46497968D01*
X105025027Y-46356627D01*
X105000991Y-46235239D01*
X104953836Y-46120830D01*
X104885356Y-46017760D01*
X104798161Y-45929954D01*
X104695571Y-45860756D01*
X104581495Y-45812803D01*
X104460277Y-45787920D01*
X104336534Y-45787057D01*
X104214981Y-45810244D01*
X104147520Y-45837500D01*
X103949500Y-45837500D01*
X103896101Y-45842736D01*
X103842625Y-45847414D01*
X103839689Y-45848267D01*
X103836650Y-45848565D01*
X103785333Y-45864059D01*
X103733735Y-45879049D01*
X103731018Y-45880457D01*
X103728098Y-45881339D01*
X103680779Y-45906499D01*
X103633065Y-45931232D01*
X103630675Y-45933140D01*
X103627980Y-45934573D01*
X103586414Y-45968473D01*
X103544447Y-46001975D01*
X103540195Y-46006168D01*
X103540108Y-46006239D01*
X103540041Y-46006320D01*
X103538671Y-46007671D01*
X100347289Y-49199053D01*
X100290246Y-49222100D01*
X100186700Y-49289858D01*
X100098287Y-49376439D01*
X100028375Y-49478543D01*
X99979627Y-49592281D01*
X99953898Y-49713323D01*
X99952171Y-49837056D01*
X99974509Y-49958769D01*
X100020063Y-50073824D01*
X100087097Y-50177841D01*
X100167530Y-50261131D01*
X100098287Y-50328939D01*
X100028375Y-50431043D01*
X99979627Y-50544781D01*
X99953898Y-50665823D01*
X99952171Y-50789556D01*
X99974509Y-50911269D01*
X100003000Y-50983228D01*
X100003000Y-53226342D01*
X97594540Y-55634802D01*
X97595527Y-55564127D01*
X97571491Y-55442739D01*
X97524336Y-55328330D01*
X97455856Y-55225260D01*
X97407762Y-55176829D01*
X97452306Y-55113685D01*
X97502638Y-55000638D01*
X97530053Y-54879968D01*
X97532027Y-54738627D01*
X97507991Y-54617239D01*
X97460836Y-54502830D01*
X97392356Y-54399760D01*
X97349078Y-54356179D01*
X97380975Y-54325803D01*
X97452306Y-54224685D01*
X97502638Y-54111638D01*
X97530053Y-53990968D01*
X97532027Y-53849627D01*
X97507991Y-53728239D01*
X97460836Y-53613830D01*
X97392356Y-53510760D01*
X97305161Y-53422954D01*
X97202571Y-53353756D01*
X97088495Y-53305803D01*
X96967277Y-53280920D01*
X96843534Y-53280057D01*
X96721981Y-53303244D01*
X96607246Y-53349600D01*
X96503700Y-53417358D01*
X96415287Y-53503939D01*
X96397661Y-53529681D01*
X93265462Y-56661880D01*
X93229481Y-56668744D01*
X93114746Y-56715100D01*
X93011200Y-56782858D01*
X92922787Y-56869439D01*
X92852875Y-56971543D01*
X92804127Y-57085281D01*
X92778398Y-57206323D01*
X92776671Y-57330056D01*
X92799009Y-57451769D01*
X92844563Y-57566824D01*
X92911597Y-57670841D01*
X92992030Y-57754131D01*
X92922787Y-57821939D01*
X92852875Y-57924043D01*
X92804127Y-58037781D01*
X92778398Y-58158823D01*
X92776671Y-58282556D01*
X92799009Y-58404269D01*
X92844563Y-58519324D01*
X92911597Y-58623341D01*
X92997558Y-58712356D01*
X93066336Y-58760158D01*
X93064982Y-58762620D01*
X93064057Y-58765535D01*
X93062615Y-58768225D01*
X93046944Y-58819484D01*
X93030696Y-58870703D01*
X93030355Y-58873743D01*
X93029463Y-58876661D01*
X93024045Y-58930000D01*
X93018057Y-58983388D01*
X93018015Y-58989363D01*
X93018004Y-58989471D01*
X93018014Y-58989572D01*
X93018000Y-58991500D01*
X93018000Y-64674355D01*
X92947700Y-64720358D01*
X92859287Y-64806939D01*
X92789375Y-64909043D01*
X92740627Y-65022781D01*
X92714898Y-65143823D01*
X92713171Y-65267556D01*
X88769800Y-65267556D01*
X88769800Y-62687200D01*
X88764560Y-62633760D01*
X88759885Y-62580324D01*
X88759033Y-62577392D01*
X88758735Y-62574350D01*
X88743219Y-62522957D01*
X88728250Y-62471435D01*
X88726844Y-62468722D01*
X88725961Y-62465798D01*
X88700793Y-62418463D01*
X88676068Y-62370764D01*
X88674158Y-62368372D01*
X88672727Y-62365680D01*
X88638820Y-62324105D01*
X88605324Y-62282147D01*
X88601134Y-62277897D01*
X88601061Y-62277808D01*
X88600979Y-62277740D01*
X88599629Y-62276371D01*
X88142429Y-61819171D01*
X88100958Y-61785106D01*
X88059846Y-61750609D01*
X88057169Y-61749137D01*
X88054808Y-61747198D01*
X88007534Y-61721850D01*
X87960480Y-61695982D01*
X87957565Y-61695057D01*
X87954875Y-61693615D01*
X87903616Y-61677944D01*
X87865654Y-61665901D01*
X87766695Y-61624303D01*
X87645477Y-61599420D01*
X87521734Y-61598557D01*
X87400181Y-61621744D01*
X87285446Y-61668100D01*
X87181900Y-61735858D01*
X87093487Y-61822439D01*
X87023575Y-61924543D01*
X86974827Y-62038281D01*
X86949098Y-62159323D01*
X86947371Y-62283056D01*
X83502500Y-62283056D01*
X83502500Y-57848500D01*
X84318500Y-57848500D01*
X84318500Y-58745248D01*
X84295127Y-58799781D01*
X84269398Y-58920823D01*
X84267671Y-59044556D01*
X84290009Y-59166269D01*
X84335563Y-59281324D01*
X84402597Y-59385341D01*
X84488558Y-59474356D01*
X84590171Y-59544979D01*
X84703567Y-59594520D01*
X84824426Y-59621093D01*
X84948144Y-59623684D01*
X85070009Y-59602196D01*
X85185380Y-59557447D01*
X85289862Y-59491141D01*
X85379475Y-59405803D01*
X85450806Y-59304685D01*
X85501138Y-59191638D01*
X85528553Y-59070968D01*
X85530527Y-58929627D01*
X85506491Y-58808239D01*
X85480500Y-58745179D01*
X85480500Y-58659265D01*
X85522926Y-58668593D01*
X85646644Y-58671184D01*
X85768509Y-58649696D01*
X85883880Y-58604947D01*
X85988362Y-58538641D01*
X86077975Y-58453303D01*
X86149306Y-58352185D01*
X86199638Y-58239138D01*
X86227053Y-58118468D01*
X86229027Y-57977127D01*
X86204991Y-57855739D01*
X86179000Y-57792679D01*
X86179000Y-51117500D01*
X87058500Y-51117500D01*
X87196977Y-51091444D01*
X87324160Y-51009604D01*
X87409483Y-50884730D01*
X87439500Y-50736500D01*
X87439500Y-49710056D01*
X91824171Y-49710056D01*
X91846509Y-49831769D01*
X91892063Y-49946824D01*
X91959097Y-50050841D01*
X92045058Y-50139856D01*
X92146671Y-50210479D01*
X92260067Y-50260020D01*
X92380926Y-50286593D01*
X92504644Y-50289184D01*
X92626509Y-50267696D01*
X92703071Y-50238000D01*
X96208192Y-50238000D01*
X96236058Y-50266856D01*
X96337671Y-50337479D01*
X96451067Y-50387020D01*
X96571926Y-50413593D01*
X96695644Y-50416184D01*
X96817509Y-50394696D01*
X96932880Y-50349947D01*
X97037362Y-50283641D01*
X97126975Y-50198303D01*
X97198306Y-50097185D01*
X97248638Y-49984138D01*
X97276053Y-49863468D01*
X97278027Y-49722127D01*
X97253991Y-49600739D01*
X97206836Y-49486330D01*
X97138356Y-49383260D01*
X97051161Y-49295454D01*
X96948571Y-49226256D01*
X96863707Y-49190583D01*
X96848246Y-49177609D01*
X96845569Y-49176137D01*
X96843208Y-49174198D01*
X96795934Y-49148850D01*
X96748880Y-49122982D01*
X96745965Y-49122057D01*
X96743275Y-49120615D01*
X96692016Y-49104944D01*
X96640797Y-49088696D01*
X96637757Y-49088355D01*
X96634839Y-49087463D01*
X96581483Y-49082043D01*
X96528112Y-49076057D01*
X96522137Y-49076015D01*
X96522029Y-49076004D01*
X96521928Y-49076014D01*
X96520000Y-49076000D01*
X92702247Y-49076000D01*
X92643495Y-49051303D01*
X92522277Y-49026420D01*
X92398534Y-49025557D01*
X92276981Y-49048744D01*
X92162246Y-49095100D01*
X92058700Y-49162858D01*
X91970287Y-49249439D01*
X91900375Y-49351543D01*
X91851627Y-49465281D01*
X91825898Y-49586323D01*
X91824171Y-49710056D01*
X87439500Y-49710056D01*
X87439500Y-46725556D01*
X96840671Y-46725556D01*
X96863009Y-46847269D01*
X96908563Y-46962324D01*
X96975597Y-47066341D01*
X97061558Y-47155356D01*
X97163171Y-47225979D01*
X97276567Y-47275520D01*
X97397426Y-47302093D01*
X97521144Y-47304684D01*
X97643009Y-47283196D01*
X97758380Y-47238447D01*
X97862862Y-47172141D01*
X97952475Y-47086803D01*
X98023806Y-46985685D01*
X98074138Y-46872638D01*
X98101553Y-46751968D01*
X98103527Y-46610627D01*
X98079491Y-46489239D01*
X98065898Y-46456260D01*
X98464657Y-46057501D01*
X98479000Y-46093728D01*
X98479000Y-49601248D01*
X98455627Y-49655781D01*
X98429898Y-49776823D01*
X98428171Y-49900556D01*
X98450509Y-50022269D01*
X98496063Y-50137324D01*
X98563097Y-50241341D01*
X98649058Y-50330356D01*
X98750671Y-50400979D01*
X98864067Y-50450520D01*
X98984926Y-50477093D01*
X99108644Y-50479684D01*
X99230509Y-50458196D01*
X99345880Y-50413447D01*
X99450362Y-50347141D01*
X99539975Y-50261803D01*
X99611306Y-50160685D01*
X99661638Y-50047638D01*
X99689053Y-49926968D01*
X99691027Y-49785627D01*
X99666991Y-49664239D01*
X99641000Y-49601179D01*
X99641000Y-46093491D01*
X99661638Y-46047138D01*
X99689053Y-45926468D01*
X99691027Y-45785127D01*
X99666991Y-45663739D01*
X99619836Y-45549330D01*
X99551356Y-45446260D01*
X99464161Y-45358454D01*
X99361571Y-45289256D01*
X99247495Y-45241303D01*
X99126277Y-45216420D01*
X99055995Y-45215930D01*
X99056027Y-45213627D01*
X99031991Y-45092239D01*
X98984836Y-44977830D01*
X98916356Y-44874760D01*
X98829161Y-44786954D01*
X98726571Y-44717756D01*
X98612495Y-44669803D01*
X98491277Y-44644920D01*
X98367534Y-44644057D01*
X98245981Y-44667244D01*
X98131246Y-44713600D01*
X98027700Y-44781358D01*
X97939287Y-44867939D01*
X97869375Y-44970043D01*
X97839804Y-45039038D01*
X97061671Y-45817171D01*
X97027606Y-45858642D01*
X96993109Y-45899754D01*
X96991637Y-45902431D01*
X96989698Y-45904792D01*
X96964350Y-45952066D01*
X96938482Y-45999120D01*
X96937557Y-46002035D01*
X96936115Y-46004725D01*
X96920444Y-46055984D01*
X96904196Y-46107203D01*
X96903855Y-46110243D01*
X96902963Y-46113161D01*
X96897543Y-46166517D01*
X96891557Y-46219888D01*
X96891515Y-46225863D01*
X96891504Y-46225971D01*
X96891514Y-46226072D01*
X96891500Y-46228000D01*
X96891500Y-46426248D01*
X96868127Y-46480781D01*
X96842398Y-46601823D01*
X96840671Y-46725556D01*
X87439500Y-46725556D01*
X87439500Y-44958000D01*
X87413444Y-44819523D01*
X87331604Y-44692340D01*
X87206730Y-44607017D01*
X87058500Y-44577000D01*
X83629500Y-44577000D01*
X83629500Y-43480312D01*
X93013283Y-43480312D01*
X93059518Y-43732224D01*
X93153802Y-43970358D01*
X93292544Y-44185644D01*
X93470460Y-44369881D01*
X93680772Y-44516052D01*
X93915471Y-44618590D01*
X94165616Y-44673588D01*
X94421680Y-44678951D01*
X94673909Y-44634477D01*
X94912695Y-44541857D01*
X95128944Y-44404621D01*
X95314419Y-44227996D01*
X95462055Y-44018709D01*
X95566228Y-43784732D01*
X95571361Y-43762137D01*
X95653802Y-43970358D01*
X95792544Y-44185644D01*
X95970460Y-44369881D01*
X96180772Y-44516052D01*
X96415471Y-44618590D01*
X96665616Y-44673588D01*
X96921680Y-44678951D01*
X97173909Y-44634477D01*
X97412695Y-44541857D01*
X97628944Y-44404621D01*
X97814419Y-44227996D01*
X97962055Y-44018709D01*
X98066228Y-43784732D01*
X98071361Y-43762137D01*
X98153802Y-43970358D01*
X98292544Y-44185644D01*
X98470460Y-44369881D01*
X98680772Y-44516052D01*
X98915471Y-44618590D01*
X99165616Y-44673588D01*
X99421680Y-44678951D01*
X99673909Y-44634477D01*
X99912695Y-44541857D01*
X100128944Y-44404621D01*
X100314419Y-44227996D01*
X100462055Y-44018709D01*
X100566228Y-43784732D01*
X100622971Y-43534977D01*
X100627056Y-43242440D01*
X100577309Y-42991198D01*
X100479709Y-42754404D01*
X100337974Y-42541076D01*
X100157504Y-42359341D01*
X99945171Y-42216120D01*
X99709063Y-42116870D01*
X99458175Y-42065370D01*
X99202061Y-42063582D01*
X98950478Y-42111574D01*
X98713008Y-42207518D01*
X98498696Y-42347760D01*
X98315705Y-42526958D01*
X98171006Y-42738286D01*
X98070110Y-42973694D01*
X98070105Y-42973719D01*
X97979709Y-42754404D01*
X97837974Y-42541076D01*
X97657504Y-42359341D01*
X97445171Y-42216120D01*
X97209063Y-42116870D01*
X96958175Y-42065370D01*
X96702061Y-42063582D01*
X96450478Y-42111574D01*
X96213008Y-42207518D01*
X95998696Y-42347760D01*
X95815705Y-42526958D01*
X95671006Y-42738286D01*
X95570110Y-42973694D01*
X95570105Y-42973719D01*
X95479709Y-42754404D01*
X95337974Y-42541076D01*
X95157504Y-42359341D01*
X94945171Y-42216120D01*
X94709063Y-42116870D01*
X94458175Y-42065370D01*
X94202061Y-42063582D01*
X93950478Y-42111574D01*
X93713008Y-42207518D01*
X93498696Y-42347760D01*
X93315705Y-42526958D01*
X93171006Y-42738286D01*
X93070110Y-42973694D01*
X93016859Y-43224217D01*
X93013283Y-43480312D01*
X83629500Y-43480312D01*
X83629500Y-38544500D01*
X83603444Y-38406023D01*
X83521604Y-38278840D01*
X83396730Y-38193517D01*
X83248500Y-38163500D01*
X76517500Y-38163500D01*
X76379023Y-38189556D01*
X76251840Y-38271396D01*
X76166517Y-38396270D01*
X76136500Y-38544500D01*
X76136500Y-47974657D01*
X75415500Y-47974657D01*
X75354827Y-47979495D01*
X75251920Y-48011364D01*
X75161965Y-48070640D01*
X75092085Y-48152630D01*
X75047814Y-48250842D01*
X75032657Y-48357500D01*
X75032657Y-50546000D01*
X74993500Y-50546000D01*
X74993500Y-47244000D01*
X74967444Y-47105523D01*
X74885604Y-46978340D01*
X74760730Y-46893017D01*
X74612500Y-46863000D01*
X67754500Y-46863000D01*
X67616023Y-46889056D01*
X67488840Y-46970896D01*
X67487022Y-46973557D01*
X67406465Y-47026640D01*
X67336585Y-47108630D01*
X67292314Y-47206842D01*
X67277157Y-47313500D01*
X67277157Y-48063500D01*
X67281995Y-48124173D01*
X67313864Y-48227080D01*
X67373140Y-48317035D01*
X67373500Y-48317342D01*
X67373500Y-50546000D01*
X67399556Y-50684477D01*
X67481396Y-50811660D01*
X67606270Y-50896983D01*
X67754500Y-50927000D01*
X70294500Y-50927000D01*
X70294500Y-52387500D01*
X70320556Y-52525977D01*
X70402396Y-52653160D01*
X70527270Y-52738483D01*
X70675500Y-52768500D01*
X74676000Y-52768500D01*
X74676000Y-55116670D01*
X68647428Y-55054520D01*
X68505023Y-55080556D01*
X68377840Y-55162396D01*
X68292517Y-55287270D01*
X68262500Y-55435500D01*
X68262500Y-59118500D01*
X64960500Y-59118500D01*
X64822023Y-59144556D01*
X64694840Y-59226396D01*
X64609517Y-59351270D01*
X64579500Y-59499500D01*
X64579500Y-61404500D01*
X64591887Y-61470331D01*
X64579500Y-61531500D01*
X64579500Y-62039500D01*
X63373000Y-62039500D01*
X63326841Y-62048185D01*
X63317756Y-62054031D01*
X63246000Y-62039500D01*
X61150500Y-62039500D01*
X61150500Y-61900552D01*
X61225477Y-61886444D01*
X61352660Y-61804604D01*
X61437983Y-61679730D01*
X61468000Y-61531500D01*
X61468000Y-53530500D01*
X61441944Y-53392023D01*
X61360104Y-53264840D01*
X61235230Y-53179517D01*
X61087000Y-53149500D01*
X57531000Y-53149500D01*
X57392523Y-53175556D01*
X57265340Y-53257396D01*
X57180017Y-53382270D01*
X57150000Y-53530500D01*
X57150000Y-61531500D01*
X57176056Y-61669977D01*
X57257896Y-61797160D01*
X57382770Y-61882483D01*
X57404000Y-61886782D01*
X57404000Y-62039500D01*
X56578500Y-62039500D01*
X56440023Y-62065556D01*
X56312840Y-62147396D01*
X56227517Y-62272270D01*
X56197500Y-62420500D01*
X56197500Y-72950000D01*
X53171807Y-72950000D01*
X52930148Y-72926305D01*
X52719154Y-72862602D01*
X52524547Y-72759128D01*
X52353748Y-72619828D01*
X52213259Y-72450007D01*
X52108427Y-72256125D01*
X52043252Y-72045579D01*
X52018000Y-71805315D01*
X52018000Y-37717017D01*
X52415608Y-37717017D01*
X52506979Y-38214862D01*
X52693309Y-38685478D01*
X52967500Y-39110939D01*
X53319109Y-39475040D01*
X53734742Y-39763913D01*
X54198568Y-39966554D01*
X54692921Y-40075244D01*
X55198970Y-40085844D01*
X55697440Y-39997951D01*
X56169345Y-39814911D01*
X56596711Y-39543696D01*
X56963258Y-39194638D01*
X57255025Y-38781032D01*
X57460899Y-38318632D01*
X57573038Y-37825050D01*
X57581110Y-37246920D01*
X57482797Y-36750400D01*
X57289914Y-36282431D01*
X57009809Y-35860840D01*
X56653151Y-35501683D01*
X56233526Y-35218642D01*
X55766915Y-35022497D01*
X55271093Y-34920719D01*
X54764945Y-34917186D01*
X54267751Y-35012031D01*
X53798447Y-35201642D01*
X53374911Y-35478796D01*
X53013273Y-35832938D01*
X52727309Y-36250578D01*
X52527911Y-36715807D01*
X52422675Y-37210907D01*
X52415608Y-37717017D01*
X52018000Y-37717017D01*
X52018000Y-35963306D01*
X52041695Y-35721648D01*
X52105398Y-35510654D01*
X52208872Y-35316047D01*
X52348173Y-35145246D01*
X52517993Y-35004759D01*
X52711875Y-34899927D01*
X52922421Y-34834752D01*
X53162685Y-34809500D01*
X118278194Y-34809500D01*
X118519852Y-34833195D01*
G36*
X60960000Y-61404500D02*
X57658000Y-61404500D01*
X57658000Y-53657500D01*
X60960000Y-53657500D01*
X60960000Y-61404500D01*
X60960000Y-61404500D01*
G37*
X60960000Y-61404500D02*
X57658000Y-61404500D01*
X57658000Y-53657500D01*
X60960000Y-53657500D01*
X60960000Y-61404500D01*
G36*
X63119000Y-72950000D02*
X56705500Y-72950000D01*
X56705500Y-62547500D01*
X63119000Y-62547500D01*
X63119000Y-72950000D01*
X63119000Y-72950000D01*
G37*
X63119000Y-72950000D02*
X56705500Y-72950000D01*
X56705500Y-62547500D01*
X63119000Y-62547500D01*
X63119000Y-72950000D01*
M02*
