G04 #@! TF.FileFunction,Soldermask,Bot*
%FSLAX46Y46*%
G04 Gerber Fmt 4.6, Leading zero omitted, Abs format (unit mm)*
G04 Created by KiCad (PCBNEW 4.0.7) date 10/05/18 20:50:03*
%MOMM*%
%LPD*%
G01*
G04 APERTURE LIST*
%ADD10C,0.100000*%
%ADD11C,0.200000*%
%ADD12C,4.800000*%
%ADD13C,1.100000*%
%ADD14R,1.600000X1.150000*%
%ADD15R,2.250000X2.250000*%
%ADD16C,2.250000*%
%ADD17R,1.600000X2.600000*%
%ADD18R,6.200000X6.800000*%
%ADD19C,3.400000*%
%ADD20C,2.400000*%
%ADD21R,6.514800X3.593800*%
%ADD22R,3.593800X6.514800*%
G04 APERTURE END LIST*
D10*
D11*
X111901595Y-72651881D02*
X111901595Y-71651881D01*
X111425405Y-72651881D02*
X111425405Y-71651881D01*
X110853976Y-72651881D01*
X110853976Y-71651881D01*
X110520643Y-71651881D02*
X109949214Y-71651881D01*
X110234929Y-72651881D02*
X110234929Y-71651881D01*
X109615881Y-72128071D02*
X109282547Y-72128071D01*
X109139690Y-72651881D02*
X109615881Y-72651881D01*
X109615881Y-71651881D01*
X109139690Y-71651881D01*
X108234928Y-72651881D02*
X108711119Y-72651881D01*
X108711119Y-71651881D01*
X107425404Y-72651881D02*
X107901595Y-72651881D01*
X107901595Y-71651881D01*
X107092071Y-72651881D02*
X107092071Y-71651881D01*
X106092071Y-71699500D02*
X106187309Y-71651881D01*
X106330166Y-71651881D01*
X106473024Y-71699500D01*
X106568262Y-71794738D01*
X106615881Y-71889976D01*
X106663500Y-72080452D01*
X106663500Y-72223310D01*
X106615881Y-72413786D01*
X106568262Y-72509024D01*
X106473024Y-72604262D01*
X106330166Y-72651881D01*
X106234928Y-72651881D01*
X106092071Y-72604262D01*
X106044452Y-72556643D01*
X106044452Y-72223310D01*
X106234928Y-72223310D01*
X105615881Y-72128071D02*
X105282547Y-72128071D01*
X105139690Y-72651881D02*
X105615881Y-72651881D01*
X105615881Y-71651881D01*
X105139690Y-71651881D01*
X104711119Y-72651881D02*
X104711119Y-71651881D01*
X104139690Y-72651881D01*
X104139690Y-71651881D01*
X103806357Y-71651881D02*
X103234928Y-71651881D01*
X103520643Y-72651881D02*
X103520643Y-71651881D01*
X101568261Y-72651881D02*
X101901595Y-72175690D01*
X102139690Y-72651881D02*
X102139690Y-71651881D01*
X101758737Y-71651881D01*
X101663499Y-71699500D01*
X101615880Y-71747119D01*
X101568261Y-71842357D01*
X101568261Y-71985214D01*
X101615880Y-72080452D01*
X101663499Y-72128071D01*
X101758737Y-72175690D01*
X102139690Y-72175690D01*
X100949214Y-71651881D02*
X100758737Y-71651881D01*
X100663499Y-71699500D01*
X100568261Y-71794738D01*
X100520642Y-71985214D01*
X100520642Y-72318548D01*
X100568261Y-72509024D01*
X100663499Y-72604262D01*
X100758737Y-72651881D01*
X100949214Y-72651881D01*
X101044452Y-72604262D01*
X101139690Y-72509024D01*
X101187309Y-72318548D01*
X101187309Y-71985214D01*
X101139690Y-71794738D01*
X101044452Y-71699500D01*
X100949214Y-71651881D01*
X99758737Y-72128071D02*
X99615880Y-72175690D01*
X99568261Y-72223310D01*
X99520642Y-72318548D01*
X99520642Y-72461405D01*
X99568261Y-72556643D01*
X99615880Y-72604262D01*
X99711118Y-72651881D01*
X100092071Y-72651881D01*
X100092071Y-71651881D01*
X99758737Y-71651881D01*
X99663499Y-71699500D01*
X99615880Y-71747119D01*
X99568261Y-71842357D01*
X99568261Y-71937595D01*
X99615880Y-72032833D01*
X99663499Y-72080452D01*
X99758737Y-72128071D01*
X100092071Y-72128071D01*
X98901595Y-71651881D02*
X98711118Y-71651881D01*
X98615880Y-71699500D01*
X98520642Y-71794738D01*
X98473023Y-71985214D01*
X98473023Y-72318548D01*
X98520642Y-72509024D01*
X98615880Y-72604262D01*
X98711118Y-72651881D01*
X98901595Y-72651881D01*
X98996833Y-72604262D01*
X99092071Y-72509024D01*
X99139690Y-72318548D01*
X99139690Y-71985214D01*
X99092071Y-71794738D01*
X98996833Y-71699500D01*
X98901595Y-71651881D01*
X98187309Y-71651881D02*
X97615880Y-71651881D01*
X97901595Y-72651881D02*
X97901595Y-71651881D01*
X97282547Y-72651881D02*
X97282547Y-71651881D01*
X96234928Y-72556643D02*
X96282547Y-72604262D01*
X96425404Y-72651881D01*
X96520642Y-72651881D01*
X96663500Y-72604262D01*
X96758738Y-72509024D01*
X96806357Y-72413786D01*
X96853976Y-72223310D01*
X96853976Y-72080452D01*
X96806357Y-71889976D01*
X96758738Y-71794738D01*
X96663500Y-71699500D01*
X96520642Y-71651881D01*
X96425404Y-71651881D01*
X96282547Y-71699500D01*
X96234928Y-71747119D01*
X95853976Y-72604262D02*
X95711119Y-72651881D01*
X95473023Y-72651881D01*
X95377785Y-72604262D01*
X95330166Y-72556643D01*
X95282547Y-72461405D01*
X95282547Y-72366167D01*
X95330166Y-72270929D01*
X95377785Y-72223310D01*
X95473023Y-72175690D01*
X95663500Y-72128071D01*
X95758738Y-72080452D01*
X95806357Y-72032833D01*
X95853976Y-71937595D01*
X95853976Y-71842357D01*
X95806357Y-71747119D01*
X95758738Y-71699500D01*
X95663500Y-71651881D01*
X95425404Y-71651881D01*
X95282547Y-71699500D01*
X93615880Y-72651881D02*
X94092071Y-72651881D01*
X94092071Y-71651881D01*
X93330166Y-72366167D02*
X92853975Y-72366167D01*
X93425404Y-72651881D02*
X93092071Y-71651881D01*
X92758737Y-72651881D01*
X92092070Y-72128071D02*
X91949213Y-72175690D01*
X91901594Y-72223310D01*
X91853975Y-72318548D01*
X91853975Y-72461405D01*
X91901594Y-72556643D01*
X91949213Y-72604262D01*
X92044451Y-72651881D01*
X92425404Y-72651881D01*
X92425404Y-71651881D01*
X92092070Y-71651881D01*
X91996832Y-71699500D01*
X91949213Y-71747119D01*
X91901594Y-71842357D01*
X91901594Y-71937595D01*
X91949213Y-72032833D01*
X91996832Y-72080452D01*
X92092070Y-72128071D01*
X92425404Y-72128071D01*
X91425404Y-72556643D02*
X91377785Y-72604262D01*
X91425404Y-72651881D01*
X91473023Y-72604262D01*
X91425404Y-72556643D01*
X91425404Y-72651881D01*
D12*
X117000000Y-37500000D03*
D13*
X118650000Y-37500000D03*
X118166726Y-38666726D03*
X117000000Y-39150000D03*
X115833274Y-38666726D03*
X115350000Y-37500000D03*
X115833274Y-36333274D03*
X117000000Y-35850000D03*
X118166726Y-36333274D03*
D12*
X117000000Y-70500000D03*
D13*
X118650000Y-70500000D03*
X118166726Y-71666726D03*
X117000000Y-72150000D03*
X115833274Y-71666726D03*
X115350000Y-70500000D03*
X115833274Y-69333274D03*
X117000000Y-68850000D03*
X118166726Y-69333274D03*
D14*
X68260000Y-47688500D03*
X66360000Y-47688500D03*
D15*
X91821000Y-43370500D03*
D16*
X94321000Y-43370500D03*
X96821000Y-43370500D03*
X99321000Y-43370500D03*
D15*
X111379000Y-64135000D03*
D16*
X108879000Y-64135000D03*
X106379000Y-64135000D03*
X103879000Y-64135000D03*
X101379000Y-64135000D03*
X98879000Y-64135000D03*
X96379000Y-64135000D03*
D17*
X76015500Y-49457500D03*
X80575500Y-49457500D03*
D18*
X78295500Y-55757500D03*
D19*
X78105000Y-62039500D03*
X71818500Y-66103500D03*
X71882000Y-57975500D03*
D20*
X115316000Y-61531500D03*
X105156000Y-61531500D03*
D12*
X55000000Y-37500000D03*
D13*
X56650000Y-37500000D03*
X56166726Y-38666726D03*
X55000000Y-39150000D03*
X53833274Y-38666726D03*
X53350000Y-37500000D03*
X53833274Y-36333274D03*
X55000000Y-35850000D03*
X56166726Y-36333274D03*
D21*
X72527500Y-42568500D03*
D22*
X78295500Y-42100500D03*
X59285500Y-58430500D03*
D21*
X59753500Y-64198500D03*
M02*
