G04 #@! TF.FileFunction,Legend,Top*
%FSLAX46Y46*%
G04 Gerber Fmt 4.6, Leading zero omitted, Abs format (unit mm)*
G04 Created by KiCad (PCBNEW 4.0.7) date 10/05/18 20:50:03*
%MOMM*%
%LPD*%
G01*
G04 APERTURE LIST*
%ADD10C,0.100000*%
%ADD11C,0.150000*%
%ADD12C,0.120000*%
%ADD13C,0.110000*%
G04 APERTURE END LIST*
D10*
D11*
X74930000Y-54662000D02*
X66530000Y-54662000D01*
X66530000Y-54662000D02*
X66530000Y-69342000D01*
X66530000Y-69342000D02*
X69970000Y-69342000D01*
X83330000Y-54662000D02*
X74930000Y-54662000D01*
X83330000Y-58812000D02*
X83330000Y-54662000D01*
X83330000Y-69342000D02*
X83330000Y-58812000D01*
X83330000Y-69342000D02*
X79810000Y-69342000D01*
X74930000Y-69342000D02*
X79930000Y-69342000D01*
X74930000Y-69342000D02*
X69930000Y-69342000D01*
D12*
X90074000Y-50288900D02*
X90774000Y-50288900D01*
X90774000Y-51488900D02*
X90074000Y-51488900D01*
X107538000Y-46701000D02*
X106838000Y-46701000D01*
X106838000Y-45501000D02*
X107538000Y-45501000D01*
X104486000Y-57562000D02*
X104486000Y-58262000D01*
X103286000Y-58262000D02*
X103286000Y-57562000D01*
X109759000Y-61376000D02*
X110459000Y-61376000D01*
X110459000Y-62576000D02*
X109759000Y-62576000D01*
X107026000Y-55530000D02*
X107026000Y-56230000D01*
X105826000Y-56230000D02*
X105826000Y-55530000D01*
X117644000Y-49889000D02*
X116544000Y-49889000D01*
X116544000Y-49889000D02*
X116544000Y-52489000D01*
X117644000Y-49889000D02*
X117644000Y-52489000D01*
X117644000Y-54969000D02*
X116544000Y-54969000D01*
X116544000Y-54969000D02*
X116544000Y-57569000D01*
X117644000Y-54969000D02*
X117644000Y-57569000D01*
X90671000Y-42820500D02*
X90671000Y-45020500D01*
X90671000Y-45020500D02*
X89171000Y-45020500D01*
X89171000Y-45020500D02*
X89171000Y-36520500D01*
X89171000Y-36520500D02*
X101971000Y-36520500D01*
X101971000Y-36520500D02*
X101971000Y-45020500D01*
X101971000Y-45020500D02*
X100471000Y-45020500D01*
X100471000Y-45020500D02*
X100471000Y-42820500D01*
X89171000Y-38020500D02*
X90671000Y-38020500D01*
X90671000Y-38020500D02*
X90671000Y-42820500D01*
X90671000Y-42820500D02*
X89171000Y-42820500D01*
X101971000Y-38020500D02*
X100471000Y-38020500D01*
X100471000Y-38020500D02*
X100471000Y-42820500D01*
X100471000Y-42820500D02*
X101971000Y-42820500D01*
X90671000Y-40870500D02*
X100471000Y-40870500D01*
X90671000Y-41870500D02*
X100471000Y-41870500D01*
X91821000Y-40870500D02*
X91501000Y-40870500D01*
X91501000Y-40870500D02*
X91501000Y-37450500D01*
X91501000Y-37450500D02*
X91821000Y-37370500D01*
X91821000Y-37370500D02*
X92141000Y-37450500D01*
X92141000Y-37450500D02*
X92141000Y-40870500D01*
X92141000Y-40870500D02*
X91821000Y-40870500D01*
X94321000Y-40870500D02*
X94001000Y-40870500D01*
X94001000Y-40870500D02*
X94001000Y-37450500D01*
X94001000Y-37450500D02*
X94321000Y-37370500D01*
X94321000Y-37370500D02*
X94641000Y-37450500D01*
X94641000Y-37450500D02*
X94641000Y-40870500D01*
X94641000Y-40870500D02*
X94321000Y-40870500D01*
X96821000Y-40870500D02*
X96501000Y-40870500D01*
X96501000Y-40870500D02*
X96501000Y-37450500D01*
X96501000Y-37450500D02*
X96821000Y-37370500D01*
X96821000Y-37370500D02*
X97141000Y-37450500D01*
X97141000Y-37450500D02*
X97141000Y-40870500D01*
X97141000Y-40870500D02*
X96821000Y-40870500D01*
X99321000Y-40870500D02*
X99001000Y-40870500D01*
X99001000Y-40870500D02*
X99001000Y-37450500D01*
X99001000Y-37450500D02*
X99321000Y-37370500D01*
X99321000Y-37370500D02*
X99641000Y-37450500D01*
X99641000Y-37450500D02*
X99641000Y-40870500D01*
X99641000Y-40870500D02*
X99321000Y-40870500D01*
X91821000Y-44870500D02*
X91521000Y-45470500D01*
X91521000Y-45470500D02*
X92121000Y-45470500D01*
X92121000Y-45470500D02*
X91821000Y-44870500D01*
X112529000Y-64685000D02*
X112529000Y-62485000D01*
X112529000Y-62485000D02*
X114029000Y-62485000D01*
X114029000Y-62485000D02*
X114029000Y-70985000D01*
X114029000Y-70985000D02*
X93729000Y-70985000D01*
X93729000Y-70985000D02*
X93729000Y-62485000D01*
X93729000Y-62485000D02*
X95229000Y-62485000D01*
X95229000Y-62485000D02*
X95229000Y-64685000D01*
X114029000Y-69485000D02*
X112529000Y-69485000D01*
X112529000Y-69485000D02*
X112529000Y-64685000D01*
X112529000Y-64685000D02*
X114029000Y-64685000D01*
X93729000Y-69485000D02*
X95229000Y-69485000D01*
X95229000Y-69485000D02*
X95229000Y-64685000D01*
X95229000Y-64685000D02*
X93729000Y-64685000D01*
X112529000Y-66635000D02*
X95229000Y-66635000D01*
X112529000Y-65635000D02*
X95229000Y-65635000D01*
X111379000Y-66635000D02*
X111699000Y-66635000D01*
X111699000Y-66635000D02*
X111699000Y-70055000D01*
X111699000Y-70055000D02*
X111379000Y-70135000D01*
X111379000Y-70135000D02*
X111059000Y-70055000D01*
X111059000Y-70055000D02*
X111059000Y-66635000D01*
X111059000Y-66635000D02*
X111379000Y-66635000D01*
X108879000Y-66635000D02*
X109199000Y-66635000D01*
X109199000Y-66635000D02*
X109199000Y-70055000D01*
X109199000Y-70055000D02*
X108879000Y-70135000D01*
X108879000Y-70135000D02*
X108559000Y-70055000D01*
X108559000Y-70055000D02*
X108559000Y-66635000D01*
X108559000Y-66635000D02*
X108879000Y-66635000D01*
X106379000Y-66635000D02*
X106699000Y-66635000D01*
X106699000Y-66635000D02*
X106699000Y-70055000D01*
X106699000Y-70055000D02*
X106379000Y-70135000D01*
X106379000Y-70135000D02*
X106059000Y-70055000D01*
X106059000Y-70055000D02*
X106059000Y-66635000D01*
X106059000Y-66635000D02*
X106379000Y-66635000D01*
X103879000Y-66635000D02*
X104199000Y-66635000D01*
X104199000Y-66635000D02*
X104199000Y-70055000D01*
X104199000Y-70055000D02*
X103879000Y-70135000D01*
X103879000Y-70135000D02*
X103559000Y-70055000D01*
X103559000Y-70055000D02*
X103559000Y-66635000D01*
X103559000Y-66635000D02*
X103879000Y-66635000D01*
X101379000Y-66635000D02*
X101699000Y-66635000D01*
X101699000Y-66635000D02*
X101699000Y-70055000D01*
X101699000Y-70055000D02*
X101379000Y-70135000D01*
X101379000Y-70135000D02*
X101059000Y-70055000D01*
X101059000Y-70055000D02*
X101059000Y-66635000D01*
X101059000Y-66635000D02*
X101379000Y-66635000D01*
X98879000Y-66635000D02*
X99199000Y-66635000D01*
X99199000Y-66635000D02*
X99199000Y-70055000D01*
X99199000Y-70055000D02*
X98879000Y-70135000D01*
X98879000Y-70135000D02*
X98559000Y-70055000D01*
X98559000Y-70055000D02*
X98559000Y-66635000D01*
X98559000Y-66635000D02*
X98879000Y-66635000D01*
X96379000Y-66635000D02*
X96699000Y-66635000D01*
X96699000Y-66635000D02*
X96699000Y-70055000D01*
X96699000Y-70055000D02*
X96379000Y-70135000D01*
X96379000Y-70135000D02*
X96059000Y-70055000D01*
X96059000Y-70055000D02*
X96059000Y-66635000D01*
X96059000Y-66635000D02*
X96379000Y-66635000D01*
X111379000Y-62635000D02*
X111679000Y-62035000D01*
X111679000Y-62035000D02*
X111079000Y-62035000D01*
X111079000Y-62035000D02*
X111379000Y-62635000D01*
X90924000Y-50298900D02*
X89924000Y-50298900D01*
X89924000Y-48938900D02*
X90924000Y-48938900D01*
X107688000Y-48051000D02*
X106688000Y-48051000D01*
X106688000Y-46691000D02*
X107688000Y-46691000D01*
X88688800Y-67990000D02*
X87688800Y-67990000D01*
X87688800Y-66630000D02*
X88688800Y-66630000D01*
X88688800Y-69260000D02*
X87688800Y-69260000D01*
X87688800Y-67900000D02*
X88688800Y-67900000D01*
X88688800Y-66720000D02*
X87688800Y-66720000D01*
X87688800Y-65360000D02*
X88688800Y-65360000D01*
X88688800Y-65450000D02*
X87688800Y-65450000D01*
X87688800Y-64090000D02*
X88688800Y-64090000D01*
X88688800Y-64180000D02*
X87688800Y-64180000D01*
X87688800Y-62820000D02*
X88688800Y-62820000D01*
X89924000Y-53256900D02*
X90924000Y-53256900D01*
X90924000Y-54616900D02*
X89924000Y-54616900D01*
X100338000Y-58629000D02*
X101338000Y-58629000D01*
X101338000Y-59989000D02*
X100338000Y-59989000D01*
X88688800Y-62910000D02*
X87688800Y-62910000D01*
X87688800Y-61550000D02*
X88688800Y-61550000D01*
X90924000Y-55886900D02*
X89924000Y-55886900D01*
X89924000Y-54526900D02*
X90924000Y-54526900D01*
X88688800Y-61640000D02*
X87688800Y-61640000D01*
X87688800Y-60280000D02*
X88688800Y-60280000D01*
X116504000Y-51189000D02*
X116504000Y-52189000D01*
X115144000Y-52189000D02*
X115144000Y-51189000D01*
X116504000Y-56269000D02*
X116504000Y-57269000D01*
X115144000Y-57269000D02*
X115144000Y-56269000D01*
X105836000Y-55380000D02*
X105836000Y-56380000D01*
X104476000Y-56380000D02*
X104476000Y-55380000D01*
X107422000Y-48748000D02*
X112542000Y-48748000D01*
X107422000Y-53868000D02*
X112542000Y-53868000D01*
X107422000Y-48748000D02*
X107422000Y-50478000D01*
X107422000Y-52138000D02*
X107422000Y-53868000D01*
X112542000Y-48748000D02*
X112542000Y-49328000D01*
X112542000Y-50988000D02*
X112542000Y-51628000D01*
X112542000Y-53288000D02*
X112542000Y-53868000D01*
X111192000Y-51308000D02*
G75*
G03X111192000Y-51308000I-1210000J0D01*
G01*
D11*
X95054000Y-49080000D02*
X95054000Y-49305000D01*
X102304000Y-49080000D02*
X102304000Y-49405000D01*
X102304000Y-56330000D02*
X102304000Y-56005000D01*
X95054000Y-56330000D02*
X95054000Y-56005000D01*
X95054000Y-49080000D02*
X95379000Y-49080000D01*
X95054000Y-56330000D02*
X95379000Y-56330000D01*
X102304000Y-56330000D02*
X101979000Y-56330000D01*
X102304000Y-49080000D02*
X101979000Y-49080000D01*
X95054000Y-49305000D02*
X93629000Y-49305000D01*
D12*
X109095000Y-54427000D02*
X109095000Y-55357000D01*
X109095000Y-57587000D02*
X109095000Y-56657000D01*
X109095000Y-57587000D02*
X112255000Y-57587000D01*
X109095000Y-54427000D02*
X110555000Y-54427000D01*
D11*
X116097000Y-45509000D02*
X115297000Y-45509000D01*
X116097000Y-47709000D02*
X115297000Y-47709000D01*
X115297000Y-47709000D02*
G75*
G02X115297000Y-45509000I0J1100000D01*
G01*
X116097000Y-47709000D02*
G75*
G03X116097000Y-45509000I0J1100000D01*
G01*
X113597000Y-48209000D02*
X113597000Y-48109000D01*
X113597000Y-45009000D02*
X113597000Y-45109000D01*
X113597000Y-45959000D02*
X113597000Y-47259000D01*
X117797000Y-45959000D02*
X117797000Y-47259000D01*
X117797000Y-45009000D02*
X117797000Y-45109000D01*
X117797000Y-48209000D02*
X117797000Y-48109000D01*
X113597000Y-48209000D02*
X117797000Y-48209000D01*
X113597000Y-45009000D02*
X117797000Y-45009000D01*
D12*
X107539000Y-57977000D02*
X107539000Y-59117000D01*
X107539000Y-59117000D02*
X109639000Y-59117000D01*
X107539000Y-57977000D02*
X109639000Y-57977000D01*
D11*
X68827500Y-45268500D02*
X73027500Y-45268500D01*
X73127500Y-38968500D02*
X68827500Y-38968500D01*
X82027500Y-45968500D02*
X76227500Y-45968500D01*
X76227500Y-45968500D02*
X75427500Y-45268500D01*
X75427500Y-45268500D02*
X73027500Y-45268500D01*
X73127500Y-38968500D02*
X75427500Y-38968500D01*
X76227500Y-38268500D02*
X75427500Y-38968500D01*
X82027500Y-38268500D02*
X76227500Y-38268500D01*
X82027500Y-38268500D02*
X82027500Y-45968500D01*
X68827500Y-45268500D02*
X68827500Y-38968500D01*
X56585500Y-54730500D02*
X56585500Y-58930500D01*
X62885500Y-59030500D02*
X62885500Y-54730500D01*
X55885500Y-67930500D02*
X55885500Y-62130500D01*
X55885500Y-62130500D02*
X56585500Y-61330500D01*
X56585500Y-61330500D02*
X56585500Y-58930500D01*
X62885500Y-59030500D02*
X62885500Y-61330500D01*
X63585500Y-62130500D02*
X62885500Y-61330500D01*
X63585500Y-67930500D02*
X63585500Y-62130500D01*
X63585500Y-67930500D02*
X55885500Y-67930500D01*
X56585500Y-54730500D02*
X62885500Y-54730500D01*
D12*
X63756000Y-45658500D02*
X63756000Y-47838500D01*
X63756000Y-52258500D02*
X63756000Y-50078500D01*
X70356000Y-46418500D02*
X70356000Y-47838500D01*
X70356000Y-51498500D02*
X70356000Y-50078500D01*
X63756000Y-45658500D02*
X69596000Y-45658500D01*
X69596000Y-45658500D02*
X70356000Y-46418500D01*
X70356000Y-51498500D02*
X69596000Y-52258500D01*
X69596000Y-52258500D02*
X63756000Y-52258500D01*
X89152000Y-40896000D02*
X86972000Y-40896000D01*
X82552000Y-40896000D02*
X84732000Y-40896000D01*
X88392000Y-47496000D02*
X86972000Y-47496000D01*
X83312000Y-47496000D02*
X84732000Y-47496000D01*
X89152000Y-40896000D02*
X89152000Y-46736000D01*
X89152000Y-46736000D02*
X88392000Y-47496000D01*
X83312000Y-47496000D02*
X82552000Y-46736000D01*
X82552000Y-46736000D02*
X82552000Y-40896000D01*
D11*
X63460381Y-61277405D02*
X64269905Y-61277405D01*
X64365143Y-61229786D01*
X64412762Y-61182167D01*
X64460381Y-61086929D01*
X64460381Y-60896452D01*
X64412762Y-60801214D01*
X64365143Y-60753595D01*
X64269905Y-60705976D01*
X63460381Y-60705976D01*
X63555619Y-60277405D02*
X63508000Y-60229786D01*
X63460381Y-60134548D01*
X63460381Y-59896452D01*
X63508000Y-59801214D01*
X63555619Y-59753595D01*
X63650857Y-59705976D01*
X63746095Y-59705976D01*
X63888952Y-59753595D01*
X64460381Y-60325024D01*
X64460381Y-59705976D01*
X87209334Y-51246043D02*
X87161715Y-51293662D01*
X87018858Y-51341281D01*
X86923620Y-51341281D01*
X86780762Y-51293662D01*
X86685524Y-51198424D01*
X86637905Y-51103186D01*
X86590286Y-50912710D01*
X86590286Y-50769852D01*
X86637905Y-50579376D01*
X86685524Y-50484138D01*
X86780762Y-50388900D01*
X86923620Y-50341281D01*
X87018858Y-50341281D01*
X87161715Y-50388900D01*
X87209334Y-50436519D01*
X88161715Y-51341281D02*
X87590286Y-51341281D01*
X87876000Y-51341281D02*
X87876000Y-50341281D01*
X87780762Y-50484138D01*
X87685524Y-50579376D01*
X87590286Y-50626995D01*
X110069334Y-46458143D02*
X110021715Y-46505762D01*
X109878858Y-46553381D01*
X109783620Y-46553381D01*
X109640762Y-46505762D01*
X109545524Y-46410524D01*
X109497905Y-46315286D01*
X109450286Y-46124810D01*
X109450286Y-45981952D01*
X109497905Y-45791476D01*
X109545524Y-45696238D01*
X109640762Y-45601000D01*
X109783620Y-45553381D01*
X109878858Y-45553381D01*
X110021715Y-45601000D01*
X110069334Y-45648619D01*
X110974096Y-45553381D02*
X110497905Y-45553381D01*
X110450286Y-46029571D01*
X110497905Y-45981952D01*
X110593143Y-45934333D01*
X110831239Y-45934333D01*
X110926477Y-45981952D01*
X110974096Y-46029571D01*
X111021715Y-46124810D01*
X111021715Y-46362905D01*
X110974096Y-46458143D01*
X110926477Y-46505762D01*
X110831239Y-46553381D01*
X110593143Y-46553381D01*
X110497905Y-46505762D01*
X110450286Y-46458143D01*
X104243143Y-60999666D02*
X104290762Y-61047285D01*
X104338381Y-61190142D01*
X104338381Y-61285380D01*
X104290762Y-61428238D01*
X104195524Y-61523476D01*
X104100286Y-61571095D01*
X103909810Y-61618714D01*
X103766952Y-61618714D01*
X103576476Y-61571095D01*
X103481238Y-61523476D01*
X103386000Y-61428238D01*
X103338381Y-61285380D01*
X103338381Y-61190142D01*
X103386000Y-61047285D01*
X103433619Y-60999666D01*
X103338381Y-60142523D02*
X103338381Y-60333000D01*
X103386000Y-60428238D01*
X103433619Y-60475857D01*
X103576476Y-60571095D01*
X103766952Y-60618714D01*
X104147905Y-60618714D01*
X104243143Y-60571095D01*
X104290762Y-60523476D01*
X104338381Y-60428238D01*
X104338381Y-60237761D01*
X104290762Y-60142523D01*
X104243143Y-60094904D01*
X104147905Y-60047285D01*
X103909810Y-60047285D01*
X103814571Y-60094904D01*
X103766952Y-60142523D01*
X103719333Y-60237761D01*
X103719333Y-60428238D01*
X103766952Y-60523476D01*
X103814571Y-60571095D01*
X103909810Y-60618714D01*
X107021334Y-62333143D02*
X106973715Y-62380762D01*
X106830858Y-62428381D01*
X106735620Y-62428381D01*
X106592762Y-62380762D01*
X106497524Y-62285524D01*
X106449905Y-62190286D01*
X106402286Y-61999810D01*
X106402286Y-61856952D01*
X106449905Y-61666476D01*
X106497524Y-61571238D01*
X106592762Y-61476000D01*
X106735620Y-61428381D01*
X106830858Y-61428381D01*
X106973715Y-61476000D01*
X107021334Y-61523619D01*
X107354667Y-61428381D02*
X108021334Y-61428381D01*
X107592762Y-62428381D01*
X106910143Y-59094666D02*
X106957762Y-59142285D01*
X107005381Y-59285142D01*
X107005381Y-59380380D01*
X106957762Y-59523238D01*
X106862524Y-59618476D01*
X106767286Y-59666095D01*
X106576810Y-59713714D01*
X106433952Y-59713714D01*
X106243476Y-59666095D01*
X106148238Y-59618476D01*
X106053000Y-59523238D01*
X106005381Y-59380380D01*
X106005381Y-59285142D01*
X106053000Y-59142285D01*
X106100619Y-59094666D01*
X106433952Y-58523238D02*
X106386333Y-58618476D01*
X106338714Y-58666095D01*
X106243476Y-58713714D01*
X106195857Y-58713714D01*
X106100619Y-58666095D01*
X106053000Y-58618476D01*
X106005381Y-58523238D01*
X106005381Y-58332761D01*
X106053000Y-58237523D01*
X106100619Y-58189904D01*
X106195857Y-58142285D01*
X106243476Y-58142285D01*
X106338714Y-58189904D01*
X106386333Y-58237523D01*
X106433952Y-58332761D01*
X106433952Y-58523238D01*
X106481571Y-58618476D01*
X106529190Y-58666095D01*
X106624429Y-58713714D01*
X106814905Y-58713714D01*
X106910143Y-58666095D01*
X106957762Y-58618476D01*
X107005381Y-58523238D01*
X107005381Y-58332761D01*
X106957762Y-58237523D01*
X106910143Y-58189904D01*
X106814905Y-58142285D01*
X106624429Y-58142285D01*
X106529190Y-58189904D01*
X106481571Y-58237523D01*
X106433952Y-58332761D01*
X118070381Y-52927095D02*
X118070381Y-52308047D01*
X118451333Y-52641381D01*
X118451333Y-52498523D01*
X118498952Y-52403285D01*
X118546571Y-52355666D01*
X118641810Y-52308047D01*
X118879905Y-52308047D01*
X118975143Y-52355666D01*
X119022762Y-52403285D01*
X119070381Y-52498523D01*
X119070381Y-52784238D01*
X119022762Y-52879476D01*
X118975143Y-52927095D01*
X118070381Y-52022333D02*
X119070381Y-51689000D01*
X118070381Y-51355666D01*
X118070381Y-51117571D02*
X118070381Y-50498523D01*
X118451333Y-50831857D01*
X118451333Y-50688999D01*
X118498952Y-50593761D01*
X118546571Y-50546142D01*
X118641810Y-50498523D01*
X118879905Y-50498523D01*
X118975143Y-50546142D01*
X119022762Y-50593761D01*
X119070381Y-50688999D01*
X119070381Y-50974714D01*
X119022762Y-51069952D01*
X118975143Y-51117571D01*
X118689429Y-58181714D02*
X118689429Y-57419809D01*
X119070381Y-57800761D02*
X118308476Y-57800761D01*
X118070381Y-56467428D02*
X118070381Y-56943619D01*
X118546571Y-56991238D01*
X118498952Y-56943619D01*
X118451333Y-56848381D01*
X118451333Y-56610285D01*
X118498952Y-56515047D01*
X118546571Y-56467428D01*
X118641810Y-56419809D01*
X118879905Y-56419809D01*
X118975143Y-56467428D01*
X119022762Y-56515047D01*
X119070381Y-56610285D01*
X119070381Y-56848381D01*
X119022762Y-56943619D01*
X118975143Y-56991238D01*
X118070381Y-56134095D02*
X119070381Y-55800762D01*
X118070381Y-55467428D01*
X93305619Y-35885381D02*
X93305619Y-34885381D01*
X93543714Y-34885381D01*
X93686572Y-34933000D01*
X93781810Y-35028238D01*
X93829429Y-35123476D01*
X93877048Y-35313952D01*
X93877048Y-35456810D01*
X93829429Y-35647286D01*
X93781810Y-35742524D01*
X93686572Y-35837762D01*
X93543714Y-35885381D01*
X93305619Y-35885381D01*
X94305619Y-35885381D02*
X94305619Y-35218714D01*
X94305619Y-34885381D02*
X94258000Y-34933000D01*
X94305619Y-34980619D01*
X94353238Y-34933000D01*
X94305619Y-34885381D01*
X94305619Y-34980619D01*
X94734190Y-35837762D02*
X94829428Y-35885381D01*
X95019904Y-35885381D01*
X95115143Y-35837762D01*
X95162762Y-35742524D01*
X95162762Y-35694905D01*
X95115143Y-35599667D01*
X95019904Y-35552048D01*
X94877047Y-35552048D01*
X94781809Y-35504429D01*
X94734190Y-35409190D01*
X94734190Y-35361571D01*
X94781809Y-35266333D01*
X94877047Y-35218714D01*
X95019904Y-35218714D01*
X95115143Y-35266333D01*
X95591333Y-35218714D02*
X95591333Y-36218714D01*
X95591333Y-35266333D02*
X95686571Y-35218714D01*
X95877048Y-35218714D01*
X95972286Y-35266333D01*
X96019905Y-35313952D01*
X96067524Y-35409190D01*
X96067524Y-35694905D01*
X96019905Y-35790143D01*
X95972286Y-35837762D01*
X95877048Y-35885381D01*
X95686571Y-35885381D01*
X95591333Y-35837762D01*
X96638952Y-35885381D02*
X96543714Y-35837762D01*
X96496095Y-35742524D01*
X96496095Y-34885381D01*
X97448477Y-35885381D02*
X97448477Y-35361571D01*
X97400858Y-35266333D01*
X97305620Y-35218714D01*
X97115143Y-35218714D01*
X97019905Y-35266333D01*
X97448477Y-35837762D02*
X97353239Y-35885381D01*
X97115143Y-35885381D01*
X97019905Y-35837762D01*
X96972286Y-35742524D01*
X96972286Y-35647286D01*
X97019905Y-35552048D01*
X97115143Y-35504429D01*
X97353239Y-35504429D01*
X97448477Y-35456810D01*
X97829429Y-35218714D02*
X98067524Y-35885381D01*
X98305620Y-35218714D02*
X98067524Y-35885381D01*
X97972286Y-36123476D01*
X97924667Y-36171095D01*
X97829429Y-36218714D01*
X101949500Y-71524881D02*
X102187595Y-72524881D01*
X102378072Y-71810595D01*
X102568548Y-72524881D01*
X102806643Y-71524881D01*
X103187595Y-72524881D02*
X103187595Y-71858214D01*
X103187595Y-72048690D02*
X103235214Y-71953452D01*
X103282833Y-71905833D01*
X103378071Y-71858214D01*
X103473310Y-71858214D01*
X103806643Y-72524881D02*
X103806643Y-71858214D01*
X103806643Y-71524881D02*
X103759024Y-71572500D01*
X103806643Y-71620119D01*
X103854262Y-71572500D01*
X103806643Y-71524881D01*
X103806643Y-71620119D01*
X104139976Y-71858214D02*
X104520928Y-71858214D01*
X104282833Y-71524881D02*
X104282833Y-72382024D01*
X104330452Y-72477262D01*
X104425690Y-72524881D01*
X104520928Y-72524881D01*
X105235215Y-72477262D02*
X105139977Y-72524881D01*
X104949500Y-72524881D01*
X104854262Y-72477262D01*
X104806643Y-72382024D01*
X104806643Y-72001071D01*
X104854262Y-71905833D01*
X104949500Y-71858214D01*
X105139977Y-71858214D01*
X105235215Y-71905833D01*
X105282834Y-72001071D01*
X105282834Y-72096310D01*
X104806643Y-72191548D01*
X105711405Y-72524881D02*
X105711405Y-71858214D01*
X105711405Y-72048690D02*
X105759024Y-71953452D01*
X105806643Y-71905833D01*
X105901881Y-71858214D01*
X105997120Y-71858214D01*
X87209334Y-50071281D02*
X86876000Y-49595090D01*
X86637905Y-50071281D02*
X86637905Y-49071281D01*
X87018858Y-49071281D01*
X87114096Y-49118900D01*
X87161715Y-49166519D01*
X87209334Y-49261757D01*
X87209334Y-49404614D01*
X87161715Y-49499852D01*
X87114096Y-49547471D01*
X87018858Y-49595090D01*
X86637905Y-49595090D01*
X88161715Y-50071281D02*
X87590286Y-50071281D01*
X87876000Y-50071281D02*
X87876000Y-49071281D01*
X87780762Y-49214138D01*
X87685524Y-49309376D01*
X87590286Y-49356995D01*
X110069334Y-47823381D02*
X109736000Y-47347190D01*
X109497905Y-47823381D02*
X109497905Y-46823381D01*
X109878858Y-46823381D01*
X109974096Y-46871000D01*
X110021715Y-46918619D01*
X110069334Y-47013857D01*
X110069334Y-47156714D01*
X110021715Y-47251952D01*
X109974096Y-47299571D01*
X109878858Y-47347190D01*
X109497905Y-47347190D01*
X110450286Y-46918619D02*
X110497905Y-46871000D01*
X110593143Y-46823381D01*
X110831239Y-46823381D01*
X110926477Y-46871000D01*
X110974096Y-46918619D01*
X111021715Y-47013857D01*
X111021715Y-47109095D01*
X110974096Y-47251952D01*
X110402667Y-47823381D01*
X111021715Y-47823381D01*
X91070134Y-67762381D02*
X90736800Y-67286190D01*
X90498705Y-67762381D02*
X90498705Y-66762381D01*
X90879658Y-66762381D01*
X90974896Y-66810000D01*
X91022515Y-66857619D01*
X91070134Y-66952857D01*
X91070134Y-67095714D01*
X91022515Y-67190952D01*
X90974896Y-67238571D01*
X90879658Y-67286190D01*
X90498705Y-67286190D01*
X91403467Y-66762381D02*
X92022515Y-66762381D01*
X91689181Y-67143333D01*
X91832039Y-67143333D01*
X91927277Y-67190952D01*
X91974896Y-67238571D01*
X92022515Y-67333810D01*
X92022515Y-67571905D01*
X91974896Y-67667143D01*
X91927277Y-67714762D01*
X91832039Y-67762381D01*
X91546324Y-67762381D01*
X91451086Y-67714762D01*
X91403467Y-67667143D01*
X91019334Y-69032381D02*
X90686000Y-68556190D01*
X90447905Y-69032381D02*
X90447905Y-68032381D01*
X90828858Y-68032381D01*
X90924096Y-68080000D01*
X90971715Y-68127619D01*
X91019334Y-68222857D01*
X91019334Y-68365714D01*
X90971715Y-68460952D01*
X90924096Y-68508571D01*
X90828858Y-68556190D01*
X90447905Y-68556190D01*
X91876477Y-68365714D02*
X91876477Y-69032381D01*
X91638381Y-67984762D02*
X91400286Y-68699048D01*
X92019334Y-68699048D01*
X91070134Y-66568581D02*
X90736800Y-66092390D01*
X90498705Y-66568581D02*
X90498705Y-65568581D01*
X90879658Y-65568581D01*
X90974896Y-65616200D01*
X91022515Y-65663819D01*
X91070134Y-65759057D01*
X91070134Y-65901914D01*
X91022515Y-65997152D01*
X90974896Y-66044771D01*
X90879658Y-66092390D01*
X90498705Y-66092390D01*
X91974896Y-65568581D02*
X91498705Y-65568581D01*
X91451086Y-66044771D01*
X91498705Y-65997152D01*
X91593943Y-65949533D01*
X91832039Y-65949533D01*
X91927277Y-65997152D01*
X91974896Y-66044771D01*
X92022515Y-66140010D01*
X92022515Y-66378105D01*
X91974896Y-66473343D01*
X91927277Y-66520962D01*
X91832039Y-66568581D01*
X91593943Y-66568581D01*
X91498705Y-66520962D01*
X91451086Y-66473343D01*
X91070134Y-65222381D02*
X90736800Y-64746190D01*
X90498705Y-65222381D02*
X90498705Y-64222381D01*
X90879658Y-64222381D01*
X90974896Y-64270000D01*
X91022515Y-64317619D01*
X91070134Y-64412857D01*
X91070134Y-64555714D01*
X91022515Y-64650952D01*
X90974896Y-64698571D01*
X90879658Y-64746190D01*
X90498705Y-64746190D01*
X91927277Y-64222381D02*
X91736800Y-64222381D01*
X91641562Y-64270000D01*
X91593943Y-64317619D01*
X91498705Y-64460476D01*
X91451086Y-64650952D01*
X91451086Y-65031905D01*
X91498705Y-65127143D01*
X91546324Y-65174762D01*
X91641562Y-65222381D01*
X91832039Y-65222381D01*
X91927277Y-65174762D01*
X91974896Y-65127143D01*
X92022515Y-65031905D01*
X92022515Y-64793810D01*
X91974896Y-64698571D01*
X91927277Y-64650952D01*
X91832039Y-64603333D01*
X91641562Y-64603333D01*
X91546324Y-64650952D01*
X91498705Y-64698571D01*
X91451086Y-64793810D01*
X91070134Y-63952381D02*
X90736800Y-63476190D01*
X90498705Y-63952381D02*
X90498705Y-62952381D01*
X90879658Y-62952381D01*
X90974896Y-63000000D01*
X91022515Y-63047619D01*
X91070134Y-63142857D01*
X91070134Y-63285714D01*
X91022515Y-63380952D01*
X90974896Y-63428571D01*
X90879658Y-63476190D01*
X90498705Y-63476190D01*
X91403467Y-62952381D02*
X92070134Y-62952381D01*
X91641562Y-63952381D01*
X87209334Y-54389281D02*
X86876000Y-53913090D01*
X86637905Y-54389281D02*
X86637905Y-53389281D01*
X87018858Y-53389281D01*
X87114096Y-53436900D01*
X87161715Y-53484519D01*
X87209334Y-53579757D01*
X87209334Y-53722614D01*
X87161715Y-53817852D01*
X87114096Y-53865471D01*
X87018858Y-53913090D01*
X86637905Y-53913090D01*
X87780762Y-53817852D02*
X87685524Y-53770233D01*
X87637905Y-53722614D01*
X87590286Y-53627376D01*
X87590286Y-53579757D01*
X87637905Y-53484519D01*
X87685524Y-53436900D01*
X87780762Y-53389281D01*
X87971239Y-53389281D01*
X88066477Y-53436900D01*
X88114096Y-53484519D01*
X88161715Y-53579757D01*
X88161715Y-53627376D01*
X88114096Y-53722614D01*
X88066477Y-53770233D01*
X87971239Y-53817852D01*
X87780762Y-53817852D01*
X87685524Y-53865471D01*
X87637905Y-53913090D01*
X87590286Y-54008329D01*
X87590286Y-54198805D01*
X87637905Y-54294043D01*
X87685524Y-54341662D01*
X87780762Y-54389281D01*
X87971239Y-54389281D01*
X88066477Y-54341662D01*
X88114096Y-54294043D01*
X88161715Y-54198805D01*
X88161715Y-54008329D01*
X88114096Y-53913090D01*
X88066477Y-53865471D01*
X87971239Y-53817852D01*
X100671334Y-61211381D02*
X100338000Y-60735190D01*
X100099905Y-61211381D02*
X100099905Y-60211381D01*
X100480858Y-60211381D01*
X100576096Y-60259000D01*
X100623715Y-60306619D01*
X100671334Y-60401857D01*
X100671334Y-60544714D01*
X100623715Y-60639952D01*
X100576096Y-60687571D01*
X100480858Y-60735190D01*
X100099905Y-60735190D01*
X101147524Y-61211381D02*
X101338000Y-61211381D01*
X101433239Y-61163762D01*
X101480858Y-61116143D01*
X101576096Y-60973286D01*
X101623715Y-60782810D01*
X101623715Y-60401857D01*
X101576096Y-60306619D01*
X101528477Y-60259000D01*
X101433239Y-60211381D01*
X101242762Y-60211381D01*
X101147524Y-60259000D01*
X101099905Y-60306619D01*
X101052286Y-60401857D01*
X101052286Y-60639952D01*
X101099905Y-60735190D01*
X101147524Y-60782810D01*
X101242762Y-60830429D01*
X101433239Y-60830429D01*
X101528477Y-60782810D01*
X101576096Y-60735190D01*
X101623715Y-60639952D01*
X91101943Y-62682381D02*
X90768609Y-62206190D01*
X90530514Y-62682381D02*
X90530514Y-61682381D01*
X90911467Y-61682381D01*
X91006705Y-61730000D01*
X91054324Y-61777619D01*
X91101943Y-61872857D01*
X91101943Y-62015714D01*
X91054324Y-62110952D01*
X91006705Y-62158571D01*
X90911467Y-62206190D01*
X90530514Y-62206190D01*
X92054324Y-62682381D02*
X91482895Y-62682381D01*
X91768609Y-62682381D02*
X91768609Y-61682381D01*
X91673371Y-61825238D01*
X91578133Y-61920476D01*
X91482895Y-61968095D01*
X92673371Y-61682381D02*
X92768610Y-61682381D01*
X92863848Y-61730000D01*
X92911467Y-61777619D01*
X92959086Y-61872857D01*
X93006705Y-62063333D01*
X93006705Y-62301429D01*
X92959086Y-62491905D01*
X92911467Y-62587143D01*
X92863848Y-62634762D01*
X92768610Y-62682381D01*
X92673371Y-62682381D01*
X92578133Y-62634762D01*
X92530514Y-62587143D01*
X92482895Y-62491905D01*
X92435276Y-62301429D01*
X92435276Y-62063333D01*
X92482895Y-61872857D01*
X92530514Y-61777619D01*
X92578133Y-61730000D01*
X92673371Y-61682381D01*
X86479143Y-55659281D02*
X86145809Y-55183090D01*
X85907714Y-55659281D02*
X85907714Y-54659281D01*
X86288667Y-54659281D01*
X86383905Y-54706900D01*
X86431524Y-54754519D01*
X86479143Y-54849757D01*
X86479143Y-54992614D01*
X86431524Y-55087852D01*
X86383905Y-55135471D01*
X86288667Y-55183090D01*
X85907714Y-55183090D01*
X87431524Y-55659281D02*
X86860095Y-55659281D01*
X87145809Y-55659281D02*
X87145809Y-54659281D01*
X87050571Y-54802138D01*
X86955333Y-54897376D01*
X86860095Y-54944995D01*
X88383905Y-55659281D02*
X87812476Y-55659281D01*
X88098190Y-55659281D02*
X88098190Y-54659281D01*
X88002952Y-54802138D01*
X87907714Y-54897376D01*
X87812476Y-54944995D01*
X91101943Y-61412381D02*
X90768609Y-60936190D01*
X90530514Y-61412381D02*
X90530514Y-60412381D01*
X90911467Y-60412381D01*
X91006705Y-60460000D01*
X91054324Y-60507619D01*
X91101943Y-60602857D01*
X91101943Y-60745714D01*
X91054324Y-60840952D01*
X91006705Y-60888571D01*
X90911467Y-60936190D01*
X90530514Y-60936190D01*
X92054324Y-61412381D02*
X91482895Y-61412381D01*
X91768609Y-61412381D02*
X91768609Y-60412381D01*
X91673371Y-60555238D01*
X91578133Y-60650476D01*
X91482895Y-60698095D01*
X92435276Y-60507619D02*
X92482895Y-60460000D01*
X92578133Y-60412381D01*
X92816229Y-60412381D01*
X92911467Y-60460000D01*
X92959086Y-60507619D01*
X93006705Y-60602857D01*
X93006705Y-60698095D01*
X92959086Y-60840952D01*
X92387657Y-61412381D01*
X93006705Y-61412381D01*
X114879381Y-52204857D02*
X114403190Y-52538191D01*
X114879381Y-52776286D02*
X113879381Y-52776286D01*
X113879381Y-52395333D01*
X113927000Y-52300095D01*
X113974619Y-52252476D01*
X114069857Y-52204857D01*
X114212714Y-52204857D01*
X114307952Y-52252476D01*
X114355571Y-52300095D01*
X114403190Y-52395333D01*
X114403190Y-52776286D01*
X114879381Y-51252476D02*
X114879381Y-51823905D01*
X114879381Y-51538191D02*
X113879381Y-51538191D01*
X114022238Y-51633429D01*
X114117476Y-51728667D01*
X114165095Y-51823905D01*
X113879381Y-50919143D02*
X113879381Y-50300095D01*
X114260333Y-50633429D01*
X114260333Y-50490571D01*
X114307952Y-50395333D01*
X114355571Y-50347714D01*
X114450810Y-50300095D01*
X114688905Y-50300095D01*
X114784143Y-50347714D01*
X114831762Y-50395333D01*
X114879381Y-50490571D01*
X114879381Y-50776286D01*
X114831762Y-50871524D01*
X114784143Y-50919143D01*
X114752381Y-57411857D02*
X114276190Y-57745191D01*
X114752381Y-57983286D02*
X113752381Y-57983286D01*
X113752381Y-57602333D01*
X113800000Y-57507095D01*
X113847619Y-57459476D01*
X113942857Y-57411857D01*
X114085714Y-57411857D01*
X114180952Y-57459476D01*
X114228571Y-57507095D01*
X114276190Y-57602333D01*
X114276190Y-57983286D01*
X114752381Y-56459476D02*
X114752381Y-57030905D01*
X114752381Y-56745191D02*
X113752381Y-56745191D01*
X113895238Y-56840429D01*
X113990476Y-56935667D01*
X114038095Y-57030905D01*
X114085714Y-55602333D02*
X114752381Y-55602333D01*
X113704762Y-55840429D02*
X114419048Y-56078524D01*
X114419048Y-55459476D01*
X105608381Y-59951857D02*
X105132190Y-60285191D01*
X105608381Y-60523286D02*
X104608381Y-60523286D01*
X104608381Y-60142333D01*
X104656000Y-60047095D01*
X104703619Y-59999476D01*
X104798857Y-59951857D01*
X104941714Y-59951857D01*
X105036952Y-59999476D01*
X105084571Y-60047095D01*
X105132190Y-60142333D01*
X105132190Y-60523286D01*
X105608381Y-58999476D02*
X105608381Y-59570905D01*
X105608381Y-59285191D02*
X104608381Y-59285191D01*
X104751238Y-59380429D01*
X104846476Y-59475667D01*
X104894095Y-59570905D01*
X104608381Y-58094714D02*
X104608381Y-58570905D01*
X105084571Y-58618524D01*
X105036952Y-58570905D01*
X104989333Y-58475667D01*
X104989333Y-58237571D01*
X105036952Y-58142333D01*
X105084571Y-58094714D01*
X105179810Y-58047095D01*
X105417905Y-58047095D01*
X105513143Y-58094714D01*
X105560762Y-58142333D01*
X105608381Y-58237571D01*
X105608381Y-58475667D01*
X105560762Y-58570905D01*
X105513143Y-58618524D01*
X104941762Y-49982381D02*
X104608428Y-49506190D01*
X104370333Y-49982381D02*
X104370333Y-48982381D01*
X104751286Y-48982381D01*
X104846524Y-49030000D01*
X104894143Y-49077619D01*
X104941762Y-49172857D01*
X104941762Y-49315714D01*
X104894143Y-49410952D01*
X104846524Y-49458571D01*
X104751286Y-49506190D01*
X104370333Y-49506190D01*
X105227476Y-48982381D02*
X105560809Y-49982381D01*
X105894143Y-48982381D01*
X106751286Y-49982381D02*
X106179857Y-49982381D01*
X106465571Y-49982381D02*
X106465571Y-48982381D01*
X106370333Y-49125238D01*
X106275095Y-49220476D01*
X106179857Y-49268095D01*
X110490167Y-36853762D02*
X110633024Y-36901381D01*
X110871120Y-36901381D01*
X110966358Y-36853762D01*
X111013977Y-36806143D01*
X111061596Y-36710905D01*
X111061596Y-36615667D01*
X111013977Y-36520429D01*
X110966358Y-36472810D01*
X110871120Y-36425190D01*
X110680643Y-36377571D01*
X110585405Y-36329952D01*
X110537786Y-36282333D01*
X110490167Y-36187095D01*
X110490167Y-36091857D01*
X110537786Y-35996619D01*
X110585405Y-35949000D01*
X110680643Y-35901381D01*
X110918739Y-35901381D01*
X111061596Y-35949000D01*
X111394929Y-35901381D02*
X111633024Y-36901381D01*
X111823501Y-36187095D01*
X112013977Y-36901381D01*
X112252072Y-35901381D01*
X113156834Y-36901381D02*
X112585405Y-36901381D01*
X112871119Y-36901381D02*
X112871119Y-35901381D01*
X112775881Y-36044238D01*
X112680643Y-36139476D01*
X112585405Y-36187095D01*
X92964095Y-47458381D02*
X92964095Y-48267905D01*
X93011714Y-48363143D01*
X93059333Y-48410762D01*
X93154571Y-48458381D01*
X93345048Y-48458381D01*
X93440286Y-48410762D01*
X93487905Y-48363143D01*
X93535524Y-48267905D01*
X93535524Y-47458381D01*
X94535524Y-48458381D02*
X93964095Y-48458381D01*
X94249809Y-48458381D02*
X94249809Y-47458381D01*
X94154571Y-47601238D01*
X94059333Y-47696476D01*
X93964095Y-47744095D01*
X110617095Y-57872381D02*
X110617095Y-58681905D01*
X110664714Y-58777143D01*
X110712333Y-58824762D01*
X110807571Y-58872381D01*
X110998048Y-58872381D01*
X111093286Y-58824762D01*
X111140905Y-58777143D01*
X111188524Y-58681905D01*
X111188524Y-57872381D01*
X111569476Y-57872381D02*
X112188524Y-57872381D01*
X111855190Y-58253333D01*
X111998048Y-58253333D01*
X112093286Y-58300952D01*
X112140905Y-58348571D01*
X112188524Y-58443810D01*
X112188524Y-58681905D01*
X112140905Y-58777143D01*
X112093286Y-58824762D01*
X111998048Y-58872381D01*
X111712333Y-58872381D01*
X111617095Y-58824762D01*
X111569476Y-58777143D01*
D13*
X114830334Y-44385667D02*
X114597000Y-44052333D01*
X114430334Y-44385667D02*
X114430334Y-43685667D01*
X114697000Y-43685667D01*
X114763667Y-43719000D01*
X114797000Y-43752333D01*
X114830334Y-43819000D01*
X114830334Y-43919000D01*
X114797000Y-43985667D01*
X114763667Y-44019000D01*
X114697000Y-44052333D01*
X114430334Y-44052333D01*
X115397000Y-44352333D02*
X115330334Y-44385667D01*
X115197000Y-44385667D01*
X115130334Y-44352333D01*
X115097000Y-44285667D01*
X115097000Y-44019000D01*
X115130334Y-43952333D01*
X115197000Y-43919000D01*
X115330334Y-43919000D01*
X115397000Y-43952333D01*
X115430334Y-44019000D01*
X115430334Y-44085667D01*
X115097000Y-44152333D01*
X115697000Y-44352333D02*
X115763667Y-44385667D01*
X115897000Y-44385667D01*
X115963667Y-44352333D01*
X115997000Y-44285667D01*
X115997000Y-44252333D01*
X115963667Y-44185667D01*
X115897000Y-44152333D01*
X115797000Y-44152333D01*
X115730334Y-44119000D01*
X115697000Y-44052333D01*
X115697000Y-44019000D01*
X115730334Y-43952333D01*
X115797000Y-43919000D01*
X115897000Y-43919000D01*
X115963667Y-43952333D01*
X116563667Y-44352333D02*
X116497001Y-44385667D01*
X116363667Y-44385667D01*
X116297001Y-44352333D01*
X116263667Y-44285667D01*
X116263667Y-44019000D01*
X116297001Y-43952333D01*
X116363667Y-43919000D01*
X116497001Y-43919000D01*
X116563667Y-43952333D01*
X116597001Y-44019000D01*
X116597001Y-44085667D01*
X116263667Y-44152333D01*
X116797001Y-43919000D02*
X117063667Y-43919000D01*
X116897001Y-43685667D02*
X116897001Y-44285667D01*
X116930334Y-44352333D01*
X116997001Y-44385667D01*
X117063667Y-44385667D01*
D11*
X108037405Y-60459881D02*
X108037405Y-59459881D01*
X108275500Y-59459881D01*
X108418358Y-59507500D01*
X108513596Y-59602738D01*
X108561215Y-59697976D01*
X108608834Y-59888452D01*
X108608834Y-60031310D01*
X108561215Y-60221786D01*
X108513596Y-60317024D01*
X108418358Y-60412262D01*
X108275500Y-60459881D01*
X108037405Y-60459881D01*
X109561215Y-60459881D02*
X108989786Y-60459881D01*
X109275500Y-60459881D02*
X109275500Y-59459881D01*
X109180262Y-59602738D01*
X109085024Y-59697976D01*
X108989786Y-59745595D01*
X72977524Y-37361881D02*
X73310857Y-38361881D01*
X73644191Y-37361881D01*
X74406096Y-38314262D02*
X74310858Y-38361881D01*
X74120381Y-38361881D01*
X74025143Y-38314262D01*
X73977524Y-38266643D01*
X73929905Y-38171405D01*
X73929905Y-37885690D01*
X73977524Y-37790452D01*
X74025143Y-37742833D01*
X74120381Y-37695214D01*
X74310858Y-37695214D01*
X74406096Y-37742833D01*
X75263239Y-38314262D02*
X75168001Y-38361881D01*
X74977524Y-38361881D01*
X74882286Y-38314262D01*
X74834667Y-38266643D01*
X74787048Y-38171405D01*
X74787048Y-37885690D01*
X74834667Y-37790452D01*
X74882286Y-37742833D01*
X74977524Y-37695214D01*
X75168001Y-37695214D01*
X75263239Y-37742833D01*
X55506881Y-63428334D02*
X54506881Y-63428334D01*
X55221167Y-63095000D01*
X54506881Y-62761667D01*
X55506881Y-62761667D01*
X55506881Y-62142620D02*
X55459262Y-62237858D01*
X55411643Y-62285477D01*
X55316405Y-62333096D01*
X55030690Y-62333096D01*
X54935452Y-62285477D01*
X54887833Y-62237858D01*
X54840214Y-62142620D01*
X54840214Y-61999762D01*
X54887833Y-61904524D01*
X54935452Y-61856905D01*
X55030690Y-61809286D01*
X55316405Y-61809286D01*
X55411643Y-61856905D01*
X55459262Y-61904524D01*
X55506881Y-61999762D01*
X55506881Y-62142620D01*
X54840214Y-61523572D02*
X54840214Y-61142620D01*
X54506881Y-61380715D02*
X55364024Y-61380715D01*
X55459262Y-61333096D01*
X55506881Y-61237858D01*
X55506881Y-61142620D01*
X55506881Y-60666429D02*
X55459262Y-60761667D01*
X55411643Y-60809286D01*
X55316405Y-60856905D01*
X55030690Y-60856905D01*
X54935452Y-60809286D01*
X54887833Y-60761667D01*
X54840214Y-60666429D01*
X54840214Y-60523571D01*
X54887833Y-60428333D01*
X54935452Y-60380714D01*
X55030690Y-60333095D01*
X55316405Y-60333095D01*
X55411643Y-60380714D01*
X55459262Y-60428333D01*
X55506881Y-60523571D01*
X55506881Y-60666429D01*
X55506881Y-59904524D02*
X54840214Y-59904524D01*
X55030690Y-59904524D02*
X54935452Y-59856905D01*
X54887833Y-59809286D01*
X54840214Y-59714048D01*
X54840214Y-59618809D01*
X66889334Y-44755643D02*
X66841715Y-44803262D01*
X66698858Y-44850881D01*
X66603620Y-44850881D01*
X66460762Y-44803262D01*
X66365524Y-44708024D01*
X66317905Y-44612786D01*
X66270286Y-44422310D01*
X66270286Y-44279452D01*
X66317905Y-44088976D01*
X66365524Y-43993738D01*
X66460762Y-43898500D01*
X66603620Y-43850881D01*
X66698858Y-43850881D01*
X66841715Y-43898500D01*
X66889334Y-43946119D01*
X67222667Y-43850881D02*
X67841715Y-43850881D01*
X67508381Y-44231833D01*
X67651239Y-44231833D01*
X67746477Y-44279452D01*
X67794096Y-44327071D01*
X67841715Y-44422310D01*
X67841715Y-44660405D01*
X67794096Y-44755643D01*
X67746477Y-44803262D01*
X67651239Y-44850881D01*
X67365524Y-44850881D01*
X67270286Y-44803262D01*
X67222667Y-44755643D01*
X70955048Y-46019929D02*
X71716953Y-46019929D01*
X71336001Y-46400881D02*
X71336001Y-45638976D01*
X90769143Y-44362666D02*
X90816762Y-44410285D01*
X90864381Y-44553142D01*
X90864381Y-44648380D01*
X90816762Y-44791238D01*
X90721524Y-44886476D01*
X90626286Y-44934095D01*
X90435810Y-44981714D01*
X90292952Y-44981714D01*
X90102476Y-44934095D01*
X90007238Y-44886476D01*
X89912000Y-44791238D01*
X89864381Y-44648380D01*
X89864381Y-44553142D01*
X89912000Y-44410285D01*
X89959619Y-44362666D01*
X89959619Y-43981714D02*
X89912000Y-43934095D01*
X89864381Y-43838857D01*
X89864381Y-43600761D01*
X89912000Y-43505523D01*
X89959619Y-43457904D01*
X90054857Y-43410285D01*
X90150095Y-43410285D01*
X90292952Y-43457904D01*
X90864381Y-44029333D01*
X90864381Y-43410285D01*
X88933429Y-48856952D02*
X88933429Y-48095047D01*
X89314381Y-48475999D02*
X88552476Y-48475999D01*
M02*
