M48
;DRILL file {KiCad 4.0.7} date 10/05/18 20:50:16
;FORMAT={3:3/ absolute / metric / suppress leading zeros}
FMAT,2
METRIC,TZ
T1C0.300
T2C0.400
T3C0.900
T4C1.000
T5C1.001
T6C1.300
T7C2.200
%
G90
G05
M71
T1
X66294Y-63119
X66294Y-64135
X66358Y-59817
X66358Y-60833
X67310Y-59817
X67310Y-60833
X67310Y-63119
X67310Y-64135
X68326Y-59817
X68326Y-60833
X68326Y-63119
X68326Y-64135
X69342Y-56007
X69342Y-57023
X69342Y-57848
X69342Y-58801
X69342Y-59817
X69342Y-59817
X69342Y-59817
X69342Y-59817
X69342Y-59817
X69342Y-59817
X69342Y-59817
X69342Y-59817
X69342Y-60833
X69342Y-60833
X69342Y-60833
X69342Y-60833
X69342Y-60833
X69342Y-60833
X69342Y-60833
X69342Y-60833
X69342Y-63119
X69342Y-64135
X69342Y-65087
X69342Y-66040
X69342Y-67056
X69342Y-68072
X70358Y-56007
X70358Y-57023
X70358Y-57848
X70358Y-58801
X70358Y-59817
X70358Y-59817
X70358Y-59817
X70358Y-59817
X70358Y-59817
X70358Y-59817
X70358Y-59817
X70358Y-59817
X70358Y-60833
X70358Y-60833
X70358Y-60833
X70358Y-60833
X70358Y-60833
X70358Y-60833
X70358Y-60833
X70358Y-60833
X70358Y-63119
X70358Y-64135
X70358Y-65087
X70358Y-66040
X70358Y-67056
X70358Y-68072
X71374Y-56007
X71374Y-57023
X71374Y-58801
X71374Y-59817
X71374Y-59817
X71374Y-59817
X71374Y-59817
X71374Y-60833
X71374Y-60833
X71374Y-60833
X71374Y-60833
X71374Y-63119
X71374Y-64135
X71374Y-65087
X71438Y-67056
X71438Y-68072
X72390Y-56007
X72390Y-57023
X72390Y-58801
X72390Y-59817
X72390Y-59817
X72390Y-59817
X72390Y-59817
X72390Y-60833
X72390Y-60833
X72390Y-60833
X72390Y-60833
X72390Y-63119
X72390Y-64135
X72390Y-65087
X72390Y-67056
X72390Y-68072
X73406Y-56007
X73406Y-57023
X73406Y-57848
X73406Y-58801
X73406Y-59817
X73406Y-60833
X73406Y-63119
X73406Y-64135
X73406Y-65087
X73406Y-66040
X73406Y-67056
X73406Y-68072
X74422Y-56007
X74422Y-57023
X74422Y-57848
X74422Y-58801
X74422Y-59817
X74422Y-60833
X74422Y-63119
X74422Y-64135
X74422Y-65087
X74422Y-66040
X74422Y-67056
X74422Y-68072
X77280Y-38926
X77280Y-39878
X77280Y-40831
X77280Y-41783
X77280Y-42735
X77280Y-43688
X77280Y-44640
X77280Y-45593
X77280Y-46609
X77280Y-47625
X77280Y-48641
X77280Y-49657
X78232Y-38926
X78232Y-45593
X78232Y-46609
X78232Y-47625
X78232Y-48641
X78232Y-49657
X79185Y-38926
X79248Y-45593
X79248Y-46609
X79248Y-47625
X79248Y-48641
X79248Y-49657
X80264Y-38926
X80264Y-39878
X80264Y-40831
X80264Y-41783
X80264Y-42735
X80264Y-43688
X80264Y-44640
X80264Y-45593
X80264Y-46609
X81280Y-38926
X81280Y-39878
X81280Y-40831
X81280Y-41783
X81280Y-42735
X81280Y-43688
X81280Y-44640
X81280Y-45593
X81280Y-46609
X82296Y-38926
X82296Y-39878
X82296Y-40831
X82296Y-41783
X82296Y-42735
X82296Y-43688
X82296Y-44640
X82296Y-45593
X82296Y-46609
X82296Y-47625
X82296Y-48641
X82296Y-49657
X83312Y-45593
X83312Y-46609
X83312Y-47625
X83312Y-48641
X83312Y-49657
X84328Y-45593
X84328Y-46609
X84328Y-47625
X84328Y-48641
X84328Y-49657
X84899Y-58992
X85344Y-45593
X85344Y-46609
X85344Y-49657
X85598Y-58039
X86360Y-45593
X86360Y-46609
X86360Y-49657
X87579Y-62230
X87884Y-68478
X90170Y-55182
X90488Y-52451
X92456Y-49657
X93345Y-65215
X93408Y-57277
X93408Y-58230
X94488Y-60325
X95885Y-47435
X95885Y-57848
X95948Y-60833
X96647Y-49784
X96647Y-57848
X96647Y-61532
X96901Y-53912
X96901Y-54801
X96965Y-55626
X97409Y-61532
X97473Y-46673
X98298Y-58039
X98425Y-45276
X99060Y-45847
X99060Y-49848
X99631Y-60325
X100584Y-49784
X100584Y-50737
X100648Y-58103
X100711Y-61024
X101473Y-50927
X102934Y-49911
X103759Y-50673
X104140Y-55372
X104394Y-46418
X104394Y-47371
X105283Y-55499
X105283Y-58928
X106426Y-54419
X106617Y-40640
X106871Y-46165
X107759Y-47435
X108077Y-61976
X109411Y-40640
X110299Y-62040
X113602Y-46800
X117094Y-56261
T2
X52959Y-49085
X52959Y-50546
X52959Y-52007
X52959Y-53467
X52959Y-54928
X52959Y-56388
X52959Y-57848
X52959Y-59309
X52959Y-60770
X52959Y-62230
X52959Y-63690
X52959Y-65151
X52959Y-66611
X52959Y-68072
X52959Y-69533
X52959Y-70993
X52959Y-72453
X53350Y-37500
X53833Y-36333
X53833Y-38667
X54419Y-49085
X54419Y-50546
X54419Y-52007
X54419Y-53467
X54419Y-54928
X54419Y-56388
X54419Y-57785
X54419Y-59309
X54419Y-60770
X54419Y-62230
X54419Y-63690
X54419Y-65151
X54419Y-66675
X54419Y-68072
X54419Y-69533
X54419Y-70993
X54419Y-72453
X55000Y-35850
X55000Y-39150
X55880Y-49085
X55880Y-50546
X55880Y-52007
X55880Y-53467
X55880Y-54928
X55880Y-56388
X55880Y-57785
X55880Y-59309
X55880Y-60770
X55880Y-62230
X55880Y-63690
X55880Y-65151
X55880Y-66675
X55880Y-68136
X55880Y-69533
X55880Y-70993
X55880Y-72453
X56167Y-36333
X56167Y-38667
X56650Y-37500
X57214Y-66675
X57214Y-67818
X57214Y-68961
X57340Y-49085
X58103Y-54991
X58357Y-66675
X58357Y-67818
X58357Y-68961
X58801Y-49085
X59246Y-54991
X59500Y-66675
X59500Y-67818
X59500Y-68961
X60262Y-49085
X60389Y-54991
X60643Y-66675
X60643Y-67818
X60643Y-68961
X61722Y-49085
X61786Y-66675
X61786Y-67818
X61786Y-68961
X62293Y-56070
X62293Y-57023
X62293Y-57976
X62293Y-58928
X63182Y-46228
X63182Y-47625
X63182Y-49085
X63246Y-56070
X63246Y-57023
X63246Y-57976
X63246Y-58928
X63944Y-65468
X63944Y-66548
X63944Y-67628
X64198Y-56070
X64198Y-57023
X64198Y-57976
X64198Y-58928
X64516Y-46165
X64516Y-47625
X64516Y-49085
X64897Y-65468
X64897Y-66548
X64897Y-67628
X65977Y-46165
X65977Y-47625
X65977Y-49085
X66675Y-56007
X66675Y-56960
X66675Y-57912
X66675Y-58865
X67056Y-65468
X67056Y-66548
X67056Y-67628
X67310Y-61976
X67628Y-56007
X67628Y-56960
X67628Y-57912
X67628Y-58865
X68009Y-65468
X68009Y-66548
X68009Y-67628
X68326Y-61976
X68390Y-49022
X68390Y-49911
X69342Y-61976
X69406Y-49022
X69406Y-49911
X69659Y-35750
X69659Y-37211
X69659Y-38672
X69659Y-40132
X70358Y-61976
X70422Y-49022
X70422Y-49911
X71120Y-35750
X71120Y-37211
X71120Y-38672
X71120Y-40132
X71374Y-61976
X72390Y-61976
X72581Y-35750
X72581Y-37211
X72581Y-38672
X72581Y-40132
X73406Y-61976
X74041Y-35750
X74041Y-37211
X74041Y-38672
X74041Y-40132
X74422Y-61976
X75501Y-35750
X75501Y-37211
X75501Y-38672
X75501Y-40132
X75565Y-56007
X75565Y-57150
X75565Y-58293
X75565Y-59436
X75565Y-60579
X75629Y-64008
X75629Y-65151
X75629Y-66294
X75629Y-67437
X76708Y-56007
X76708Y-57150
X76708Y-58293
X76708Y-59436
X76708Y-60579
X76708Y-64008
X76708Y-65151
X76708Y-66294
X76708Y-67437
X76899Y-35750
X76962Y-37211
X77851Y-56007
X77851Y-57150
X77851Y-58293
X77851Y-59436
X77851Y-60579
X77851Y-64008
X77851Y-65151
X77851Y-66294
X77851Y-67437
X78423Y-35750
X78423Y-37211
X78994Y-56007
X78994Y-57150
X78994Y-58293
X78994Y-59436
X78994Y-60579
X78994Y-64008
X78994Y-65151
X78994Y-66294
X78994Y-67437
X79883Y-35750
X79883Y-37211
X80137Y-56007
X80137Y-57150
X80137Y-58293
X80137Y-59436
X80137Y-60579
X80137Y-64008
X80137Y-65151
X80137Y-66294
X80137Y-67437
X81280Y-56007
X81280Y-57150
X81280Y-58293
X81280Y-59436
X81280Y-60579
X81280Y-64008
X81280Y-65151
X81280Y-66294
X81280Y-67437
X81344Y-35750
X81344Y-37211
X82423Y-56007
X82423Y-57150
X82423Y-58293
X82423Y-59436
X82423Y-60579
X82423Y-61722
X82423Y-62865
X82423Y-64008
X82423Y-65151
X82423Y-66294
X82423Y-67437
X82804Y-35750
X82804Y-37211
X84265Y-35750
X84265Y-37211
X84265Y-38672
X84265Y-40132
X85725Y-35750
X85725Y-37211
X85725Y-38672
X87186Y-35750
X87186Y-37211
X87186Y-38672
X87186Y-40132
X87313Y-70993
X87313Y-72453
X88773Y-70993
X88773Y-72453
X90233Y-70993
X90233Y-72453
X90868Y-69533
X92329Y-68072
X92329Y-69533
X108331Y-56388
X108966Y-58547
X109474Y-51308
X115350Y-37500
X115350Y-70500
X115833Y-36333
X115833Y-38667
X115833Y-69333
X115833Y-71667
X117000Y-35850
X117000Y-39150
X117000Y-68850
X117000Y-72150
X118167Y-36333
X118167Y-38667
X118167Y-69333
X118167Y-71667
X118650Y-37500
X118650Y-70500
T3
X91821Y-43371
X94321Y-43371
X96379Y-64135
X96821Y-43371
X98879Y-64135
X99321Y-43371
X101379Y-64135
X103879Y-64135
X106379Y-64135
X108879Y-64135
X111379Y-64135
T4
X71819Y-66104
X71882Y-57976
X78105Y-62040
T5
X105156Y-61532
X115316Y-61532
T7
X55000Y-37500
X117000Y-37500
X117000Y-70500
T6
X59286Y-60430G85X59286Y-56430
G05
X61753Y-64198G85X57753Y-64198
G05
X74528Y-42569G85X70528Y-42569
G05
X78296Y-40101G85X78296Y-44101
G05
T0
M30
